# Rhino

g object_1
v 13.697749137878418 0 -23.737009048461914
v 13.697749137878418 5 -23.737009048461914
v 14.297749519348145 0 -23.737009048461914
v 14.297749519348145 5 -23.737009048461914
v 14.297749519348145 0 -24.337009429931641
v 14.297749519348145 5 -24.337009429931641
v 13.697749137878418 0 -24.337009429931641
v 13.697749137878418 5 -24.337009429931641
vt 0.99853515625 0.6696428656578064
vt 0.1071428582072258 0.6696428656578064
vt 0.99853515625 0.77678573131561279
vt 0.1071428582072258 0.77678573131561279
vt 0 0
vt 0 0.8913922905921936
vt 0.1056780144572258 0
vt 0.1056780144572258 0.8913922905921936
vt 0.99853515625 0.4464285671710968
vt 0.1071428582072258 0.4464285671710968
vt 0.99853515625 0.55357140302658081
vt 0.1071428582072258 0.55357140302658081
vt 0.99853515625 0.2232142835855484
vt 0.1071428582072258 0.2232142835855484
vt 0.99853515625 0.3303571343421936
vt 0.1071428582072258 0.3303571343421936
vt 0.55357140302658081 0
vt 0.55357140302658081 0.1071428582072258
vt 0.66071426868438721 0
vt 0.66071426868438721 0.1071428582072258
vt 0.1071428582072258 0
vt 0.1071428582072258 0.1071428582072258
vt 0.2142857164144516 0
vt 0.2142857164144516 0.1071428582072258
vn 0 0 1
vn 0 0 1
vn 0 0 1
vn 0 0 1
vn 1 0 0
vn 1 0 0
vn 1 0 0
vn 1 0 0
vn 0 0 -1
vn 0 0 -1
vn 0 0 -1
vn 0 0 -1
vn -1 0 0
vn -1 0 0
vn -1 0 0
vn -1 0 0
vn 0 -1 0
vn 0 -1 0
vn 0 -1 0
vn 0 -1 0
vn 0 1 0
vn 0 1 0
vn 0 1 0
vn 0 1 0
f 2/2/2 1/1/1 3/3/3 4/4/4
f 4/6/6 3/5/5 5/7/7 6/8/8
f 6/10/10 5/9/9 7/11/11 8/12/12
f 8/14/14 7/13/13 1/15/15 2/16/16
f 3/18/18 1/17/17 7/19/19 5/20/20
f 8/22/22 2/21/21 4/23/23 6/24/24
g object_2
v 13.697749137878418 0 -19.787820816040039
v 13.697749137878418 5 -19.787820816040039
v 14.297749519348145 0 -19.787820816040039
v 14.297749519348145 5 -19.787820816040039
v 14.297749519348145 0 -20.387819290161133
v 14.297749519348145 5 -20.387819290161133
v 13.697749137878418 0 -20.387819290161133
v 13.697749137878418 5 -20.387819290161133
vt 0.99853515625 0.6696428656578064
vt 0.1071428582072258 0.6696428656578064
vt 0.99853515625 0.77678573131561279
vt 0.1071428582072258 0.77678573131561279
vt 0 0
vt 0 0.8913922905921936
vt 0.1056780144572258 0
vt 0.1056780144572258 0.8913922905921936
vt 0.99853515625 0.4464285671710968
vt 0.1071428582072258 0.4464285671710968
vt 0.99853515625 0.55357140302658081
vt 0.1071428582072258 0.55357140302658081
vt 0.99853515625 0.2232142835855484
vt 0.1071428582072258 0.2232142835855484
vt 0.99853515625 0.3303571343421936
vt 0.1071428582072258 0.3303571343421936
vt 0.55357140302658081 0
vt 0.55357140302658081 0.1071428582072258
vt 0.66071426868438721 0
vt 0.66071426868438721 0.1071428582072258
vt 0.1071428582072258 0
vt 0.1071428582072258 0.1071428582072258
vt 0.2142857164144516 0
vt 0.2142857164144516 0.1071428582072258
vn 0 0 1
vn 0 0 1
vn 0 0 1
vn 0 0 1
vn 1 0 0
vn 1 0 0
vn 1 0 0
vn 1 0 0
vn 0 0 -1
vn 0 0 -1
vn 0 0 -1
vn 0 0 -1
vn -1 0 0
vn -1 0 0
vn -1 0 0
vn -1 0 0
vn 0 -1 0
vn 0 -1 0
vn 0 -1 0
vn 0 -1 0
vn 0 1 0
vn 0 1 0
vn 0 1 0
vn 0 1 0
f 10/26/26 9/25/25 11/27/27 12/28/28
f 12/30/30 11/29/29 13/31/31 14/32/32
f 14/34/34 13/33/33 15/35/35 16/36/36
f 16/38/38 15/37/37 9/39/39 10/40/40
f 11/42/42 9/41/41 15/43/43 13/44/44
f 16/46/46 10/45/45 12/47/47 14/48/48
g object_3
v 13.697749137878418 0 -15.838629722595215
v 13.697749137878418 5 -15.838629722595215
v 14.297749519348145 0 -15.838629722595215
v 14.297749519348145 5 -15.838629722595215
v 14.297749519348145 0 -16.438629150390625
v 14.297749519348145 5 -16.438629150390625
v 13.697749137878418 0 -16.438629150390625
v 13.697749137878418 5 -16.438629150390625
vt 0.99853515625 0.6696428656578064
vt 0.1071428582072258 0.6696428656578064
vt 0.99853515625 0.77678573131561279
vt 0.1071428582072258 0.77678573131561279
vt 0 0
vt 0 0.8913922905921936
vt 0.1056780144572258 0
vt 0.1056780144572258 0.8913922905921936
vt 0.99853515625 0.4464285671710968
vt 0.1071428582072258 0.4464285671710968
vt 0.99853515625 0.55357140302658081
vt 0.1071428582072258 0.55357140302658081
vt 0.99853515625 0.2232142835855484
vt 0.1071428582072258 0.2232142835855484
vt 0.99853515625 0.3303571343421936
vt 0.1071428582072258 0.3303571343421936
vt 0.55357140302658081 0
vt 0.55357140302658081 0.1071428582072258
vt 0.66071426868438721 0
vt 0.66071426868438721 0.1071428582072258
vt 0.1071428582072258 0
vt 0.1071428582072258 0.1071428582072258
vt 0.2142857164144516 0
vt 0.2142857164144516 0.1071428582072258
vn 0 0 1
vn 0 0 1
vn 0 0 1
vn 0 0 1
vn 1 0 0
vn 1 0 0
vn 1 0 0
vn 1 0 0
vn 0 0 -1
vn 0 0 -1
vn 0 0 -1
vn 0 0 -1
vn -1 0 0
vn -1 0 0
vn -1 0 0
vn -1 0 0
vn 0 -1 0
vn 0 -1 0
vn 0 -1 0
vn 0 -1 0
vn 0 1 0
vn 0 1 0
vn 0 1 0
vn 0 1 0
f 18/50/50 17/49/49 19/51/51 20/52/52
f 20/54/54 19/53/53 21/55/55 22/56/56
f 22/58/58 21/57/57 23/59/59 24/60/60
f 24/62/62 23/61/61 17/63/63 18/64/64
f 19/66/66 17/65/65 23/67/67 21/68/68
f 24/70/70 18/69/69 20/71/71 22/72/72
g object_4
v 13.697749137878418 0 -11.889439582824707
v 13.697749137878418 5 -11.889439582824707
v 14.297749519348145 0 -11.889439582824707
v 14.297749519348145 5 -11.889439582824707
v 14.297749519348145 0 -12.489439964294434
v 14.297749519348145 5 -12.489439964294434
v 13.697749137878418 0 -12.489439964294434
v 13.697749137878418 5 -12.489439964294434
vt 0.99853515625 0.6696428656578064
vt 0.1071428582072258 0.6696428656578064
vt 0.99853515625 0.77678573131561279
vt 0.1071428582072258 0.77678573131561279
vt 0 0
vt 0 0.8913922905921936
vt 0.1056780144572258 0
vt 0.1056780144572258 0.8913922905921936
vt 0.99853515625 0.4464285671710968
vt 0.1071428582072258 0.4464285671710968
vt 0.99853515625 0.55357140302658081
vt 0.1071428582072258 0.55357140302658081
vt 0.99853515625 0.2232142835855484
vt 0.1071428582072258 0.2232142835855484
vt 0.99853515625 0.3303571343421936
vt 0.1071428582072258 0.3303571343421936
vt 0.55357140302658081 0
vt 0.55357140302658081 0.1071428582072258
vt 0.66071426868438721 0
vt 0.66071426868438721 0.1071428582072258
vt 0.1071428582072258 0
vt 0.1071428582072258 0.1071428582072258
vt 0.2142857164144516 0
vt 0.2142857164144516 0.1071428582072258
vn 0 0 1
vn 0 0 1
vn 0 0 1
vn 0 0 1
vn 1 0 0
vn 1 0 0
vn 1 0 0
vn 1 0 0
vn 0 0 -1
vn 0 0 -1
vn 0 0 -1
vn 0 0 -1
vn -1 0 0
vn -1 0 0
vn -1 0 0
vn -1 0 0
vn 0 -1 0
vn 0 -1 0
vn 0 -1 0
vn 0 -1 0
vn 0 1 0
vn 0 1 0
vn 0 1 0
vn 0 1 0
f 26/74/74 25/73/73 27/75/75 28/76/76
f 28/78/78 27/77/77 29/79/79 30/80/80
f 30/82/82 29/81/81 31/83/83 32/84/84
f 32/86/86 31/85/85 25/87/87 26/88/88
f 27/90/90 25/89/89 31/91/91 29/92/92
f 32/94/94 26/93/93 28/95/95 30/96/96
g object_5
v 21.697750091552734 0 -23.737009048461914
v 21.697750091552734 5 -23.737009048461914
v 22.297748565673828 0 -23.737009048461914
v 22.297748565673828 5 -23.737009048461914
v 22.297748565673828 0 -24.337009429931641
v 22.297748565673828 5 -24.337009429931641
v 21.697750091552734 0 -24.337009429931641
v 21.697750091552734 5 -24.337009429931641
vt 0.99853515625 0.6696428656578064
vt 0.1071428582072258 0.6696428656578064
vt 0.99853515625 0.77678573131561279
vt 0.1071428582072258 0.77678573131561279
vt 0 0
vt 0 0.8913922905921936
vt 0.1056780144572258 0
vt 0.1056780144572258 0.8913922905921936
vt 0.99853515625 0.4464285671710968
vt 0.1071428582072258 0.4464285671710968
vt 0.99853515625 0.55357140302658081
vt 0.1071428582072258 0.55357140302658081
vt 0.99853515625 0.2232142835855484
vt 0.1071428582072258 0.2232142835855484
vt 0.99853515625 0.3303571343421936
vt 0.1071428582072258 0.3303571343421936
vt 0.55357140302658081 0
vt 0.55357140302658081 0.1071428582072258
vt 0.66071426868438721 0
vt 0.66071426868438721 0.1071428582072258
vt 0.1071428582072258 0
vt 0.1071428582072258 0.1071428582072258
vt 0.2142857164144516 0
vt 0.2142857164144516 0.1071428582072258
vn 0 0 1
vn 0 0 1
vn 0 0 1
vn 0 0 1
vn 1 0 0
vn 1 0 0
vn 1 0 0
vn 1 0 0
vn 0 0 -1
vn 0 0 -1
vn 0 0 -1
vn 0 0 -1
vn -1 0 0
vn -1 0 0
vn -1 0 0
vn -1 0 0
vn 0 -1 0
vn 0 -1 0
vn 0 -1 0
vn 0 -1 0
vn 0 1 0
vn 0 1 0
vn 0 1 0
vn 0 1 0
f 34/98/98 33/97/97 35/99/99 36/100/100
f 36/102/102 35/101/101 37/103/103 38/104/104
f 38/106/106 37/105/105 39/107/107 40/108/108
f 40/110/110 39/109/109 33/111/111 34/112/112
f 35/114/114 33/113/113 39/115/115 37/116/116
f 40/118/118 34/117/117 36/119/119 38/120/120
g object_6
v 21.697750091552734 0 -19.787820816040039
v 21.697750091552734 5 -19.787820816040039
v 22.297748565673828 0 -19.787820816040039
v 22.297748565673828 5 -19.787820816040039
v 22.297748565673828 0 -20.387819290161133
v 22.297748565673828 5 -20.387819290161133
v 21.697750091552734 0 -20.387819290161133
v 21.697750091552734 5 -20.387819290161133
vt 0.99853515625 0.6696428656578064
vt 0.1071428582072258 0.6696428656578064
vt 0.99853515625 0.77678573131561279
vt 0.1071428582072258 0.77678573131561279
vt 0 0
vt 0 0.8913922905921936
vt 0.1056780144572258 0
vt 0.1056780144572258 0.8913922905921936
vt 0.99853515625 0.4464285671710968
vt 0.1071428582072258 0.4464285671710968
vt 0.99853515625 0.55357140302658081
vt 0.1071428582072258 0.55357140302658081
vt 0.99853515625 0.2232142835855484
vt 0.1071428582072258 0.2232142835855484
vt 0.99853515625 0.3303571343421936
vt 0.1071428582072258 0.3303571343421936
vt 0.55357140302658081 0
vt 0.55357140302658081 0.1071428582072258
vt 0.66071426868438721 0
vt 0.66071426868438721 0.1071428582072258
vt 0.1071428582072258 0
vt 0.1071428582072258 0.1071428582072258
vt 0.2142857164144516 0
vt 0.2142857164144516 0.1071428582072258
vn 0 0 1
vn 0 0 1
vn 0 0 1
vn 0 0 1
vn 1 0 0
vn 1 0 0
vn 1 0 0
vn 1 0 0
vn 0 0 -1
vn 0 0 -1
vn 0 0 -1
vn 0 0 -1
vn -1 0 0
vn -1 0 0
vn -1 0 0
vn -1 0 0
vn 0 -1 0
vn 0 -1 0
vn 0 -1 0
vn 0 -1 0
vn 0 1 0
vn 0 1 0
vn 0 1 0
vn 0 1 0
f 42/122/122 41/121/121 43/123/123 44/124/124
f 44/126/126 43/125/125 45/127/127 46/128/128
f 46/130/130 45/129/129 47/131/131 48/132/132
f 48/134/134 47/133/133 41/135/135 42/136/136
f 43/138/138 41/137/137 47/139/139 45/140/140
f 48/142/142 42/141/141 44/143/143 46/144/144
g object_7
v 21.697750091552734 0 -15.838629722595215
v 21.697750091552734 5 -15.838629722595215
v 22.297748565673828 0 -15.838629722595215
v 22.297748565673828 5 -15.838629722595215
v 22.297748565673828 0 -16.438629150390625
v 22.297748565673828 5 -16.438629150390625
v 21.697750091552734 0 -16.438629150390625
v 21.697750091552734 5 -16.438629150390625
vt 0.99853515625 0.6696428656578064
vt 0.1071428582072258 0.6696428656578064
vt 0.99853515625 0.77678573131561279
vt 0.1071428582072258 0.77678573131561279
vt 0 0
vt 0 0.8913922905921936
vt 0.1056780144572258 0
vt 0.1056780144572258 0.8913922905921936
vt 0.99853515625 0.4464285671710968
vt 0.1071428582072258 0.4464285671710968
vt 0.99853515625 0.55357140302658081
vt 0.1071428582072258 0.55357140302658081
vt 0.99853515625 0.2232142835855484
vt 0.1071428582072258 0.2232142835855484
vt 0.99853515625 0.3303571343421936
vt 0.1071428582072258 0.3303571343421936
vt 0.55357140302658081 0
vt 0.55357140302658081 0.1071428582072258
vt 0.66071426868438721 0
vt 0.66071426868438721 0.1071428582072258
vt 0.1071428582072258 0
vt 0.1071428582072258 0.1071428582072258
vt 0.2142857164144516 0
vt 0.2142857164144516 0.1071428582072258
vn 0 0 1
vn 0 0 1
vn 0 0 1
vn 0 0 1
vn 1 0 0
vn 1 0 0
vn 1 0 0
vn 1 0 0
vn 0 0 -1
vn 0 0 -1
vn 0 0 -1
vn 0 0 -1
vn -1 0 0
vn -1 0 0
vn -1 0 0
vn -1 0 0
vn 0 -1 0
vn 0 -1 0
vn 0 -1 0
vn 0 -1 0
vn 0 1 0
vn 0 1 0
vn 0 1 0
vn 0 1 0
f 50/146/146 49/145/145 51/147/147 52/148/148
f 52/150/150 51/149/149 53/151/151 54/152/152
f 54/154/154 53/153/153 55/155/155 56/156/156
f 56/158/158 55/157/157 49/159/159 50/160/160
f 51/162/162 49/161/161 55/163/163 53/164/164
f 56/166/166 50/165/165 52/167/167 54/168/168
g object_8
v 21.697750091552734 0 -11.889439582824707
v 21.697750091552734 5 -11.889439582824707
v 22.297748565673828 0 -11.889439582824707
v 22.297748565673828 5 -11.889439582824707
v 22.297748565673828 0 -12.489439964294434
v 22.297748565673828 5 -12.489439964294434
v 21.697750091552734 0 -12.489439964294434
v 21.697750091552734 5 -12.489439964294434
vt 0.99853515625 0.6696428656578064
vt 0.1071428582072258 0.6696428656578064
vt 0.99853515625 0.77678573131561279
vt 0.1071428582072258 0.77678573131561279
vt 0 0
vt 0 0.8913922905921936
vt 0.1056780144572258 0
vt 0.1056780144572258 0.8913922905921936
vt 0.99853515625 0.4464285671710968
vt 0.1071428582072258 0.4464285671710968
vt 0.99853515625 0.55357140302658081
vt 0.1071428582072258 0.55357140302658081
vt 0.99853515625 0.2232142835855484
vt 0.1071428582072258 0.2232142835855484
vt 0.99853515625 0.3303571343421936
vt 0.1071428582072258 0.3303571343421936
vt 0.55357140302658081 0
vt 0.55357140302658081 0.1071428582072258
vt 0.66071426868438721 0
vt 0.66071426868438721 0.1071428582072258
vt 0.1071428582072258 0
vt 0.1071428582072258 0.1071428582072258
vt 0.2142857164144516 0
vt 0.2142857164144516 0.1071428582072258
vn 0 0 1
vn 0 0 1
vn 0 0 1
vn 0 0 1
vn 1 0 0
vn 1 0 0
vn 1 0 0
vn 1 0 0
vn 0 0 -1
vn 0 0 -1
vn 0 0 -1
vn 0 0 -1
vn -1 0 0
vn -1 0 0
vn -1 0 0
vn -1 0 0
vn 0 -1 0
vn 0 -1 0
vn 0 -1 0
vn 0 -1 0
vn 0 1 0
vn 0 1 0
vn 0 1 0
vn 0 1 0
f 58/170/170 57/169/169 59/171/171 60/172/172
f 60/174/174 59/173/173 61/175/175 62/176/176
f 62/178/178 61/177/177 63/179/179 64/180/180
f 64/182/182 63/181/181 57/183/183 58/184/184
f 59/186/186 57/185/185 63/187/187 61/188/188
f 64/190/190 58/189/189 60/191/191 62/192/192
g object_9
v 13.697749137878418 0 -47.686199188232422
v 13.697749137878418 5 -47.686199188232422
v 14.297749519348145 0 -47.686199188232422
v 14.297749519348145 5 -47.686199188232422
v 14.297749519348145 0 -48.286201477050781
v 14.297749519348145 5 -48.286201477050781
v 13.697749137878418 0 -48.286201477050781
v 13.697749137878418 5 -48.286201477050781
vt 0.99853515625 0.6696428656578064
vt 0.1071428582072258 0.6696428656578064
vt 0.99853515625 0.77678573131561279
vt 0.1071428582072258 0.77678573131561279
vt 0.99853515625 0.4464285671710968
vt 0.1071428582072258 0.4464285671710968
vt 0.99853515625 0.55357140302658081
vt 0.1071428582072258 0.55357140302658081
vt 0 0
vt 0 0.8913922905921936
vt 0.1056780144572258 0
vt 0.1056780144572258 0.8913922905921936
vt 0.99853515625 0.2232142835855484
vt 0.1071428582072258 0.2232142835855484
vt 0.99853515625 0.3303571343421936
vt 0.1071428582072258 0.3303571343421936
vt 0.55357140302658081 0
vt 0.55357140302658081 0.1071428582072258
vt 0.66071426868438721 0
vt 0.66071426868438721 0.1071428582072258
vt 0.2142857164144516 0
vt 0.1071428582072258 0
vt 0.2142857164144516 0.1071428582072258
vt 0.1071428582072258 0.1071428582072258
vn 0 0 1
vn 0 0 1
vn 0 0 1
vn 0 0 1
vn 1 0 0
vn 1 0 0
vn 1 0 0
vn 1 0 0
vn 0 0 -1
vn 0 0 -1
vn 0 0 -1
vn 0 0 -1
vn -1 0 0
vn -1 0 0
vn -1 0 0
vn -1 0 0
vn 0 -1 0
vn 0 -1 0
vn 0 -1 0
vn 0 -1 0
vn 0 1 0
vn 0 1 0
vn 0 1 0
vn 0 1 0
f 66/194/194 65/193/193 67/195/195 68/196/196
f 68/198/198 67/197/197 69/199/199 70/200/200
f 70/202/202 69/201/201 71/203/203 72/204/204
f 72/206/206 71/205/205 65/207/207 66/208/208
f 67/210/210 65/209/209 71/211/211 69/212/212
f 72/214/214 66/213/213 68/215/215 70/216/216
g object_10
v 13.697749137878418 0 -43.686199188232422
v 13.697749137878418 5 -43.686199188232422
v 14.297749519348145 0 -43.686199188232422
v 14.297749519348145 5 -43.686199188232422
v 14.297749519348145 0 -44.286201477050781
v 14.297749519348145 5 -44.286201477050781
v 13.697749137878418 0 -44.286201477050781
v 13.697749137878418 5 -44.286201477050781
vt 0.99853515625 0.6696428656578064
vt 0.1071428582072258 0.6696428656578064
vt 0.99853515625 0.77678573131561279
vt 0.1071428582072258 0.77678573131561279
vt 0.99853515625 0.4464285671710968
vt 0.1071428582072258 0.4464285671710968
vt 0.99853515625 0.55357140302658081
vt 0.1071428582072258 0.55357140302658081
vt 0 0
vt 0 0.8913922905921936
vt 0.1056780144572258 0
vt 0.1056780144572258 0.8913922905921936
vt 0.99853515625 0.2232142835855484
vt 0.1071428582072258 0.2232142835855484
vt 0.99853515625 0.3303571343421936
vt 0.1071428582072258 0.3303571343421936
vt 0.55357140302658081 0
vt 0.55357140302658081 0.1071428582072258
vt 0.66071426868438721 0
vt 0.66071426868438721 0.1071428582072258
vt 0.2142857164144516 0
vt 0.1071428582072258 0
vt 0.2142857164144516 0.1071428582072258
vt 0.1071428582072258 0.1071428582072258
vn 0 0 1
vn 0 0 1
vn 0 0 1
vn 0 0 1
vn 1 0 0
vn 1 0 0
vn 1 0 0
vn 1 0 0
vn 0 0 -1
vn 0 0 -1
vn 0 0 -1
vn 0 0 -1
vn -1 0 0
vn -1 0 0
vn -1 0 0
vn -1 0 0
vn 0 -1 0
vn 0 -1 0
vn 0 -1 0
vn 0 -1 0
vn 0 1 0
vn 0 1 0
vn 0 1 0
vn 0 1 0
f 74/218/218 73/217/217 75/219/219 76/220/220
f 76/222/222 75/221/221 77/223/223 78/224/224
f 78/226/226 77/225/225 79/227/227 80/228/228
f 80/230/230 79/229/229 73/231/231 74/232/232
f 75/234/234 73/233/233 79/235/235 77/236/236
f 80/238/238 74/237/237 76/239/239 78/240/240
g object_11
v 13.697749137878418 0 -39.686199188232422
v 13.697749137878418 5 -39.686199188232422
v 14.297749519348145 0 -39.686199188232422
v 14.297749519348145 5 -39.686199188232422
v 14.297749519348145 0 -40.286201477050781
v 14.297749519348145 5 -40.286201477050781
v 13.697749137878418 0 -40.286201477050781
v 13.697749137878418 5 -40.286201477050781
vt 0.99853515625 0.6696428656578064
vt 0.1071428582072258 0.6696428656578064
vt 0.99853515625 0.77678573131561279
vt 0.1071428582072258 0.77678573131561279
vt 0.99853515625 0.4464285671710968
vt 0.1071428582072258 0.4464285671710968
vt 0.99853515625 0.55357140302658081
vt 0.1071428582072258 0.55357140302658081
vt 0 0
vt 0 0.8913922905921936
vt 0.1056780144572258 0
vt 0.1056780144572258 0.8913922905921936
vt 0.99853515625 0.2232142835855484
vt 0.1071428582072258 0.2232142835855484
vt 0.99853515625 0.3303571343421936
vt 0.1071428582072258 0.3303571343421936
vt 0.55357140302658081 0
vt 0.55357140302658081 0.1071428582072258
vt 0.66071426868438721 0
vt 0.66071426868438721 0.1071428582072258
vt 0.2142857164144516 0
vt 0.1071428582072258 0
vt 0.2142857164144516 0.1071428582072258
vt 0.1071428582072258 0.1071428582072258
vn 0 0 1
vn 0 0 1
vn 0 0 1
vn 0 0 1
vn 1 0 0
vn 1 0 0
vn 1 0 0
vn 1 0 0
vn 0 0 -1
vn 0 0 -1
vn 0 0 -1
vn 0 0 -1
vn -1 0 0
vn -1 0 0
vn -1 0 0
vn -1 0 0
vn 0 -1 0
vn 0 -1 0
vn 0 -1 0
vn 0 -1 0
vn 0 1 0
vn 0 1 0
vn 0 1 0
vn 0 1 0
f 82/242/242 81/241/241 83/243/243 84/244/244
f 84/246/246 83/245/245 85/247/247 86/248/248
f 86/250/250 85/249/249 87/251/251 88/252/252
f 88/254/254 87/253/253 81/255/255 82/256/256
f 83/258/258 81/257/257 87/259/259 85/260/260
f 88/262/262 82/261/261 84/263/263 86/264/264
g object_12
v 13.697749137878418 0 -35.686199188232422
v 13.697749137878418 5 -35.686199188232422
v 14.297749519348145 0 -35.686199188232422
v 14.297749519348145 5 -35.686199188232422
v 14.297749519348145 0 -36.286201477050781
v 14.297749519348145 5 -36.286201477050781
v 13.697749137878418 0 -36.286201477050781
v 13.697749137878418 5 -36.286201477050781
vt 0.99853515625 0.6696428656578064
vt 0.1071428582072258 0.6696428656578064
vt 0.99853515625 0.77678573131561279
vt 0.1071428582072258 0.77678573131561279
vt 0.99853515625 0.4464285671710968
vt 0.1071428582072258 0.4464285671710968
vt 0.99853515625 0.55357140302658081
vt 0.1071428582072258 0.55357140302658081
vt 0 0
vt 0 0.8913922905921936
vt 0.1056780144572258 0
vt 0.1056780144572258 0.8913922905921936
vt 0.99853515625 0.2232142835855484
vt 0.1071428582072258 0.2232142835855484
vt 0.99853515625 0.3303571343421936
vt 0.1071428582072258 0.3303571343421936
vt 0.55357140302658081 0
vt 0.55357140302658081 0.1071428582072258
vt 0.66071426868438721 0
vt 0.66071426868438721 0.1071428582072258
vt 0.2142857164144516 0
vt 0.1071428582072258 0
vt 0.2142857164144516 0.1071428582072258
vt 0.1071428582072258 0.1071428582072258
vn 0 0 1
vn 0 0 1
vn 0 0 1
vn 0 0 1
vn 1 0 0
vn 1 0 0
vn 1 0 0
vn 1 0 0
vn 0 0 -1
vn 0 0 -1
vn 0 0 -1
vn 0 0 -1
vn -1 0 0
vn -1 0 0
vn -1 0 0
vn -1 0 0
vn 0 -1 0
vn 0 -1 0
vn 0 -1 0
vn 0 -1 0
vn 0 1 0
vn 0 1 0
vn 0 1 0
vn 0 1 0
f 90/266/266 89/265/265 91/267/267 92/268/268
f 92/270/270 91/269/269 93/271/271 94/272/272
f 94/274/274 93/273/273 95/275/275 96/276/276
f 96/278/278 95/277/277 89/279/279 90/280/280
f 91/282/282 89/281/281 95/283/283 93/284/284
f 96/286/286 90/285/285 92/287/287 94/288/288
g object_13
v 21.697750091552734 0 -47.686199188232422
v 21.697750091552734 5 -47.686199188232422
v 22.297748565673828 0 -47.686199188232422
v 22.297748565673828 5 -47.686199188232422
v 22.297748565673828 0 -48.286201477050781
v 22.297748565673828 5 -48.286201477050781
v 21.697750091552734 0 -48.286201477050781
v 21.697750091552734 5 -48.286201477050781
vt 0.99853515625 0.6696428656578064
vt 0.1071428582072258 0.6696428656578064
vt 0.99853515625 0.77678573131561279
vt 0.1071428582072258 0.77678573131561279
vt 0.99853515625 0.4464285671710968
vt 0.1071428582072258 0.4464285671710968
vt 0.99853515625 0.55357140302658081
vt 0.1071428582072258 0.55357140302658081
vt 0 0
vt 0 0.8913922905921936
vt 0.1056780144572258 0
vt 0.1056780144572258 0.8913922905921936
vt 0.99853515625 0.2232142835855484
vt 0.1071428582072258 0.2232142835855484
vt 0.99853515625 0.3303571343421936
vt 0.1071428582072258 0.3303571343421936
vt 0.55357140302658081 0
vt 0.55357140302658081 0.1071428582072258
vt 0.66071426868438721 0
vt 0.66071426868438721 0.1071428582072258
vt 0.2142857164144516 0
vt 0.1071428582072258 0
vt 0.2142857164144516 0.1071428582072258
vt 0.1071428582072258 0.1071428582072258
vn 0 0 1
vn 0 0 1
vn 0 0 1
vn 0 0 1
vn 1 0 0
vn 1 0 0
vn 1 0 0
vn 1 0 0
vn 0 0 -1
vn 0 0 -1
vn 0 0 -1
vn 0 0 -1
vn -1 0 0
vn -1 0 0
vn -1 0 0
vn -1 0 0
vn 0 -1 0
vn 0 -1 0
vn 0 -1 0
vn 0 -1 0
vn 0 1 0
vn 0 1 0
vn 0 1 0
vn 0 1 0
f 98/290/290 97/289/289 99/291/291 100/292/292
f 100/294/294 99/293/293 101/295/295 102/296/296
f 102/298/298 101/297/297 103/299/299 104/300/300
f 104/302/302 103/301/301 97/303/303 98/304/304
f 99/306/306 97/305/305 103/307/307 101/308/308
f 104/310/310 98/309/309 100/311/311 102/312/312
g object_14
v 21.697750091552734 0 -43.686199188232422
v 21.697750091552734 5 -43.686199188232422
v 22.297748565673828 0 -43.686199188232422
v 22.297748565673828 5 -43.686199188232422
v 22.297748565673828 0 -44.286201477050781
v 22.297748565673828 5 -44.286201477050781
v 21.697750091552734 0 -44.286201477050781
v 21.697750091552734 5 -44.286201477050781
vt 0.99853515625 0.6696428656578064
vt 0.1071428582072258 0.6696428656578064
vt 0.99853515625 0.77678573131561279
vt 0.1071428582072258 0.77678573131561279
vt 0.99853515625 0.4464285671710968
vt 0.1071428582072258 0.4464285671710968
vt 0.99853515625 0.55357140302658081
vt 0.1071428582072258 0.55357140302658081
vt 0 0
vt 0 0.8913922905921936
vt 0.1056780144572258 0
vt 0.1056780144572258 0.8913922905921936
vt 0.99853515625 0.2232142835855484
vt 0.1071428582072258 0.2232142835855484
vt 0.99853515625 0.3303571343421936
vt 0.1071428582072258 0.3303571343421936
vt 0.55357140302658081 0
vt 0.55357140302658081 0.1071428582072258
vt 0.66071426868438721 0
vt 0.66071426868438721 0.1071428582072258
vt 0.2142857164144516 0
vt 0.1071428582072258 0
vt 0.2142857164144516 0.1071428582072258
vt 0.1071428582072258 0.1071428582072258
vn 0 0 1
vn 0 0 1
vn 0 0 1
vn 0 0 1
vn 1 0 0
vn 1 0 0
vn 1 0 0
vn 1 0 0
vn 0 0 -1
vn 0 0 -1
vn 0 0 -1
vn 0 0 -1
vn -1 0 0
vn -1 0 0
vn -1 0 0
vn -1 0 0
vn 0 -1 0
vn 0 -1 0
vn 0 -1 0
vn 0 -1 0
vn 0 1 0
vn 0 1 0
vn 0 1 0
vn 0 1 0
f 106/314/314 105/313/313 107/315/315 108/316/316
f 108/318/318 107/317/317 109/319/319 110/320/320
f 110/322/322 109/321/321 111/323/323 112/324/324
f 112/326/326 111/325/325 105/327/327 106/328/328
f 107/330/330 105/329/329 111/331/331 109/332/332
f 112/334/334 106/333/333 108/335/335 110/336/336
g object_15
v 21.697750091552734 0 -39.686199188232422
v 21.697750091552734 5 -39.686199188232422
v 22.297748565673828 0 -39.686199188232422
v 22.297748565673828 5 -39.686199188232422
v 22.297748565673828 0 -40.286201477050781
v 22.297748565673828 5 -40.286201477050781
v 21.697750091552734 0 -40.286201477050781
v 21.697750091552734 5 -40.286201477050781
vt 0.99853515625 0.6696428656578064
vt 0.1071428582072258 0.6696428656578064
vt 0.99853515625 0.77678573131561279
vt 0.1071428582072258 0.77678573131561279
vt 0.99853515625 0.4464285671710968
vt 0.1071428582072258 0.4464285671710968
vt 0.99853515625 0.55357140302658081
vt 0.1071428582072258 0.55357140302658081
vt 0 0
vt 0 0.8913922905921936
vt 0.1056780144572258 0
vt 0.1056780144572258 0.8913922905921936
vt 0.99853515625 0.2232142835855484
vt 0.1071428582072258 0.2232142835855484
vt 0.99853515625 0.3303571343421936
vt 0.1071428582072258 0.3303571343421936
vt 0.55357140302658081 0
vt 0.55357140302658081 0.1071428582072258
vt 0.66071426868438721 0
vt 0.66071426868438721 0.1071428582072258
vt 0.2142857164144516 0
vt 0.1071428582072258 0
vt 0.2142857164144516 0.1071428582072258
vt 0.1071428582072258 0.1071428582072258
vn 0 0 1
vn 0 0 1
vn 0 0 1
vn 0 0 1
vn 1 0 0
vn 1 0 0
vn 1 0 0
vn 1 0 0
vn 0 0 -1
vn 0 0 -1
vn 0 0 -1
vn 0 0 -1
vn -1 0 0
vn -1 0 0
vn -1 0 0
vn -1 0 0
vn 0 -1 0
vn 0 -1 0
vn 0 -1 0
vn 0 -1 0
vn 0 1 0
vn 0 1 0
vn 0 1 0
vn 0 1 0
f 114/338/338 113/337/337 115/339/339 116/340/340
f 116/342/342 115/341/341 117/343/343 118/344/344
f 118/346/346 117/345/345 119/347/347 120/348/348
f 120/350/350 119/349/349 113/351/351 114/352/352
f 115/354/354 113/353/353 119/355/355 117/356/356
f 120/358/358 114/357/357 116/359/359 118/360/360
g object_16
v 21.697750091552734 0 -35.686199188232422
v 21.697750091552734 5 -35.686199188232422
v 22.297748565673828 0 -35.686199188232422
v 22.297748565673828 5 -35.686199188232422
v 22.297748565673828 0 -36.286201477050781
v 22.297748565673828 5 -36.286201477050781
v 21.697750091552734 0 -36.286201477050781
v 21.697750091552734 5 -36.286201477050781
vt 0.99853515625 0.6696428656578064
vt 0.1071428582072258 0.6696428656578064
vt 0.99853515625 0.77678573131561279
vt 0.1071428582072258 0.77678573131561279
vt 0.99853515625 0.4464285671710968
vt 0.1071428582072258 0.4464285671710968
vt 0.99853515625 0.55357140302658081
vt 0.1071428582072258 0.55357140302658081
vt 0 0
vt 0 0.8913922905921936
vt 0.1056780144572258 0
vt 0.1056780144572258 0.8913922905921936
vt 0.99853515625 0.2232142835855484
vt 0.1071428582072258 0.2232142835855484
vt 0.99853515625 0.3303571343421936
vt 0.1071428582072258 0.3303571343421936
vt 0.55357140302658081 0
vt 0.55357140302658081 0.1071428582072258
vt 0.66071426868438721 0
vt 0.66071426868438721 0.1071428582072258
vt 0.2142857164144516 0
vt 0.1071428582072258 0
vt 0.2142857164144516 0.1071428582072258
vt 0.1071428582072258 0.1071428582072258
vn 0 0 1
vn 0 0 1
vn 0 0 1
vn 0 0 1
vn 1 0 0
vn 1 0 0
vn 1 0 0
vn 1 0 0
vn 0 0 -1
vn 0 0 -1
vn 0 0 -1
vn 0 0 -1
vn -1 0 0
vn -1 0 0
vn -1 0 0
vn -1 0 0
vn 0 -1 0
vn 0 -1 0
vn 0 -1 0
vn 0 -1 0
vn 0 1 0
vn 0 1 0
vn 0 1 0
vn 0 1 0
f 122/362/362 121/361/361 123/363/363 124/364/364
f 124/366/366 123/365/365 125/367/367 126/368/368
f 126/370/370 125/369/369 127/371/371 128/372/372
f 128/374/374 127/373/373 121/375/375 122/376/376
f 123/378/378 121/377/377 127/379/379 125/380/380
f 128/382/382 122/381/381 124/383/383 126/384/384
