# Rhino

g object_1
v 21.697750091552734 0 -194.07717895507812
v 21.697750091552734 3 -194.07717895507812
v 22.297748565673828 0 -194.07717895507812
v 22.297748565673828 3 -194.07717895507812
v 22.297748565673828 0 -194.67718505859375
v 22.297748565673828 3 -194.67718505859375
v 21.697750091552734 0 -194.67718505859375
v 21.697750091552734 3 -194.67718505859375
vt 0.40000000596046448 0
vt 0.40000000596046448 0.99853515625
vt 0.59853518009185791 0
vt 0.59853518009185791 0.99853515625
vt 0.80000001192092896 0
vt 0.80000001192092896 0.99853515625
vt 0.99853515625 0
vt 0.99853515625 0.99853515625
vt 0.20000000298023224 0
vt 0.20000000298023224 0.99853515625
vt 0.39853516221046448 0
vt 0.39853516221046448 0.99853515625
vt 0.60000002384185791 0
vt 0.60000002384185791 0.99853515625
vt 0.79853516817092896 0
vt 0.79853516817092896 0.99853515625
vt 0.19853515923023224 0.5
vt 0 0.5
vt 0.19853515923023224 0.69999998807907104
vt 0 0.69999998807907104
vt 0 0
vt 0 0.20000000298023224
vt 0.19853515923023224 0
vt 0.19853515923023224 0.20000000298023224
vn 0 0 1
vn 0 0 1
vn 0 0 1
vn 0 0 1
vn 1 0 0
vn 1 0 0
vn 1 0 0
vn 1 0 0
vn 0 0 -1
vn 0 0 -1
vn 0 0 -1
vn 0 0 -1
vn -1 0 0
vn -1 0 0
vn -1 0 0
vn -1 0 0
vn 0 -1 0
vn 0 -1 0
vn 0 -1 0
vn 0 -1 0
vn 0 1 0
vn 0 1 0
vn 0 1 0
vn 0 1 0
f 2/2/2 1/1/1 3/3/3 4/4/4
f 4/6/6 3/5/5 5/7/7 6/8/8
f 6/10/10 5/9/9 7/11/11 8/12/12
f 8/14/14 7/13/13 1/15/15 2/16/16
f 3/18/18 1/17/17 7/19/19 5/20/20
f 8/22/22 2/21/21 4/23/23 6/24/24
g object_2
v 13.697749137878418 0 -194.07717895507812
v 13.697749137878418 3 -194.07717895507812
v 14.297749519348145 0 -194.07717895507812
v 14.297749519348145 3 -194.07717895507812
v 14.297749519348145 0 -194.67718505859375
v 14.297749519348145 3 -194.67718505859375
v 13.697749137878418 0 -194.67718505859375
v 13.697749137878418 3 -194.67718505859375
vt 0.40000000596046448 0
vt 0.40000000596046448 0.99853515625
vt 0.59853518009185791 0
vt 0.59853518009185791 0.99853515625
vt 0.80000001192092896 0
vt 0.80000001192092896 0.99853515625
vt 0.99853515625 0
vt 0.99853515625 0.99853515625
vt 0.20000000298023224 0
vt 0.20000000298023224 0.99853515625
vt 0.39853516221046448 0
vt 0.39853516221046448 0.99853515625
vt 0.60000002384185791 0
vt 0.60000002384185791 0.99853515625
vt 0.79853516817092896 0
vt 0.79853516817092896 0.99853515625
vt 0.19853515923023224 0.5
vt 0 0.5
vt 0.19853515923023224 0.69999998807907104
vt 0 0.69999998807907104
vt 0 0
vt 0 0.20000000298023224
vt 0.19853515923023224 0
vt 0.19853515923023224 0.20000000298023224
vn 0 0 1
vn 0 0 1
vn 0 0 1
vn 0 0 1
vn 1 0 0
vn 1 0 0
vn 1 0 0
vn 1 0 0
vn 0 0 -1
vn 0 0 -1
vn 0 0 -1
vn 0 0 -1
vn -1 0 0
vn -1 0 0
vn -1 0 0
vn -1 0 0
vn 0 -1 0
vn 0 -1 0
vn 0 -1 0
vn 0 -1 0
vn 0 1 0
vn 0 1 0
vn 0 1 0
vn 0 1 0
f 10/26/26 9/25/25 11/27/27 12/28/28
f 12/30/30 11/29/29 13/31/31 14/32/32
f 14/34/34 13/33/33 15/35/35 16/36/36
f 16/38/38 15/37/37 9/39/39 10/40/40
f 11/42/42 9/41/41 15/43/43 13/44/44
f 16/46/46 10/45/45 12/47/47 14/48/48
