# Rhino

g object_1
v 19.747749328613281 26 -8.2402496337890625
v 19.747749328613281 29 -8.2402496337890625
v 19.747749328613281 26 -27.986200332641602
v 19.747749328613281 29 -27.986200332641602
v 16.247749328613281 26 -27.986200332641602
v 16.247749328613281 29 -27.986200332641602
v 16.247749328613281 26 -8.2402496337890625
v 16.247749328613281 29 -8.2402496337890625
vt 0 0
vt 0 0.64999955892562866
vt 0.25 0
vt 0.25 0.64999955892562866
vt 0.25 0
vt 0.25 0.64999955892562866
vt 0.5 0
vt 0.5 0.64999955892562866
vt 0.5 0
vt 0.5 0.64999955892562866
vt 0.75 0
vt 0.75 0.64999955892562866
vt 0.75 0
vt 0.75 0.64999955892562866
vt 1 0
vt 1 0.64999955892562866
vt 0.42471808195114136 0.65000021457672119
vt 0 0.65000021457672119
vt 0 1
vt 0.42471808195114136 1
vt 1 1
vt 0.57528191804885864 1
vt 0.57528191804885864 0.65000021457672119
vt 1 0.65000021457672119
vn 1 0 0
vn 1 0 0
vn 1 0 0
vn 1 0 0
vn 0 0 -1
vn 0 0 -1
vn 0 0 -1
vn 0 0 -1
vn -1 0 0
vn -1 0 0
vn -1 0 0
vn -1 0 0
vn 0 0 1
vn 0 0 1
vn 0 0 1
vn 0 0 1
vn 0 -1 0
vn 0 -1 0
vn 0 -1 0
vn 0 -1 0
vn 0 1 0
vn 0 1 0
vn 0 1 0
vn 0 1 0
f 1/17/17 7/20/20 5/19/19 3/18/18
f 6/23/23 8/24/24 2/21/21 4/22/22
f 1/1/1 3/3/3 4/4/4 2/2/2
f 3/5/5 5/7/7 6/8/8 4/6/6
f 5/9/9 7/11/11 8/12/12 6/10/10
f 7/13/13 1/15/15 2/16/16 8/14/14
g object_2
v 19.747749328613281 23 -8.2402496337890625
v 19.747749328613281 26 -8.2402496337890625
v 19.747749328613281 23 -27.986200332641602
v 19.747749328613281 26 -27.986200332641602
v 16.247749328613281 23 -27.986200332641602
v 16.247749328613281 26 -27.986200332641602
v 16.247749328613281 23 -8.2402496337890625
v 16.247749328613281 26 -8.2402496337890625
vt 0 0
vt 0 0.64999955892562866
vt 0.25 0
vt 0.25 0.64999955892562866
vt 0.25 0
vt 0.25 0.64999955892562866
vt 0.5 0
vt 0.5 0.64999955892562866
vt 0.5 0
vt 0.5 0.64999955892562866
vt 0.75 0
vt 0.75 0.64999955892562866
vt 0.75 0
vt 0.75 0.64999955892562866
vt 1 0
vt 1 0.64999955892562866
vt 0.42471808195114136 0.65000021457672119
vt 0 0.65000021457672119
vt 0 1
vt 0.42471808195114136 1
vt 1 1
vt 0.57528191804885864 1
vt 0.57528191804885864 0.65000021457672119
vt 1 0.65000021457672119
vn 1 0 0
vn 1 0 0
vn 1 0 0
vn 1 0 0
vn 0 0 -1
vn 0 0 -1
vn 0 0 -1
vn 0 0 -1
vn -1 0 0
vn -1 0 0
vn -1 0 0
vn -1 0 0
vn 0 0 1
vn 0 0 1
vn 0 0 1
vn 0 0 1
vn 0 -1 0
vn 0 -1 0
vn 0 -1 0
vn 0 -1 0
vn 0 1 0
vn 0 1 0
vn 0 1 0
vn 0 1 0
f 9/41/41 15/44/44 13/43/43 11/42/42
f 14/47/47 16/48/48 10/45/45 12/46/46
f 9/25/25 11/27/27 12/28/28 10/26/26
f 11/29/29 13/31/31 14/32/32 12/30/30
f 13/33/33 15/35/35 16/36/36 14/34/34
f 15/37/37 9/39/39 10/40/40 16/38/38
g object_3
v 19.747749328613281 20 -8.2402496337890625
v 19.747749328613281 23 -8.2402496337890625
v 19.747749328613281 20 -27.986200332641602
v 19.747749328613281 23 -27.986200332641602
v 16.247749328613281 20 -27.986200332641602
v 16.247749328613281 23 -27.986200332641602
v 16.247749328613281 20 -8.2402496337890625
v 16.247749328613281 23 -8.2402496337890625
vt 0 0
vt 0 0.64999955892562866
vt 0.25 0
vt 0.25 0.64999955892562866
vt 0.25 0
vt 0.25 0.64999955892562866
vt 0.5 0
vt 0.5 0.64999955892562866
vt 0.5 0
vt 0.5 0.64999955892562866
vt 0.75 0
vt 0.75 0.64999955892562866
vt 0.75 0
vt 0.75 0.64999955892562866
vt 1 0
vt 1 0.64999955892562866
vt 0.42471808195114136 0.65000021457672119
vt 0 0.65000021457672119
vt 0 1
vt 0.42471808195114136 1
vt 1 1
vt 0.57528191804885864 1
vt 0.57528191804885864 0.65000021457672119
vt 1 0.65000021457672119
vn 1 0 0
vn 1 0 0
vn 1 0 0
vn 1 0 0
vn 0 0 -1
vn 0 0 -1
vn 0 0 -1
vn 0 0 -1
vn -1 0 0
vn -1 0 0
vn -1 0 0
vn -1 0 0
vn 0 0 1
vn 0 0 1
vn 0 0 1
vn 0 0 1
vn 0 -1 0
vn 0 -1 0
vn 0 -1 0
vn 0 -1 0
vn 0 1 0
vn 0 1 0
vn 0 1 0
vn 0 1 0
f 17/65/65 23/68/68 21/67/67 19/66/66
f 22/71/71 24/72/72 18/69/69 20/70/70
f 17/49/49 19/51/51 20/52/52 18/50/50
f 19/53/53 21/55/55 22/56/56 20/54/54
f 21/57/57 23/59/59 24/60/60 22/58/58
f 23/61/61 17/63/63 18/64/64 24/62/62
g object_4
v 19.747749328613281 17 -8.2402496337890625
v 19.747749328613281 20 -8.2402496337890625
v 19.747749328613281 17 -27.986200332641602
v 19.747749328613281 20 -27.986200332641602
v 16.247749328613281 17 -27.986200332641602
v 16.247749328613281 20 -27.986200332641602
v 16.247749328613281 17 -8.2402496337890625
v 16.247749328613281 20 -8.2402496337890625
vt 0 0
vt 0 0.64999955892562866
vt 0.25 0
vt 0.25 0.64999955892562866
vt 0.25 0
vt 0.25 0.64999955892562866
vt 0.5 0
vt 0.5 0.64999955892562866
vt 0.5 0
vt 0.5 0.64999955892562866
vt 0.75 0
vt 0.75 0.64999955892562866
vt 0.75 0
vt 0.75 0.64999955892562866
vt 1 0
vt 1 0.64999955892562866
vt 0.42471808195114136 0.65000021457672119
vt 0 0.65000021457672119
vt 0 1
vt 0.42471808195114136 1
vt 1 1
vt 0.57528191804885864 1
vt 0.57528191804885864 0.65000021457672119
vt 1 0.65000021457672119
vn 1 0 0
vn 1 0 0
vn 1 0 0
vn 1 0 0
vn 0 0 -1
vn 0 0 -1
vn 0 0 -1
vn 0 0 -1
vn -1 0 0
vn -1 0 0
vn -1 0 0
vn -1 0 0
vn 0 0 1
vn 0 0 1
vn 0 0 1
vn 0 0 1
vn 0 -1 0
vn 0 -1 0
vn 0 -1 0
vn 0 -1 0
vn 0 1 0
vn 0 1 0
vn 0 1 0
vn 0 1 0
f 25/89/89 31/92/92 29/91/91 27/90/90
f 30/95/95 32/96/96 26/93/93 28/94/94
f 25/73/73 27/75/75 28/76/76 26/74/74
f 27/77/77 29/79/79 30/80/80 28/78/78
f 29/81/81 31/83/83 32/84/84 30/82/82
f 31/85/85 25/87/87 26/88/88 32/86/86
g object_5
v 19.747749328613281 14 -8.2402496337890625
v 19.747749328613281 17 -8.2402496337890625
v 19.747749328613281 14 -27.986200332641602
v 19.747749328613281 17 -27.986200332641602
v 16.247749328613281 14 -27.986200332641602
v 16.247749328613281 17 -27.986200332641602
v 16.247749328613281 14 -8.2402496337890625
v 16.247749328613281 17 -8.2402496337890625
vt 0 0
vt 0 0.64999955892562866
vt 0.25 0
vt 0.25 0.64999955892562866
vt 0.25 0
vt 0.25 0.64999955892562866
vt 0.5 0
vt 0.5 0.64999955892562866
vt 0.5 0
vt 0.5 0.64999955892562866
vt 0.75 0
vt 0.75 0.64999955892562866
vt 0.75 0
vt 0.75 0.64999955892562866
vt 1 0
vt 1 0.64999955892562866
vt 0.42471808195114136 0.65000021457672119
vt 0 0.65000021457672119
vt 0 1
vt 0.42471808195114136 1
vt 1 1
vt 0.57528191804885864 1
vt 0.57528191804885864 0.65000021457672119
vt 1 0.65000021457672119
vn 1 0 0
vn 1 0 0
vn 1 0 0
vn 1 0 0
vn 0 0 -1
vn 0 0 -1
vn 0 0 -1
vn 0 0 -1
vn -1 0 0
vn -1 0 0
vn -1 0 0
vn -1 0 0
vn 0 0 1
vn 0 0 1
vn 0 0 1
vn 0 0 1
vn 0 -1 0
vn 0 -1 0
vn 0 -1 0
vn 0 -1 0
vn 0 1 0
vn 0 1 0
vn 0 1 0
vn 0 1 0
f 33/113/113 39/116/116 37/115/115 35/114/114
f 38/119/119 40/120/120 34/117/117 36/118/118
f 33/97/97 35/99/99 36/100/100 34/98/98
f 35/101/101 37/103/103 38/104/104 36/102/102
f 37/105/105 39/107/107 40/108/108 38/106/106
f 39/109/109 33/111/111 34/112/112 40/110/110
g object_6
v 19.747749328613281 11 -8.2402496337890625
v 19.747749328613281 14 -8.2402496337890625
v 19.747749328613281 11 -27.986200332641602
v 19.747749328613281 14 -27.986200332641602
v 16.247749328613281 11 -27.986200332641602
v 16.247749328613281 14 -27.986200332641602
v 16.247749328613281 11 -8.2402496337890625
v 16.247749328613281 14 -8.2402496337890625
vt 0 0
vt 0 0.64999955892562866
vt 0.25 0
vt 0.25 0.64999955892562866
vt 0.25 0
vt 0.25 0.64999955892562866
vt 0.5 0
vt 0.5 0.64999955892562866
vt 0.5 0
vt 0.5 0.64999955892562866
vt 0.75 0
vt 0.75 0.64999955892562866
vt 0.75 0
vt 0.75 0.64999955892562866
vt 1 0
vt 1 0.64999955892562866
vt 0.42471808195114136 0.65000021457672119
vt 0 0.65000021457672119
vt 0 1
vt 0.42471808195114136 1
vt 1 1
vt 0.57528191804885864 1
vt 0.57528191804885864 0.65000021457672119
vt 1 0.65000021457672119
vn 1 0 0
vn 1 0 0
vn 1 0 0
vn 1 0 0
vn 0 0 -1
vn 0 0 -1
vn 0 0 -1
vn 0 0 -1
vn -1 0 0
vn -1 0 0
vn -1 0 0
vn -1 0 0
vn 0 0 1
vn 0 0 1
vn 0 0 1
vn 0 0 1
vn 0 -1 0
vn 0 -1 0
vn 0 -1 0
vn 0 -1 0
vn 0 1 0
vn 0 1 0
vn 0 1 0
vn 0 1 0
f 41/137/137 47/140/140 45/139/139 43/138/138
f 46/143/143 48/144/144 42/141/141 44/142/142
f 41/121/121 43/123/123 44/124/124 42/122/122
f 43/125/125 45/127/127 46/128/128 44/126/126
f 45/129/129 47/131/131 48/132/132 46/130/130
f 47/133/133 41/135/135 42/136/136 48/134/134
g object_7
v 19.747749328613281 8 -8.2402496337890625
v 19.747749328613281 11 -8.2402496337890625
v 19.747749328613281 8 -27.986200332641602
v 19.747749328613281 11 -27.986200332641602
v 16.247749328613281 8 -27.986200332641602
v 16.247749328613281 11 -27.986200332641602
v 16.247749328613281 8 -8.2402496337890625
v 16.247749328613281 11 -8.2402496337890625
vt 0 0
vt 0 0.64999955892562866
vt 0.25 0
vt 0.25 0.64999955892562866
vt 0.25 0
vt 0.25 0.64999955892562866
vt 0.5 0
vt 0.5 0.64999955892562866
vt 0.5 0
vt 0.5 0.64999955892562866
vt 0.75 0
vt 0.75 0.64999955892562866
vt 0.75 0
vt 0.75 0.64999955892562866
vt 1 0
vt 1 0.64999955892562866
vt 0.42471808195114136 0.65000021457672119
vt 0 0.65000021457672119
vt 0 1
vt 0.42471808195114136 1
vt 1 1
vt 0.57528191804885864 1
vt 0.57528191804885864 0.65000021457672119
vt 1 0.65000021457672119
vn 1 0 0
vn 1 0 0
vn 1 0 0
vn 1 0 0
vn 0 0 -1
vn 0 0 -1
vn 0 0 -1
vn 0 0 -1
vn -1 0 0
vn -1 0 0
vn -1 0 0
vn -1 0 0
vn 0 0 1
vn 0 0 1
vn 0 0 1
vn 0 0 1
vn 0 -1 0
vn 0 -1 0
vn 0 -1 0
vn 0 -1 0
vn 0 1 0
vn 0 1 0
vn 0 1 0
vn 0 1 0
f 49/161/161 55/164/164 53/163/163 51/162/162
f 54/167/167 56/168/168 50/165/165 52/166/166
f 49/145/145 51/147/147 52/148/148 50/146/146
f 51/149/149 53/151/151 54/152/152 52/150/150
f 53/153/153 55/155/155 56/156/156 54/154/154
f 55/157/157 49/159/159 50/160/160 56/158/158
g object_8
v 19.747749328613281 5 -8.2402496337890625
v 19.747749328613281 8 -8.2402496337890625
v 19.747749328613281 5 -27.986200332641602
v 19.747749328613281 8 -27.986200332641602
v 16.247749328613281 5 -27.986200332641602
v 16.247749328613281 8 -27.986200332641602
v 16.247749328613281 5 -8.2402496337890625
v 16.247749328613281 8 -8.2402496337890625
vt 0 0
vt 0 0.64999955892562866
vt 0.25 0
vt 0.25 0.64999955892562866
vt 0.25 0
vt 0.25 0.64999955892562866
vt 0.5 0
vt 0.5 0.64999955892562866
vt 0.5 0
vt 0.5 0.64999955892562866
vt 0.75 0
vt 0.75 0.64999955892562866
vt 0.75 0
vt 0.75 0.64999955892562866
vt 1 0
vt 1 0.64999955892562866
vt 0.42471808195114136 0.65000021457672119
vt 0 0.65000021457672119
vt 0 1
vt 0.42471808195114136 1
vt 1 1
vt 0.57528191804885864 1
vt 0.57528191804885864 0.65000021457672119
vt 1 0.65000021457672119
vn 1 0 0
vn 1 0 0
vn 1 0 0
vn 1 0 0
vn 0 0 -1
vn 0 0 -1
vn 0 0 -1
vn 0 0 -1
vn -1 0 0
vn -1 0 0
vn -1 0 0
vn -1 0 0
vn 0 0 1
vn 0 0 1
vn 0 0 1
vn 0 0 1
vn 0 -1 0
vn 0 -1 0
vn 0 -1 0
vn 0 -1 0
vn 0 1 0
vn 0 1 0
vn 0 1 0
vn 0 1 0
f 57/185/185 63/188/188 61/187/187 59/186/186
f 62/191/191 64/192/192 58/189/189 60/190/190
f 57/169/169 59/171/171 60/172/172 58/170/170
f 59/173/173 61/175/175 62/176/176 60/174/174
f 61/177/177 63/179/179 64/180/180 62/178/178
f 63/181/181 57/183/183 58/184/184 64/182/182
g object_9
v 19.747749328613281 26 -31.986200332641602
v 19.747749328613281 29 -31.986200332641602
v 19.747749328613281 26 -51.986198425292969
v 19.747749328613281 29 -51.986198425292969
v 16.247749328613281 26 -51.986198425292969
v 16.247749328613281 29 -51.986198425292969
v 16.247749328613281 26 -31.986200332641602
v 16.247749328613281 29 -31.986200332641602
vt 0 0
vt 0 0.64999955892562866
vt 0.25 0
vt 0.25 0.64999955892562866
vt 0.25 0
vt 0.25 0.64999955892562866
vt 0.5 0
vt 0.5 0.64999955892562866
vt 0.5 0
vt 0.5 0.64999955892562866
vt 0.75 0
vt 0.75 0.64999955892562866
vt 0.75 0
vt 0.75 0.64999955892562866
vt 1 0
vt 1 0.64999955892562866
vt 0.42553192377090454 0.65000021457672119
vt 0 0.65000021457672119
vt 0 1
vt 0.42553192377090454 1
vt 1 1
vt 0.57446807622909546 1
vt 0.57446807622909546 0.65000021457672119
vt 1 0.65000021457672119
vn 1 0 0
vn 1 0 0
vn 1 0 0
vn 1 0 0
vn 0 0 -1
vn 0 0 -1
vn 0 0 -1
vn 0 0 -1
vn -1 0 0
vn -1 0 0
vn -1 0 0
vn -1 0 0
vn 0 0 1
vn 0 0 1
vn 0 0 1
vn 0 0 1
vn 0 -1 0
vn 0 -1 0
vn 0 -1 0
vn 0 -1 0
vn 0 1 0
vn 0 1 0
vn 0 1 0
vn 0 1 0
f 65/209/209 71/212/212 69/211/211 67/210/210
f 70/215/215 72/216/216 66/213/213 68/214/214
f 65/193/193 67/195/195 68/196/196 66/194/194
f 67/197/197 69/199/199 70/200/200 68/198/198
f 69/201/201 71/203/203 72/204/204 70/202/202
f 71/205/205 65/207/207 66/208/208 72/206/206
g object_10
v 19.747749328613281 23 -31.986200332641602
v 19.747749328613281 26 -31.986200332641602
v 19.747749328613281 23 -51.986198425292969
v 19.747749328613281 26 -51.986198425292969
v 16.247749328613281 23 -51.986198425292969
v 16.247749328613281 26 -51.986198425292969
v 16.247749328613281 23 -31.986200332641602
v 16.247749328613281 26 -31.986200332641602
vt 0 0
vt 0 0.64999955892562866
vt 0.25 0
vt 0.25 0.64999955892562866
vt 0.25 0
vt 0.25 0.64999955892562866
vt 0.5 0
vt 0.5 0.64999955892562866
vt 0.5 0
vt 0.5 0.64999955892562866
vt 0.75 0
vt 0.75 0.64999955892562866
vt 0.75 0
vt 0.75 0.64999955892562866
vt 1 0
vt 1 0.64999955892562866
vt 0.42553192377090454 0.65000021457672119
vt 0 0.65000021457672119
vt 0 1
vt 0.42553192377090454 1
vt 1 1
vt 0.57446807622909546 1
vt 0.57446807622909546 0.65000021457672119
vt 1 0.65000021457672119
vn 1 0 0
vn 1 0 0
vn 1 0 0
vn 1 0 0
vn 0 0 -1
vn 0 0 -1
vn 0 0 -1
vn 0 0 -1
vn -1 0 0
vn -1 0 0
vn -1 0 0
vn -1 0 0
vn 0 0 1
vn 0 0 1
vn 0 0 1
vn 0 0 1
vn 0 -1 0
vn 0 -1 0
vn 0 -1 0
vn 0 -1 0
vn 0 1 0
vn 0 1 0
vn 0 1 0
vn 0 1 0
f 73/233/233 79/236/236 77/235/235 75/234/234
f 78/239/239 80/240/240 74/237/237 76/238/238
f 73/217/217 75/219/219 76/220/220 74/218/218
f 75/221/221 77/223/223 78/224/224 76/222/222
f 77/225/225 79/227/227 80/228/228 78/226/226
f 79/229/229 73/231/231 74/232/232 80/230/230
g object_11
v 19.747749328613281 20 -31.986200332641602
v 19.747749328613281 23 -31.986200332641602
v 19.747749328613281 20 -51.986198425292969
v 19.747749328613281 23 -51.986198425292969
v 16.247749328613281 20 -51.986198425292969
v 16.247749328613281 23 -51.986198425292969
v 16.247749328613281 20 -31.986200332641602
v 16.247749328613281 23 -31.986200332641602
vt 0 0
vt 0 0.64999955892562866
vt 0.25 0
vt 0.25 0.64999955892562866
vt 0.25 0
vt 0.25 0.64999955892562866
vt 0.5 0
vt 0.5 0.64999955892562866
vt 0.5 0
vt 0.5 0.64999955892562866
vt 0.75 0
vt 0.75 0.64999955892562866
vt 0.75 0
vt 0.75 0.64999955892562866
vt 1 0
vt 1 0.64999955892562866
vt 0.42553192377090454 0.65000021457672119
vt 0 0.65000021457672119
vt 0 1
vt 0.42553192377090454 1
vt 1 1
vt 0.57446807622909546 1
vt 0.57446807622909546 0.65000021457672119
vt 1 0.65000021457672119
vn 1 0 0
vn 1 0 0
vn 1 0 0
vn 1 0 0
vn 0 0 -1
vn 0 0 -1
vn 0 0 -1
vn 0 0 -1
vn -1 0 0
vn -1 0 0
vn -1 0 0
vn -1 0 0
vn 0 0 1
vn 0 0 1
vn 0 0 1
vn 0 0 1
vn 0 -1 0
vn 0 -1 0
vn 0 -1 0
vn 0 -1 0
vn 0 1 0
vn 0 1 0
vn 0 1 0
vn 0 1 0
f 81/257/257 87/260/260 85/259/259 83/258/258
f 86/263/263 88/264/264 82/261/261 84/262/262
f 81/241/241 83/243/243 84/244/244 82/242/242
f 83/245/245 85/247/247 86/248/248 84/246/246
f 85/249/249 87/251/251 88/252/252 86/250/250
f 87/253/253 81/255/255 82/256/256 88/254/254
g object_12
v 19.747749328613281 17 -31.986200332641602
v 19.747749328613281 20 -31.986200332641602
v 19.747749328613281 17 -51.986198425292969
v 19.747749328613281 20 -51.986198425292969
v 16.247749328613281 17 -51.986198425292969
v 16.247749328613281 20 -51.986198425292969
v 16.247749328613281 17 -31.986200332641602
v 16.247749328613281 20 -31.986200332641602
vt 0 0
vt 0 0.64999955892562866
vt 0.25 0
vt 0.25 0.64999955892562866
vt 0.25 0
vt 0.25 0.64999955892562866
vt 0.5 0
vt 0.5 0.64999955892562866
vt 0.5 0
vt 0.5 0.64999955892562866
vt 0.75 0
vt 0.75 0.64999955892562866
vt 0.75 0
vt 0.75 0.64999955892562866
vt 1 0
vt 1 0.64999955892562866
vt 0.42553192377090454 0.65000021457672119
vt 0 0.65000021457672119
vt 0 1
vt 0.42553192377090454 1
vt 1 1
vt 0.57446807622909546 1
vt 0.57446807622909546 0.65000021457672119
vt 1 0.65000021457672119
vn 1 0 0
vn 1 0 0
vn 1 0 0
vn 1 0 0
vn 0 0 -1
vn 0 0 -1
vn 0 0 -1
vn 0 0 -1
vn -1 0 0
vn -1 0 0
vn -1 0 0
vn -1 0 0
vn 0 0 1
vn 0 0 1
vn 0 0 1
vn 0 0 1
vn 0 -1 0
vn 0 -1 0
vn 0 -1 0
vn 0 -1 0
vn 0 1 0
vn 0 1 0
vn 0 1 0
vn 0 1 0
f 89/281/281 95/284/284 93/283/283 91/282/282
f 94/287/287 96/288/288 90/285/285 92/286/286
f 89/265/265 91/267/267 92/268/268 90/266/266
f 91/269/269 93/271/271 94/272/272 92/270/270
f 93/273/273 95/275/275 96/276/276 94/274/274
f 95/277/277 89/279/279 90/280/280 96/278/278
g object_13
v 19.747749328613281 14 -31.986200332641602
v 19.747749328613281 17 -31.986200332641602
v 19.747749328613281 14 -51.986198425292969
v 19.747749328613281 17 -51.986198425292969
v 16.247749328613281 14 -51.986198425292969
v 16.247749328613281 17 -51.986198425292969
v 16.247749328613281 14 -31.986200332641602
v 16.247749328613281 17 -31.986200332641602
vt 0 0
vt 0 0.64999955892562866
vt 0.25 0
vt 0.25 0.64999955892562866
vt 0.25 0
vt 0.25 0.64999955892562866
vt 0.5 0
vt 0.5 0.64999955892562866
vt 0.5 0
vt 0.5 0.64999955892562866
vt 0.75 0
vt 0.75 0.64999955892562866
vt 0.75 0
vt 0.75 0.64999955892562866
vt 1 0
vt 1 0.64999955892562866
vt 0.42553192377090454 0.65000021457672119
vt 0 0.65000021457672119
vt 0 1
vt 0.42553192377090454 1
vt 1 1
vt 0.57446807622909546 1
vt 0.57446807622909546 0.65000021457672119
vt 1 0.65000021457672119
vn 1 0 0
vn 1 0 0
vn 1 0 0
vn 1 0 0
vn 0 0 -1
vn 0 0 -1
vn 0 0 -1
vn 0 0 -1
vn -1 0 0
vn -1 0 0
vn -1 0 0
vn -1 0 0
vn 0 0 1
vn 0 0 1
vn 0 0 1
vn 0 0 1
vn 0 -1 0
vn 0 -1 0
vn 0 -1 0
vn 0 -1 0
vn 0 1 0
vn 0 1 0
vn 0 1 0
vn 0 1 0
f 97/305/305 103/308/308 101/307/307 99/306/306
f 102/311/311 104/312/312 98/309/309 100/310/310
f 97/289/289 99/291/291 100/292/292 98/290/290
f 99/293/293 101/295/295 102/296/296 100/294/294
f 101/297/297 103/299/299 104/300/300 102/298/298
f 103/301/301 97/303/303 98/304/304 104/302/302
g object_14
v 19.747749328613281 11 -31.986200332641602
v 19.747749328613281 14 -31.986200332641602
v 19.747749328613281 11 -51.986198425292969
v 19.747749328613281 14 -51.986198425292969
v 16.247749328613281 11 -51.986198425292969
v 16.247749328613281 14 -51.986198425292969
v 16.247749328613281 11 -31.986200332641602
v 16.247749328613281 14 -31.986200332641602
vt 0 0
vt 0 0.64999955892562866
vt 0.25 0
vt 0.25 0.64999955892562866
vt 0.25 0
vt 0.25 0.64999955892562866
vt 0.5 0
vt 0.5 0.64999955892562866
vt 0.5 0
vt 0.5 0.64999955892562866
vt 0.75 0
vt 0.75 0.64999955892562866
vt 0.75 0
vt 0.75 0.64999955892562866
vt 1 0
vt 1 0.64999955892562866
vt 0.42553192377090454 0.65000021457672119
vt 0 0.65000021457672119
vt 0 1
vt 0.42553192377090454 1
vt 1 1
vt 0.57446807622909546 1
vt 0.57446807622909546 0.65000021457672119
vt 1 0.65000021457672119
vn 1 0 0
vn 1 0 0
vn 1 0 0
vn 1 0 0
vn 0 0 -1
vn 0 0 -1
vn 0 0 -1
vn 0 0 -1
vn -1 0 0
vn -1 0 0
vn -1 0 0
vn -1 0 0
vn 0 0 1
vn 0 0 1
vn 0 0 1
vn 0 0 1
vn 0 -1 0
vn 0 -1 0
vn 0 -1 0
vn 0 -1 0
vn 0 1 0
vn 0 1 0
vn 0 1 0
vn 0 1 0
f 105/329/329 111/332/332 109/331/331 107/330/330
f 110/335/335 112/336/336 106/333/333 108/334/334
f 105/313/313 107/315/315 108/316/316 106/314/314
f 107/317/317 109/319/319 110/320/320 108/318/318
f 109/321/321 111/323/323 112/324/324 110/322/322
f 111/325/325 105/327/327 106/328/328 112/326/326
g object_15
v 19.747749328613281 8 -31.986200332641602
v 19.747749328613281 11 -31.986200332641602
v 19.747749328613281 8 -51.986198425292969
v 19.747749328613281 11 -51.986198425292969
v 16.247749328613281 8 -51.986198425292969
v 16.247749328613281 11 -51.986198425292969
v 16.247749328613281 8 -31.986200332641602
v 16.247749328613281 11 -31.986200332641602
vt 0 0
vt 0 0.64999955892562866
vt 0.25 0
vt 0.25 0.64999955892562866
vt 0.25 0
vt 0.25 0.64999955892562866
vt 0.5 0
vt 0.5 0.64999955892562866
vt 0.5 0
vt 0.5 0.64999955892562866
vt 0.75 0
vt 0.75 0.64999955892562866
vt 0.75 0
vt 0.75 0.64999955892562866
vt 1 0
vt 1 0.64999955892562866
vt 0.42553192377090454 0.65000021457672119
vt 0 0.65000021457672119
vt 0 1
vt 0.42553192377090454 1
vt 1 1
vt 0.57446807622909546 1
vt 0.57446807622909546 0.65000021457672119
vt 1 0.65000021457672119
vn 1 0 0
vn 1 0 0
vn 1 0 0
vn 1 0 0
vn 0 0 -1
vn 0 0 -1
vn 0 0 -1
vn 0 0 -1
vn -1 0 0
vn -1 0 0
vn -1 0 0
vn -1 0 0
vn 0 0 1
vn 0 0 1
vn 0 0 1
vn 0 0 1
vn 0 -1 0
vn 0 -1 0
vn 0 -1 0
vn 0 -1 0
vn 0 1 0
vn 0 1 0
vn 0 1 0
vn 0 1 0
f 113/353/353 119/356/356 117/355/355 115/354/354
f 118/359/359 120/360/360 114/357/357 116/358/358
f 113/337/337 115/339/339 116/340/340 114/338/338
f 115/341/341 117/343/343 118/344/344 116/342/342
f 117/345/345 119/347/347 120/348/348 118/346/346
f 119/349/349 113/351/351 114/352/352 120/350/350
g object_16
v 19.747749328613281 5 -31.986200332641602
v 19.747749328613281 8 -31.986200332641602
v 19.747749328613281 5 -51.986198425292969
v 19.747749328613281 8 -51.986198425292969
v 16.247749328613281 5 -51.986198425292969
v 16.247749328613281 8 -51.986198425292969
v 16.247749328613281 5 -31.986200332641602
v 16.247749328613281 8 -31.986200332641602
vt 0 0
vt 0 0.64999955892562866
vt 0.25 0
vt 0.25 0.64999955892562866
vt 0.25 0
vt 0.25 0.64999955892562866
vt 0.5 0
vt 0.5 0.64999955892562866
vt 0.5 0
vt 0.5 0.64999955892562866
vt 0.75 0
vt 0.75 0.64999955892562866
vt 0.75 0
vt 0.75 0.64999955892562866
vt 1 0
vt 1 0.64999955892562866
vt 0.42553192377090454 0.65000021457672119
vt 0 0.65000021457672119
vt 0 1
vt 0.42553192377090454 1
vt 1 1
vt 0.57446807622909546 1
vt 0.57446807622909546 0.65000021457672119
vt 1 0.65000021457672119
vn 1 0 0
vn 1 0 0
vn 1 0 0
vn 1 0 0
vn 0 0 -1
vn 0 0 -1
vn 0 0 -1
vn 0 0 -1
vn -1 0 0
vn -1 0 0
vn -1 0 0
vn -1 0 0
vn 0 0 1
vn 0 0 1
vn 0 0 1
vn 0 0 1
vn 0 -1 0
vn 0 -1 0
vn 0 -1 0
vn 0 -1 0
vn 0 1 0
vn 0 1 0
vn 0 1 0
vn 0 1 0
f 121/377/377 127/380/380 125/379/379 123/378/378
f 126/383/383 128/384/384 122/381/381 124/382/382
f 121/361/361 123/363/363 124/364/364 122/362/362
f 123/365/365 125/367/367 126/368/368 124/366/366
f 125/369/369 127/371/371 128/372/372 126/370/370
f 127/373/373 121/375/375 122/376/376 128/374/374
g object_17
v 11.272116661071777 0 -27.986200332641602
v 11.272116661071777 30 -27.986200332641602
v 25.272117614746094 0 -27.986200332641602
v 25.272117614746094 30 -27.986200332641602
v 25.272117614746094 0 -31.986200332641602
v 25.272117614746094 30 -31.986200332641602
v 11.272116661071777 0 -31.986200332641602
v 11.272116661071777 30 -31.986200332641602
vt 0.3684210479259491 0
vt 0.3684210479259491 0.78947371244430542
vt 0.73537725210189819 0
vt 0.73537725210189819 0.78947371244430542
vt 0.84210526943206787 0
vt 0.84210526943206787 0.78947371244430542
vt 0.94590359926223755 0
vt 0.94590359926223755 0.78947371244430542
vt 0 0.21052631735801697
vt 0 0.99853515625
vt 0.3669562041759491 0.21052631735801697
vt 0.3669562041759491 0.99853515625
vt 0.73684209585189819 0
vt 0.73684209585189819 0.78947371244430542
vt 0.84064042568206787 0
vt 0.84064042568206787 0.78947371244430542
vt 0.3669562041759491 0.10526315867900848
vt 0 0.10526315867900848
vt 0.3669562041759491 0.20906147360801697
vt 0 0.20906147360801697
vt 0 0
vt 0 0.10379831492900848
vt 0.3669562041759491 0
vt 0.3669562041759491 0.10379831492900848
vn 0 0 1
vn 0 0 1
vn 0 0 1
vn 0 0 1
vn 1 0 0
vn 1 0 0
vn 1 0 0
vn 1 0 0
vn 0 0 -1
vn 0 0 -1
vn 0 0 -1
vn 0 0 -1
vn -1 0 0
vn -1 0 0
vn -1 0 0
vn -1 0 0
vn 0 -1 0
vn 0 -1 0
vn 0 -1 0
vn 0 -1 0
vn 0 1 0
vn 0 1 0
vn 0 1 0
vn 0 1 0
f 130/386/386 129/385/385 131/387/387 132/388/388
f 132/390/390 131/389/389 133/391/391 134/392/392
f 134/394/394 133/393/393 135/395/395 136/396/396
f 136/398/398 135/397/397 129/399/399 130/400/400
f 131/402/402 129/401/401 135/403/403 133/404/404
f 136/406/406 130/405/405 132/407/407 134/408/408
g object_18
v 10.997749328613281 0 -4.2402496337890625
v 10.997749328613281 30 -4.2402496337890625
v 24.997749328613281 0 -4.2402496337890625
v 24.997749328613281 30 -4.2402496337890625
v 24.997749328613281 0 -8.2402496337890625
v 24.997749328613281 30 -8.2402496337890625
v 10.997749328613281 0 -8.2402496337890625
v 10.997749328613281 30 -8.2402496337890625
vt 0.3684210479259491 0
vt 0.3684210479259491 0.78947371244430542
vt 0.73537725210189819 0
vt 0.73537725210189819 0.78947371244430542
vt 0.84210526943206787 0
vt 0.84210526943206787 0.78947371244430542
vt 0.94590359926223755 0
vt 0.94590359926223755 0.78947371244430542
vt 0 0.21052631735801697
vt 0 0.99853515625
vt 0.3669562041759491 0.21052631735801697
vt 0.3669562041759491 0.99853515625
vt 0.73684209585189819 0
vt 0.73684209585189819 0.78947371244430542
vt 0.84064042568206787 0
vt 0.84064042568206787 0.78947371244430542
vt 0.3669562041759491 0.10526315867900848
vt 0 0.10526315867900848
vt 0.3669562041759491 0.20906147360801697
vt 0 0.20906147360801697
vt 0 0
vt 0 0.10379831492900848
vt 0.3669562041759491 0
vt 0.3669562041759491 0.10379831492900848
vn 0 0 1
vn 0 0 1
vn 0 0 1
vn 0 0 1
vn 1 0 0
vn 1 0 0
vn 1 0 0
vn 1 0 0
vn 0 0 -1
vn 0 0 -1
vn 0 0 -1
vn 0 0 -1
vn -1 0 0
vn -1 0 0
vn -1 0 0
vn -1 0 0
vn 0 -1 0
vn 0 -1 0
vn 0 -1 0
vn 0 -1 0
vn 0 1 0
vn 0 1 0
vn 0 1 0
vn 0 1 0
f 138/410/410 137/409/409 139/411/411 140/412/412
f 140/414/414 139/413/413 141/415/415 142/416/416
f 142/418/418 141/417/417 143/419/419 144/420/420
f 144/422/422 143/421/421 137/423/423 138/424/424
f 139/426/426 137/425/425 143/427/427 141/428/428
f 144/430/430 138/429/429 140/431/431 142/432/432
