# Rhino

g object_1
v 50 0 -189.85667419433594
v 50 0 -199.85667419433594
v 50 -2 -189.85667419433594
v 50 -2 -199.85667419433594
v 60 0 -199.85667419433594
v 60 -2 -199.85667419433594
v 60 0 -189.85667419433594
v 60 -2 -189.85667419433594
vt 0.10000000149011612 0
vt 0.10000000149011612 0.5
vt 0.19853515923023224 0
vt 0.19853515923023224 0.5
vt 0 0
vt 0 0.5
vt 0.098535157740116119 0
vt 0.098535157740116119 0.5
vt 0.30000001192092896 0
vt 0.30000001192092896 0.5
vt 0.39853516221046448 0
vt 0.39853516221046448 0.5
vt 0.20000000298023224 0
vt 0.20000000298023224 0.5
vt 0.29853516817092896 0
vt 0.29853516817092896 0.5
vt 0.89853513240814209 0.5
vt 0.40000000596046448 0.5
vt 0.89853513240814209 0.99853515625
vt 0.40000000596046448 0.99853515625
vt 0.89853513240814209 0
vt 0.40000000596046448 0
vt 0.89853513240814209 0.49853515625
vt 0.40000000596046448 0.49853515625
vn -1 0 0
vn -1 0 0
vn -1 0 0
vn -1 0 0
vn 0 0 -1
vn 0 0 -1
vn 0 0 -1
vn 0 0 -1
vn 1 0 0
vn 1 0 0
vn 1 0 0
vn 1 0 0
vn 0 0 1
vn 0 0 1
vn 0 0 1
vn 0 0 1
vn 0 -1 0
vn 0 -1 0
vn 0 -1 0
vn 0 -1 0
vn 0 1 0
vn 0 1 0
vn 0 1 0
vn 0 1 0
f 2/2/2 4/4/4 3/3/3 1/1/1
f 5/6/6 6/8/8 4/7/7 2/5/5
f 7/10/10 8/12/12 6/11/11 5/9/9
f 1/14/14 3/16/16 8/15/15 7/13/13
f 3/18/18 4/17/17 6/19/19 8/20/20
f 1/22/22 7/24/24 5/23/23 2/21/21
g object_2
v 50 0 -179.85667419433594
v 50 0 -189.85667419433594
v 50 -2 -179.85667419433594
v 50 -2 -189.85667419433594
v 60 0 -189.85667419433594
v 60 -2 -189.85667419433594
v 60 0 -179.85667419433594
v 60 -2 -179.85667419433594
vt 0.10000000149011612 0
vt 0.10000000149011612 0.5
vt 0.19853515923023224 0
vt 0.19853515923023224 0.5
vt 0 0
vt 0 0.5
vt 0.098535157740116119 0
vt 0.098535157740116119 0.5
vt 0.30000001192092896 0
vt 0.30000001192092896 0.5
vt 0.39853516221046448 0
vt 0.39853516221046448 0.5
vt 0.20000000298023224 0
vt 0.20000000298023224 0.5
vt 0.29853516817092896 0
vt 0.29853516817092896 0.5
vt 0.89853513240814209 0.5
vt 0.40000000596046448 0.5
vt 0.89853513240814209 0.99853515625
vt 0.40000000596046448 0.99853515625
vt 0.89853513240814209 0
vt 0.40000000596046448 0
vt 0.89853513240814209 0.49853515625
vt 0.40000000596046448 0.49853515625
vn -1 0 0
vn -1 0 0
vn -1 0 0
vn -1 0 0
vn 0 0 -1
vn 0 0 -1
vn 0 0 -1
vn 0 0 -1
vn 1 0 0
vn 1 0 0
vn 1 0 0
vn 1 0 0
vn 0 0 1
vn 0 0 1
vn 0 0 1
vn 0 0 1
vn 0 -1 0
vn 0 -1 0
vn 0 -1 0
vn 0 -1 0
vn 0 1 0
vn 0 1 0
vn 0 1 0
vn 0 1 0
f 10/26/26 12/28/28 11/27/27 9/25/25
f 13/30/30 14/32/32 12/31/31 10/29/29
f 15/34/34 16/36/36 14/35/35 13/33/33
f 9/38/38 11/40/40 16/39/39 15/37/37
f 11/42/42 12/41/41 14/43/43 16/44/44
f 9/46/46 15/48/48 13/47/47 10/45/45
g object_3
v 50 0 -169.85667419433594
v 50 0 -179.85667419433594
v 50 -2 -169.85667419433594
v 50 -2 -179.85667419433594
v 60 0 -179.85667419433594
v 60 -2 -179.85667419433594
v 60 0 -169.85667419433594
v 60 -2 -169.85667419433594
vt 0.10000000149011612 0
vt 0.10000000149011612 0.5
vt 0.19853515923023224 0
vt 0.19853515923023224 0.5
vt 0 0
vt 0 0.5
vt 0.098535157740116119 0
vt 0.098535157740116119 0.5
vt 0.30000001192092896 0
vt 0.30000001192092896 0.5
vt 0.39853516221046448 0
vt 0.39853516221046448 0.5
vt 0.20000000298023224 0
vt 0.20000000298023224 0.5
vt 0.29853516817092896 0
vt 0.29853516817092896 0.5
vt 0.89853513240814209 0.5
vt 0.40000000596046448 0.5
vt 0.89853513240814209 0.99853515625
vt 0.40000000596046448 0.99853515625
vt 0.89853513240814209 0
vt 0.40000000596046448 0
vt 0.89853513240814209 0.49853515625
vt 0.40000000596046448 0.49853515625
vn -1 0 0
vn -1 0 0
vn -1 0 0
vn -1 0 0
vn 0 0 -1
vn 0 0 -1
vn 0 0 -1
vn 0 0 -1
vn 1 0 0
vn 1 0 0
vn 1 0 0
vn 1 0 0
vn 0 0 1
vn 0 0 1
vn 0 0 1
vn 0 0 1
vn 0 -1 0
vn 0 -1 0
vn 0 -1 0
vn 0 -1 0
vn 0 1 0
vn 0 1 0
vn 0 1 0
vn 0 1 0
f 18/50/50 20/52/52 19/51/51 17/49/49
f 21/54/54 22/56/56 20/55/55 18/53/53
f 23/58/58 24/60/60 22/59/59 21/57/57
f 17/62/62 19/64/64 24/63/63 23/61/61
f 19/66/66 20/65/65 22/67/67 24/68/68
f 17/70/70 23/72/72 21/71/71 18/69/69
g object_4
v 50 0 -159.85667419433594
v 50 0 -169.85667419433594
v 50 -2 -159.85667419433594
v 50 -2 -169.85667419433594
v 60 0 -169.85667419433594
v 60 -2 -169.85667419433594
v 60 0 -159.85667419433594
v 60 -2 -159.85667419433594
vt 0.10000000149011612 0
vt 0.10000000149011612 0.5
vt 0.19853515923023224 0
vt 0.19853515923023224 0.5
vt 0 0
vt 0 0.5
vt 0.098535157740116119 0
vt 0.098535157740116119 0.5
vt 0.30000001192092896 0
vt 0.30000001192092896 0.5
vt 0.39853516221046448 0
vt 0.39853516221046448 0.5
vt 0.20000000298023224 0
vt 0.20000000298023224 0.5
vt 0.29853516817092896 0
vt 0.29853516817092896 0.5
vt 0.89853513240814209 0.5
vt 0.40000000596046448 0.5
vt 0.89853513240814209 0.99853515625
vt 0.40000000596046448 0.99853515625
vt 0.89853513240814209 0
vt 0.40000000596046448 0
vt 0.89853513240814209 0.49853515625
vt 0.40000000596046448 0.49853515625
vn -1 0 0
vn -1 0 0
vn -1 0 0
vn -1 0 0
vn 0 0 -1
vn 0 0 -1
vn 0 0 -1
vn 0 0 -1
vn 1 0 0
vn 1 0 0
vn 1 0 0
vn 1 0 0
vn 0 0 1
vn 0 0 1
vn 0 0 1
vn 0 0 1
vn 0 -1 0
vn 0 -1 0
vn 0 -1 0
vn 0 -1 0
vn 0 1 0
vn 0 1 0
vn 0 1 0
vn 0 1 0
f 26/74/74 28/76/76 27/75/75 25/73/73
f 29/78/78 30/80/80 28/79/79 26/77/77
f 31/82/82 32/84/84 30/83/83 29/81/81
f 25/86/86 27/88/88 32/87/87 31/85/85
f 27/90/90 28/89/89 30/91/91 32/92/92
f 25/94/94 31/96/96 29/95/95 26/93/93
g object_5
v 50 0 -149.85667419433594
v 50 0 -159.85667419433594
v 50 -2 -149.85667419433594
v 50 -2 -159.85667419433594
v 60 0 -159.85667419433594
v 60 -2 -159.85667419433594
v 60 0 -149.85667419433594
v 60 -2 -149.85667419433594
vt 0.10000000149011612 0
vt 0.10000000149011612 0.5
vt 0.19853515923023224 0
vt 0.19853515923023224 0.5
vt 0 0
vt 0 0.5
vt 0.098535157740116119 0
vt 0.098535157740116119 0.5
vt 0.30000001192092896 0
vt 0.30000001192092896 0.5
vt 0.39853516221046448 0
vt 0.39853516221046448 0.5
vt 0.20000000298023224 0
vt 0.20000000298023224 0.5
vt 0.29853516817092896 0
vt 0.29853516817092896 0.5
vt 0.89853513240814209 0.5
vt 0.40000000596046448 0.5
vt 0.89853513240814209 0.99853515625
vt 0.40000000596046448 0.99853515625
vt 0.89853513240814209 0
vt 0.40000000596046448 0
vt 0.89853513240814209 0.49853515625
vt 0.40000000596046448 0.49853515625
vn -1 0 0
vn -1 0 0
vn -1 0 0
vn -1 0 0
vn 0 0 -1
vn 0 0 -1
vn 0 0 -1
vn 0 0 -1
vn 1 0 0
vn 1 0 0
vn 1 0 0
vn 1 0 0
vn 0 0 1
vn 0 0 1
vn 0 0 1
vn 0 0 1
vn 0 -1 0
vn 0 -1 0
vn 0 -1 0
vn 0 -1 0
vn 0 1 0
vn 0 1 0
vn 0 1 0
vn 0 1 0
f 34/98/98 36/100/100 35/99/99 33/97/97
f 37/102/102 38/104/104 36/103/103 34/101/101
f 39/106/106 40/108/108 38/107/107 37/105/105
f 33/110/110 35/112/112 40/111/111 39/109/109
f 35/114/114 36/113/113 38/115/115 40/116/116
f 33/118/118 39/120/120 37/119/119 34/117/117
g object_6
v 50 0 -139.85667419433594
v 50 0 -149.85667419433594
v 50 -2 -139.85667419433594
v 50 -2 -149.85667419433594
v 60 0 -149.85667419433594
v 60 -2 -149.85667419433594
v 60 0 -139.85667419433594
v 60 -2 -139.85667419433594
vt 0.10000000149011612 0
vt 0.10000000149011612 0.5
vt 0.19853515923023224 0
vt 0.19853515923023224 0.5
vt 0 0
vt 0 0.5
vt 0.098535157740116119 0
vt 0.098535157740116119 0.5
vt 0.30000001192092896 0
vt 0.30000001192092896 0.5
vt 0.39853516221046448 0
vt 0.39853516221046448 0.5
vt 0.20000000298023224 0
vt 0.20000000298023224 0.5
vt 0.29853516817092896 0
vt 0.29853516817092896 0.5
vt 0.89853513240814209 0.5
vt 0.40000000596046448 0.5
vt 0.89853513240814209 0.99853515625
vt 0.40000000596046448 0.99853515625
vt 0.89853513240814209 0
vt 0.40000000596046448 0
vt 0.89853513240814209 0.49853515625
vt 0.40000000596046448 0.49853515625
vn -1 0 0
vn -1 0 0
vn -1 0 0
vn -1 0 0
vn 0 0 -1
vn 0 0 -1
vn 0 0 -1
vn 0 0 -1
vn 1 0 0
vn 1 0 0
vn 1 0 0
vn 1 0 0
vn 0 0 1
vn 0 0 1
vn 0 0 1
vn 0 0 1
vn 0 -1 0
vn 0 -1 0
vn 0 -1 0
vn 0 -1 0
vn 0 1 0
vn 0 1 0
vn 0 1 0
vn 0 1 0
f 42/122/122 44/124/124 43/123/123 41/121/121
f 45/126/126 46/128/128 44/127/127 42/125/125
f 47/130/130 48/132/132 46/131/131 45/129/129
f 41/134/134 43/136/136 48/135/135 47/133/133
f 43/138/138 44/137/137 46/139/139 48/140/140
f 41/142/142 47/144/144 45/143/143 42/141/141
g object_7
v 40 0 -189.85667419433594
v 40 0 -199.85667419433594
v 40 -2 -189.85667419433594
v 40 -2 -199.85667419433594
v 50 0 -199.85667419433594
v 50 -2 -199.85667419433594
v 50 0 -189.85667419433594
v 50 -2 -189.85667419433594
vt 0.10000000149011612 0
vt 0.10000000149011612 0.5
vt 0.19853515923023224 0
vt 0.19853515923023224 0.5
vt 0 0
vt 0 0.5
vt 0.098535157740116119 0
vt 0.098535157740116119 0.5
vt 0.30000001192092896 0
vt 0.30000001192092896 0.5
vt 0.39853516221046448 0
vt 0.39853516221046448 0.5
vt 0.20000000298023224 0
vt 0.20000000298023224 0.5
vt 0.29853516817092896 0
vt 0.29853516817092896 0.5
vt 0.89853513240814209 0.5
vt 0.40000000596046448 0.5
vt 0.89853513240814209 0.99853515625
vt 0.40000000596046448 0.99853515625
vt 0.89853513240814209 0
vt 0.40000000596046448 0
vt 0.89853513240814209 0.49853515625
vt 0.40000000596046448 0.49853515625
vn -1 0 0
vn -1 0 0
vn -1 0 0
vn -1 0 0
vn 0 0 -1
vn 0 0 -1
vn 0 0 -1
vn 0 0 -1
vn 1 0 0
vn 1 0 0
vn 1 0 0
vn 1 0 0
vn 0 0 1
vn 0 0 1
vn 0 0 1
vn 0 0 1
vn 0 -1 0
vn 0 -1 0
vn 0 -1 0
vn 0 -1 0
vn 0 1 0
vn 0 1 0
vn 0 1 0
vn 0 1 0
f 50/146/146 52/148/148 51/147/147 49/145/145
f 53/150/150 54/152/152 52/151/151 50/149/149
f 55/154/154 56/156/156 54/155/155 53/153/153
f 49/158/158 51/160/160 56/159/159 55/157/157
f 51/162/162 52/161/161 54/163/163 56/164/164
f 49/166/166 55/168/168 53/167/167 50/165/165
g object_8
v 40 0 -179.85667419433594
v 40 0 -189.85667419433594
v 40 -2 -179.85667419433594
v 40 -2 -189.85667419433594
v 50 0 -189.85667419433594
v 50 -2 -189.85667419433594
v 50 0 -179.85667419433594
v 50 -2 -179.85667419433594
vt 0.10000000149011612 0
vt 0.10000000149011612 0.5
vt 0.19853515923023224 0
vt 0.19853515923023224 0.5
vt 0 0
vt 0 0.5
vt 0.098535157740116119 0
vt 0.098535157740116119 0.5
vt 0.30000001192092896 0
vt 0.30000001192092896 0.5
vt 0.39853516221046448 0
vt 0.39853516221046448 0.5
vt 0.20000000298023224 0
vt 0.20000000298023224 0.5
vt 0.29853516817092896 0
vt 0.29853516817092896 0.5
vt 0.89853513240814209 0.5
vt 0.40000000596046448 0.5
vt 0.89853513240814209 0.99853515625
vt 0.40000000596046448 0.99853515625
vt 0.89853513240814209 0
vt 0.40000000596046448 0
vt 0.89853513240814209 0.49853515625
vt 0.40000000596046448 0.49853515625
vn -1 0 0
vn -1 0 0
vn -1 0 0
vn -1 0 0
vn 0 0 -1
vn 0 0 -1
vn 0 0 -1
vn 0 0 -1
vn 1 0 0
vn 1 0 0
vn 1 0 0
vn 1 0 0
vn 0 0 1
vn 0 0 1
vn 0 0 1
vn 0 0 1
vn 0 -1 0
vn 0 -1 0
vn 0 -1 0
vn 0 -1 0
vn 0 1 0
vn 0 1 0
vn 0 1 0
vn 0 1 0
f 58/170/170 60/172/172 59/171/171 57/169/169
f 61/174/174 62/176/176 60/175/175 58/173/173
f 63/178/178 64/180/180 62/179/179 61/177/177
f 57/182/182 59/184/184 64/183/183 63/181/181
f 59/186/186 60/185/185 62/187/187 64/188/188
f 57/190/190 63/192/192 61/191/191 58/189/189
g object_9
v 40 0 -169.85667419433594
v 40 0 -179.85667419433594
v 40 -2 -169.85667419433594
v 40 -2 -179.85667419433594
v 50 0 -179.85667419433594
v 50 -2 -179.85667419433594
v 50 0 -169.85667419433594
v 50 -2 -169.85667419433594
vt 0.10000000149011612 0
vt 0.10000000149011612 0.5
vt 0.19853515923023224 0
vt 0.19853515923023224 0.5
vt 0 0
vt 0 0.5
vt 0.098535157740116119 0
vt 0.098535157740116119 0.5
vt 0.30000001192092896 0
vt 0.30000001192092896 0.5
vt 0.39853516221046448 0
vt 0.39853516221046448 0.5
vt 0.20000000298023224 0
vt 0.20000000298023224 0.5
vt 0.29853516817092896 0
vt 0.29853516817092896 0.5
vt 0.89853513240814209 0.5
vt 0.40000000596046448 0.5
vt 0.89853513240814209 0.99853515625
vt 0.40000000596046448 0.99853515625
vt 0.89853513240814209 0
vt 0.40000000596046448 0
vt 0.89853513240814209 0.49853515625
vt 0.40000000596046448 0.49853515625
vn -1 0 0
vn -1 0 0
vn -1 0 0
vn -1 0 0
vn 0 0 -1
vn 0 0 -1
vn 0 0 -1
vn 0 0 -1
vn 1 0 0
vn 1 0 0
vn 1 0 0
vn 1 0 0
vn 0 0 1
vn 0 0 1
vn 0 0 1
vn 0 0 1
vn 0 -1 0
vn 0 -1 0
vn 0 -1 0
vn 0 -1 0
vn 0 1 0
vn 0 1 0
vn 0 1 0
vn 0 1 0
f 66/194/194 68/196/196 67/195/195 65/193/193
f 69/198/198 70/200/200 68/199/199 66/197/197
f 71/202/202 72/204/204 70/203/203 69/201/201
f 65/206/206 67/208/208 72/207/207 71/205/205
f 67/210/210 68/209/209 70/211/211 72/212/212
f 65/214/214 71/216/216 69/215/215 66/213/213
g object_10
v 40 0 -159.85667419433594
v 40 0 -169.85667419433594
v 40 -2 -159.85667419433594
v 40 -2 -169.85667419433594
v 50 0 -169.85667419433594
v 50 -2 -169.85667419433594
v 50 0 -159.85667419433594
v 50 -2 -159.85667419433594
vt 0.10000000149011612 0
vt 0.10000000149011612 0.5
vt 0.19853515923023224 0
vt 0.19853515923023224 0.5
vt 0 0
vt 0 0.5
vt 0.098535157740116119 0
vt 0.098535157740116119 0.5
vt 0.30000001192092896 0
vt 0.30000001192092896 0.5
vt 0.39853516221046448 0
vt 0.39853516221046448 0.5
vt 0.20000000298023224 0
vt 0.20000000298023224 0.5
vt 0.29853516817092896 0
vt 0.29853516817092896 0.5
vt 0.89853513240814209 0.5
vt 0.40000000596046448 0.5
vt 0.89853513240814209 0.99853515625
vt 0.40000000596046448 0.99853515625
vt 0.89853513240814209 0
vt 0.40000000596046448 0
vt 0.89853513240814209 0.49853515625
vt 0.40000000596046448 0.49853515625
vn -1 0 0
vn -1 0 0
vn -1 0 0
vn -1 0 0
vn 0 0 -1
vn 0 0 -1
vn 0 0 -1
vn 0 0 -1
vn 1 0 0
vn 1 0 0
vn 1 0 0
vn 1 0 0
vn 0 0 1
vn 0 0 1
vn 0 0 1
vn 0 0 1
vn 0 -1 0
vn 0 -1 0
vn 0 -1 0
vn 0 -1 0
vn 0 1 0
vn 0 1 0
vn 0 1 0
vn 0 1 0
f 74/218/218 76/220/220 75/219/219 73/217/217
f 77/222/222 78/224/224 76/223/223 74/221/221
f 79/226/226 80/228/228 78/227/227 77/225/225
f 73/230/230 75/232/232 80/231/231 79/229/229
f 75/234/234 76/233/233 78/235/235 80/236/236
f 73/238/238 79/240/240 77/239/239 74/237/237
g object_11
v 40 0 -149.85667419433594
v 40 0 -159.85667419433594
v 40 -2 -149.85667419433594
v 40 -2 -159.85667419433594
v 50 0 -159.85667419433594
v 50 -2 -159.85667419433594
v 50 0 -149.85667419433594
v 50 -2 -149.85667419433594
vt 0.10000000149011612 0
vt 0.10000000149011612 0.5
vt 0.19853515923023224 0
vt 0.19853515923023224 0.5
vt 0 0
vt 0 0.5
vt 0.098535157740116119 0
vt 0.098535157740116119 0.5
vt 0.30000001192092896 0
vt 0.30000001192092896 0.5
vt 0.39853516221046448 0
vt 0.39853516221046448 0.5
vt 0.20000000298023224 0
vt 0.20000000298023224 0.5
vt 0.29853516817092896 0
vt 0.29853516817092896 0.5
vt 0.89853513240814209 0.5
vt 0.40000000596046448 0.5
vt 0.89853513240814209 0.99853515625
vt 0.40000000596046448 0.99853515625
vt 0.89853513240814209 0
vt 0.40000000596046448 0
vt 0.89853513240814209 0.49853515625
vt 0.40000000596046448 0.49853515625
vn -1 0 0
vn -1 0 0
vn -1 0 0
vn -1 0 0
vn 0 0 -1
vn 0 0 -1
vn 0 0 -1
vn 0 0 -1
vn 1 0 0
vn 1 0 0
vn 1 0 0
vn 1 0 0
vn 0 0 1
vn 0 0 1
vn 0 0 1
vn 0 0 1
vn 0 -1 0
vn 0 -1 0
vn 0 -1 0
vn 0 -1 0
vn 0 1 0
vn 0 1 0
vn 0 1 0
vn 0 1 0
f 82/242/242 84/244/244 83/243/243 81/241/241
f 85/246/246 86/248/248 84/247/247 82/245/245
f 87/250/250 88/252/252 86/251/251 85/249/249
f 81/254/254 83/256/256 88/255/255 87/253/253
f 83/258/258 84/257/257 86/259/259 88/260/260
f 81/262/262 87/264/264 85/263/263 82/261/261
g object_12
v 40 0 -139.85667419433594
v 40 0 -149.85667419433594
v 40 -2 -139.85667419433594
v 40 -2 -149.85667419433594
v 50 0 -149.85667419433594
v 50 -2 -149.85667419433594
v 50 0 -139.85667419433594
v 50 -2 -139.85667419433594
vt 0.10000000149011612 0
vt 0.10000000149011612 0.5
vt 0.19853515923023224 0
vt 0.19853515923023224 0.5
vt 0 0
vt 0 0.5
vt 0.098535157740116119 0
vt 0.098535157740116119 0.5
vt 0.30000001192092896 0
vt 0.30000001192092896 0.5
vt 0.39853516221046448 0
vt 0.39853516221046448 0.5
vt 0.20000000298023224 0
vt 0.20000000298023224 0.5
vt 0.29853516817092896 0
vt 0.29853516817092896 0.5
vt 0.89853513240814209 0.5
vt 0.40000000596046448 0.5
vt 0.89853513240814209 0.99853515625
vt 0.40000000596046448 0.99853515625
vt 0.89853513240814209 0
vt 0.40000000596046448 0
vt 0.89853513240814209 0.49853515625
vt 0.40000000596046448 0.49853515625
vn -1 0 0
vn -1 0 0
vn -1 0 0
vn -1 0 0
vn 0 0 -1
vn 0 0 -1
vn 0 0 -1
vn 0 0 -1
vn 1 0 0
vn 1 0 0
vn 1 0 0
vn 1 0 0
vn 0 0 1
vn 0 0 1
vn 0 0 1
vn 0 0 1
vn 0 -1 0
vn 0 -1 0
vn 0 -1 0
vn 0 -1 0
vn 0 1 0
vn 0 1 0
vn 0 1 0
vn 0 1 0
f 90/266/266 92/268/268 91/267/267 89/265/265
f 93/270/270 94/272/272 92/271/271 90/269/269
f 95/274/274 96/276/276 94/275/275 93/273/273
f 89/278/278 91/280/280 96/279/279 95/277/277
f 91/282/282 92/281/281 94/283/283 96/284/284
f 89/286/286 95/288/288 93/287/287 90/285/285
g object_13
v 30 0 -189.85667419433594
v 30 0 -199.85667419433594
v 30 -2 -189.85667419433594
v 30 -2 -199.85667419433594
v 40 0 -199.85667419433594
v 40 -2 -199.85667419433594
v 40 0 -189.85667419433594
v 40 -2 -189.85667419433594
vt 0.10000000149011612 0
vt 0.10000000149011612 0.5
vt 0.19853515923023224 0
vt 0.19853515923023224 0.5
vt 0 0
vt 0 0.5
vt 0.098535157740116119 0
vt 0.098535157740116119 0.5
vt 0.30000001192092896 0
vt 0.30000001192092896 0.5
vt 0.39853516221046448 0
vt 0.39853516221046448 0.5
vt 0.20000000298023224 0
vt 0.20000000298023224 0.5
vt 0.29853516817092896 0
vt 0.29853516817092896 0.5
vt 0.89853513240814209 0.5
vt 0.40000000596046448 0.5
vt 0.89853513240814209 0.99853515625
vt 0.40000000596046448 0.99853515625
vt 0.89853513240814209 0
vt 0.40000000596046448 0
vt 0.89853513240814209 0.49853515625
vt 0.40000000596046448 0.49853515625
vn -1 0 0
vn -1 0 0
vn -1 0 0
vn -1 0 0
vn 0 0 -1
vn 0 0 -1
vn 0 0 -1
vn 0 0 -1
vn 1 0 0
vn 1 0 0
vn 1 0 0
vn 1 0 0
vn 0 0 1
vn 0 0 1
vn 0 0 1
vn 0 0 1
vn 0 -1 0
vn 0 -1 0
vn 0 -1 0
vn 0 -1 0
vn 0 1 0
vn 0 1 0
vn 0 1 0
vn 0 1 0
f 98/290/290 100/292/292 99/291/291 97/289/289
f 101/294/294 102/296/296 100/295/295 98/293/293
f 103/298/298 104/300/300 102/299/299 101/297/297
f 97/302/302 99/304/304 104/303/303 103/301/301
f 99/306/306 100/305/305 102/307/307 104/308/308
f 97/310/310 103/312/312 101/311/311 98/309/309
g object_14
v 30 0 -179.85667419433594
v 30 0 -189.85667419433594
v 30 -2 -179.85667419433594
v 30 -2 -189.85667419433594
v 40 0 -189.85667419433594
v 40 -2 -189.85667419433594
v 40 0 -179.85667419433594
v 40 -2 -179.85667419433594
vt 0.10000000149011612 0
vt 0.10000000149011612 0.5
vt 0.19853515923023224 0
vt 0.19853515923023224 0.5
vt 0 0
vt 0 0.5
vt 0.098535157740116119 0
vt 0.098535157740116119 0.5
vt 0.30000001192092896 0
vt 0.30000001192092896 0.5
vt 0.39853516221046448 0
vt 0.39853516221046448 0.5
vt 0.20000000298023224 0
vt 0.20000000298023224 0.5
vt 0.29853516817092896 0
vt 0.29853516817092896 0.5
vt 0.89853513240814209 0.5
vt 0.40000000596046448 0.5
vt 0.89853513240814209 0.99853515625
vt 0.40000000596046448 0.99853515625
vt 0.89853513240814209 0
vt 0.40000000596046448 0
vt 0.89853513240814209 0.49853515625
vt 0.40000000596046448 0.49853515625
vn -1 0 0
vn -1 0 0
vn -1 0 0
vn -1 0 0
vn 0 0 -1
vn 0 0 -1
vn 0 0 -1
vn 0 0 -1
vn 1 0 0
vn 1 0 0
vn 1 0 0
vn 1 0 0
vn 0 0 1
vn 0 0 1
vn 0 0 1
vn 0 0 1
vn 0 -1 0
vn 0 -1 0
vn 0 -1 0
vn 0 -1 0
vn 0 1 0
vn 0 1 0
vn 0 1 0
vn 0 1 0
f 106/314/314 108/316/316 107/315/315 105/313/313
f 109/318/318 110/320/320 108/319/319 106/317/317
f 111/322/322 112/324/324 110/323/323 109/321/321
f 105/326/326 107/328/328 112/327/327 111/325/325
f 107/330/330 108/329/329 110/331/331 112/332/332
f 105/334/334 111/336/336 109/335/335 106/333/333
g object_15
v 30 0 -169.85667419433594
v 30 0 -179.85667419433594
v 30 -2 -169.85667419433594
v 30 -2 -179.85667419433594
v 40 0 -179.85667419433594
v 40 -2 -179.85667419433594
v 40 0 -169.85667419433594
v 40 -2 -169.85667419433594
vt 0.10000000149011612 0
vt 0.10000000149011612 0.5
vt 0.19853515923023224 0
vt 0.19853515923023224 0.5
vt 0 0
vt 0 0.5
vt 0.098535157740116119 0
vt 0.098535157740116119 0.5
vt 0.30000001192092896 0
vt 0.30000001192092896 0.5
vt 0.39853516221046448 0
vt 0.39853516221046448 0.5
vt 0.20000000298023224 0
vt 0.20000000298023224 0.5
vt 0.29853516817092896 0
vt 0.29853516817092896 0.5
vt 0.89853513240814209 0.5
vt 0.40000000596046448 0.5
vt 0.89853513240814209 0.99853515625
vt 0.40000000596046448 0.99853515625
vt 0.89853513240814209 0
vt 0.40000000596046448 0
vt 0.89853513240814209 0.49853515625
vt 0.40000000596046448 0.49853515625
vn -1 0 0
vn -1 0 0
vn -1 0 0
vn -1 0 0
vn 0 0 -1
vn 0 0 -1
vn 0 0 -1
vn 0 0 -1
vn 1 0 0
vn 1 0 0
vn 1 0 0
vn 1 0 0
vn 0 0 1
vn 0 0 1
vn 0 0 1
vn 0 0 1
vn 0 -1 0
vn 0 -1 0
vn 0 -1 0
vn 0 -1 0
vn 0 1 0
vn 0 1 0
vn 0 1 0
vn 0 1 0
f 114/338/338 116/340/340 115/339/339 113/337/337
f 117/342/342 118/344/344 116/343/343 114/341/341
f 119/346/346 120/348/348 118/347/347 117/345/345
f 113/350/350 115/352/352 120/351/351 119/349/349
f 115/354/354 116/353/353 118/355/355 120/356/356
f 113/358/358 119/360/360 117/359/359 114/357/357
g object_16
v 30 0 -159.85667419433594
v 30 0 -169.85667419433594
v 30 -2 -159.85667419433594
v 30 -2 -169.85667419433594
v 40 0 -169.85667419433594
v 40 -2 -169.85667419433594
v 40 0 -159.85667419433594
v 40 -2 -159.85667419433594
vt 0.10000000149011612 0
vt 0.10000000149011612 0.5
vt 0.19853515923023224 0
vt 0.19853515923023224 0.5
vt 0 0
vt 0 0.5
vt 0.098535157740116119 0
vt 0.098535157740116119 0.5
vt 0.30000001192092896 0
vt 0.30000001192092896 0.5
vt 0.39853516221046448 0
vt 0.39853516221046448 0.5
vt 0.20000000298023224 0
vt 0.20000000298023224 0.5
vt 0.29853516817092896 0
vt 0.29853516817092896 0.5
vt 0.89853513240814209 0.5
vt 0.40000000596046448 0.5
vt 0.89853513240814209 0.99853515625
vt 0.40000000596046448 0.99853515625
vt 0.89853513240814209 0
vt 0.40000000596046448 0
vt 0.89853513240814209 0.49853515625
vt 0.40000000596046448 0.49853515625
vn -1 0 0
vn -1 0 0
vn -1 0 0
vn -1 0 0
vn 0 0 -1
vn 0 0 -1
vn 0 0 -1
vn 0 0 -1
vn 1 0 0
vn 1 0 0
vn 1 0 0
vn 1 0 0
vn 0 0 1
vn 0 0 1
vn 0 0 1
vn 0 0 1
vn 0 -1 0
vn 0 -1 0
vn 0 -1 0
vn 0 -1 0
vn 0 1 0
vn 0 1 0
vn 0 1 0
vn 0 1 0
f 122/362/362 124/364/364 123/363/363 121/361/361
f 125/366/366 126/368/368 124/367/367 122/365/365
f 127/370/370 128/372/372 126/371/371 125/369/369
f 121/374/374 123/376/376 128/375/375 127/373/373
f 123/378/378 124/377/377 126/379/379 128/380/380
f 121/382/382 127/384/384 125/383/383 122/381/381
g object_17
v 30 0 -149.85667419433594
v 30 0 -159.85667419433594
v 30 -2 -149.85667419433594
v 30 -2 -159.85667419433594
v 40 0 -159.85667419433594
v 40 -2 -159.85667419433594
v 40 0 -149.85667419433594
v 40 -2 -149.85667419433594
vt 0.10000000149011612 0
vt 0.10000000149011612 0.5
vt 0.19853515923023224 0
vt 0.19853515923023224 0.5
vt 0 0
vt 0 0.5
vt 0.098535157740116119 0
vt 0.098535157740116119 0.5
vt 0.30000001192092896 0
vt 0.30000001192092896 0.5
vt 0.39853516221046448 0
vt 0.39853516221046448 0.5
vt 0.20000000298023224 0
vt 0.20000000298023224 0.5
vt 0.29853516817092896 0
vt 0.29853516817092896 0.5
vt 0.89853513240814209 0.5
vt 0.40000000596046448 0.5
vt 0.89853513240814209 0.99853515625
vt 0.40000000596046448 0.99853515625
vt 0.89853513240814209 0
vt 0.40000000596046448 0
vt 0.89853513240814209 0.49853515625
vt 0.40000000596046448 0.49853515625
vn -1 0 0
vn -1 0 0
vn -1 0 0
vn -1 0 0
vn 0 0 -1
vn 0 0 -1
vn 0 0 -1
vn 0 0 -1
vn 1 0 0
vn 1 0 0
vn 1 0 0
vn 1 0 0
vn 0 0 1
vn 0 0 1
vn 0 0 1
vn 0 0 1
vn 0 -1 0
vn 0 -1 0
vn 0 -1 0
vn 0 -1 0
vn 0 1 0
vn 0 1 0
vn 0 1 0
vn 0 1 0
f 130/386/386 132/388/388 131/387/387 129/385/385
f 133/390/390 134/392/392 132/391/391 130/389/389
f 135/394/394 136/396/396 134/395/395 133/393/393
f 129/398/398 131/400/400 136/399/399 135/397/397
f 131/402/402 132/401/401 134/403/403 136/404/404
f 129/406/406 135/408/408 133/407/407 130/405/405
g object_18
v 30 0 -139.85667419433594
v 30 0 -149.85667419433594
v 30 -2 -139.85667419433594
v 30 -2 -149.85667419433594
v 40 0 -149.85667419433594
v 40 -2 -149.85667419433594
v 40 0 -139.85667419433594
v 40 -2 -139.85667419433594
vt 0.10000000149011612 0
vt 0.10000000149011612 0.5
vt 0.19853515923023224 0
vt 0.19853515923023224 0.5
vt 0 0
vt 0 0.5
vt 0.098535157740116119 0
vt 0.098535157740116119 0.5
vt 0.30000001192092896 0
vt 0.30000001192092896 0.5
vt 0.39853516221046448 0
vt 0.39853516221046448 0.5
vt 0.20000000298023224 0
vt 0.20000000298023224 0.5
vt 0.29853516817092896 0
vt 0.29853516817092896 0.5
vt 0.89853513240814209 0.5
vt 0.40000000596046448 0.5
vt 0.89853513240814209 0.99853515625
vt 0.40000000596046448 0.99853515625
vt 0.89853513240814209 0
vt 0.40000000596046448 0
vt 0.89853513240814209 0.49853515625
vt 0.40000000596046448 0.49853515625
vn -1 0 0
vn -1 0 0
vn -1 0 0
vn -1 0 0
vn 0 0 -1
vn 0 0 -1
vn 0 0 -1
vn 0 0 -1
vn 1 0 0
vn 1 0 0
vn 1 0 0
vn 1 0 0
vn 0 0 1
vn 0 0 1
vn 0 0 1
vn 0 0 1
vn 0 -1 0
vn 0 -1 0
vn 0 -1 0
vn 0 -1 0
vn 0 1 0
vn 0 1 0
vn 0 1 0
vn 0 1 0
f 138/410/410 140/412/412 139/411/411 137/409/409
f 141/414/414 142/416/416 140/415/415 138/413/413
f 143/418/418 144/420/420 142/419/419 141/417/417
f 137/422/422 139/424/424 144/423/423 143/421/421
f 139/426/426 140/425/425 142/427/427 144/428/428
f 137/430/430 143/432/432 141/431/431 138/429/429
g object_19
v 20 0 -189.85667419433594
v 20 0 -199.85667419433594
v 20 -2 -189.85667419433594
v 20 -2 -199.85667419433594
v 30 0 -199.85667419433594
v 30 -2 -199.85667419433594
v 30 0 -189.85667419433594
v 30 -2 -189.85667419433594
vt 0.10000000149011612 0
vt 0.10000000149011612 0.5
vt 0.19853515923023224 0
vt 0.19853515923023224 0.5
vt 0 0
vt 0 0.5
vt 0.098535157740116119 0
vt 0.098535157740116119 0.5
vt 0.30000001192092896 0
vt 0.30000001192092896 0.5
vt 0.39853516221046448 0
vt 0.39853516221046448 0.5
vt 0.20000000298023224 0
vt 0.20000000298023224 0.5
vt 0.29853516817092896 0
vt 0.29853516817092896 0.5
vt 0.89853513240814209 0.5
vt 0.40000000596046448 0.5
vt 0.89853513240814209 0.99853515625
vt 0.40000000596046448 0.99853515625
vt 0.89853513240814209 0
vt 0.40000000596046448 0
vt 0.89853513240814209 0.49853515625
vt 0.40000000596046448 0.49853515625
vn -1 0 0
vn -1 0 0
vn -1 0 0
vn -1 0 0
vn 0 0 -1
vn 0 0 -1
vn 0 0 -1
vn 0 0 -1
vn 1 0 0
vn 1 0 0
vn 1 0 0
vn 1 0 0
vn 0 0 1
vn 0 0 1
vn 0 0 1
vn 0 0 1
vn 0 -1 0
vn 0 -1 0
vn 0 -1 0
vn 0 -1 0
vn 0 1 0
vn 0 1 0
vn 0 1 0
vn 0 1 0
f 146/434/434 148/436/436 147/435/435 145/433/433
f 149/438/438 150/440/440 148/439/439 146/437/437
f 151/442/442 152/444/444 150/443/443 149/441/441
f 145/446/446 147/448/448 152/447/447 151/445/445
f 147/450/450 148/449/449 150/451/451 152/452/452
f 145/454/454 151/456/456 149/455/455 146/453/453
g object_20
v 20 0 -179.85667419433594
v 20 0 -189.85667419433594
v 20 -2 -179.85667419433594
v 20 -2 -189.85667419433594
v 30 0 -189.85667419433594
v 30 -2 -189.85667419433594
v 30 0 -179.85667419433594
v 30 -2 -179.85667419433594
vt 0.10000000149011612 0
vt 0.10000000149011612 0.5
vt 0.19853515923023224 0
vt 0.19853515923023224 0.5
vt 0 0
vt 0 0.5
vt 0.098535157740116119 0
vt 0.098535157740116119 0.5
vt 0.30000001192092896 0
vt 0.30000001192092896 0.5
vt 0.39853516221046448 0
vt 0.39853516221046448 0.5
vt 0.20000000298023224 0
vt 0.20000000298023224 0.5
vt 0.29853516817092896 0
vt 0.29853516817092896 0.5
vt 0.89853513240814209 0.5
vt 0.40000000596046448 0.5
vt 0.89853513240814209 0.99853515625
vt 0.40000000596046448 0.99853515625
vt 0.89853513240814209 0
vt 0.40000000596046448 0
vt 0.89853513240814209 0.49853515625
vt 0.40000000596046448 0.49853515625
vn -1 0 0
vn -1 0 0
vn -1 0 0
vn -1 0 0
vn 0 0 -1
vn 0 0 -1
vn 0 0 -1
vn 0 0 -1
vn 1 0 0
vn 1 0 0
vn 1 0 0
vn 1 0 0
vn 0 0 1
vn 0 0 1
vn 0 0 1
vn 0 0 1
vn 0 -1 0
vn 0 -1 0
vn 0 -1 0
vn 0 -1 0
vn 0 1 0
vn 0 1 0
vn 0 1 0
vn 0 1 0
f 154/458/458 156/460/460 155/459/459 153/457/457
f 157/462/462 158/464/464 156/463/463 154/461/461
f 159/466/466 160/468/468 158/467/467 157/465/465
f 153/470/470 155/472/472 160/471/471 159/469/469
f 155/474/474 156/473/473 158/475/475 160/476/476
f 153/478/478 159/480/480 157/479/479 154/477/477
g object_21
v 20 0 -169.85667419433594
v 20 0 -179.85667419433594
v 20 -2 -169.85667419433594
v 20 -2 -179.85667419433594
v 30 0 -179.85667419433594
v 30 -2 -179.85667419433594
v 30 0 -169.85667419433594
v 30 -2 -169.85667419433594
vt 0.10000000149011612 0
vt 0.10000000149011612 0.5
vt 0.19853515923023224 0
vt 0.19853515923023224 0.5
vt 0 0
vt 0 0.5
vt 0.098535157740116119 0
vt 0.098535157740116119 0.5
vt 0.30000001192092896 0
vt 0.30000001192092896 0.5
vt 0.39853516221046448 0
vt 0.39853516221046448 0.5
vt 0.20000000298023224 0
vt 0.20000000298023224 0.5
vt 0.29853516817092896 0
vt 0.29853516817092896 0.5
vt 0.89853513240814209 0.5
vt 0.40000000596046448 0.5
vt 0.89853513240814209 0.99853515625
vt 0.40000000596046448 0.99853515625
vt 0.89853513240814209 0
vt 0.40000000596046448 0
vt 0.89853513240814209 0.49853515625
vt 0.40000000596046448 0.49853515625
vn -1 0 0
vn -1 0 0
vn -1 0 0
vn -1 0 0
vn 0 0 -1
vn 0 0 -1
vn 0 0 -1
vn 0 0 -1
vn 1 0 0
vn 1 0 0
vn 1 0 0
vn 1 0 0
vn 0 0 1
vn 0 0 1
vn 0 0 1
vn 0 0 1
vn 0 -1 0
vn 0 -1 0
vn 0 -1 0
vn 0 -1 0
vn 0 1 0
vn 0 1 0
vn 0 1 0
vn 0 1 0
f 162/482/482 164/484/484 163/483/483 161/481/481
f 165/486/486 166/488/488 164/487/487 162/485/485
f 167/490/490 168/492/492 166/491/491 165/489/489
f 161/494/494 163/496/496 168/495/495 167/493/493
f 163/498/498 164/497/497 166/499/499 168/500/500
f 161/502/502 167/504/504 165/503/503 162/501/501
g object_22
v 20 0 -159.85667419433594
v 20 0 -169.85667419433594
v 20 -2 -159.85667419433594
v 20 -2 -169.85667419433594
v 30 0 -169.85667419433594
v 30 -2 -169.85667419433594
v 30 0 -159.85667419433594
v 30 -2 -159.85667419433594
vt 0.10000000149011612 0
vt 0.10000000149011612 0.5
vt 0.19853515923023224 0
vt 0.19853515923023224 0.5
vt 0 0
vt 0 0.5
vt 0.098535157740116119 0
vt 0.098535157740116119 0.5
vt 0.30000001192092896 0
vt 0.30000001192092896 0.5
vt 0.39853516221046448 0
vt 0.39853516221046448 0.5
vt 0.20000000298023224 0
vt 0.20000000298023224 0.5
vt 0.29853516817092896 0
vt 0.29853516817092896 0.5
vt 0.89853513240814209 0.5
vt 0.40000000596046448 0.5
vt 0.89853513240814209 0.99853515625
vt 0.40000000596046448 0.99853515625
vt 0.89853513240814209 0
vt 0.40000000596046448 0
vt 0.89853513240814209 0.49853515625
vt 0.40000000596046448 0.49853515625
vn -1 0 0
vn -1 0 0
vn -1 0 0
vn -1 0 0
vn 0 0 -1
vn 0 0 -1
vn 0 0 -1
vn 0 0 -1
vn 1 0 0
vn 1 0 0
vn 1 0 0
vn 1 0 0
vn 0 0 1
vn 0 0 1
vn 0 0 1
vn 0 0 1
vn 0 -1 0
vn 0 -1 0
vn 0 -1 0
vn 0 -1 0
vn 0 1 0
vn 0 1 0
vn 0 1 0
vn 0 1 0
f 170/506/506 172/508/508 171/507/507 169/505/505
f 173/510/510 174/512/512 172/511/511 170/509/509
f 175/514/514 176/516/516 174/515/515 173/513/513
f 169/518/518 171/520/520 176/519/519 175/517/517
f 171/522/522 172/521/521 174/523/523 176/524/524
f 169/526/526 175/528/528 173/527/527 170/525/525
g object_23
v 20 0 -149.85667419433594
v 20 0 -159.85667419433594
v 20 -2 -149.85667419433594
v 20 -2 -159.85667419433594
v 30 0 -159.85667419433594
v 30 -2 -159.85667419433594
v 30 0 -149.85667419433594
v 30 -2 -149.85667419433594
vt 0.10000000149011612 0
vt 0.10000000149011612 0.5
vt 0.19853515923023224 0
vt 0.19853515923023224 0.5
vt 0 0
vt 0 0.5
vt 0.098535157740116119 0
vt 0.098535157740116119 0.5
vt 0.30000001192092896 0
vt 0.30000001192092896 0.5
vt 0.39853516221046448 0
vt 0.39853516221046448 0.5
vt 0.20000000298023224 0
vt 0.20000000298023224 0.5
vt 0.29853516817092896 0
vt 0.29853516817092896 0.5
vt 0.89853513240814209 0.5
vt 0.40000000596046448 0.5
vt 0.89853513240814209 0.99853515625
vt 0.40000000596046448 0.99853515625
vt 0.89853513240814209 0
vt 0.40000000596046448 0
vt 0.89853513240814209 0.49853515625
vt 0.40000000596046448 0.49853515625
vn -1 0 0
vn -1 0 0
vn -1 0 0
vn -1 0 0
vn 0 0 -1
vn 0 0 -1
vn 0 0 -1
vn 0 0 -1
vn 1 0 0
vn 1 0 0
vn 1 0 0
vn 1 0 0
vn 0 0 1
vn 0 0 1
vn 0 0 1
vn 0 0 1
vn 0 -1 0
vn 0 -1 0
vn 0 -1 0
vn 0 -1 0
vn 0 1 0
vn 0 1 0
vn 0 1 0
vn 0 1 0
f 178/530/530 180/532/532 179/531/531 177/529/529
f 181/534/534 182/536/536 180/535/535 178/533/533
f 183/538/538 184/540/540 182/539/539 181/537/537
f 177/542/542 179/544/544 184/543/543 183/541/541
f 179/546/546 180/545/545 182/547/547 184/548/548
f 177/550/550 183/552/552 181/551/551 178/549/549
g object_24
v 20 0 -139.85667419433594
v 20 0 -149.85667419433594
v 20 -2 -139.85667419433594
v 20 -2 -149.85667419433594
v 30 0 -149.85667419433594
v 30 -2 -149.85667419433594
v 30 0 -139.85667419433594
v 30 -2 -139.85667419433594
vt 0.10000000149011612 0
vt 0.10000000149011612 0.5
vt 0.19853515923023224 0
vt 0.19853515923023224 0.5
vt 0 0
vt 0 0.5
vt 0.098535157740116119 0
vt 0.098535157740116119 0.5
vt 0.30000001192092896 0
vt 0.30000001192092896 0.5
vt 0.39853516221046448 0
vt 0.39853516221046448 0.5
vt 0.20000000298023224 0
vt 0.20000000298023224 0.5
vt 0.29853516817092896 0
vt 0.29853516817092896 0.5
vt 0.89853513240814209 0.5
vt 0.40000000596046448 0.5
vt 0.89853513240814209 0.99853515625
vt 0.40000000596046448 0.99853515625
vt 0.89853513240814209 0
vt 0.40000000596046448 0
vt 0.89853513240814209 0.49853515625
vt 0.40000000596046448 0.49853515625
vn -1 0 0
vn -1 0 0
vn -1 0 0
vn -1 0 0
vn 0 0 -1
vn 0 0 -1
vn 0 0 -1
vn 0 0 -1
vn 1 0 0
vn 1 0 0
vn 1 0 0
vn 1 0 0
vn 0 0 1
vn 0 0 1
vn 0 0 1
vn 0 0 1
vn 0 -1 0
vn 0 -1 0
vn 0 -1 0
vn 0 -1 0
vn 0 1 0
vn 0 1 0
vn 0 1 0
vn 0 1 0
f 186/554/554 188/556/556 187/555/555 185/553/553
f 189/558/558 190/560/560 188/559/559 186/557/557
f 191/562/562 192/564/564 190/563/563 189/561/561
f 185/566/566 187/568/568 192/567/567 191/565/565
f 187/570/570 188/569/569 190/571/571 192/572/572
f 185/574/574 191/576/576 189/575/575 186/573/573
g object_25
v 10 0 -189.85667419433594
v 10 0 -199.85667419433594
v 10 -2 -189.85667419433594
v 10 -2 -199.85667419433594
v 20 0 -199.85667419433594
v 20 -2 -199.85667419433594
v 20 0 -189.85667419433594
v 20 -2 -189.85667419433594
vt 0.10000000149011612 0
vt 0.10000000149011612 0.5
vt 0.19853515923023224 0
vt 0.19853515923023224 0.5
vt 0 0
vt 0 0.5
vt 0.098535157740116119 0
vt 0.098535157740116119 0.5
vt 0.30000001192092896 0
vt 0.30000001192092896 0.5
vt 0.39853516221046448 0
vt 0.39853516221046448 0.5
vt 0.20000000298023224 0
vt 0.20000000298023224 0.5
vt 0.29853516817092896 0
vt 0.29853516817092896 0.5
vt 0.89853513240814209 0.5
vt 0.40000000596046448 0.5
vt 0.89853513240814209 0.99853515625
vt 0.40000000596046448 0.99853515625
vt 0.89853513240814209 0
vt 0.40000000596046448 0
vt 0.89853513240814209 0.49853515625
vt 0.40000000596046448 0.49853515625
vn -1 0 0
vn -1 0 0
vn -1 0 0
vn -1 0 0
vn 0 0 -1
vn 0 0 -1
vn 0 0 -1
vn 0 0 -1
vn 1 0 0
vn 1 0 0
vn 1 0 0
vn 1 0 0
vn 0 0 1
vn 0 0 1
vn 0 0 1
vn 0 0 1
vn 0 -1 0
vn 0 -1 0
vn 0 -1 0
vn 0 -1 0
vn 0 1 0
vn 0 1 0
vn 0 1 0
vn 0 1 0
f 194/578/578 196/580/580 195/579/579 193/577/577
f 197/582/582 198/584/584 196/583/583 194/581/581
f 199/586/586 200/588/588 198/587/587 197/585/585
f 193/590/590 195/592/592 200/591/591 199/589/589
f 195/594/594 196/593/593 198/595/595 200/596/596
f 193/598/598 199/600/600 197/599/599 194/597/597
g object_26
v 10 0 -179.85667419433594
v 10 0 -189.85667419433594
v 10 -2 -179.85667419433594
v 10 -2 -189.85667419433594
v 20 0 -189.85667419433594
v 20 -2 -189.85667419433594
v 20 0 -179.85667419433594
v 20 -2 -179.85667419433594
vt 0.10000000149011612 0
vt 0.10000000149011612 0.5
vt 0.19853515923023224 0
vt 0.19853515923023224 0.5
vt 0 0
vt 0 0.5
vt 0.098535157740116119 0
vt 0.098535157740116119 0.5
vt 0.30000001192092896 0
vt 0.30000001192092896 0.5
vt 0.39853516221046448 0
vt 0.39853516221046448 0.5
vt 0.20000000298023224 0
vt 0.20000000298023224 0.5
vt 0.29853516817092896 0
vt 0.29853516817092896 0.5
vt 0.89853513240814209 0.5
vt 0.40000000596046448 0.5
vt 0.89853513240814209 0.99853515625
vt 0.40000000596046448 0.99853515625
vt 0.89853513240814209 0
vt 0.40000000596046448 0
vt 0.89853513240814209 0.49853515625
vt 0.40000000596046448 0.49853515625
vn -1 0 0
vn -1 0 0
vn -1 0 0
vn -1 0 0
vn 0 0 -1
vn 0 0 -1
vn 0 0 -1
vn 0 0 -1
vn 1 0 0
vn 1 0 0
vn 1 0 0
vn 1 0 0
vn 0 0 1
vn 0 0 1
vn 0 0 1
vn 0 0 1
vn 0 -1 0
vn 0 -1 0
vn 0 -1 0
vn 0 -1 0
vn 0 1 0
vn 0 1 0
vn 0 1 0
vn 0 1 0
f 202/602/602 204/604/604 203/603/603 201/601/601
f 205/606/606 206/608/608 204/607/607 202/605/605
f 207/610/610 208/612/612 206/611/611 205/609/609
f 201/614/614 203/616/616 208/615/615 207/613/613
f 203/618/618 204/617/617 206/619/619 208/620/620
f 201/622/622 207/624/624 205/623/623 202/621/621
g object_27
v 10 0 -169.85667419433594
v 10 0 -179.85667419433594
v 10 -2 -169.85667419433594
v 10 -2 -179.85667419433594
v 20 0 -179.85667419433594
v 20 -2 -179.85667419433594
v 20 0 -169.85667419433594
v 20 -2 -169.85667419433594
vt 0.10000000149011612 0
vt 0.10000000149011612 0.5
vt 0.19853515923023224 0
vt 0.19853515923023224 0.5
vt 0 0
vt 0 0.5
vt 0.098535157740116119 0
vt 0.098535157740116119 0.5
vt 0.30000001192092896 0
vt 0.30000001192092896 0.5
vt 0.39853516221046448 0
vt 0.39853516221046448 0.5
vt 0.20000000298023224 0
vt 0.20000000298023224 0.5
vt 0.29853516817092896 0
vt 0.29853516817092896 0.5
vt 0.89853513240814209 0.5
vt 0.40000000596046448 0.5
vt 0.89853513240814209 0.99853515625
vt 0.40000000596046448 0.99853515625
vt 0.89853513240814209 0
vt 0.40000000596046448 0
vt 0.89853513240814209 0.49853515625
vt 0.40000000596046448 0.49853515625
vn -1 0 0
vn -1 0 0
vn -1 0 0
vn -1 0 0
vn 0 0 -1
vn 0 0 -1
vn 0 0 -1
vn 0 0 -1
vn 1 0 0
vn 1 0 0
vn 1 0 0
vn 1 0 0
vn 0 0 1
vn 0 0 1
vn 0 0 1
vn 0 0 1
vn 0 -1 0
vn 0 -1 0
vn 0 -1 0
vn 0 -1 0
vn 0 1 0
vn 0 1 0
vn 0 1 0
vn 0 1 0
f 210/626/626 212/628/628 211/627/627 209/625/625
f 213/630/630 214/632/632 212/631/631 210/629/629
f 215/634/634 216/636/636 214/635/635 213/633/633
f 209/638/638 211/640/640 216/639/639 215/637/637
f 211/642/642 212/641/641 214/643/643 216/644/644
f 209/646/646 215/648/648 213/647/647 210/645/645
g object_28
v 10 0 -159.85667419433594
v 10 0 -169.85667419433594
v 10 -2 -159.85667419433594
v 10 -2 -169.85667419433594
v 20 0 -169.85667419433594
v 20 -2 -169.85667419433594
v 20 0 -159.85667419433594
v 20 -2 -159.85667419433594
vt 0.10000000149011612 0
vt 0.10000000149011612 0.5
vt 0.19853515923023224 0
vt 0.19853515923023224 0.5
vt 0 0
vt 0 0.5
vt 0.098535157740116119 0
vt 0.098535157740116119 0.5
vt 0.30000001192092896 0
vt 0.30000001192092896 0.5
vt 0.39853516221046448 0
vt 0.39853516221046448 0.5
vt 0.20000000298023224 0
vt 0.20000000298023224 0.5
vt 0.29853516817092896 0
vt 0.29853516817092896 0.5
vt 0.89853513240814209 0.5
vt 0.40000000596046448 0.5
vt 0.89853513240814209 0.99853515625
vt 0.40000000596046448 0.99853515625
vt 0.89853513240814209 0
vt 0.40000000596046448 0
vt 0.89853513240814209 0.49853515625
vt 0.40000000596046448 0.49853515625
vn -1 0 0
vn -1 0 0
vn -1 0 0
vn -1 0 0
vn 0 0 -1
vn 0 0 -1
vn 0 0 -1
vn 0 0 -1
vn 1 0 0
vn 1 0 0
vn 1 0 0
vn 1 0 0
vn 0 0 1
vn 0 0 1
vn 0 0 1
vn 0 0 1
vn 0 -1 0
vn 0 -1 0
vn 0 -1 0
vn 0 -1 0
vn 0 1 0
vn 0 1 0
vn 0 1 0
vn 0 1 0
f 218/650/650 220/652/652 219/651/651 217/649/649
f 221/654/654 222/656/656 220/655/655 218/653/653
f 223/658/658 224/660/660 222/659/659 221/657/657
f 217/662/662 219/664/664 224/663/663 223/661/661
f 219/666/666 220/665/665 222/667/667 224/668/668
f 217/670/670 223/672/672 221/671/671 218/669/669
g object_29
v 10 0 -149.85667419433594
v 10 0 -159.85667419433594
v 10 -2 -149.85667419433594
v 10 -2 -159.85667419433594
v 20 0 -159.85667419433594
v 20 -2 -159.85667419433594
v 20 0 -149.85667419433594
v 20 -2 -149.85667419433594
vt 0.10000000149011612 0
vt 0.10000000149011612 0.5
vt 0.19853515923023224 0
vt 0.19853515923023224 0.5
vt 0 0
vt 0 0.5
vt 0.098535157740116119 0
vt 0.098535157740116119 0.5
vt 0.30000001192092896 0
vt 0.30000001192092896 0.5
vt 0.39853516221046448 0
vt 0.39853516221046448 0.5
vt 0.20000000298023224 0
vt 0.20000000298023224 0.5
vt 0.29853516817092896 0
vt 0.29853516817092896 0.5
vt 0.89853513240814209 0.5
vt 0.40000000596046448 0.5
vt 0.89853513240814209 0.99853515625
vt 0.40000000596046448 0.99853515625
vt 0.89853513240814209 0
vt 0.40000000596046448 0
vt 0.89853513240814209 0.49853515625
vt 0.40000000596046448 0.49853515625
vn -1 0 0
vn -1 0 0
vn -1 0 0
vn -1 0 0
vn 0 0 -1
vn 0 0 -1
vn 0 0 -1
vn 0 0 -1
vn 1 0 0
vn 1 0 0
vn 1 0 0
vn 1 0 0
vn 0 0 1
vn 0 0 1
vn 0 0 1
vn 0 0 1
vn 0 -1 0
vn 0 -1 0
vn 0 -1 0
vn 0 -1 0
vn 0 1 0
vn 0 1 0
vn 0 1 0
vn 0 1 0
f 226/674/674 228/676/676 227/675/675 225/673/673
f 229/678/678 230/680/680 228/679/679 226/677/677
f 231/682/682 232/684/684 230/683/683 229/681/681
f 225/686/686 227/688/688 232/687/687 231/685/685
f 227/690/690 228/689/689 230/691/691 232/692/692
f 225/694/694 231/696/696 229/695/695 226/693/693
g object_30
v 10 0 -139.85667419433594
v 10 0 -149.85667419433594
v 10 -2 -139.85667419433594
v 10 -2 -149.85667419433594
v 20 0 -149.85667419433594
v 20 -2 -149.85667419433594
v 20 0 -139.85667419433594
v 20 -2 -139.85667419433594
vt 0.10000000149011612 0
vt 0.10000000149011612 0.5
vt 0.19853515923023224 0
vt 0.19853515923023224 0.5
vt 0 0
vt 0 0.5
vt 0.098535157740116119 0
vt 0.098535157740116119 0.5
vt 0.30000001192092896 0
vt 0.30000001192092896 0.5
vt 0.39853516221046448 0
vt 0.39853516221046448 0.5
vt 0.20000000298023224 0
vt 0.20000000298023224 0.5
vt 0.29853516817092896 0
vt 0.29853516817092896 0.5
vt 0.89853513240814209 0.5
vt 0.40000000596046448 0.5
vt 0.89853513240814209 0.99853515625
vt 0.40000000596046448 0.99853515625
vt 0.89853513240814209 0
vt 0.40000000596046448 0
vt 0.89853513240814209 0.49853515625
vt 0.40000000596046448 0.49853515625
vn -1 0 0
vn -1 0 0
vn -1 0 0
vn -1 0 0
vn 0 0 -1
vn 0 0 -1
vn 0 0 -1
vn 0 0 -1
vn 1 0 0
vn 1 0 0
vn 1 0 0
vn 1 0 0
vn 0 0 1
vn 0 0 1
vn 0 0 1
vn 0 0 1
vn 0 -1 0
vn 0 -1 0
vn 0 -1 0
vn 0 -1 0
vn 0 1 0
vn 0 1 0
vn 0 1 0
vn 0 1 0
f 234/698/698 236/700/700 235/699/699 233/697/697
f 237/702/702 238/704/704 236/703/703 234/701/701
f 239/706/706 240/708/708 238/707/707 237/705/705
f 233/710/710 235/712/712 240/711/711 239/709/709
f 235/714/714 236/713/713 238/715/715 240/716/716
f 233/718/718 239/720/720 237/719/719 234/717/717
g object_31
v 0 0 -189.85667419433594
v 0 0 -199.85667419433594
v 0 -2 -189.85667419433594
v 0 -2 -199.85667419433594
v 10 0 -199.85667419433594
v 10 -2 -199.85667419433594
v 10 0 -189.85667419433594
v 10 -2 -189.85667419433594
vt 0.10000000149011612 0
vt 0.10000000149011612 0.5
vt 0.19853515923023224 0
vt 0.19853515923023224 0.5
vt 0 0
vt 0 0.5
vt 0.098535157740116119 0
vt 0.098535157740116119 0.5
vt 0.30000001192092896 0
vt 0.30000001192092896 0.5
vt 0.39853516221046448 0
vt 0.39853516221046448 0.5
vt 0.20000000298023224 0
vt 0.20000000298023224 0.5
vt 0.29853516817092896 0
vt 0.29853516817092896 0.5
vt 0.89853513240814209 0.5
vt 0.40000000596046448 0.5
vt 0.89853513240814209 0.99853515625
vt 0.40000000596046448 0.99853515625
vt 0.89853513240814209 0
vt 0.40000000596046448 0
vt 0.89853513240814209 0.49853515625
vt 0.40000000596046448 0.49853515625
vn -1 0 0
vn -1 0 0
vn -1 0 0
vn -1 0 0
vn 0 0 -1
vn 0 0 -1
vn 0 0 -1
vn 0 0 -1
vn 1 0 0
vn 1 0 0
vn 1 0 0
vn 1 0 0
vn 0 0 1
vn 0 0 1
vn 0 0 1
vn 0 0 1
vn 0 -1 0
vn 0 -1 0
vn 0 -1 0
vn 0 -1 0
vn 0 1 0
vn 0 1 0
vn 0 1 0
vn 0 1 0
f 242/722/722 244/724/724 243/723/723 241/721/721
f 245/726/726 246/728/728 244/727/727 242/725/725
f 247/730/730 248/732/732 246/731/731 245/729/729
f 241/734/734 243/736/736 248/735/735 247/733/733
f 243/738/738 244/737/737 246/739/739 248/740/740
f 241/742/742 247/744/744 245/743/743 242/741/741
g object_32
v 0 0 -179.85667419433594
v 0 0 -189.85667419433594
v 0 -2 -179.85667419433594
v 0 -2 -189.85667419433594
v 10 0 -189.85667419433594
v 10 -2 -189.85667419433594
v 10 0 -179.85667419433594
v 10 -2 -179.85667419433594
vt 0.10000000149011612 0
vt 0.10000000149011612 0.5
vt 0.19853515923023224 0
vt 0.19853515923023224 0.5
vt 0 0
vt 0 0.5
vt 0.098535157740116119 0
vt 0.098535157740116119 0.5
vt 0.30000001192092896 0
vt 0.30000001192092896 0.5
vt 0.39853516221046448 0
vt 0.39853516221046448 0.5
vt 0.20000000298023224 0
vt 0.20000000298023224 0.5
vt 0.29853516817092896 0
vt 0.29853516817092896 0.5
vt 0.89853513240814209 0.5
vt 0.40000000596046448 0.5
vt 0.89853513240814209 0.99853515625
vt 0.40000000596046448 0.99853515625
vt 0.89853513240814209 0
vt 0.40000000596046448 0
vt 0.89853513240814209 0.49853515625
vt 0.40000000596046448 0.49853515625
vn -1 0 0
vn -1 0 0
vn -1 0 0
vn -1 0 0
vn 0 0 -1
vn 0 0 -1
vn 0 0 -1
vn 0 0 -1
vn 1 0 0
vn 1 0 0
vn 1 0 0
vn 1 0 0
vn 0 0 1
vn 0 0 1
vn 0 0 1
vn 0 0 1
vn 0 -1 0
vn 0 -1 0
vn 0 -1 0
vn 0 -1 0
vn 0 1 0
vn 0 1 0
vn 0 1 0
vn 0 1 0
f 250/746/746 252/748/748 251/747/747 249/745/745
f 253/750/750 254/752/752 252/751/751 250/749/749
f 255/754/754 256/756/756 254/755/755 253/753/753
f 249/758/758 251/760/760 256/759/759 255/757/757
f 251/762/762 252/761/761 254/763/763 256/764/764
f 249/766/766 255/768/768 253/767/767 250/765/765
g object_33
v 0 0 -169.85667419433594
v 0 0 -179.85667419433594
v 0 -2 -169.85667419433594
v 0 -2 -179.85667419433594
v 10 0 -179.85667419433594
v 10 -2 -179.85667419433594
v 10 0 -169.85667419433594
v 10 -2 -169.85667419433594
vt 0.10000000149011612 0
vt 0.10000000149011612 0.5
vt 0.19853515923023224 0
vt 0.19853515923023224 0.5
vt 0 0
vt 0 0.5
vt 0.098535157740116119 0
vt 0.098535157740116119 0.5
vt 0.30000001192092896 0
vt 0.30000001192092896 0.5
vt 0.39853516221046448 0
vt 0.39853516221046448 0.5
vt 0.20000000298023224 0
vt 0.20000000298023224 0.5
vt 0.29853516817092896 0
vt 0.29853516817092896 0.5
vt 0.89853513240814209 0.5
vt 0.40000000596046448 0.5
vt 0.89853513240814209 0.99853515625
vt 0.40000000596046448 0.99853515625
vt 0.89853513240814209 0
vt 0.40000000596046448 0
vt 0.89853513240814209 0.49853515625
vt 0.40000000596046448 0.49853515625
vn -1 0 0
vn -1 0 0
vn -1 0 0
vn -1 0 0
vn 0 0 -1
vn 0 0 -1
vn 0 0 -1
vn 0 0 -1
vn 1 0 0
vn 1 0 0
vn 1 0 0
vn 1 0 0
vn 0 0 1
vn 0 0 1
vn 0 0 1
vn 0 0 1
vn 0 -1 0
vn 0 -1 0
vn 0 -1 0
vn 0 -1 0
vn 0 1 0
vn 0 1 0
vn 0 1 0
vn 0 1 0
f 258/770/770 260/772/772 259/771/771 257/769/769
f 261/774/774 262/776/776 260/775/775 258/773/773
f 263/778/778 264/780/780 262/779/779 261/777/777
f 257/782/782 259/784/784 264/783/783 263/781/781
f 259/786/786 260/785/785 262/787/787 264/788/788
f 257/790/790 263/792/792 261/791/791 258/789/789
g object_34
v 0 0 -159.85667419433594
v 0 0 -169.85667419433594
v 0 -2 -159.85667419433594
v 0 -2 -169.85667419433594
v 10 0 -169.85667419433594
v 10 -2 -169.85667419433594
v 10 0 -159.85667419433594
v 10 -2 -159.85667419433594
vt 0.10000000149011612 0
vt 0.10000000149011612 0.5
vt 0.19853515923023224 0
vt 0.19853515923023224 0.5
vt 0 0
vt 0 0.5
vt 0.098535157740116119 0
vt 0.098535157740116119 0.5
vt 0.30000001192092896 0
vt 0.30000001192092896 0.5
vt 0.39853516221046448 0
vt 0.39853516221046448 0.5
vt 0.20000000298023224 0
vt 0.20000000298023224 0.5
vt 0.29853516817092896 0
vt 0.29853516817092896 0.5
vt 0.89853513240814209 0.5
vt 0.40000000596046448 0.5
vt 0.89853513240814209 0.99853515625
vt 0.40000000596046448 0.99853515625
vt 0.89853513240814209 0
vt 0.40000000596046448 0
vt 0.89853513240814209 0.49853515625
vt 0.40000000596046448 0.49853515625
vn -1 0 0
vn -1 0 0
vn -1 0 0
vn -1 0 0
vn 0 0 -1
vn 0 0 -1
vn 0 0 -1
vn 0 0 -1
vn 1 0 0
vn 1 0 0
vn 1 0 0
vn 1 0 0
vn 0 0 1
vn 0 0 1
vn 0 0 1
vn 0 0 1
vn 0 -1 0
vn 0 -1 0
vn 0 -1 0
vn 0 -1 0
vn 0 1 0
vn 0 1 0
vn 0 1 0
vn 0 1 0
f 266/794/794 268/796/796 267/795/795 265/793/793
f 269/798/798 270/800/800 268/799/799 266/797/797
f 271/802/802 272/804/804 270/803/803 269/801/801
f 265/806/806 267/808/808 272/807/807 271/805/805
f 267/810/810 268/809/809 270/811/811 272/812/812
f 265/814/814 271/816/816 269/815/815 266/813/813
g object_35
v 0 0 -149.85667419433594
v 0 0 -159.85667419433594
v 0 -2 -149.85667419433594
v 0 -2 -159.85667419433594
v 10 0 -159.85667419433594
v 10 -2 -159.85667419433594
v 10 0 -149.85667419433594
v 10 -2 -149.85667419433594
vt 0.10000000149011612 0
vt 0.10000000149011612 0.5
vt 0.19853515923023224 0
vt 0.19853515923023224 0.5
vt 0 0
vt 0 0.5
vt 0.098535157740116119 0
vt 0.098535157740116119 0.5
vt 0.30000001192092896 0
vt 0.30000001192092896 0.5
vt 0.39853516221046448 0
vt 0.39853516221046448 0.5
vt 0.20000000298023224 0
vt 0.20000000298023224 0.5
vt 0.29853516817092896 0
vt 0.29853516817092896 0.5
vt 0.89853513240814209 0.5
vt 0.40000000596046448 0.5
vt 0.89853513240814209 0.99853515625
vt 0.40000000596046448 0.99853515625
vt 0.89853513240814209 0
vt 0.40000000596046448 0
vt 0.89853513240814209 0.49853515625
vt 0.40000000596046448 0.49853515625
vn -1 0 0
vn -1 0 0
vn -1 0 0
vn -1 0 0
vn 0 0 -1
vn 0 0 -1
vn 0 0 -1
vn 0 0 -1
vn 1 0 0
vn 1 0 0
vn 1 0 0
vn 1 0 0
vn 0 0 1
vn 0 0 1
vn 0 0 1
vn 0 0 1
vn 0 -1 0
vn 0 -1 0
vn 0 -1 0
vn 0 -1 0
vn 0 1 0
vn 0 1 0
vn 0 1 0
vn 0 1 0
f 274/818/818 276/820/820 275/819/819 273/817/817
f 277/822/822 278/824/824 276/823/823 274/821/821
f 279/826/826 280/828/828 278/827/827 277/825/825
f 273/830/830 275/832/832 280/831/831 279/829/829
f 275/834/834 276/833/833 278/835/835 280/836/836
f 273/838/838 279/840/840 277/839/839 274/837/837
g object_36
v 0 0 -139.85667419433594
v 0 0 -149.85667419433594
v 0 -2 -139.85667419433594
v 0 -2 -149.85667419433594
v 10 0 -149.85667419433594
v 10 -2 -149.85667419433594
v 10 0 -139.85667419433594
v 10 -2 -139.85667419433594
vt 0.10000000149011612 0
vt 0.10000000149011612 0.5
vt 0.19853515923023224 0
vt 0.19853515923023224 0.5
vt 0 0
vt 0 0.5
vt 0.098535157740116119 0
vt 0.098535157740116119 0.5
vt 0.30000001192092896 0
vt 0.30000001192092896 0.5
vt 0.39853516221046448 0
vt 0.39853516221046448 0.5
vt 0.20000000298023224 0
vt 0.20000000298023224 0.5
vt 0.29853516817092896 0
vt 0.29853516817092896 0.5
vt 0.89853513240814209 0.5
vt 0.40000000596046448 0.5
vt 0.89853513240814209 0.99853515625
vt 0.40000000596046448 0.99853515625
vt 0.89853513240814209 0
vt 0.40000000596046448 0
vt 0.89853513240814209 0.49853515625
vt 0.40000000596046448 0.49853515625
vn -1 0 0
vn -1 0 0
vn -1 0 0
vn -1 0 0
vn 0 0 -1
vn 0 0 -1
vn 0 0 -1
vn 0 0 -1
vn 1 0 0
vn 1 0 0
vn 1 0 0
vn 1 0 0
vn 0 0 1
vn 0 0 1
vn 0 0 1
vn 0 0 1
vn 0 -1 0
vn 0 -1 0
vn 0 -1 0
vn 0 -1 0
vn 0 1 0
vn 0 1 0
vn 0 1 0
vn 0 1 0
f 282/842/842 284/844/844 283/843/843 281/841/841
f 285/846/846 286/848/848 284/847/847 282/845/845
f 287/850/850 288/852/852 286/851/851 285/849/849
f 281/854/854 283/856/856 288/855/855 287/853/853
f 283/858/858 284/857/857 286/859/859 288/860/860
f 281/862/862 287/864/864 285/863/863 282/861/861
