# Rhino

g object_1
v 107.96187591552734 0 -93.616973876953125
v 107.96187591552734 0 -103.61697387695312
v 107.96187591552734 -2 -93.616973876953125
v 107.96187591552734 -2 -103.61697387695312
v 117.96187591552734 0 -103.61697387695312
v 117.96187591552734 -2 -103.61697387695312
v 117.96187591552734 0 -93.616973876953125
v 117.96187591552734 -2 -93.616973876953125
vt 0.10000000149011612 0
vt 0.10000000149011612 0.5
vt 0.19853515923023224 0
vt 0.19853515923023224 0.5
vt 0 0
vt 0 0.5
vt 0.098535157740116119 0
vt 0.098535157740116119 0.5
vt 0.30000001192092896 0
vt 0.30000001192092896 0.5
vt 0.39853516221046448 0
vt 0.39853516221046448 0.5
vt 0.20000000298023224 0
vt 0.20000000298023224 0.5
vt 0.29853516817092896 0
vt 0.29853516817092896 0.5
vt 0.89853513240814209 0.5
vt 0.40000000596046448 0.5
vt 0.89853513240814209 0.99853515625
vt 0.40000000596046448 0.99853515625
vt 0.89853513240814209 0
vt 0.40000000596046448 0
vt 0.89853513240814209 0.49853515625
vt 0.40000000596046448 0.49853515625
vn -1 0 0
vn -1 0 0
vn -1 0 0
vn -1 0 0
vn 0 0 -1
vn 0 0 -1
vn 0 0 -1
vn 0 0 -1
vn 1 0 0
vn 1 0 0
vn 1 0 0
vn 1 0 0
vn 0 0 1
vn 0 0 1
vn 0 0 1
vn 0 0 1
vn 0 -1 0
vn 0 -1 0
vn 0 -1 0
vn 0 -1 0
vn 0 1 0
vn 0 1 0
vn 0 1 0
vn 0 1 0
f 2/2/2 4/4/4 3/3/3 1/1/1
f 5/6/6 6/8/8 4/7/7 2/5/5
f 7/10/10 8/12/12 6/11/11 5/9/9
f 1/14/14 3/16/16 8/15/15 7/13/13
f 3/18/18 4/17/17 6/19/19 8/20/20
f 1/22/22 7/24/24 5/23/23 2/21/21
g object_2
v 107.96187591552734 0 -83.616973876953125
v 107.96187591552734 0 -93.616973876953125
v 107.96187591552734 -2 -83.616973876953125
v 107.96187591552734 -2 -93.616973876953125
v 117.96187591552734 0 -93.616973876953125
v 117.96187591552734 -2 -93.616973876953125
v 117.96187591552734 0 -83.616973876953125
v 117.96187591552734 -2 -83.616973876953125
vt 0.10000000149011612 0
vt 0.10000000149011612 0.5
vt 0.19853515923023224 0
vt 0.19853515923023224 0.5
vt 0 0
vt 0 0.5
vt 0.098535157740116119 0
vt 0.098535157740116119 0.5
vt 0.30000001192092896 0
vt 0.30000001192092896 0.5
vt 0.39853516221046448 0
vt 0.39853516221046448 0.5
vt 0.20000000298023224 0
vt 0.20000000298023224 0.5
vt 0.29853516817092896 0
vt 0.29853516817092896 0.5
vt 0.89853513240814209 0.5
vt 0.40000000596046448 0.5
vt 0.89853513240814209 0.99853515625
vt 0.40000000596046448 0.99853515625
vt 0.89853513240814209 0
vt 0.40000000596046448 0
vt 0.89853513240814209 0.49853515625
vt 0.40000000596046448 0.49853515625
vn -1 0 0
vn -1 0 0
vn -1 0 0
vn -1 0 0
vn 0 0 -1
vn 0 0 -1
vn 0 0 -1
vn 0 0 -1
vn 1 0 0
vn 1 0 0
vn 1 0 0
vn 1 0 0
vn 0 0 1
vn 0 0 1
vn 0 0 1
vn 0 0 1
vn 0 -1 0
vn 0 -1 0
vn 0 -1 0
vn 0 -1 0
vn 0 1 0
vn 0 1 0
vn 0 1 0
vn 0 1 0
f 10/26/26 12/28/28 11/27/27 9/25/25
f 13/30/30 14/32/32 12/31/31 10/29/29
f 15/34/34 16/36/36 14/35/35 13/33/33
f 9/38/38 11/40/40 16/39/39 15/37/37
f 11/42/42 12/41/41 14/43/43 16/44/44
f 9/46/46 15/48/48 13/47/47 10/45/45
g object_3
v 107.96187591552734 0 -73.616973876953125
v 107.96187591552734 0 -83.616973876953125
v 107.96187591552734 -2 -73.616973876953125
v 107.96187591552734 -2 -83.616973876953125
v 117.96187591552734 0 -83.616973876953125
v 117.96187591552734 -2 -83.616973876953125
v 117.96187591552734 0 -73.616973876953125
v 117.96187591552734 -2 -73.616973876953125
vt 0.10000000149011612 0
vt 0.10000000149011612 0.5
vt 0.19853515923023224 0
vt 0.19853515923023224 0.5
vt 0 0
vt 0 0.5
vt 0.098535157740116119 0
vt 0.098535157740116119 0.5
vt 0.30000001192092896 0
vt 0.30000001192092896 0.5
vt 0.39853516221046448 0
vt 0.39853516221046448 0.5
vt 0.20000000298023224 0
vt 0.20000000298023224 0.5
vt 0.29853516817092896 0
vt 0.29853516817092896 0.5
vt 0.89853513240814209 0.5
vt 0.40000000596046448 0.5
vt 0.89853513240814209 0.99853515625
vt 0.40000000596046448 0.99853515625
vt 0.89853513240814209 0
vt 0.40000000596046448 0
vt 0.89853513240814209 0.49853515625
vt 0.40000000596046448 0.49853515625
vn -1 0 0
vn -1 0 0
vn -1 0 0
vn -1 0 0
vn 0 0 -1
vn 0 0 -1
vn 0 0 -1
vn 0 0 -1
vn 1 0 0
vn 1 0 0
vn 1 0 0
vn 1 0 0
vn 0 0 1
vn 0 0 1
vn 0 0 1
vn 0 0 1
vn 0 -1 0
vn 0 -1 0
vn 0 -1 0
vn 0 -1 0
vn 0 1 0
vn 0 1 0
vn 0 1 0
vn 0 1 0
f 18/50/50 20/52/52 19/51/51 17/49/49
f 21/54/54 22/56/56 20/55/55 18/53/53
f 23/58/58 24/60/60 22/59/59 21/57/57
f 17/62/62 19/64/64 24/63/63 23/61/61
f 19/66/66 20/65/65 22/67/67 24/68/68
f 17/70/70 23/72/72 21/71/71 18/69/69
g object_4
v 107.96187591552734 0 -63.616970062255859
v 107.96187591552734 0 -73.616973876953125
v 107.96187591552734 -2 -63.616970062255859
v 107.96187591552734 -2 -73.616973876953125
v 117.96187591552734 0 -73.616973876953125
v 117.96187591552734 -2 -73.616973876953125
v 117.96187591552734 0 -63.616970062255859
v 117.96187591552734 -2 -63.616970062255859
vt 0.10000000149011612 0
vt 0.10000000149011612 0.5
vt 0.19853515923023224 0
vt 0.19853515923023224 0.5
vt 0 0
vt 0 0.5
vt 0.098535157740116119 0
vt 0.098535157740116119 0.5
vt 0.30000001192092896 0
vt 0.30000001192092896 0.5
vt 0.39853516221046448 0
vt 0.39853516221046448 0.5
vt 0.20000000298023224 0
vt 0.20000000298023224 0.5
vt 0.29853516817092896 0
vt 0.29853516817092896 0.5
vt 0.89853513240814209 0.5
vt 0.40000000596046448 0.5
vt 0.89853513240814209 0.99853515625
vt 0.40000000596046448 0.99853515625
vt 0.89853513240814209 0
vt 0.40000000596046448 0
vt 0.89853513240814209 0.49853515625
vt 0.40000000596046448 0.49853515625
vn -1 0 0
vn -1 0 0
vn -1 0 0
vn -1 0 0
vn 0 0 -1
vn 0 0 -1
vn 0 0 -1
vn 0 0 -1
vn 1 0 0
vn 1 0 0
vn 1 0 0
vn 1 0 0
vn 0 0 1
vn 0 0 1
vn 0 0 1
vn 0 0 1
vn 0 -1 0
vn 0 -1 0
vn 0 -1 0
vn 0 -1 0
vn 0 1 0
vn 0 1 0
vn 0 1 0
vn 0 1 0
f 26/74/74 28/76/76 27/75/75 25/73/73
f 29/78/78 30/80/80 28/79/79 26/77/77
f 31/82/82 32/84/84 30/83/83 29/81/81
f 25/86/86 27/88/88 32/87/87 31/85/85
f 27/90/90 28/89/89 30/91/91 32/92/92
f 25/94/94 31/96/96 29/95/95 26/93/93
g object_5
v 97.961875915527344 0 -93.616973876953125
v 97.961875915527344 0 -103.61697387695312
v 97.961875915527344 -2 -93.616973876953125
v 97.961875915527344 -2 -103.61697387695312
v 107.96187591552734 0 -103.61697387695312
v 107.96187591552734 -2 -103.61697387695312
v 107.96187591552734 0 -93.616973876953125
v 107.96187591552734 -2 -93.616973876953125
vt 0.10000000149011612 0
vt 0.10000000149011612 0.5
vt 0.19853515923023224 0
vt 0.19853515923023224 0.5
vt 0 0
vt 0 0.5
vt 0.098535157740116119 0
vt 0.098535157740116119 0.5
vt 0.30000001192092896 0
vt 0.30000001192092896 0.5
vt 0.39853516221046448 0
vt 0.39853516221046448 0.5
vt 0.20000000298023224 0
vt 0.20000000298023224 0.5
vt 0.29853516817092896 0
vt 0.29853516817092896 0.5
vt 0.89853513240814209 0.5
vt 0.40000000596046448 0.5
vt 0.89853513240814209 0.99853515625
vt 0.40000000596046448 0.99853515625
vt 0.89853513240814209 0
vt 0.40000000596046448 0
vt 0.89853513240814209 0.49853515625
vt 0.40000000596046448 0.49853515625
vn -1 0 0
vn -1 0 0
vn -1 0 0
vn -1 0 0
vn 0 0 -1
vn 0 0 -1
vn 0 0 -1
vn 0 0 -1
vn 1 0 0
vn 1 0 0
vn 1 0 0
vn 1 0 0
vn 0 0 1
vn 0 0 1
vn 0 0 1
vn 0 0 1
vn 0 -1 0
vn 0 -1 0
vn 0 -1 0
vn 0 -1 0
vn 0 1 0
vn 0 1 0
vn 0 1 0
vn 0 1 0
f 34/98/98 36/100/100 35/99/99 33/97/97
f 37/102/102 38/104/104 36/103/103 34/101/101
f 39/106/106 40/108/108 38/107/107 37/105/105
f 33/110/110 35/112/112 40/111/111 39/109/109
f 35/114/114 36/113/113 38/115/115 40/116/116
f 33/118/118 39/120/120 37/119/119 34/117/117
g object_6
v 97.961875915527344 0 -83.616973876953125
v 97.961875915527344 0 -93.616973876953125
v 97.961875915527344 -2 -83.616973876953125
v 97.961875915527344 -2 -93.616973876953125
v 107.96187591552734 0 -93.616973876953125
v 107.96187591552734 -2 -93.616973876953125
v 107.96187591552734 0 -83.616973876953125
v 107.96187591552734 -2 -83.616973876953125
vt 0.10000000149011612 0
vt 0.10000000149011612 0.5
vt 0.19853515923023224 0
vt 0.19853515923023224 0.5
vt 0 0
vt 0 0.5
vt 0.098535157740116119 0
vt 0.098535157740116119 0.5
vt 0.30000001192092896 0
vt 0.30000001192092896 0.5
vt 0.39853516221046448 0
vt 0.39853516221046448 0.5
vt 0.20000000298023224 0
vt 0.20000000298023224 0.5
vt 0.29853516817092896 0
vt 0.29853516817092896 0.5
vt 0.89853513240814209 0.5
vt 0.40000000596046448 0.5
vt 0.89853513240814209 0.99853515625
vt 0.40000000596046448 0.99853515625
vt 0.89853513240814209 0
vt 0.40000000596046448 0
vt 0.89853513240814209 0.49853515625
vt 0.40000000596046448 0.49853515625
vn -1 0 0
vn -1 0 0
vn -1 0 0
vn -1 0 0
vn 0 0 -1
vn 0 0 -1
vn 0 0 -1
vn 0 0 -1
vn 1 0 0
vn 1 0 0
vn 1 0 0
vn 1 0 0
vn 0 0 1
vn 0 0 1
vn 0 0 1
vn 0 0 1
vn 0 -1 0
vn 0 -1 0
vn 0 -1 0
vn 0 -1 0
vn 0 1 0
vn 0 1 0
vn 0 1 0
vn 0 1 0
f 42/122/122 44/124/124 43/123/123 41/121/121
f 45/126/126 46/128/128 44/127/127 42/125/125
f 47/130/130 48/132/132 46/131/131 45/129/129
f 41/134/134 43/136/136 48/135/135 47/133/133
f 43/138/138 44/137/137 46/139/139 48/140/140
f 41/142/142 47/144/144 45/143/143 42/141/141
g object_7
v 97.961875915527344 0 -73.616973876953125
v 97.961875915527344 0 -83.616973876953125
v 97.961875915527344 -2 -73.616973876953125
v 97.961875915527344 -2 -83.616973876953125
v 107.96187591552734 0 -83.616973876953125
v 107.96187591552734 -2 -83.616973876953125
v 107.96187591552734 0 -73.616973876953125
v 107.96187591552734 -2 -73.616973876953125
vt 0.10000000149011612 0
vt 0.10000000149011612 0.5
vt 0.19853515923023224 0
vt 0.19853515923023224 0.5
vt 0 0
vt 0 0.5
vt 0.098535157740116119 0
vt 0.098535157740116119 0.5
vt 0.30000001192092896 0
vt 0.30000001192092896 0.5
vt 0.39853516221046448 0
vt 0.39853516221046448 0.5
vt 0.20000000298023224 0
vt 0.20000000298023224 0.5
vt 0.29853516817092896 0
vt 0.29853516817092896 0.5
vt 0.89853513240814209 0.5
vt 0.40000000596046448 0.5
vt 0.89853513240814209 0.99853515625
vt 0.40000000596046448 0.99853515625
vt 0.89853513240814209 0
vt 0.40000000596046448 0
vt 0.89853513240814209 0.49853515625
vt 0.40000000596046448 0.49853515625
vn -1 0 0
vn -1 0 0
vn -1 0 0
vn -1 0 0
vn 0 0 -1
vn 0 0 -1
vn 0 0 -1
vn 0 0 -1
vn 1 0 0
vn 1 0 0
vn 1 0 0
vn 1 0 0
vn 0 0 1
vn 0 0 1
vn 0 0 1
vn 0 0 1
vn 0 -1 0
vn 0 -1 0
vn 0 -1 0
vn 0 -1 0
vn 0 1 0
vn 0 1 0
vn 0 1 0
vn 0 1 0
f 50/146/146 52/148/148 51/147/147 49/145/145
f 53/150/150 54/152/152 52/151/151 50/149/149
f 55/154/154 56/156/156 54/155/155 53/153/153
f 49/158/158 51/160/160 56/159/159 55/157/157
f 51/162/162 52/161/161 54/163/163 56/164/164
f 49/166/166 55/168/168 53/167/167 50/165/165
g object_8
v 97.961875915527344 0 -63.616970062255859
v 97.961875915527344 0 -73.616973876953125
v 97.961875915527344 -2 -63.616970062255859
v 97.961875915527344 -2 -73.616973876953125
v 107.96187591552734 0 -73.616973876953125
v 107.96187591552734 -2 -73.616973876953125
v 107.96187591552734 0 -63.616970062255859
v 107.96187591552734 -2 -63.616970062255859
vt 0.10000000149011612 0
vt 0.10000000149011612 0.5
vt 0.19853515923023224 0
vt 0.19853515923023224 0.5
vt 0 0
vt 0 0.5
vt 0.098535157740116119 0
vt 0.098535157740116119 0.5
vt 0.30000001192092896 0
vt 0.30000001192092896 0.5
vt 0.39853516221046448 0
vt 0.39853516221046448 0.5
vt 0.20000000298023224 0
vt 0.20000000298023224 0.5
vt 0.29853516817092896 0
vt 0.29853516817092896 0.5
vt 0.89853513240814209 0.5
vt 0.40000000596046448 0.5
vt 0.89853513240814209 0.99853515625
vt 0.40000000596046448 0.99853515625
vt 0.89853513240814209 0
vt 0.40000000596046448 0
vt 0.89853513240814209 0.49853515625
vt 0.40000000596046448 0.49853515625
vn -1 0 0
vn -1 0 0
vn -1 0 0
vn -1 0 0
vn 0 0 -1
vn 0 0 -1
vn 0 0 -1
vn 0 0 -1
vn 1 0 0
vn 1 0 0
vn 1 0 0
vn 1 0 0
vn 0 0 1
vn 0 0 1
vn 0 0 1
vn 0 0 1
vn 0 -1 0
vn 0 -1 0
vn 0 -1 0
vn 0 -1 0
vn 0 1 0
vn 0 1 0
vn 0 1 0
vn 0 1 0
f 58/170/170 60/172/172 59/171/171 57/169/169
f 61/174/174 62/176/176 60/175/175 58/173/173
f 63/178/178 64/180/180 62/179/179 61/177/177
f 57/182/182 59/184/184 64/183/183 63/181/181
f 59/186/186 60/185/185 62/187/187 64/188/188
f 57/190/190 63/192/192 61/191/191 58/189/189
g object_9
v 87.961875915527344 0 -93.616973876953125
v 87.961875915527344 0 -103.61697387695312
v 87.961875915527344 -2 -93.616973876953125
v 87.961875915527344 -2 -103.61697387695312
v 97.961875915527344 0 -103.61697387695312
v 97.961875915527344 -2 -103.61697387695312
v 97.961875915527344 0 -93.616973876953125
v 97.961875915527344 -2 -93.616973876953125
vt 0.10000000149011612 0
vt 0.10000000149011612 0.5
vt 0.19853515923023224 0
vt 0.19853515923023224 0.5
vt 0 0
vt 0 0.5
vt 0.098535157740116119 0
vt 0.098535157740116119 0.5
vt 0.30000001192092896 0
vt 0.30000001192092896 0.5
vt 0.39853516221046448 0
vt 0.39853516221046448 0.5
vt 0.20000000298023224 0
vt 0.20000000298023224 0.5
vt 0.29853516817092896 0
vt 0.29853516817092896 0.5
vt 0.89853513240814209 0.5
vt 0.40000000596046448 0.5
vt 0.89853513240814209 0.99853515625
vt 0.40000000596046448 0.99853515625
vt 0.89853513240814209 0
vt 0.40000000596046448 0
vt 0.89853513240814209 0.49853515625
vt 0.40000000596046448 0.49853515625
vn -1 0 0
vn -1 0 0
vn -1 0 0
vn -1 0 0
vn 0 0 -1
vn 0 0 -1
vn 0 0 -1
vn 0 0 -1
vn 1 0 0
vn 1 0 0
vn 1 0 0
vn 1 0 0
vn 0 0 1
vn 0 0 1
vn 0 0 1
vn 0 0 1
vn 0 -1 0
vn 0 -1 0
vn 0 -1 0
vn 0 -1 0
vn 0 1 0
vn 0 1 0
vn 0 1 0
vn 0 1 0
f 66/194/194 68/196/196 67/195/195 65/193/193
f 69/198/198 70/200/200 68/199/199 66/197/197
f 71/202/202 72/204/204 70/203/203 69/201/201
f 65/206/206 67/208/208 72/207/207 71/205/205
f 67/210/210 68/209/209 70/211/211 72/212/212
f 65/214/214 71/216/216 69/215/215 66/213/213
g object_10
v 87.961875915527344 0 -83.616973876953125
v 87.961875915527344 0 -93.616973876953125
v 87.961875915527344 -2 -83.616973876953125
v 87.961875915527344 -2 -93.616973876953125
v 97.961875915527344 0 -93.616973876953125
v 97.961875915527344 -2 -93.616973876953125
v 97.961875915527344 0 -83.616973876953125
v 97.961875915527344 -2 -83.616973876953125
vt 0.10000000149011612 0
vt 0.10000000149011612 0.5
vt 0.19853515923023224 0
vt 0.19853515923023224 0.5
vt 0 0
vt 0 0.5
vt 0.098535157740116119 0
vt 0.098535157740116119 0.5
vt 0.30000001192092896 0
vt 0.30000001192092896 0.5
vt 0.39853516221046448 0
vt 0.39853516221046448 0.5
vt 0.20000000298023224 0
vt 0.20000000298023224 0.5
vt 0.29853516817092896 0
vt 0.29853516817092896 0.5
vt 0.89853513240814209 0.5
vt 0.40000000596046448 0.5
vt 0.89853513240814209 0.99853515625
vt 0.40000000596046448 0.99853515625
vt 0.89853513240814209 0
vt 0.40000000596046448 0
vt 0.89853513240814209 0.49853515625
vt 0.40000000596046448 0.49853515625
vn -1 0 0
vn -1 0 0
vn -1 0 0
vn -1 0 0
vn 0 0 -1
vn 0 0 -1
vn 0 0 -1
vn 0 0 -1
vn 1 0 0
vn 1 0 0
vn 1 0 0
vn 1 0 0
vn 0 0 1
vn 0 0 1
vn 0 0 1
vn 0 0 1
vn 0 -1 0
vn 0 -1 0
vn 0 -1 0
vn 0 -1 0
vn 0 1 0
vn 0 1 0
vn 0 1 0
vn 0 1 0
f 74/218/218 76/220/220 75/219/219 73/217/217
f 77/222/222 78/224/224 76/223/223 74/221/221
f 79/226/226 80/228/228 78/227/227 77/225/225
f 73/230/230 75/232/232 80/231/231 79/229/229
f 75/234/234 76/233/233 78/235/235 80/236/236
f 73/238/238 79/240/240 77/239/239 74/237/237
g object_11
v 87.961875915527344 0 -73.616973876953125
v 87.961875915527344 0 -83.616973876953125
v 87.961875915527344 -2 -73.616973876953125
v 87.961875915527344 -2 -83.616973876953125
v 97.961875915527344 0 -83.616973876953125
v 97.961875915527344 -2 -83.616973876953125
v 97.961875915527344 0 -73.616973876953125
v 97.961875915527344 -2 -73.616973876953125
vt 0.10000000149011612 0
vt 0.10000000149011612 0.5
vt 0.19853515923023224 0
vt 0.19853515923023224 0.5
vt 0 0
vt 0 0.5
vt 0.098535157740116119 0
vt 0.098535157740116119 0.5
vt 0.30000001192092896 0
vt 0.30000001192092896 0.5
vt 0.39853516221046448 0
vt 0.39853516221046448 0.5
vt 0.20000000298023224 0
vt 0.20000000298023224 0.5
vt 0.29853516817092896 0
vt 0.29853516817092896 0.5
vt 0.89853513240814209 0.5
vt 0.40000000596046448 0.5
vt 0.89853513240814209 0.99853515625
vt 0.40000000596046448 0.99853515625
vt 0.89853513240814209 0
vt 0.40000000596046448 0
vt 0.89853513240814209 0.49853515625
vt 0.40000000596046448 0.49853515625
vn -1 0 0
vn -1 0 0
vn -1 0 0
vn -1 0 0
vn 0 0 -1
vn 0 0 -1
vn 0 0 -1
vn 0 0 -1
vn 1 0 0
vn 1 0 0
vn 1 0 0
vn 1 0 0
vn 0 0 1
vn 0 0 1
vn 0 0 1
vn 0 0 1
vn 0 -1 0
vn 0 -1 0
vn 0 -1 0
vn 0 -1 0
vn 0 1 0
vn 0 1 0
vn 0 1 0
vn 0 1 0
f 82/242/242 84/244/244 83/243/243 81/241/241
f 85/246/246 86/248/248 84/247/247 82/245/245
f 87/250/250 88/252/252 86/251/251 85/249/249
f 81/254/254 83/256/256 88/255/255 87/253/253
f 83/258/258 84/257/257 86/259/259 88/260/260
f 81/262/262 87/264/264 85/263/263 82/261/261
g object_12
v 87.961875915527344 0 -63.616970062255859
v 87.961875915527344 0 -73.616973876953125
v 87.961875915527344 -2 -63.616970062255859
v 87.961875915527344 -2 -73.616973876953125
v 97.961875915527344 0 -73.616973876953125
v 97.961875915527344 -2 -73.616973876953125
v 97.961875915527344 0 -63.616970062255859
v 97.961875915527344 -2 -63.616970062255859
vt 0.10000000149011612 0
vt 0.10000000149011612 0.5
vt 0.19853515923023224 0
vt 0.19853515923023224 0.5
vt 0 0
vt 0 0.5
vt 0.098535157740116119 0
vt 0.098535157740116119 0.5
vt 0.30000001192092896 0
vt 0.30000001192092896 0.5
vt 0.39853516221046448 0
vt 0.39853516221046448 0.5
vt 0.20000000298023224 0
vt 0.20000000298023224 0.5
vt 0.29853516817092896 0
vt 0.29853516817092896 0.5
vt 0.89853513240814209 0.5
vt 0.40000000596046448 0.5
vt 0.89853513240814209 0.99853515625
vt 0.40000000596046448 0.99853515625
vt 0.89853513240814209 0
vt 0.40000000596046448 0
vt 0.89853513240814209 0.49853515625
vt 0.40000000596046448 0.49853515625
vn -1 0 0
vn -1 0 0
vn -1 0 0
vn -1 0 0
vn 0 0 -1
vn 0 0 -1
vn 0 0 -1
vn 0 0 -1
vn 1 0 0
vn 1 0 0
vn 1 0 0
vn 1 0 0
vn 0 0 1
vn 0 0 1
vn 0 0 1
vn 0 0 1
vn 0 -1 0
vn 0 -1 0
vn 0 -1 0
vn 0 -1 0
vn 0 1 0
vn 0 1 0
vn 0 1 0
vn 0 1 0
f 90/266/266 92/268/268 91/267/267 89/265/265
f 93/270/270 94/272/272 92/271/271 90/269/269
f 95/274/274 96/276/276 94/275/275 93/273/273
f 89/278/278 91/280/280 96/279/279 95/277/277
f 91/282/282 92/281/281 94/283/283 96/284/284
f 89/286/286 95/288/288 93/287/287 90/285/285
g object_13
v 77.961875915527344 0 -93.616973876953125
v 77.961875915527344 0 -103.61697387695312
v 77.961875915527344 -2 -93.616973876953125
v 77.961875915527344 -2 -103.61697387695312
v 87.961875915527344 0 -103.61697387695312
v 87.961875915527344 -2 -103.61697387695312
v 87.961875915527344 0 -93.616973876953125
v 87.961875915527344 -2 -93.616973876953125
vt 0.10000000149011612 0
vt 0.10000000149011612 0.5
vt 0.19853515923023224 0
vt 0.19853515923023224 0.5
vt 0 0
vt 0 0.5
vt 0.098535157740116119 0
vt 0.098535157740116119 0.5
vt 0.30000001192092896 0
vt 0.30000001192092896 0.5
vt 0.39853516221046448 0
vt 0.39853516221046448 0.5
vt 0.20000000298023224 0
vt 0.20000000298023224 0.5
vt 0.29853516817092896 0
vt 0.29853516817092896 0.5
vt 0.89853513240814209 0.5
vt 0.40000000596046448 0.5
vt 0.89853513240814209 0.99853515625
vt 0.40000000596046448 0.99853515625
vt 0.89853513240814209 0
vt 0.40000000596046448 0
vt 0.89853513240814209 0.49853515625
vt 0.40000000596046448 0.49853515625
vn -1 0 0
vn -1 0 0
vn -1 0 0
vn -1 0 0
vn 0 0 -1
vn 0 0 -1
vn 0 0 -1
vn 0 0 -1
vn 1 0 0
vn 1 0 0
vn 1 0 0
vn 1 0 0
vn 0 0 1
vn 0 0 1
vn 0 0 1
vn 0 0 1
vn 0 -1 0
vn 0 -1 0
vn 0 -1 0
vn 0 -1 0
vn 0 1 0
vn 0 1 0
vn 0 1 0
vn 0 1 0
f 98/290/290 100/292/292 99/291/291 97/289/289
f 101/294/294 102/296/296 100/295/295 98/293/293
f 103/298/298 104/300/300 102/299/299 101/297/297
f 97/302/302 99/304/304 104/303/303 103/301/301
f 99/306/306 100/305/305 102/307/307 104/308/308
f 97/310/310 103/312/312 101/311/311 98/309/309
g object_14
v 77.961875915527344 0 -83.616973876953125
v 77.961875915527344 0 -93.616973876953125
v 77.961875915527344 -2 -83.616973876953125
v 77.961875915527344 -2 -93.616973876953125
v 87.961875915527344 0 -93.616973876953125
v 87.961875915527344 -2 -93.616973876953125
v 87.961875915527344 0 -83.616973876953125
v 87.961875915527344 -2 -83.616973876953125
vt 0.10000000149011612 0
vt 0.10000000149011612 0.5
vt 0.19853515923023224 0
vt 0.19853515923023224 0.5
vt 0 0
vt 0 0.5
vt 0.098535157740116119 0
vt 0.098535157740116119 0.5
vt 0.30000001192092896 0
vt 0.30000001192092896 0.5
vt 0.39853516221046448 0
vt 0.39853516221046448 0.5
vt 0.20000000298023224 0
vt 0.20000000298023224 0.5
vt 0.29853516817092896 0
vt 0.29853516817092896 0.5
vt 0.89853513240814209 0.5
vt 0.40000000596046448 0.5
vt 0.89853513240814209 0.99853515625
vt 0.40000000596046448 0.99853515625
vt 0.89853513240814209 0
vt 0.40000000596046448 0
vt 0.89853513240814209 0.49853515625
vt 0.40000000596046448 0.49853515625
vn -1 0 0
vn -1 0 0
vn -1 0 0
vn -1 0 0
vn 0 0 -1
vn 0 0 -1
vn 0 0 -1
vn 0 0 -1
vn 1 0 0
vn 1 0 0
vn 1 0 0
vn 1 0 0
vn 0 0 1
vn 0 0 1
vn 0 0 1
vn 0 0 1
vn 0 -1 0
vn 0 -1 0
vn 0 -1 0
vn 0 -1 0
vn 0 1 0
vn 0 1 0
vn 0 1 0
vn 0 1 0
f 106/314/314 108/316/316 107/315/315 105/313/313
f 109/318/318 110/320/320 108/319/319 106/317/317
f 111/322/322 112/324/324 110/323/323 109/321/321
f 105/326/326 107/328/328 112/327/327 111/325/325
f 107/330/330 108/329/329 110/331/331 112/332/332
f 105/334/334 111/336/336 109/335/335 106/333/333
g object_15
v 77.961875915527344 0 -73.616973876953125
v 77.961875915527344 0 -83.616973876953125
v 77.961875915527344 -2 -73.616973876953125
v 77.961875915527344 -2 -83.616973876953125
v 87.961875915527344 0 -83.616973876953125
v 87.961875915527344 -2 -83.616973876953125
v 87.961875915527344 0 -73.616973876953125
v 87.961875915527344 -2 -73.616973876953125
vt 0.10000000149011612 0
vt 0.10000000149011612 0.5
vt 0.19853515923023224 0
vt 0.19853515923023224 0.5
vt 0 0
vt 0 0.5
vt 0.098535157740116119 0
vt 0.098535157740116119 0.5
vt 0.30000001192092896 0
vt 0.30000001192092896 0.5
vt 0.39853516221046448 0
vt 0.39853516221046448 0.5
vt 0.20000000298023224 0
vt 0.20000000298023224 0.5
vt 0.29853516817092896 0
vt 0.29853516817092896 0.5
vt 0.89853513240814209 0.5
vt 0.40000000596046448 0.5
vt 0.89853513240814209 0.99853515625
vt 0.40000000596046448 0.99853515625
vt 0.89853513240814209 0
vt 0.40000000596046448 0
vt 0.89853513240814209 0.49853515625
vt 0.40000000596046448 0.49853515625
vn -1 0 0
vn -1 0 0
vn -1 0 0
vn -1 0 0
vn 0 0 -1
vn 0 0 -1
vn 0 0 -1
vn 0 0 -1
vn 1 0 0
vn 1 0 0
vn 1 0 0
vn 1 0 0
vn 0 0 1
vn 0 0 1
vn 0 0 1
vn 0 0 1
vn 0 -1 0
vn 0 -1 0
vn 0 -1 0
vn 0 -1 0
vn 0 1 0
vn 0 1 0
vn 0 1 0
vn 0 1 0
f 114/338/338 116/340/340 115/339/339 113/337/337
f 117/342/342 118/344/344 116/343/343 114/341/341
f 119/346/346 120/348/348 118/347/347 117/345/345
f 113/350/350 115/352/352 120/351/351 119/349/349
f 115/354/354 116/353/353 118/355/355 120/356/356
f 113/358/358 119/360/360 117/359/359 114/357/357
g object_16
v 77.961875915527344 0 -63.616970062255859
v 77.961875915527344 0 -73.616973876953125
v 77.961875915527344 -2 -63.616970062255859
v 77.961875915527344 -2 -73.616973876953125
v 87.961875915527344 0 -73.616973876953125
v 87.961875915527344 -2 -73.616973876953125
v 87.961875915527344 0 -63.616970062255859
v 87.961875915527344 -2 -63.616970062255859
vt 0.10000000149011612 0
vt 0.10000000149011612 0.5
vt 0.19853515923023224 0
vt 0.19853515923023224 0.5
vt 0 0
vt 0 0.5
vt 0.098535157740116119 0
vt 0.098535157740116119 0.5
vt 0.30000001192092896 0
vt 0.30000001192092896 0.5
vt 0.39853516221046448 0
vt 0.39853516221046448 0.5
vt 0.20000000298023224 0
vt 0.20000000298023224 0.5
vt 0.29853516817092896 0
vt 0.29853516817092896 0.5
vt 0.89853513240814209 0.5
vt 0.40000000596046448 0.5
vt 0.89853513240814209 0.99853515625
vt 0.40000000596046448 0.99853515625
vt 0.89853513240814209 0
vt 0.40000000596046448 0
vt 0.89853513240814209 0.49853515625
vt 0.40000000596046448 0.49853515625
vn -1 0 0
vn -1 0 0
vn -1 0 0
vn -1 0 0
vn 0 0 -1
vn 0 0 -1
vn 0 0 -1
vn 0 0 -1
vn 1 0 0
vn 1 0 0
vn 1 0 0
vn 1 0 0
vn 0 0 1
vn 0 0 1
vn 0 0 1
vn 0 0 1
vn 0 -1 0
vn 0 -1 0
vn 0 -1 0
vn 0 -1 0
vn 0 1 0
vn 0 1 0
vn 0 1 0
vn 0 1 0
f 122/362/362 124/364/364 123/363/363 121/361/361
f 125/366/366 126/368/368 124/367/367 122/365/365
f 127/370/370 128/372/372 126/371/371 125/369/369
f 121/374/374 123/376/376 128/375/375 127/373/373
f 123/378/378 124/377/377 126/379/379 128/380/380
f 121/382/382 127/384/384 125/383/383 122/381/381
