# Rhino

g object_1
v 90.062957763671875 5 -77.218612670898438
v 90.062957763671875 8 -77.218612670898438
v 96.312957763671875 5 -77.218612670898438
v 96.312957763671875 8 -77.218612670898438
v 96.312957763671875 5 -81.167800903320312
v 96.312957763671875 8 -81.167800903320312
v 90.062957763671875 5 -81.167800903320312
v 90.062957763671875 8 -81.167800903320312
vt 0 0
vt 0 0.6376347541809082
vt 0.10102663189172745 0
vt 0.10102663189172745 0.6376347541809082
vt 0.10102663189172745 0
vt 0.10102663189172745 0.6376347541809082
vt 0.5 0
vt 0.5 0.6376347541809082
vt 0.5 0
vt 0.5 0.6376347541809082
vt 0.60102665424346924 0
vt 0.60102665424346924 0.6376347541809082
vt 0.60102665424346924 0
vt 0.60102665424346924 0.6376347541809082
vt 1 0
vt 1 0.6376347541809082
vt 0 1
vt 0.30639687180519104 1
vt 0.30639687180519104 0.63763535022735596
vt 0 0.63763535022735596
vt 0.69360309839248657 0.63763535022735596
vt 1 0.63763535022735596
vt 1 1
vt 0.69360309839248657 1
vn 0 0 1
vn 0 0 1
vn 0 0 1
vn 0 0 1
vn 1 0 0
vn 1 0 0
vn 1 0 0
vn 1 0 0
vn 0 0 -1
vn 0 0 -1
vn 0 0 -1
vn 0 0 -1
vn -1 0 0
vn -1 0 0
vn -1 0 0
vn -1 0 0
vn 0 -1 0
vn 0 -1 0
vn 0 -1 0
vn 0 -1 0
vn 0 1 0
vn 0 1 0
vn 0 1 0
vn 0 1 0
f 3/18/18 1/17/17 7/20/20 5/19/19
f 8/24/24 2/21/21 4/22/22 6/23/23
f 1/1/1 3/3/3 4/4/4 2/2/2
f 3/5/5 5/7/7 6/8/8 4/6/6
f 5/9/9 7/11/11 8/12/12 6/10/10
f 7/13/13 1/15/15 2/16/16 8/14/14
g object_2
v 90.062957763671875 8 -77.218612670898438
v 90.062957763671875 11 -77.218612670898438
v 96.312957763671875 8 -77.218612670898438
v 96.312957763671875 11 -77.218612670898438
v 96.312957763671875 8 -81.167800903320312
v 96.312957763671875 11 -81.167800903320312
v 90.062957763671875 8 -81.167800903320312
v 90.062957763671875 11 -81.167800903320312
vt 0 0
vt 0 0.6376347541809082
vt 0.10102663189172745 0
vt 0.10102663189172745 0.6376347541809082
vt 0.10102663189172745 0
vt 0.10102663189172745 0.6376347541809082
vt 0.5 0
vt 0.5 0.6376347541809082
vt 0.5 0
vt 0.5 0.6376347541809082
vt 0.60102665424346924 0
vt 0.60102665424346924 0.6376347541809082
vt 0.60102665424346924 0
vt 0.60102665424346924 0.6376347541809082
vt 1 0
vt 1 0.6376347541809082
vt 0 1
vt 0.30639687180519104 1
vt 0.30639687180519104 0.63763535022735596
vt 0 0.63763535022735596
vt 0.69360309839248657 0.63763535022735596
vt 1 0.63763535022735596
vt 1 1
vt 0.69360309839248657 1
vn 0 0 1
vn 0 0 1
vn 0 0 1
vn 0 0 1
vn 1 0 0
vn 1 0 0
vn 1 0 0
vn 1 0 0
vn 0 0 -1
vn 0 0 -1
vn 0 0 -1
vn 0 0 -1
vn -1 0 0
vn -1 0 0
vn -1 0 0
vn -1 0 0
vn 0 -1 0
vn 0 -1 0
vn 0 -1 0
vn 0 -1 0
vn 0 1 0
vn 0 1 0
vn 0 1 0
vn 0 1 0
f 11/42/42 9/41/41 15/44/44 13/43/43
f 16/48/48 10/45/45 12/46/46 14/47/47
f 9/25/25 11/27/27 12/28/28 10/26/26
f 11/29/29 13/31/31 14/32/32 12/30/30
f 13/33/33 15/35/35 16/36/36 14/34/34
f 15/37/37 9/39/39 10/40/40 16/38/38
g object_3
v 90.062957763671875 11 -77.218612670898438
v 90.062957763671875 14 -77.218612670898438
v 96.312957763671875 11 -77.218612670898438
v 96.312957763671875 14 -77.218612670898438
v 96.312957763671875 11 -81.167800903320312
v 96.312957763671875 14 -81.167800903320312
v 90.062957763671875 11 -81.167800903320312
v 90.062957763671875 14 -81.167800903320312
vt 0 0
vt 0 0.6376347541809082
vt 0.10102663189172745 0
vt 0.10102663189172745 0.6376347541809082
vt 0.10102663189172745 0
vt 0.10102663189172745 0.6376347541809082
vt 0.5 0
vt 0.5 0.6376347541809082
vt 0.5 0
vt 0.5 0.6376347541809082
vt 0.60102665424346924 0
vt 0.60102665424346924 0.6376347541809082
vt 0.60102665424346924 0
vt 0.60102665424346924 0.6376347541809082
vt 1 0
vt 1 0.6376347541809082
vt 0 1
vt 0.30639687180519104 1
vt 0.30639687180519104 0.63763535022735596
vt 0 0.63763535022735596
vt 0.69360309839248657 0.63763535022735596
vt 1 0.63763535022735596
vt 1 1
vt 0.69360309839248657 1
vn 0 0 1
vn 0 0 1
vn 0 0 1
vn 0 0 1
vn 1 0 0
vn 1 0 0
vn 1 0 0
vn 1 0 0
vn 0 0 -1
vn 0 0 -1
vn 0 0 -1
vn 0 0 -1
vn -1 0 0
vn -1 0 0
vn -1 0 0
vn -1 0 0
vn 0 -1 0
vn 0 -1 0
vn 0 -1 0
vn 0 -1 0
vn 0 1 0
vn 0 1 0
vn 0 1 0
vn 0 1 0
f 19/66/66 17/65/65 23/68/68 21/67/67
f 24/72/72 18/69/69 20/70/70 22/71/71
f 17/49/49 19/51/51 20/52/52 18/50/50
f 19/53/53 21/55/55 22/56/56 20/54/54
f 21/57/57 23/59/59 24/60/60 22/58/58
f 23/61/61 17/63/63 18/64/64 24/62/62
g object_4
v 90.062957763671875 14 -77.218612670898438
v 90.062957763671875 17 -77.218612670898438
v 96.312957763671875 14 -77.218612670898438
v 96.312957763671875 17 -77.218612670898438
v 96.312957763671875 14 -81.167800903320312
v 96.312957763671875 17 -81.167800903320312
v 90.062957763671875 14 -81.167800903320312
v 90.062957763671875 17 -81.167800903320312
vt 0 0
vt 0 0.6376347541809082
vt 0.10102663189172745 0
vt 0.10102663189172745 0.6376347541809082
vt 0.10102663189172745 0
vt 0.10102663189172745 0.6376347541809082
vt 0.5 0
vt 0.5 0.6376347541809082
vt 0.5 0
vt 0.5 0.6376347541809082
vt 0.60102665424346924 0
vt 0.60102665424346924 0.6376347541809082
vt 0.60102665424346924 0
vt 0.60102665424346924 0.6376347541809082
vt 1 0
vt 1 0.6376347541809082
vt 0 1
vt 0.30639687180519104 1
vt 0.30639687180519104 0.63763535022735596
vt 0 0.63763535022735596
vt 0.69360309839248657 0.63763535022735596
vt 1 0.63763535022735596
vt 1 1
vt 0.69360309839248657 1
vn 0 0 1
vn 0 0 1
vn 0 0 1
vn 0 0 1
vn 1 0 0
vn 1 0 0
vn 1 0 0
vn 1 0 0
vn 0 0 -1
vn 0 0 -1
vn 0 0 -1
vn 0 0 -1
vn -1 0 0
vn -1 0 0
vn -1 0 0
vn -1 0 0
vn 0 -1 0
vn 0 -1 0
vn 0 -1 0
vn 0 -1 0
vn 0 1 0
vn 0 1 0
vn 0 1 0
vn 0 1 0
f 27/90/90 25/89/89 31/92/92 29/91/91
f 32/96/96 26/93/93 28/94/94 30/95/95
f 25/73/73 27/75/75 28/76/76 26/74/74
f 27/77/77 29/79/79 30/80/80 28/78/78
f 29/81/81 31/83/83 32/84/84 30/82/82
f 31/85/85 25/87/87 26/88/88 32/86/86
g object_5
v 90.062957763671875 17 -77.218612670898438
v 90.062957763671875 20 -77.218612670898438
v 96.312957763671875 17 -77.218612670898438
v 96.312957763671875 20 -77.218612670898438
v 96.312957763671875 17 -81.167800903320312
v 96.312957763671875 20 -81.167800903320312
v 90.062957763671875 17 -81.167800903320312
v 90.062957763671875 20 -81.167800903320312
vt 0 0
vt 0 0.6376347541809082
vt 0.10102663189172745 0
vt 0.10102663189172745 0.6376347541809082
vt 0.10102663189172745 0
vt 0.10102663189172745 0.6376347541809082
vt 0.5 0
vt 0.5 0.6376347541809082
vt 0.5 0
vt 0.5 0.6376347541809082
vt 0.60102665424346924 0
vt 0.60102665424346924 0.6376347541809082
vt 0.60102665424346924 0
vt 0.60102665424346924 0.6376347541809082
vt 1 0
vt 1 0.6376347541809082
vt 0 1
vt 0.30639687180519104 1
vt 0.30639687180519104 0.63763535022735596
vt 0 0.63763535022735596
vt 0.69360309839248657 0.63763535022735596
vt 1 0.63763535022735596
vt 1 1
vt 0.69360309839248657 1
vn 0 0 1
vn 0 0 1
vn 0 0 1
vn 0 0 1
vn 1 0 0
vn 1 0 0
vn 1 0 0
vn 1 0 0
vn 0 0 -1
vn 0 0 -1
vn 0 0 -1
vn 0 0 -1
vn -1 0 0
vn -1 0 0
vn -1 0 0
vn -1 0 0
vn 0 -1 0
vn 0 -1 0
vn 0 -1 0
vn 0 -1 0
vn 0 1 0
vn 0 1 0
vn 0 1 0
vn 0 1 0
f 35/114/114 33/113/113 39/116/116 37/115/115
f 40/120/120 34/117/117 36/118/118 38/119/119
f 33/97/97 35/99/99 36/100/100 34/98/98
f 35/101/101 37/103/103 38/104/104 36/102/102
f 37/105/105 39/107/107 40/108/108 38/106/106
f 39/109/109 33/111/111 34/112/112 40/110/110
g object_6
v 90.062957763671875 5 -81.167800903320312
v 90.062957763671875 8 -81.167800903320312
v 96.312957763671875 5 -81.167800903320312
v 96.312957763671875 8 -81.167800903320312
v 96.312957763671875 5 -85.116989135742188
v 96.312957763671875 8 -85.116989135742188
v 90.062957763671875 5 -85.116989135742188
v 90.062957763671875 8 -85.116989135742188
vt 0 0
vt 0 0.6376347541809082
vt 0.10102663189172745 0
vt 0.10102663189172745 0.6376347541809082
vt 0.10102663189172745 0
vt 0.10102663189172745 0.6376347541809082
vt 0.5 0
vt 0.5 0.6376347541809082
vt 0.5 0
vt 0.5 0.6376347541809082
vt 0.60102665424346924 0
vt 0.60102665424346924 0.6376347541809082
vt 0.60102665424346924 0
vt 0.60102665424346924 0.6376347541809082
vt 1 0
vt 1 0.6376347541809082
vt 0 1
vt 0.30639687180519104 1
vt 0.30639687180519104 0.63763535022735596
vt 0 0.63763535022735596
vt 0.69360309839248657 0.63763535022735596
vt 1 0.63763535022735596
vt 1 1
vt 0.69360309839248657 1
vn 0 0 1
vn 0 0 1
vn 0 0 1
vn 0 0 1
vn 1 0 0
vn 1 0 0
vn 1 0 0
vn 1 0 0
vn 0 0 -1
vn 0 0 -1
vn 0 0 -1
vn 0 0 -1
vn -1 0 0
vn -1 0 0
vn -1 0 0
vn -1 0 0
vn 0 -1 0
vn 0 -1 0
vn 0 -1 0
vn 0 -1 0
vn 0 1 0
vn 0 1 0
vn 0 1 0
vn 0 1 0
f 43/138/138 41/137/137 47/140/140 45/139/139
f 48/144/144 42/141/141 44/142/142 46/143/143
f 41/121/121 43/123/123 44/124/124 42/122/122
f 43/125/125 45/127/127 46/128/128 44/126/126
f 45/129/129 47/131/131 48/132/132 46/130/130
f 47/133/133 41/135/135 42/136/136 48/134/134
g object_7
v 90.062957763671875 8 -81.167800903320312
v 90.062957763671875 11 -81.167800903320312
v 96.312957763671875 8 -81.167800903320312
v 96.312957763671875 11 -81.167800903320312
v 96.312957763671875 8 -85.116989135742188
v 96.312957763671875 11 -85.116989135742188
v 90.062957763671875 8 -85.116989135742188
v 90.062957763671875 11 -85.116989135742188
vt 0 0
vt 0 0.6376347541809082
vt 0.10102663189172745 0
vt 0.10102663189172745 0.6376347541809082
vt 0.10102663189172745 0
vt 0.10102663189172745 0.6376347541809082
vt 0.5 0
vt 0.5 0.6376347541809082
vt 0.5 0
vt 0.5 0.6376347541809082
vt 0.60102665424346924 0
vt 0.60102665424346924 0.6376347541809082
vt 0.60102665424346924 0
vt 0.60102665424346924 0.6376347541809082
vt 1 0
vt 1 0.6376347541809082
vt 0 1
vt 0.30639687180519104 1
vt 0.30639687180519104 0.63763535022735596
vt 0 0.63763535022735596
vt 0.69360309839248657 0.63763535022735596
vt 1 0.63763535022735596
vt 1 1
vt 0.69360309839248657 1
vn 0 0 1
vn 0 0 1
vn 0 0 1
vn 0 0 1
vn 1 0 0
vn 1 0 0
vn 1 0 0
vn 1 0 0
vn 0 0 -1
vn 0 0 -1
vn 0 0 -1
vn 0 0 -1
vn -1 0 0
vn -1 0 0
vn -1 0 0
vn -1 0 0
vn 0 -1 0
vn 0 -1 0
vn 0 -1 0
vn 0 -1 0
vn 0 1 0
vn 0 1 0
vn 0 1 0
vn 0 1 0
f 51/162/162 49/161/161 55/164/164 53/163/163
f 56/168/168 50/165/165 52/166/166 54/167/167
f 49/145/145 51/147/147 52/148/148 50/146/146
f 51/149/149 53/151/151 54/152/152 52/150/150
f 53/153/153 55/155/155 56/156/156 54/154/154
f 55/157/157 49/159/159 50/160/160 56/158/158
g object_8
v 90.062957763671875 11 -81.167800903320312
v 90.062957763671875 14 -81.167800903320312
v 96.312957763671875 11 -81.167800903320312
v 96.312957763671875 14 -81.167800903320312
v 96.312957763671875 11 -85.116989135742188
v 96.312957763671875 14 -85.116989135742188
v 90.062957763671875 11 -85.116989135742188
v 90.062957763671875 14 -85.116989135742188
vt 0 0
vt 0 0.6376347541809082
vt 0.10102663189172745 0
vt 0.10102663189172745 0.6376347541809082
vt 0.10102663189172745 0
vt 0.10102663189172745 0.6376347541809082
vt 0.5 0
vt 0.5 0.6376347541809082
vt 0.5 0
vt 0.5 0.6376347541809082
vt 0.60102665424346924 0
vt 0.60102665424346924 0.6376347541809082
vt 0.60102665424346924 0
vt 0.60102665424346924 0.6376347541809082
vt 1 0
vt 1 0.6376347541809082
vt 0 1
vt 0.30639687180519104 1
vt 0.30639687180519104 0.63763535022735596
vt 0 0.63763535022735596
vt 0.69360309839248657 0.63763535022735596
vt 1 0.63763535022735596
vt 1 1
vt 0.69360309839248657 1
vn 0 0 1
vn 0 0 1
vn 0 0 1
vn 0 0 1
vn 1 0 0
vn 1 0 0
vn 1 0 0
vn 1 0 0
vn 0 0 -1
vn 0 0 -1
vn 0 0 -1
vn 0 0 -1
vn -1 0 0
vn -1 0 0
vn -1 0 0
vn -1 0 0
vn 0 -1 0
vn 0 -1 0
vn 0 -1 0
vn 0 -1 0
vn 0 1 0
vn 0 1 0
vn 0 1 0
vn 0 1 0
f 59/186/186 57/185/185 63/188/188 61/187/187
f 64/192/192 58/189/189 60/190/190 62/191/191
f 57/169/169 59/171/171 60/172/172 58/170/170
f 59/173/173 61/175/175 62/176/176 60/174/174
f 61/177/177 63/179/179 64/180/180 62/178/178
f 63/181/181 57/183/183 58/184/184 64/182/182
g object_9
v 90.062957763671875 14 -81.167800903320312
v 90.062957763671875 17 -81.167800903320312
v 96.312957763671875 14 -81.167800903320312
v 96.312957763671875 17 -81.167800903320312
v 96.312957763671875 14 -85.116989135742188
v 96.312957763671875 17 -85.116989135742188
v 90.062957763671875 14 -85.116989135742188
v 90.062957763671875 17 -85.116989135742188
vt 0 0
vt 0 0.6376347541809082
vt 0.10102663189172745 0
vt 0.10102663189172745 0.6376347541809082
vt 0.10102663189172745 0
vt 0.10102663189172745 0.6376347541809082
vt 0.5 0
vt 0.5 0.6376347541809082
vt 0.5 0
vt 0.5 0.6376347541809082
vt 0.60102665424346924 0
vt 0.60102665424346924 0.6376347541809082
vt 0.60102665424346924 0
vt 0.60102665424346924 0.6376347541809082
vt 1 0
vt 1 0.6376347541809082
vt 0 1
vt 0.30639687180519104 1
vt 0.30639687180519104 0.63763535022735596
vt 0 0.63763535022735596
vt 0.69360309839248657 0.63763535022735596
vt 1 0.63763535022735596
vt 1 1
vt 0.69360309839248657 1
vn 0 0 1
vn 0 0 1
vn 0 0 1
vn 0 0 1
vn 1 0 0
vn 1 0 0
vn 1 0 0
vn 1 0 0
vn 0 0 -1
vn 0 0 -1
vn 0 0 -1
vn 0 0 -1
vn -1 0 0
vn -1 0 0
vn -1 0 0
vn -1 0 0
vn 0 -1 0
vn 0 -1 0
vn 0 -1 0
vn 0 -1 0
vn 0 1 0
vn 0 1 0
vn 0 1 0
vn 0 1 0
f 67/210/210 65/209/209 71/212/212 69/211/211
f 72/216/216 66/213/213 68/214/214 70/215/215
f 65/193/193 67/195/195 68/196/196 66/194/194
f 67/197/197 69/199/199 70/200/200 68/198/198
f 69/201/201 71/203/203 72/204/204 70/202/202
f 71/205/205 65/207/207 66/208/208 72/206/206
g object_10
v 90.062957763671875 17 -81.167800903320312
v 90.062957763671875 20 -81.167800903320312
v 96.312957763671875 17 -81.167800903320312
v 96.312957763671875 20 -81.167800903320312
v 96.312957763671875 17 -85.116989135742188
v 96.312957763671875 20 -85.116989135742188
v 90.062957763671875 17 -85.116989135742188
v 90.062957763671875 20 -85.116989135742188
vt 0 0
vt 0 0.6376347541809082
vt 0.10102663189172745 0
vt 0.10102663189172745 0.6376347541809082
vt 0.10102663189172745 0
vt 0.10102663189172745 0.6376347541809082
vt 0.5 0
vt 0.5 0.6376347541809082
vt 0.5 0
vt 0.5 0.6376347541809082
vt 0.60102665424346924 0
vt 0.60102665424346924 0.6376347541809082
vt 0.60102665424346924 0
vt 0.60102665424346924 0.6376347541809082
vt 1 0
vt 1 0.6376347541809082
vt 0 1
vt 0.30639687180519104 1
vt 0.30639687180519104 0.63763535022735596
vt 0 0.63763535022735596
vt 0.69360309839248657 0.63763535022735596
vt 1 0.63763535022735596
vt 1 1
vt 0.69360309839248657 1
vn 0 0 1
vn 0 0 1
vn 0 0 1
vn 0 0 1
vn 1 0 0
vn 1 0 0
vn 1 0 0
vn 1 0 0
vn 0 0 -1
vn 0 0 -1
vn 0 0 -1
vn 0 0 -1
vn -1 0 0
vn -1 0 0
vn -1 0 0
vn -1 0 0
vn 0 -1 0
vn 0 -1 0
vn 0 -1 0
vn 0 -1 0
vn 0 1 0
vn 0 1 0
vn 0 1 0
vn 0 1 0
f 75/234/234 73/233/233 79/236/236 77/235/235
f 80/240/240 74/237/237 76/238/238 78/239/239
f 73/217/217 75/219/219 76/220/220 74/218/218
f 75/221/221 77/223/223 78/224/224 76/222/222
f 77/225/225 79/227/227 80/228/228 78/226/226
f 79/229/229 73/231/231 74/232/232 80/230/230
g object_11
v 90.062957763671875 5 -85.116989135742188
v 90.062957763671875 8 -85.116989135742188
v 96.312957763671875 5 -85.116989135742188
v 96.312957763671875 8 -85.116989135742188
v 96.312957763671875 5 -89.066184997558594
v 96.312957763671875 8 -89.066184997558594
v 90.062957763671875 5 -89.066184997558594
v 90.062957763671875 8 -89.066184997558594
vt 0 0
vt 0 0.6376347541809082
vt 0.10102663189172745 0
vt 0.10102663189172745 0.6376347541809082
vt 0.10102663189172745 0
vt 0.10102663189172745 0.6376347541809082
vt 0.5 0
vt 0.5 0.6376347541809082
vt 0.5 0
vt 0.5 0.6376347541809082
vt 0.60102665424346924 0
vt 0.60102665424346924 0.6376347541809082
vt 0.60102665424346924 0
vt 0.60102665424346924 0.6376347541809082
vt 1 0
vt 1 0.6376347541809082
vt 0 1
vt 0.30639687180519104 1
vt 0.30639687180519104 0.63763535022735596
vt 0 0.63763535022735596
vt 0.69360309839248657 0.63763535022735596
vt 1 0.63763535022735596
vt 1 1
vt 0.69360309839248657 1
vn 0 0 1
vn 0 0 1
vn 0 0 1
vn 0 0 1
vn 1 0 0
vn 1 0 0
vn 1 0 0
vn 1 0 0
vn 0 0 -1
vn 0 0 -1
vn 0 0 -1
vn 0 0 -1
vn -1 0 0
vn -1 0 0
vn -1 0 0
vn -1 0 0
vn 0 -1 0
vn 0 -1 0
vn 0 -1 0
vn 0 -1 0
vn 0 1 0
vn 0 1 0
vn 0 1 0
vn 0 1 0
f 83/258/258 81/257/257 87/260/260 85/259/259
f 88/264/264 82/261/261 84/262/262 86/263/263
f 81/241/241 83/243/243 84/244/244 82/242/242
f 83/245/245 85/247/247 86/248/248 84/246/246
f 85/249/249 87/251/251 88/252/252 86/250/250
f 87/253/253 81/255/255 82/256/256 88/254/254
g object_12
v 90.062957763671875 8 -85.116989135742188
v 90.062957763671875 11 -85.116989135742188
v 96.312957763671875 8 -85.116989135742188
v 96.312957763671875 11 -85.116989135742188
v 96.312957763671875 8 -89.066184997558594
v 96.312957763671875 11 -89.066184997558594
v 90.062957763671875 8 -89.066184997558594
v 90.062957763671875 11 -89.066184997558594
vt 0 0
vt 0 0.6376347541809082
vt 0.10102663189172745 0
vt 0.10102663189172745 0.6376347541809082
vt 0.10102663189172745 0
vt 0.10102663189172745 0.6376347541809082
vt 0.5 0
vt 0.5 0.6376347541809082
vt 0.5 0
vt 0.5 0.6376347541809082
vt 0.60102665424346924 0
vt 0.60102665424346924 0.6376347541809082
vt 0.60102665424346924 0
vt 0.60102665424346924 0.6376347541809082
vt 1 0
vt 1 0.6376347541809082
vt 0 1
vt 0.30639687180519104 1
vt 0.30639687180519104 0.63763535022735596
vt 0 0.63763535022735596
vt 0.69360309839248657 0.63763535022735596
vt 1 0.63763535022735596
vt 1 1
vt 0.69360309839248657 1
vn 0 0 1
vn 0 0 1
vn 0 0 1
vn 0 0 1
vn 1 0 0
vn 1 0 0
vn 1 0 0
vn 1 0 0
vn 0 0 -1
vn 0 0 -1
vn 0 0 -1
vn 0 0 -1
vn -1 0 0
vn -1 0 0
vn -1 0 0
vn -1 0 0
vn 0 -1 0
vn 0 -1 0
vn 0 -1 0
vn 0 -1 0
vn 0 1 0
vn 0 1 0
vn 0 1 0
vn 0 1 0
f 91/282/282 89/281/281 95/284/284 93/283/283
f 96/288/288 90/285/285 92/286/286 94/287/287
f 89/265/265 91/267/267 92/268/268 90/266/266
f 91/269/269 93/271/271 94/272/272 92/270/270
f 93/273/273 95/275/275 96/276/276 94/274/274
f 95/277/277 89/279/279 90/280/280 96/278/278
g object_13
v 90.062957763671875 11 -85.116989135742188
v 90.062957763671875 14 -85.116989135742188
v 96.312957763671875 11 -85.116989135742188
v 96.312957763671875 14 -85.116989135742188
v 96.312957763671875 11 -89.066184997558594
v 96.312957763671875 14 -89.066184997558594
v 90.062957763671875 11 -89.066184997558594
v 90.062957763671875 14 -89.066184997558594
vt 0 0
vt 0 0.6376347541809082
vt 0.10102663189172745 0
vt 0.10102663189172745 0.6376347541809082
vt 0.10102663189172745 0
vt 0.10102663189172745 0.6376347541809082
vt 0.5 0
vt 0.5 0.6376347541809082
vt 0.5 0
vt 0.5 0.6376347541809082
vt 0.60102665424346924 0
vt 0.60102665424346924 0.6376347541809082
vt 0.60102665424346924 0
vt 0.60102665424346924 0.6376347541809082
vt 1 0
vt 1 0.6376347541809082
vt 0 1
vt 0.30639687180519104 1
vt 0.30639687180519104 0.63763535022735596
vt 0 0.63763535022735596
vt 0.69360309839248657 0.63763535022735596
vt 1 0.63763535022735596
vt 1 1
vt 0.69360309839248657 1
vn 0 0 1
vn 0 0 1
vn 0 0 1
vn 0 0 1
vn 1 0 0
vn 1 0 0
vn 1 0 0
vn 1 0 0
vn 0 0 -1
vn 0 0 -1
vn 0 0 -1
vn 0 0 -1
vn -1 0 0
vn -1 0 0
vn -1 0 0
vn -1 0 0
vn 0 -1 0
vn 0 -1 0
vn 0 -1 0
vn 0 -1 0
vn 0 1 0
vn 0 1 0
vn 0 1 0
vn 0 1 0
f 99/306/306 97/305/305 103/308/308 101/307/307
f 104/312/312 98/309/309 100/310/310 102/311/311
f 97/289/289 99/291/291 100/292/292 98/290/290
f 99/293/293 101/295/295 102/296/296 100/294/294
f 101/297/297 103/299/299 104/300/300 102/298/298
f 103/301/301 97/303/303 98/304/304 104/302/302
g object_14
v 90.062957763671875 14 -85.116989135742188
v 90.062957763671875 17 -85.116989135742188
v 96.312957763671875 14 -85.116989135742188
v 96.312957763671875 17 -85.116989135742188
v 96.312957763671875 14 -89.066184997558594
v 96.312957763671875 17 -89.066184997558594
v 90.062957763671875 14 -89.066184997558594
v 90.062957763671875 17 -89.066184997558594
vt 0 0
vt 0 0.6376347541809082
vt 0.10102663189172745 0
vt 0.10102663189172745 0.6376347541809082
vt 0.10102663189172745 0
vt 0.10102663189172745 0.6376347541809082
vt 0.5 0
vt 0.5 0.6376347541809082
vt 0.5 0
vt 0.5 0.6376347541809082
vt 0.60102665424346924 0
vt 0.60102665424346924 0.6376347541809082
vt 0.60102665424346924 0
vt 0.60102665424346924 0.6376347541809082
vt 1 0
vt 1 0.6376347541809082
vt 0 1
vt 0.30639687180519104 1
vt 0.30639687180519104 0.63763535022735596
vt 0 0.63763535022735596
vt 0.69360309839248657 0.63763535022735596
vt 1 0.63763535022735596
vt 1 1
vt 0.69360309839248657 1
vn 0 0 1
vn 0 0 1
vn 0 0 1
vn 0 0 1
vn 1 0 0
vn 1 0 0
vn 1 0 0
vn 1 0 0
vn 0 0 -1
vn 0 0 -1
vn 0 0 -1
vn 0 0 -1
vn -1 0 0
vn -1 0 0
vn -1 0 0
vn -1 0 0
vn 0 -1 0
vn 0 -1 0
vn 0 -1 0
vn 0 -1 0
vn 0 1 0
vn 0 1 0
vn 0 1 0
vn 0 1 0
f 107/330/330 105/329/329 111/332/332 109/331/331
f 112/336/336 106/333/333 108/334/334 110/335/335
f 105/313/313 107/315/315 108/316/316 106/314/314
f 107/317/317 109/319/319 110/320/320 108/318/318
f 109/321/321 111/323/323 112/324/324 110/322/322
f 111/325/325 105/327/327 106/328/328 112/326/326
g object_15
v 90.062957763671875 17 -85.116989135742188
v 90.062957763671875 20 -85.116989135742188
v 96.312957763671875 17 -85.116989135742188
v 96.312957763671875 20 -85.116989135742188
v 96.312957763671875 17 -89.066184997558594
v 96.312957763671875 20 -89.066184997558594
v 90.062957763671875 17 -89.066184997558594
v 90.062957763671875 20 -89.066184997558594
vt 0 0
vt 0 0.6376347541809082
vt 0.10102663189172745 0
vt 0.10102663189172745 0.6376347541809082
vt 0.10102663189172745 0
vt 0.10102663189172745 0.6376347541809082
vt 0.5 0
vt 0.5 0.6376347541809082
vt 0.5 0
vt 0.5 0.6376347541809082
vt 0.60102665424346924 0
vt 0.60102665424346924 0.6376347541809082
vt 0.60102665424346924 0
vt 0.60102665424346924 0.6376347541809082
vt 1 0
vt 1 0.6376347541809082
vt 0 1
vt 0.30639687180519104 1
vt 0.30639687180519104 0.63763535022735596
vt 0 0.63763535022735596
vt 0.69360309839248657 0.63763535022735596
vt 1 0.63763535022735596
vt 1 1
vt 0.69360309839248657 1
vn 0 0 1
vn 0 0 1
vn 0 0 1
vn 0 0 1
vn 1 0 0
vn 1 0 0
vn 1 0 0
vn 1 0 0
vn 0 0 -1
vn 0 0 -1
vn 0 0 -1
vn 0 0 -1
vn -1 0 0
vn -1 0 0
vn -1 0 0
vn -1 0 0
vn 0 -1 0
vn 0 -1 0
vn 0 -1 0
vn 0 -1 0
vn 0 1 0
vn 0 1 0
vn 0 1 0
vn 0 1 0
f 115/354/354 113/353/353 119/356/356 117/355/355
f 120/360/360 114/357/357 116/358/358 118/359/359
f 113/337/337 115/339/339 116/340/340 114/338/338
f 115/341/341 117/343/343 118/344/344 116/342/342
f 117/345/345 119/347/347 120/348/348 118/346/346
f 119/349/349 113/351/351 114/352/352 120/350/350
g object_16
v 90.062957763671875 5 -89.066184997558594
v 90.062957763671875 8 -89.066184997558594
v 96.312957763671875 5 -89.066184997558594
v 96.312957763671875 8 -89.066184997558594
v 96.312957763671875 5 -93.015373229980469
v 96.312957763671875 8 -93.015373229980469
v 90.062957763671875 5 -93.015373229980469
v 90.062957763671875 8 -93.015373229980469
vt 0 0
vt 0 0.6376347541809082
vt 0.10102663189172745 0
vt 0.10102663189172745 0.6376347541809082
vt 0.10102663189172745 0
vt 0.10102663189172745 0.6376347541809082
vt 0.5 0
vt 0.5 0.6376347541809082
vt 0.5 0
vt 0.5 0.6376347541809082
vt 0.60102665424346924 0
vt 0.60102665424346924 0.6376347541809082
vt 0.60102665424346924 0
vt 0.60102665424346924 0.6376347541809082
vt 1 0
vt 1 0.6376347541809082
vt 0 1
vt 0.30639687180519104 1
vt 0.30639687180519104 0.63763535022735596
vt 0 0.63763535022735596
vt 0.69360309839248657 0.63763535022735596
vt 1 0.63763535022735596
vt 1 1
vt 0.69360309839248657 1
vn 0 0 1
vn 0 0 1
vn 0 0 1
vn 0 0 1
vn 1 0 0
vn 1 0 0
vn 1 0 0
vn 1 0 0
vn 0 0 -1
vn 0 0 -1
vn 0 0 -1
vn 0 0 -1
vn -1 0 0
vn -1 0 0
vn -1 0 0
vn -1 0 0
vn 0 -1 0
vn 0 -1 0
vn 0 -1 0
vn 0 -1 0
vn 0 1 0
vn 0 1 0
vn 0 1 0
vn 0 1 0
f 123/378/378 121/377/377 127/380/380 125/379/379
f 128/384/384 122/381/381 124/382/382 126/383/383
f 121/361/361 123/363/363 124/364/364 122/362/362
f 123/365/365 125/367/367 126/368/368 124/366/366
f 125/369/369 127/371/371 128/372/372 126/370/370
f 127/373/373 121/375/375 122/376/376 128/374/374
g object_17
v 90.062957763671875 8 -89.066184997558594
v 90.062957763671875 11 -89.066184997558594
v 96.312957763671875 8 -89.066184997558594
v 96.312957763671875 11 -89.066184997558594
v 96.312957763671875 8 -93.015373229980469
v 96.312957763671875 11 -93.015373229980469
v 90.062957763671875 8 -93.015373229980469
v 90.062957763671875 11 -93.015373229980469
vt 0 0
vt 0 0.6376347541809082
vt 0.10102663189172745 0
vt 0.10102663189172745 0.6376347541809082
vt 0.10102663189172745 0
vt 0.10102663189172745 0.6376347541809082
vt 0.5 0
vt 0.5 0.6376347541809082
vt 0.5 0
vt 0.5 0.6376347541809082
vt 0.60102665424346924 0
vt 0.60102665424346924 0.6376347541809082
vt 0.60102665424346924 0
vt 0.60102665424346924 0.6376347541809082
vt 1 0
vt 1 0.6376347541809082
vt 0 1
vt 0.30639687180519104 1
vt 0.30639687180519104 0.63763535022735596
vt 0 0.63763535022735596
vt 0.69360309839248657 0.63763535022735596
vt 1 0.63763535022735596
vt 1 1
vt 0.69360309839248657 1
vn 0 0 1
vn 0 0 1
vn 0 0 1
vn 0 0 1
vn 1 0 0
vn 1 0 0
vn 1 0 0
vn 1 0 0
vn 0 0 -1
vn 0 0 -1
vn 0 0 -1
vn 0 0 -1
vn -1 0 0
vn -1 0 0
vn -1 0 0
vn -1 0 0
vn 0 -1 0
vn 0 -1 0
vn 0 -1 0
vn 0 -1 0
vn 0 1 0
vn 0 1 0
vn 0 1 0
vn 0 1 0
f 131/402/402 129/401/401 135/404/404 133/403/403
f 136/408/408 130/405/405 132/406/406 134/407/407
f 129/385/385 131/387/387 132/388/388 130/386/386
f 131/389/389 133/391/391 134/392/392 132/390/390
f 133/393/393 135/395/395 136/396/396 134/394/394
f 135/397/397 129/399/399 130/400/400 136/398/398
g object_18
v 90.062957763671875 11 -89.066184997558594
v 90.062957763671875 14 -89.066184997558594
v 96.312957763671875 11 -89.066184997558594
v 96.312957763671875 14 -89.066184997558594
v 96.312957763671875 11 -93.015373229980469
v 96.312957763671875 14 -93.015373229980469
v 90.062957763671875 11 -93.015373229980469
v 90.062957763671875 14 -93.015373229980469
vt 0 0
vt 0 0.6376347541809082
vt 0.10102663189172745 0
vt 0.10102663189172745 0.6376347541809082
vt 0.10102663189172745 0
vt 0.10102663189172745 0.6376347541809082
vt 0.5 0
vt 0.5 0.6376347541809082
vt 0.5 0
vt 0.5 0.6376347541809082
vt 0.60102665424346924 0
vt 0.60102665424346924 0.6376347541809082
vt 0.60102665424346924 0
vt 0.60102665424346924 0.6376347541809082
vt 1 0
vt 1 0.6376347541809082
vt 0 1
vt 0.30639687180519104 1
vt 0.30639687180519104 0.63763535022735596
vt 0 0.63763535022735596
vt 0.69360309839248657 0.63763535022735596
vt 1 0.63763535022735596
vt 1 1
vt 0.69360309839248657 1
vn 0 0 1
vn 0 0 1
vn 0 0 1
vn 0 0 1
vn 1 0 0
vn 1 0 0
vn 1 0 0
vn 1 0 0
vn 0 0 -1
vn 0 0 -1
vn 0 0 -1
vn 0 0 -1
vn -1 0 0
vn -1 0 0
vn -1 0 0
vn -1 0 0
vn 0 -1 0
vn 0 -1 0
vn 0 -1 0
vn 0 -1 0
vn 0 1 0
vn 0 1 0
vn 0 1 0
vn 0 1 0
f 139/426/426 137/425/425 143/428/428 141/427/427
f 144/432/432 138/429/429 140/430/430 142/431/431
f 137/409/409 139/411/411 140/412/412 138/410/410
f 139/413/413 141/415/415 142/416/416 140/414/414
f 141/417/417 143/419/419 144/420/420 142/418/418
f 143/421/421 137/423/423 138/424/424 144/422/422
g object_19
v 90.062957763671875 14 -89.066184997558594
v 90.062957763671875 17 -89.066184997558594
v 96.312957763671875 14 -89.066184997558594
v 96.312957763671875 17 -89.066184997558594
v 96.312957763671875 14 -93.015373229980469
v 96.312957763671875 17 -93.015373229980469
v 90.062957763671875 14 -93.015373229980469
v 90.062957763671875 17 -93.015373229980469
vt 0 0
vt 0 0.6376347541809082
vt 0.10102663189172745 0
vt 0.10102663189172745 0.6376347541809082
vt 0.10102663189172745 0
vt 0.10102663189172745 0.6376347541809082
vt 0.5 0
vt 0.5 0.6376347541809082
vt 0.5 0
vt 0.5 0.6376347541809082
vt 0.60102665424346924 0
vt 0.60102665424346924 0.6376347541809082
vt 0.60102665424346924 0
vt 0.60102665424346924 0.6376347541809082
vt 1 0
vt 1 0.6376347541809082
vt 0 1
vt 0.30639687180519104 1
vt 0.30639687180519104 0.63763535022735596
vt 0 0.63763535022735596
vt 0.69360309839248657 0.63763535022735596
vt 1 0.63763535022735596
vt 1 1
vt 0.69360309839248657 1
vn 0 0 1
vn 0 0 1
vn 0 0 1
vn 0 0 1
vn 1 0 0
vn 1 0 0
vn 1 0 0
vn 1 0 0
vn 0 0 -1
vn 0 0 -1
vn 0 0 -1
vn 0 0 -1
vn -1 0 0
vn -1 0 0
vn -1 0 0
vn -1 0 0
vn 0 -1 0
vn 0 -1 0
vn 0 -1 0
vn 0 -1 0
vn 0 1 0
vn 0 1 0
vn 0 1 0
vn 0 1 0
f 147/450/450 145/449/449 151/452/452 149/451/451
f 152/456/456 146/453/453 148/454/454 150/455/455
f 145/433/433 147/435/435 148/436/436 146/434/434
f 147/437/437 149/439/439 150/440/440 148/438/438
f 149/441/441 151/443/443 152/444/444 150/442/442
f 151/445/445 145/447/447 146/448/448 152/446/446
g object_20
v 90.062957763671875 17 -89.066184997558594
v 90.062957763671875 20 -89.066184997558594
v 96.312957763671875 17 -89.066184997558594
v 96.312957763671875 20 -89.066184997558594
v 96.312957763671875 17 -93.015373229980469
v 96.312957763671875 20 -93.015373229980469
v 90.062957763671875 17 -93.015373229980469
v 90.062957763671875 20 -93.015373229980469
vt 0 0
vt 0 0.6376347541809082
vt 0.10102663189172745 0
vt 0.10102663189172745 0.6376347541809082
vt 0.10102663189172745 0
vt 0.10102663189172745 0.6376347541809082
vt 0.5 0
vt 0.5 0.6376347541809082
vt 0.5 0
vt 0.5 0.6376347541809082
vt 0.60102665424346924 0
vt 0.60102665424346924 0.6376347541809082
vt 0.60102665424346924 0
vt 0.60102665424346924 0.6376347541809082
vt 1 0
vt 1 0.6376347541809082
vt 0 1
vt 0.30639687180519104 1
vt 0.30639687180519104 0.63763535022735596
vt 0 0.63763535022735596
vt 0.69360309839248657 0.63763535022735596
vt 1 0.63763535022735596
vt 1 1
vt 0.69360309839248657 1
vn 0 0 1
vn 0 0 1
vn 0 0 1
vn 0 0 1
vn 1 0 0
vn 1 0 0
vn 1 0 0
vn 1 0 0
vn 0 0 -1
vn 0 0 -1
vn 0 0 -1
vn 0 0 -1
vn -1 0 0
vn -1 0 0
vn -1 0 0
vn -1 0 0
vn 0 -1 0
vn 0 -1 0
vn 0 -1 0
vn 0 -1 0
vn 0 1 0
vn 0 1 0
vn 0 1 0
vn 0 1 0
f 155/474/474 153/473/473 159/476/476 157/475/475
f 160/480/480 154/477/477 156/478/478 158/479/479
f 153/457/457 155/459/459 156/460/460 154/458/458
f 155/461/461 157/463/463 158/464/464 156/462/462
f 157/465/465 159/467/467 160/468/468 158/466/466
f 159/469/469 153/471/471 154/472/472 160/470/470
g object_21
v 90.062957763671875 5 -93.015373229980469
v 90.062957763671875 8 -93.015373229980469
v 96.312957763671875 5 -93.015373229980469
v 96.312957763671875 8 -93.015373229980469
v 96.312957763671875 5 -96.964561462402344
v 96.312957763671875 8 -96.964561462402344
v 90.062957763671875 5 -96.964561462402344
v 90.062957763671875 8 -96.964561462402344
vt 0 0
vt 0 0.6376347541809082
vt 0.10102663189172745 0
vt 0.10102663189172745 0.6376347541809082
vt 0.10102663189172745 0
vt 0.10102663189172745 0.6376347541809082
vt 0.5 0
vt 0.5 0.6376347541809082
vt 0.5 0
vt 0.5 0.6376347541809082
vt 0.60102665424346924 0
vt 0.60102665424346924 0.6376347541809082
vt 0.60102665424346924 0
vt 0.60102665424346924 0.6376347541809082
vt 1 0
vt 1 0.6376347541809082
vt 0 1
vt 0.30639687180519104 1
vt 0.30639687180519104 0.63763535022735596
vt 0 0.63763535022735596
vt 0.69360309839248657 0.63763535022735596
vt 1 0.63763535022735596
vt 1 1
vt 0.69360309839248657 1
vn 0 0 1
vn 0 0 1
vn 0 0 1
vn 0 0 1
vn 1 0 0
vn 1 0 0
vn 1 0 0
vn 1 0 0
vn 0 0 -1
vn 0 0 -1
vn 0 0 -1
vn 0 0 -1
vn -1 0 0
vn -1 0 0
vn -1 0 0
vn -1 0 0
vn 0 -1 0
vn 0 -1 0
vn 0 -1 0
vn 0 -1 0
vn 0 1 0
vn 0 1 0
vn 0 1 0
vn 0 1 0
f 163/498/498 161/497/497 167/500/500 165/499/499
f 168/504/504 162/501/501 164/502/502 166/503/503
f 161/481/481 163/483/483 164/484/484 162/482/482
f 163/485/485 165/487/487 166/488/488 164/486/486
f 165/489/489 167/491/491 168/492/492 166/490/490
f 167/493/493 161/495/495 162/496/496 168/494/494
g object_22
v 90.062957763671875 8 -93.015373229980469
v 90.062957763671875 11 -93.015373229980469
v 96.312957763671875 8 -93.015373229980469
v 96.312957763671875 11 -93.015373229980469
v 96.312957763671875 8 -96.964561462402344
v 96.312957763671875 11 -96.964561462402344
v 90.062957763671875 8 -96.964561462402344
v 90.062957763671875 11 -96.964561462402344
vt 0 0
vt 0 0.6376347541809082
vt 0.10102663189172745 0
vt 0.10102663189172745 0.6376347541809082
vt 0.10102663189172745 0
vt 0.10102663189172745 0.6376347541809082
vt 0.5 0
vt 0.5 0.6376347541809082
vt 0.5 0
vt 0.5 0.6376347541809082
vt 0.60102665424346924 0
vt 0.60102665424346924 0.6376347541809082
vt 0.60102665424346924 0
vt 0.60102665424346924 0.6376347541809082
vt 1 0
vt 1 0.6376347541809082
vt 0 1
vt 0.30639687180519104 1
vt 0.30639687180519104 0.63763535022735596
vt 0 0.63763535022735596
vt 0.69360309839248657 0.63763535022735596
vt 1 0.63763535022735596
vt 1 1
vt 0.69360309839248657 1
vn 0 0 1
vn 0 0 1
vn 0 0 1
vn 0 0 1
vn 1 0 0
vn 1 0 0
vn 1 0 0
vn 1 0 0
vn 0 0 -1
vn 0 0 -1
vn 0 0 -1
vn 0 0 -1
vn -1 0 0
vn -1 0 0
vn -1 0 0
vn -1 0 0
vn 0 -1 0
vn 0 -1 0
vn 0 -1 0
vn 0 -1 0
vn 0 1 0
vn 0 1 0
vn 0 1 0
vn 0 1 0
f 171/522/522 169/521/521 175/524/524 173/523/523
f 176/528/528 170/525/525 172/526/526 174/527/527
f 169/505/505 171/507/507 172/508/508 170/506/506
f 171/509/509 173/511/511 174/512/512 172/510/510
f 173/513/513 175/515/515 176/516/516 174/514/514
f 175/517/517 169/519/519 170/520/520 176/518/518
g object_23
v 90.062957763671875 11 -93.015373229980469
v 90.062957763671875 14 -93.015373229980469
v 96.312957763671875 11 -93.015373229980469
v 96.312957763671875 14 -93.015373229980469
v 96.312957763671875 11 -96.964561462402344
v 96.312957763671875 14 -96.964561462402344
v 90.062957763671875 11 -96.964561462402344
v 90.062957763671875 14 -96.964561462402344
vt 0 0
vt 0 0.6376347541809082
vt 0.10102663189172745 0
vt 0.10102663189172745 0.6376347541809082
vt 0.10102663189172745 0
vt 0.10102663189172745 0.6376347541809082
vt 0.5 0
vt 0.5 0.6376347541809082
vt 0.5 0
vt 0.5 0.6376347541809082
vt 0.60102665424346924 0
vt 0.60102665424346924 0.6376347541809082
vt 0.60102665424346924 0
vt 0.60102665424346924 0.6376347541809082
vt 1 0
vt 1 0.6376347541809082
vt 0 1
vt 0.30639687180519104 1
vt 0.30639687180519104 0.63763535022735596
vt 0 0.63763535022735596
vt 0.69360309839248657 0.63763535022735596
vt 1 0.63763535022735596
vt 1 1
vt 0.69360309839248657 1
vn 0 0 1
vn 0 0 1
vn 0 0 1
vn 0 0 1
vn 1 0 0
vn 1 0 0
vn 1 0 0
vn 1 0 0
vn 0 0 -1
vn 0 0 -1
vn 0 0 -1
vn 0 0 -1
vn -1 0 0
vn -1 0 0
vn -1 0 0
vn -1 0 0
vn 0 -1 0
vn 0 -1 0
vn 0 -1 0
vn 0 -1 0
vn 0 1 0
vn 0 1 0
vn 0 1 0
vn 0 1 0
f 179/546/546 177/545/545 183/548/548 181/547/547
f 184/552/552 178/549/549 180/550/550 182/551/551
f 177/529/529 179/531/531 180/532/532 178/530/530
f 179/533/533 181/535/535 182/536/536 180/534/534
f 181/537/537 183/539/539 184/540/540 182/538/538
f 183/541/541 177/543/543 178/544/544 184/542/542
g object_24
v 90.062957763671875 14 -93.015373229980469
v 90.062957763671875 17 -93.015373229980469
v 96.312957763671875 14 -93.015373229980469
v 96.312957763671875 17 -93.015373229980469
v 96.312957763671875 14 -96.964561462402344
v 96.312957763671875 17 -96.964561462402344
v 90.062957763671875 14 -96.964561462402344
v 90.062957763671875 17 -96.964561462402344
vt 0 0
vt 0 0.6376347541809082
vt 0.10102663189172745 0
vt 0.10102663189172745 0.6376347541809082
vt 0.10102663189172745 0
vt 0.10102663189172745 0.6376347541809082
vt 0.5 0
vt 0.5 0.6376347541809082
vt 0.5 0
vt 0.5 0.6376347541809082
vt 0.60102665424346924 0
vt 0.60102665424346924 0.6376347541809082
vt 0.60102665424346924 0
vt 0.60102665424346924 0.6376347541809082
vt 1 0
vt 1 0.6376347541809082
vt 0 1
vt 0.30639687180519104 1
vt 0.30639687180519104 0.63763535022735596
vt 0 0.63763535022735596
vt 0.69360309839248657 0.63763535022735596
vt 1 0.63763535022735596
vt 1 1
vt 0.69360309839248657 1
vn 0 0 1
vn 0 0 1
vn 0 0 1
vn 0 0 1
vn 1 0 0
vn 1 0 0
vn 1 0 0
vn 1 0 0
vn 0 0 -1
vn 0 0 -1
vn 0 0 -1
vn 0 0 -1
vn -1 0 0
vn -1 0 0
vn -1 0 0
vn -1 0 0
vn 0 -1 0
vn 0 -1 0
vn 0 -1 0
vn 0 -1 0
vn 0 1 0
vn 0 1 0
vn 0 1 0
vn 0 1 0
f 187/570/570 185/569/569 191/572/572 189/571/571
f 192/576/576 186/573/573 188/574/574 190/575/575
f 185/553/553 187/555/555 188/556/556 186/554/554
f 187/557/557 189/559/559 190/560/560 188/558/558
f 189/561/561 191/563/563 192/564/564 190/562/562
f 191/565/565 185/567/567 186/568/568 192/566/566
g object_25
v 90.062957763671875 17 -93.015373229980469
v 90.062957763671875 20 -93.015373229980469
v 96.312957763671875 17 -93.015373229980469
v 96.312957763671875 20 -93.015373229980469
v 96.312957763671875 17 -96.964561462402344
v 96.312957763671875 20 -96.964561462402344
v 90.062957763671875 17 -96.964561462402344
v 90.062957763671875 20 -96.964561462402344
vt 0 0
vt 0 0.6376347541809082
vt 0.10102663189172745 0
vt 0.10102663189172745 0.6376347541809082
vt 0.10102663189172745 0
vt 0.10102663189172745 0.6376347541809082
vt 0.5 0
vt 0.5 0.6376347541809082
vt 0.5 0
vt 0.5 0.6376347541809082
vt 0.60102665424346924 0
vt 0.60102665424346924 0.6376347541809082
vt 0.60102665424346924 0
vt 0.60102665424346924 0.6376347541809082
vt 1 0
vt 1 0.6376347541809082
vt 0 1
vt 0.30639687180519104 1
vt 0.30639687180519104 0.63763535022735596
vt 0 0.63763535022735596
vt 0.69360309839248657 0.63763535022735596
vt 1 0.63763535022735596
vt 1 1
vt 0.69360309839248657 1
vn 0 0 1
vn 0 0 1
vn 0 0 1
vn 0 0 1
vn 1 0 0
vn 1 0 0
vn 1 0 0
vn 1 0 0
vn 0 0 -1
vn 0 0 -1
vn 0 0 -1
vn 0 0 -1
vn -1 0 0
vn -1 0 0
vn -1 0 0
vn -1 0 0
vn 0 -1 0
vn 0 -1 0
vn 0 -1 0
vn 0 -1 0
vn 0 1 0
vn 0 1 0
vn 0 1 0
vn 0 1 0
f 195/594/594 193/593/593 199/596/596 197/595/595
f 200/600/600 194/597/597 196/598/598 198/599/599
f 193/577/577 195/579/579 196/580/580 194/578/578
f 195/581/581 197/583/583 198/584/584 196/582/582
f 197/585/585 199/587/587 200/588/588 198/586/586
f 199/589/589 193/591/591 194/592/592 200/590/590
g object_26
v 80.312957763671875 5 -77.218612670898438
v 80.312957763671875 8 -77.218612670898438
v 86.562957763671875 5 -77.218612670898438
v 86.562957763671875 8 -77.218612670898438
v 86.562957763671875 5 -81.167800903320312
v 86.562957763671875 8 -81.167800903320312
v 80.312957763671875 5 -81.167800903320312
v 80.312957763671875 8 -81.167800903320312
vt 0 0
vt 0 0.6376347541809082
vt 0.10102663189172745 0
vt 0.10102663189172745 0.6376347541809082
vt 0.10102663189172745 0
vt 0.10102663189172745 0.6376347541809082
vt 0.5 0
vt 0.5 0.6376347541809082
vt 0.5 0
vt 0.5 0.6376347541809082
vt 0.60102665424346924 0
vt 0.60102665424346924 0.6376347541809082
vt 0.60102665424346924 0
vt 0.60102665424346924 0.6376347541809082
vt 1 0
vt 1 0.6376347541809082
vt 0 1
vt 0.30639687180519104 1
vt 0.30639687180519104 0.63763535022735596
vt 0 0.63763535022735596
vt 0.69360309839248657 0.63763535022735596
vt 1 0.63763535022735596
vt 1 1
vt 0.69360309839248657 1
vn 0 0 1
vn 0 0 1
vn 0 0 1
vn 0 0 1
vn 1 0 0
vn 1 0 0
vn 1 0 0
vn 1 0 0
vn 0 0 -1
vn 0 0 -1
vn 0 0 -1
vn 0 0 -1
vn -1 0 0
vn -1 0 0
vn -1 0 0
vn -1 0 0
vn 0 -1 0
vn 0 -1 0
vn 0 -1 0
vn 0 -1 0
vn 0 1 0
vn 0 1 0
vn 0 1 0
vn 0 1 0
f 203/618/618 201/617/617 207/620/620 205/619/619
f 208/624/624 202/621/621 204/622/622 206/623/623
f 201/601/601 203/603/603 204/604/604 202/602/602
f 203/605/605 205/607/607 206/608/608 204/606/606
f 205/609/609 207/611/611 208/612/612 206/610/610
f 207/613/613 201/615/615 202/616/616 208/614/614
g object_27
v 80.312957763671875 8 -77.218612670898438
v 80.312957763671875 11 -77.218612670898438
v 86.562957763671875 8 -77.218612670898438
v 86.562957763671875 11 -77.218612670898438
v 86.562957763671875 8 -81.167800903320312
v 86.562957763671875 11 -81.167800903320312
v 80.312957763671875 8 -81.167800903320312
v 80.312957763671875 11 -81.167800903320312
vt 0 0
vt 0 0.6376347541809082
vt 0.10102663189172745 0
vt 0.10102663189172745 0.6376347541809082
vt 0.10102663189172745 0
vt 0.10102663189172745 0.6376347541809082
vt 0.5 0
vt 0.5 0.6376347541809082
vt 0.5 0
vt 0.5 0.6376347541809082
vt 0.60102665424346924 0
vt 0.60102665424346924 0.6376347541809082
vt 0.60102665424346924 0
vt 0.60102665424346924 0.6376347541809082
vt 1 0
vt 1 0.6376347541809082
vt 0 1
vt 0.30639687180519104 1
vt 0.30639687180519104 0.63763535022735596
vt 0 0.63763535022735596
vt 0.69360309839248657 0.63763535022735596
vt 1 0.63763535022735596
vt 1 1
vt 0.69360309839248657 1
vn 0 0 1
vn 0 0 1
vn 0 0 1
vn 0 0 1
vn 1 0 0
vn 1 0 0
vn 1 0 0
vn 1 0 0
vn 0 0 -1
vn 0 0 -1
vn 0 0 -1
vn 0 0 -1
vn -1 0 0
vn -1 0 0
vn -1 0 0
vn -1 0 0
vn 0 -1 0
vn 0 -1 0
vn 0 -1 0
vn 0 -1 0
vn 0 1 0
vn 0 1 0
vn 0 1 0
vn 0 1 0
f 211/642/642 209/641/641 215/644/644 213/643/643
f 216/648/648 210/645/645 212/646/646 214/647/647
f 209/625/625 211/627/627 212/628/628 210/626/626
f 211/629/629 213/631/631 214/632/632 212/630/630
f 213/633/633 215/635/635 216/636/636 214/634/634
f 215/637/637 209/639/639 210/640/640 216/638/638
g object_28
v 80.312957763671875 11 -77.218612670898438
v 80.312957763671875 14 -77.218612670898438
v 86.562957763671875 11 -77.218612670898438
v 86.562957763671875 14 -77.218612670898438
v 86.562957763671875 11 -81.167800903320312
v 86.562957763671875 14 -81.167800903320312
v 80.312957763671875 11 -81.167800903320312
v 80.312957763671875 14 -81.167800903320312
vt 0 0
vt 0 0.6376347541809082
vt 0.10102663189172745 0
vt 0.10102663189172745 0.6376347541809082
vt 0.10102663189172745 0
vt 0.10102663189172745 0.6376347541809082
vt 0.5 0
vt 0.5 0.6376347541809082
vt 0.5 0
vt 0.5 0.6376347541809082
vt 0.60102665424346924 0
vt 0.60102665424346924 0.6376347541809082
vt 0.60102665424346924 0
vt 0.60102665424346924 0.6376347541809082
vt 1 0
vt 1 0.6376347541809082
vt 0 1
vt 0.30639687180519104 1
vt 0.30639687180519104 0.63763535022735596
vt 0 0.63763535022735596
vt 0.69360309839248657 0.63763535022735596
vt 1 0.63763535022735596
vt 1 1
vt 0.69360309839248657 1
vn 0 0 1
vn 0 0 1
vn 0 0 1
vn 0 0 1
vn 1 0 0
vn 1 0 0
vn 1 0 0
vn 1 0 0
vn 0 0 -1
vn 0 0 -1
vn 0 0 -1
vn 0 0 -1
vn -1 0 0
vn -1 0 0
vn -1 0 0
vn -1 0 0
vn 0 -1 0
vn 0 -1 0
vn 0 -1 0
vn 0 -1 0
vn 0 1 0
vn 0 1 0
vn 0 1 0
vn 0 1 0
f 219/666/666 217/665/665 223/668/668 221/667/667
f 224/672/672 218/669/669 220/670/670 222/671/671
f 217/649/649 219/651/651 220/652/652 218/650/650
f 219/653/653 221/655/655 222/656/656 220/654/654
f 221/657/657 223/659/659 224/660/660 222/658/658
f 223/661/661 217/663/663 218/664/664 224/662/662
g object_29
v 80.312957763671875 14 -77.218612670898438
v 80.312957763671875 17 -77.218612670898438
v 86.562957763671875 14 -77.218612670898438
v 86.562957763671875 17 -77.218612670898438
v 86.562957763671875 14 -81.167800903320312
v 86.562957763671875 17 -81.167800903320312
v 80.312957763671875 14 -81.167800903320312
v 80.312957763671875 17 -81.167800903320312
vt 0 0
vt 0 0.6376347541809082
vt 0.10102663189172745 0
vt 0.10102663189172745 0.6376347541809082
vt 0.10102663189172745 0
vt 0.10102663189172745 0.6376347541809082
vt 0.5 0
vt 0.5 0.6376347541809082
vt 0.5 0
vt 0.5 0.6376347541809082
vt 0.60102665424346924 0
vt 0.60102665424346924 0.6376347541809082
vt 0.60102665424346924 0
vt 0.60102665424346924 0.6376347541809082
vt 1 0
vt 1 0.6376347541809082
vt 0 1
vt 0.30639687180519104 1
vt 0.30639687180519104 0.63763535022735596
vt 0 0.63763535022735596
vt 0.69360309839248657 0.63763535022735596
vt 1 0.63763535022735596
vt 1 1
vt 0.69360309839248657 1
vn 0 0 1
vn 0 0 1
vn 0 0 1
vn 0 0 1
vn 1 0 0
vn 1 0 0
vn 1 0 0
vn 1 0 0
vn 0 0 -1
vn 0 0 -1
vn 0 0 -1
vn 0 0 -1
vn -1 0 0
vn -1 0 0
vn -1 0 0
vn -1 0 0
vn 0 -1 0
vn 0 -1 0
vn 0 -1 0
vn 0 -1 0
vn 0 1 0
vn 0 1 0
vn 0 1 0
vn 0 1 0
f 227/690/690 225/689/689 231/692/692 229/691/691
f 232/696/696 226/693/693 228/694/694 230/695/695
f 225/673/673 227/675/675 228/676/676 226/674/674
f 227/677/677 229/679/679 230/680/680 228/678/678
f 229/681/681 231/683/683 232/684/684 230/682/682
f 231/685/685 225/687/687 226/688/688 232/686/686
g object_30
v 80.312957763671875 17 -77.218612670898438
v 80.312957763671875 20 -77.218612670898438
v 86.562957763671875 17 -77.218612670898438
v 86.562957763671875 20 -77.218612670898438
v 86.562957763671875 17 -81.167800903320312
v 86.562957763671875 20 -81.167800903320312
v 80.312957763671875 17 -81.167800903320312
v 80.312957763671875 20 -81.167800903320312
vt 0 0
vt 0 0.6376347541809082
vt 0.10102663189172745 0
vt 0.10102663189172745 0.6376347541809082
vt 0.10102663189172745 0
vt 0.10102663189172745 0.6376347541809082
vt 0.5 0
vt 0.5 0.6376347541809082
vt 0.5 0
vt 0.5 0.6376347541809082
vt 0.60102665424346924 0
vt 0.60102665424346924 0.6376347541809082
vt 0.60102665424346924 0
vt 0.60102665424346924 0.6376347541809082
vt 1 0
vt 1 0.6376347541809082
vt 0 1
vt 0.30639687180519104 1
vt 0.30639687180519104 0.63763535022735596
vt 0 0.63763535022735596
vt 0.69360309839248657 0.63763535022735596
vt 1 0.63763535022735596
vt 1 1
vt 0.69360309839248657 1
vn 0 0 1
vn 0 0 1
vn 0 0 1
vn 0 0 1
vn 1 0 0
vn 1 0 0
vn 1 0 0
vn 1 0 0
vn 0 0 -1
vn 0 0 -1
vn 0 0 -1
vn 0 0 -1
vn -1 0 0
vn -1 0 0
vn -1 0 0
vn -1 0 0
vn 0 -1 0
vn 0 -1 0
vn 0 -1 0
vn 0 -1 0
vn 0 1 0
vn 0 1 0
vn 0 1 0
vn 0 1 0
f 235/714/714 233/713/713 239/716/716 237/715/715
f 240/720/720 234/717/717 236/718/718 238/719/719
f 233/697/697 235/699/699 236/700/700 234/698/698
f 235/701/701 237/703/703 238/704/704 236/702/702
f 237/705/705 239/707/707 240/708/708 238/706/706
f 239/709/709 233/711/711 234/712/712 240/710/710
g object_31
v 80.312957763671875 5 -81.167800903320312
v 80.312957763671875 8 -81.167800903320312
v 86.562957763671875 5 -81.167800903320312
v 86.562957763671875 8 -81.167800903320312
v 86.562957763671875 5 -85.116989135742188
v 86.562957763671875 8 -85.116989135742188
v 80.312957763671875 5 -85.116989135742188
v 80.312957763671875 8 -85.116989135742188
vt 0 0
vt 0 0.6376347541809082
vt 0.10102663189172745 0
vt 0.10102663189172745 0.6376347541809082
vt 0.10102663189172745 0
vt 0.10102663189172745 0.6376347541809082
vt 0.5 0
vt 0.5 0.6376347541809082
vt 0.5 0
vt 0.5 0.6376347541809082
vt 0.60102665424346924 0
vt 0.60102665424346924 0.6376347541809082
vt 0.60102665424346924 0
vt 0.60102665424346924 0.6376347541809082
vt 1 0
vt 1 0.6376347541809082
vt 0 1
vt 0.30639687180519104 1
vt 0.30639687180519104 0.63763535022735596
vt 0 0.63763535022735596
vt 0.69360309839248657 0.63763535022735596
vt 1 0.63763535022735596
vt 1 1
vt 0.69360309839248657 1
vn 0 0 1
vn 0 0 1
vn 0 0 1
vn 0 0 1
vn 1 0 0
vn 1 0 0
vn 1 0 0
vn 1 0 0
vn 0 0 -1
vn 0 0 -1
vn 0 0 -1
vn 0 0 -1
vn -1 0 0
vn -1 0 0
vn -1 0 0
vn -1 0 0
vn 0 -1 0
vn 0 -1 0
vn 0 -1 0
vn 0 -1 0
vn 0 1 0
vn 0 1 0
vn 0 1 0
vn 0 1 0
f 243/738/738 241/737/737 247/740/740 245/739/739
f 248/744/744 242/741/741 244/742/742 246/743/743
f 241/721/721 243/723/723 244/724/724 242/722/722
f 243/725/725 245/727/727 246/728/728 244/726/726
f 245/729/729 247/731/731 248/732/732 246/730/730
f 247/733/733 241/735/735 242/736/736 248/734/734
g object_32
v 80.312957763671875 8 -81.167800903320312
v 80.312957763671875 11 -81.167800903320312
v 86.562957763671875 8 -81.167800903320312
v 86.562957763671875 11 -81.167800903320312
v 86.562957763671875 8 -85.116989135742188
v 86.562957763671875 11 -85.116989135742188
v 80.312957763671875 8 -85.116989135742188
v 80.312957763671875 11 -85.116989135742188
vt 0 0
vt 0 0.6376347541809082
vt 0.10102663189172745 0
vt 0.10102663189172745 0.6376347541809082
vt 0.10102663189172745 0
vt 0.10102663189172745 0.6376347541809082
vt 0.5 0
vt 0.5 0.6376347541809082
vt 0.5 0
vt 0.5 0.6376347541809082
vt 0.60102665424346924 0
vt 0.60102665424346924 0.6376347541809082
vt 0.60102665424346924 0
vt 0.60102665424346924 0.6376347541809082
vt 1 0
vt 1 0.6376347541809082
vt 0 1
vt 0.30639687180519104 1
vt 0.30639687180519104 0.63763535022735596
vt 0 0.63763535022735596
vt 0.69360309839248657 0.63763535022735596
vt 1 0.63763535022735596
vt 1 1
vt 0.69360309839248657 1
vn 0 0 1
vn 0 0 1
vn 0 0 1
vn 0 0 1
vn 1 0 0
vn 1 0 0
vn 1 0 0
vn 1 0 0
vn 0 0 -1
vn 0 0 -1
vn 0 0 -1
vn 0 0 -1
vn -1 0 0
vn -1 0 0
vn -1 0 0
vn -1 0 0
vn 0 -1 0
vn 0 -1 0
vn 0 -1 0
vn 0 -1 0
vn 0 1 0
vn 0 1 0
vn 0 1 0
vn 0 1 0
f 251/762/762 249/761/761 255/764/764 253/763/763
f 256/768/768 250/765/765 252/766/766 254/767/767
f 249/745/745 251/747/747 252/748/748 250/746/746
f 251/749/749 253/751/751 254/752/752 252/750/750
f 253/753/753 255/755/755 256/756/756 254/754/754
f 255/757/757 249/759/759 250/760/760 256/758/758
g object_33
v 80.312957763671875 11 -81.167800903320312
v 80.312957763671875 14 -81.167800903320312
v 86.562957763671875 11 -81.167800903320312
v 86.562957763671875 14 -81.167800903320312
v 86.562957763671875 11 -85.116989135742188
v 86.562957763671875 14 -85.116989135742188
v 80.312957763671875 11 -85.116989135742188
v 80.312957763671875 14 -85.116989135742188
vt 0 0
vt 0 0.6376347541809082
vt 0.10102663189172745 0
vt 0.10102663189172745 0.6376347541809082
vt 0.10102663189172745 0
vt 0.10102663189172745 0.6376347541809082
vt 0.5 0
vt 0.5 0.6376347541809082
vt 0.5 0
vt 0.5 0.6376347541809082
vt 0.60102665424346924 0
vt 0.60102665424346924 0.6376347541809082
vt 0.60102665424346924 0
vt 0.60102665424346924 0.6376347541809082
vt 1 0
vt 1 0.6376347541809082
vt 0 1
vt 0.30639687180519104 1
vt 0.30639687180519104 0.63763535022735596
vt 0 0.63763535022735596
vt 0.69360309839248657 0.63763535022735596
vt 1 0.63763535022735596
vt 1 1
vt 0.69360309839248657 1
vn 0 0 1
vn 0 0 1
vn 0 0 1
vn 0 0 1
vn 1 0 0
vn 1 0 0
vn 1 0 0
vn 1 0 0
vn 0 0 -1
vn 0 0 -1
vn 0 0 -1
vn 0 0 -1
vn -1 0 0
vn -1 0 0
vn -1 0 0
vn -1 0 0
vn 0 -1 0
vn 0 -1 0
vn 0 -1 0
vn 0 -1 0
vn 0 1 0
vn 0 1 0
vn 0 1 0
vn 0 1 0
f 259/786/786 257/785/785 263/788/788 261/787/787
f 264/792/792 258/789/789 260/790/790 262/791/791
f 257/769/769 259/771/771 260/772/772 258/770/770
f 259/773/773 261/775/775 262/776/776 260/774/774
f 261/777/777 263/779/779 264/780/780 262/778/778
f 263/781/781 257/783/783 258/784/784 264/782/782
g object_34
v 80.312957763671875 14 -81.167800903320312
v 80.312957763671875 17 -81.167800903320312
v 86.562957763671875 14 -81.167800903320312
v 86.562957763671875 17 -81.167800903320312
v 86.562957763671875 14 -85.116989135742188
v 86.562957763671875 17 -85.116989135742188
v 80.312957763671875 14 -85.116989135742188
v 80.312957763671875 17 -85.116989135742188
vt 0 0
vt 0 0.6376347541809082
vt 0.10102663189172745 0
vt 0.10102663189172745 0.6376347541809082
vt 0.10102663189172745 0
vt 0.10102663189172745 0.6376347541809082
vt 0.5 0
vt 0.5 0.6376347541809082
vt 0.5 0
vt 0.5 0.6376347541809082
vt 0.60102665424346924 0
vt 0.60102665424346924 0.6376347541809082
vt 0.60102665424346924 0
vt 0.60102665424346924 0.6376347541809082
vt 1 0
vt 1 0.6376347541809082
vt 0 1
vt 0.30639687180519104 1
vt 0.30639687180519104 0.63763535022735596
vt 0 0.63763535022735596
vt 0.69360309839248657 0.63763535022735596
vt 1 0.63763535022735596
vt 1 1
vt 0.69360309839248657 1
vn 0 0 1
vn 0 0 1
vn 0 0 1
vn 0 0 1
vn 1 0 0
vn 1 0 0
vn 1 0 0
vn 1 0 0
vn 0 0 -1
vn 0 0 -1
vn 0 0 -1
vn 0 0 -1
vn -1 0 0
vn -1 0 0
vn -1 0 0
vn -1 0 0
vn 0 -1 0
vn 0 -1 0
vn 0 -1 0
vn 0 -1 0
vn 0 1 0
vn 0 1 0
vn 0 1 0
vn 0 1 0
f 267/810/810 265/809/809 271/812/812 269/811/811
f 272/816/816 266/813/813 268/814/814 270/815/815
f 265/793/793 267/795/795 268/796/796 266/794/794
f 267/797/797 269/799/799 270/800/800 268/798/798
f 269/801/801 271/803/803 272/804/804 270/802/802
f 271/805/805 265/807/807 266/808/808 272/806/806
g object_35
v 80.312957763671875 17 -81.167800903320312
v 80.312957763671875 20 -81.167800903320312
v 86.562957763671875 17 -81.167800903320312
v 86.562957763671875 20 -81.167800903320312
v 86.562957763671875 17 -85.116989135742188
v 86.562957763671875 20 -85.116989135742188
v 80.312957763671875 17 -85.116989135742188
v 80.312957763671875 20 -85.116989135742188
vt 0 0
vt 0 0.6376347541809082
vt 0.10102663189172745 0
vt 0.10102663189172745 0.6376347541809082
vt 0.10102663189172745 0
vt 0.10102663189172745 0.6376347541809082
vt 0.5 0
vt 0.5 0.6376347541809082
vt 0.5 0
vt 0.5 0.6376347541809082
vt 0.60102665424346924 0
vt 0.60102665424346924 0.6376347541809082
vt 0.60102665424346924 0
vt 0.60102665424346924 0.6376347541809082
vt 1 0
vt 1 0.6376347541809082
vt 0 1
vt 0.30639687180519104 1
vt 0.30639687180519104 0.63763535022735596
vt 0 0.63763535022735596
vt 0.69360309839248657 0.63763535022735596
vt 1 0.63763535022735596
vt 1 1
vt 0.69360309839248657 1
vn 0 0 1
vn 0 0 1
vn 0 0 1
vn 0 0 1
vn 1 0 0
vn 1 0 0
vn 1 0 0
vn 1 0 0
vn 0 0 -1
vn 0 0 -1
vn 0 0 -1
vn 0 0 -1
vn -1 0 0
vn -1 0 0
vn -1 0 0
vn -1 0 0
vn 0 -1 0
vn 0 -1 0
vn 0 -1 0
vn 0 -1 0
vn 0 1 0
vn 0 1 0
vn 0 1 0
vn 0 1 0
f 275/834/834 273/833/833 279/836/836 277/835/835
f 280/840/840 274/837/837 276/838/838 278/839/839
f 273/817/817 275/819/819 276/820/820 274/818/818
f 275/821/821 277/823/823 278/824/824 276/822/822
f 277/825/825 279/827/827 280/828/828 278/826/826
f 279/829/829 273/831/831 274/832/832 280/830/830
g object_36
v 80.312957763671875 5 -85.116989135742188
v 80.312957763671875 8 -85.116989135742188
v 86.562957763671875 5 -85.116989135742188
v 86.562957763671875 8 -85.116989135742188
v 86.562957763671875 5 -89.066184997558594
v 86.562957763671875 8 -89.066184997558594
v 80.312957763671875 5 -89.066184997558594
v 80.312957763671875 8 -89.066184997558594
vt 0 0
vt 0 0.6376347541809082
vt 0.10102663189172745 0
vt 0.10102663189172745 0.6376347541809082
vt 0.10102663189172745 0
vt 0.10102663189172745 0.6376347541809082
vt 0.5 0
vt 0.5 0.6376347541809082
vt 0.5 0
vt 0.5 0.6376347541809082
vt 0.60102665424346924 0
vt 0.60102665424346924 0.6376347541809082
vt 0.60102665424346924 0
vt 0.60102665424346924 0.6376347541809082
vt 1 0
vt 1 0.6376347541809082
vt 0 1
vt 0.30639687180519104 1
vt 0.30639687180519104 0.63763535022735596
vt 0 0.63763535022735596
vt 0.69360309839248657 0.63763535022735596
vt 1 0.63763535022735596
vt 1 1
vt 0.69360309839248657 1
vn 0 0 1
vn 0 0 1
vn 0 0 1
vn 0 0 1
vn 1 0 0
vn 1 0 0
vn 1 0 0
vn 1 0 0
vn 0 0 -1
vn 0 0 -1
vn 0 0 -1
vn 0 0 -1
vn -1 0 0
vn -1 0 0
vn -1 0 0
vn -1 0 0
vn 0 -1 0
vn 0 -1 0
vn 0 -1 0
vn 0 -1 0
vn 0 1 0
vn 0 1 0
vn 0 1 0
vn 0 1 0
f 283/858/858 281/857/857 287/860/860 285/859/859
f 288/864/864 282/861/861 284/862/862 286/863/863
f 281/841/841 283/843/843 284/844/844 282/842/842
f 283/845/845 285/847/847 286/848/848 284/846/846
f 285/849/849 287/851/851 288/852/852 286/850/850
f 287/853/853 281/855/855 282/856/856 288/854/854
g object_37
v 80.312957763671875 8 -85.116989135742188
v 80.312957763671875 11 -85.116989135742188
v 86.562957763671875 8 -85.116989135742188
v 86.562957763671875 11 -85.116989135742188
v 86.562957763671875 8 -89.066184997558594
v 86.562957763671875 11 -89.066184997558594
v 80.312957763671875 8 -89.066184997558594
v 80.312957763671875 11 -89.066184997558594
vt 0 0
vt 0 0.6376347541809082
vt 0.10102663189172745 0
vt 0.10102663189172745 0.6376347541809082
vt 0.10102663189172745 0
vt 0.10102663189172745 0.6376347541809082
vt 0.5 0
vt 0.5 0.6376347541809082
vt 0.5 0
vt 0.5 0.6376347541809082
vt 0.60102665424346924 0
vt 0.60102665424346924 0.6376347541809082
vt 0.60102665424346924 0
vt 0.60102665424346924 0.6376347541809082
vt 1 0
vt 1 0.6376347541809082
vt 0 1
vt 0.30639687180519104 1
vt 0.30639687180519104 0.63763535022735596
vt 0 0.63763535022735596
vt 0.69360309839248657 0.63763535022735596
vt 1 0.63763535022735596
vt 1 1
vt 0.69360309839248657 1
vn 0 0 1
vn 0 0 1
vn 0 0 1
vn 0 0 1
vn 1 0 0
vn 1 0 0
vn 1 0 0
vn 1 0 0
vn 0 0 -1
vn 0 0 -1
vn 0 0 -1
vn 0 0 -1
vn -1 0 0
vn -1 0 0
vn -1 0 0
vn -1 0 0
vn 0 -1 0
vn 0 -1 0
vn 0 -1 0
vn 0 -1 0
vn 0 1 0
vn 0 1 0
vn 0 1 0
vn 0 1 0
f 291/882/882 289/881/881 295/884/884 293/883/883
f 296/888/888 290/885/885 292/886/886 294/887/887
f 289/865/865 291/867/867 292/868/868 290/866/866
f 291/869/869 293/871/871 294/872/872 292/870/870
f 293/873/873 295/875/875 296/876/876 294/874/874
f 295/877/877 289/879/879 290/880/880 296/878/878
g object_38
v 80.312957763671875 11 -85.116989135742188
v 80.312957763671875 14 -85.116989135742188
v 86.562957763671875 11 -85.116989135742188
v 86.562957763671875 14 -85.116989135742188
v 86.562957763671875 11 -89.066184997558594
v 86.562957763671875 14 -89.066184997558594
v 80.312957763671875 11 -89.066184997558594
v 80.312957763671875 14 -89.066184997558594
vt 0 0
vt 0 0.6376347541809082
vt 0.10102663189172745 0
vt 0.10102663189172745 0.6376347541809082
vt 0.10102663189172745 0
vt 0.10102663189172745 0.6376347541809082
vt 0.5 0
vt 0.5 0.6376347541809082
vt 0.5 0
vt 0.5 0.6376347541809082
vt 0.60102665424346924 0
vt 0.60102665424346924 0.6376347541809082
vt 0.60102665424346924 0
vt 0.60102665424346924 0.6376347541809082
vt 1 0
vt 1 0.6376347541809082
vt 0 1
vt 0.30639687180519104 1
vt 0.30639687180519104 0.63763535022735596
vt 0 0.63763535022735596
vt 0.69360309839248657 0.63763535022735596
vt 1 0.63763535022735596
vt 1 1
vt 0.69360309839248657 1
vn 0 0 1
vn 0 0 1
vn 0 0 1
vn 0 0 1
vn 1 0 0
vn 1 0 0
vn 1 0 0
vn 1 0 0
vn 0 0 -1
vn 0 0 -1
vn 0 0 -1
vn 0 0 -1
vn -1 0 0
vn -1 0 0
vn -1 0 0
vn -1 0 0
vn 0 -1 0
vn 0 -1 0
vn 0 -1 0
vn 0 -1 0
vn 0 1 0
vn 0 1 0
vn 0 1 0
vn 0 1 0
f 299/906/906 297/905/905 303/908/908 301/907/907
f 304/912/912 298/909/909 300/910/910 302/911/911
f 297/889/889 299/891/891 300/892/892 298/890/890
f 299/893/893 301/895/895 302/896/896 300/894/894
f 301/897/897 303/899/899 304/900/900 302/898/898
f 303/901/901 297/903/903 298/904/904 304/902/902
g object_39
v 80.312957763671875 14 -85.116989135742188
v 80.312957763671875 17 -85.116989135742188
v 86.562957763671875 14 -85.116989135742188
v 86.562957763671875 17 -85.116989135742188
v 86.562957763671875 14 -89.066184997558594
v 86.562957763671875 17 -89.066184997558594
v 80.312957763671875 14 -89.066184997558594
v 80.312957763671875 17 -89.066184997558594
vt 0 0
vt 0 0.6376347541809082
vt 0.10102663189172745 0
vt 0.10102663189172745 0.6376347541809082
vt 0.10102663189172745 0
vt 0.10102663189172745 0.6376347541809082
vt 0.5 0
vt 0.5 0.6376347541809082
vt 0.5 0
vt 0.5 0.6376347541809082
vt 0.60102665424346924 0
vt 0.60102665424346924 0.6376347541809082
vt 0.60102665424346924 0
vt 0.60102665424346924 0.6376347541809082
vt 1 0
vt 1 0.6376347541809082
vt 0 1
vt 0.30639687180519104 1
vt 0.30639687180519104 0.63763535022735596
vt 0 0.63763535022735596
vt 0.69360309839248657 0.63763535022735596
vt 1 0.63763535022735596
vt 1 1
vt 0.69360309839248657 1
vn 0 0 1
vn 0 0 1
vn 0 0 1
vn 0 0 1
vn 1 0 0
vn 1 0 0
vn 1 0 0
vn 1 0 0
vn 0 0 -1
vn 0 0 -1
vn 0 0 -1
vn 0 0 -1
vn -1 0 0
vn -1 0 0
vn -1 0 0
vn -1 0 0
vn 0 -1 0
vn 0 -1 0
vn 0 -1 0
vn 0 -1 0
vn 0 1 0
vn 0 1 0
vn 0 1 0
vn 0 1 0
f 307/930/930 305/929/929 311/932/932 309/931/931
f 312/936/936 306/933/933 308/934/934 310/935/935
f 305/913/913 307/915/915 308/916/916 306/914/914
f 307/917/917 309/919/919 310/920/920 308/918/918
f 309/921/921 311/923/923 312/924/924 310/922/922
f 311/925/925 305/927/927 306/928/928 312/926/926
g object_40
v 80.312957763671875 17 -85.116989135742188
v 80.312957763671875 20 -85.116989135742188
v 86.562957763671875 17 -85.116989135742188
v 86.562957763671875 20 -85.116989135742188
v 86.562957763671875 17 -89.066184997558594
v 86.562957763671875 20 -89.066184997558594
v 80.312957763671875 17 -89.066184997558594
v 80.312957763671875 20 -89.066184997558594
vt 0 0
vt 0 0.6376347541809082
vt 0.10102663189172745 0
vt 0.10102663189172745 0.6376347541809082
vt 0.10102663189172745 0
vt 0.10102663189172745 0.6376347541809082
vt 0.5 0
vt 0.5 0.6376347541809082
vt 0.5 0
vt 0.5 0.6376347541809082
vt 0.60102665424346924 0
vt 0.60102665424346924 0.6376347541809082
vt 0.60102665424346924 0
vt 0.60102665424346924 0.6376347541809082
vt 1 0
vt 1 0.6376347541809082
vt 0 1
vt 0.30639687180519104 1
vt 0.30639687180519104 0.63763535022735596
vt 0 0.63763535022735596
vt 0.69360309839248657 0.63763535022735596
vt 1 0.63763535022735596
vt 1 1
vt 0.69360309839248657 1
vn 0 0 1
vn 0 0 1
vn 0 0 1
vn 0 0 1
vn 1 0 0
vn 1 0 0
vn 1 0 0
vn 1 0 0
vn 0 0 -1
vn 0 0 -1
vn 0 0 -1
vn 0 0 -1
vn -1 0 0
vn -1 0 0
vn -1 0 0
vn -1 0 0
vn 0 -1 0
vn 0 -1 0
vn 0 -1 0
vn 0 -1 0
vn 0 1 0
vn 0 1 0
vn 0 1 0
vn 0 1 0
f 315/954/954 313/953/953 319/956/956 317/955/955
f 320/960/960 314/957/957 316/958/958 318/959/959
f 313/937/937 315/939/939 316/940/940 314/938/938
f 315/941/941 317/943/943 318/944/944 316/942/942
f 317/945/945 319/947/947 320/948/948 318/946/946
f 319/949/949 313/951/951 314/952/952 320/950/950
g object_41
v 80.312957763671875 5 -89.066184997558594
v 80.312957763671875 8 -89.066184997558594
v 86.562957763671875 5 -89.066184997558594
v 86.562957763671875 8 -89.066184997558594
v 86.562957763671875 5 -93.015373229980469
v 86.562957763671875 8 -93.015373229980469
v 80.312957763671875 5 -93.015373229980469
v 80.312957763671875 8 -93.015373229980469
vt 0 0
vt 0 0.6376347541809082
vt 0.10102663189172745 0
vt 0.10102663189172745 0.6376347541809082
vt 0.10102663189172745 0
vt 0.10102663189172745 0.6376347541809082
vt 0.5 0
vt 0.5 0.6376347541809082
vt 0.5 0
vt 0.5 0.6376347541809082
vt 0.60102665424346924 0
vt 0.60102665424346924 0.6376347541809082
vt 0.60102665424346924 0
vt 0.60102665424346924 0.6376347541809082
vt 1 0
vt 1 0.6376347541809082
vt 0 1
vt 0.30639687180519104 1
vt 0.30639687180519104 0.63763535022735596
vt 0 0.63763535022735596
vt 0.69360309839248657 0.63763535022735596
vt 1 0.63763535022735596
vt 1 1
vt 0.69360309839248657 1
vn 0 0 1
vn 0 0 1
vn 0 0 1
vn 0 0 1
vn 1 0 0
vn 1 0 0
vn 1 0 0
vn 1 0 0
vn 0 0 -1
vn 0 0 -1
vn 0 0 -1
vn 0 0 -1
vn -1 0 0
vn -1 0 0
vn -1 0 0
vn -1 0 0
vn 0 -1 0
vn 0 -1 0
vn 0 -1 0
vn 0 -1 0
vn 0 1 0
vn 0 1 0
vn 0 1 0
vn 0 1 0
f 323/978/978 321/977/977 327/980/980 325/979/979
f 328/984/984 322/981/981 324/982/982 326/983/983
f 321/961/961 323/963/963 324/964/964 322/962/962
f 323/965/965 325/967/967 326/968/968 324/966/966
f 325/969/969 327/971/971 328/972/972 326/970/970
f 327/973/973 321/975/975 322/976/976 328/974/974
g object_42
v 80.312957763671875 8 -89.066184997558594
v 80.312957763671875 11 -89.066184997558594
v 86.562957763671875 8 -89.066184997558594
v 86.562957763671875 11 -89.066184997558594
v 86.562957763671875 8 -93.015373229980469
v 86.562957763671875 11 -93.015373229980469
v 80.312957763671875 8 -93.015373229980469
v 80.312957763671875 11 -93.015373229980469
vt 0 0
vt 0 0.6376347541809082
vt 0.10102663189172745 0
vt 0.10102663189172745 0.6376347541809082
vt 0.10102663189172745 0
vt 0.10102663189172745 0.6376347541809082
vt 0.5 0
vt 0.5 0.6376347541809082
vt 0.5 0
vt 0.5 0.6376347541809082
vt 0.60102665424346924 0
vt 0.60102665424346924 0.6376347541809082
vt 0.60102665424346924 0
vt 0.60102665424346924 0.6376347541809082
vt 1 0
vt 1 0.6376347541809082
vt 0 1
vt 0.30639687180519104 1
vt 0.30639687180519104 0.63763535022735596
vt 0 0.63763535022735596
vt 0.69360309839248657 0.63763535022735596
vt 1 0.63763535022735596
vt 1 1
vt 0.69360309839248657 1
vn 0 0 1
vn 0 0 1
vn 0 0 1
vn 0 0 1
vn 1 0 0
vn 1 0 0
vn 1 0 0
vn 1 0 0
vn 0 0 -1
vn 0 0 -1
vn 0 0 -1
vn 0 0 -1
vn -1 0 0
vn -1 0 0
vn -1 0 0
vn -1 0 0
vn 0 -1 0
vn 0 -1 0
vn 0 -1 0
vn 0 -1 0
vn 0 1 0
vn 0 1 0
vn 0 1 0
vn 0 1 0
f 331/1002/1002 329/1001/1001 335/1004/1004 333/1003/1003
f 336/1008/1008 330/1005/1005 332/1006/1006 334/1007/1007
f 329/985/985 331/987/987 332/988/988 330/986/986
f 331/989/989 333/991/991 334/992/992 332/990/990
f 333/993/993 335/995/995 336/996/996 334/994/994
f 335/997/997 329/999/999 330/1000/1000 336/998/998
g object_43
v 80.312957763671875 11 -89.066184997558594
v 80.312957763671875 14 -89.066184997558594
v 86.562957763671875 11 -89.066184997558594
v 86.562957763671875 14 -89.066184997558594
v 86.562957763671875 11 -93.015373229980469
v 86.562957763671875 14 -93.015373229980469
v 80.312957763671875 11 -93.015373229980469
v 80.312957763671875 14 -93.015373229980469
vt 0 0
vt 0 0.6376347541809082
vt 0.10102663189172745 0
vt 0.10102663189172745 0.6376347541809082
vt 0.10102663189172745 0
vt 0.10102663189172745 0.6376347541809082
vt 0.5 0
vt 0.5 0.6376347541809082
vt 0.5 0
vt 0.5 0.6376347541809082
vt 0.60102665424346924 0
vt 0.60102665424346924 0.6376347541809082
vt 0.60102665424346924 0
vt 0.60102665424346924 0.6376347541809082
vt 1 0
vt 1 0.6376347541809082
vt 0 1
vt 0.30639687180519104 1
vt 0.30639687180519104 0.63763535022735596
vt 0 0.63763535022735596
vt 0.69360309839248657 0.63763535022735596
vt 1 0.63763535022735596
vt 1 1
vt 0.69360309839248657 1
vn 0 0 1
vn 0 0 1
vn 0 0 1
vn 0 0 1
vn 1 0 0
vn 1 0 0
vn 1 0 0
vn 1 0 0
vn 0 0 -1
vn 0 0 -1
vn 0 0 -1
vn 0 0 -1
vn -1 0 0
vn -1 0 0
vn -1 0 0
vn -1 0 0
vn 0 -1 0
vn 0 -1 0
vn 0 -1 0
vn 0 -1 0
vn 0 1 0
vn 0 1 0
vn 0 1 0
vn 0 1 0
f 339/1026/1026 337/1025/1025 343/1028/1028 341/1027/1027
f 344/1032/1032 338/1029/1029 340/1030/1030 342/1031/1031
f 337/1009/1009 339/1011/1011 340/1012/1012 338/1010/1010
f 339/1013/1013 341/1015/1015 342/1016/1016 340/1014/1014
f 341/1017/1017 343/1019/1019 344/1020/1020 342/1018/1018
f 343/1021/1021 337/1023/1023 338/1024/1024 344/1022/1022
g object_44
v 80.312957763671875 14 -89.066184997558594
v 80.312957763671875 17 -89.066184997558594
v 86.562957763671875 14 -89.066184997558594
v 86.562957763671875 17 -89.066184997558594
v 86.562957763671875 14 -93.015373229980469
v 86.562957763671875 17 -93.015373229980469
v 80.312957763671875 14 -93.015373229980469
v 80.312957763671875 17 -93.015373229980469
vt 0 0
vt 0 0.6376347541809082
vt 0.10102663189172745 0
vt 0.10102663189172745 0.6376347541809082
vt 0.10102663189172745 0
vt 0.10102663189172745 0.6376347541809082
vt 0.5 0
vt 0.5 0.6376347541809082
vt 0.5 0
vt 0.5 0.6376347541809082
vt 0.60102665424346924 0
vt 0.60102665424346924 0.6376347541809082
vt 0.60102665424346924 0
vt 0.60102665424346924 0.6376347541809082
vt 1 0
vt 1 0.6376347541809082
vt 0 1
vt 0.30639687180519104 1
vt 0.30639687180519104 0.63763535022735596
vt 0 0.63763535022735596
vt 0.69360309839248657 0.63763535022735596
vt 1 0.63763535022735596
vt 1 1
vt 0.69360309839248657 1
vn 0 0 1
vn 0 0 1
vn 0 0 1
vn 0 0 1
vn 1 0 0
vn 1 0 0
vn 1 0 0
vn 1 0 0
vn 0 0 -1
vn 0 0 -1
vn 0 0 -1
vn 0 0 -1
vn -1 0 0
vn -1 0 0
vn -1 0 0
vn -1 0 0
vn 0 -1 0
vn 0 -1 0
vn 0 -1 0
vn 0 -1 0
vn 0 1 0
vn 0 1 0
vn 0 1 0
vn 0 1 0
f 347/1050/1050 345/1049/1049 351/1052/1052 349/1051/1051
f 352/1056/1056 346/1053/1053 348/1054/1054 350/1055/1055
f 345/1033/1033 347/1035/1035 348/1036/1036 346/1034/1034
f 347/1037/1037 349/1039/1039 350/1040/1040 348/1038/1038
f 349/1041/1041 351/1043/1043 352/1044/1044 350/1042/1042
f 351/1045/1045 345/1047/1047 346/1048/1048 352/1046/1046
g object_45
v 80.312957763671875 17 -89.066184997558594
v 80.312957763671875 20 -89.066184997558594
v 86.562957763671875 17 -89.066184997558594
v 86.562957763671875 20 -89.066184997558594
v 86.562957763671875 17 -93.015373229980469
v 86.562957763671875 20 -93.015373229980469
v 80.312957763671875 17 -93.015373229980469
v 80.312957763671875 20 -93.015373229980469
vt 0 0
vt 0 0.6376347541809082
vt 0.10102663189172745 0
vt 0.10102663189172745 0.6376347541809082
vt 0.10102663189172745 0
vt 0.10102663189172745 0.6376347541809082
vt 0.5 0
vt 0.5 0.6376347541809082
vt 0.5 0
vt 0.5 0.6376347541809082
vt 0.60102665424346924 0
vt 0.60102665424346924 0.6376347541809082
vt 0.60102665424346924 0
vt 0.60102665424346924 0.6376347541809082
vt 1 0
vt 1 0.6376347541809082
vt 0 1
vt 0.30639687180519104 1
vt 0.30639687180519104 0.63763535022735596
vt 0 0.63763535022735596
vt 0.69360309839248657 0.63763535022735596
vt 1 0.63763535022735596
vt 1 1
vt 0.69360309839248657 1
vn 0 0 1
vn 0 0 1
vn 0 0 1
vn 0 0 1
vn 1 0 0
vn 1 0 0
vn 1 0 0
vn 1 0 0
vn 0 0 -1
vn 0 0 -1
vn 0 0 -1
vn 0 0 -1
vn -1 0 0
vn -1 0 0
vn -1 0 0
vn -1 0 0
vn 0 -1 0
vn 0 -1 0
vn 0 -1 0
vn 0 -1 0
vn 0 1 0
vn 0 1 0
vn 0 1 0
vn 0 1 0
f 355/1074/1074 353/1073/1073 359/1076/1076 357/1075/1075
f 360/1080/1080 354/1077/1077 356/1078/1078 358/1079/1079
f 353/1057/1057 355/1059/1059 356/1060/1060 354/1058/1058
f 355/1061/1061 357/1063/1063 358/1064/1064 356/1062/1062
f 357/1065/1065 359/1067/1067 360/1068/1068 358/1066/1066
f 359/1069/1069 353/1071/1071 354/1072/1072 360/1070/1070
g object_46
v 80.312957763671875 5 -93.015373229980469
v 80.312957763671875 8 -93.015373229980469
v 86.562957763671875 5 -93.015373229980469
v 86.562957763671875 8 -93.015373229980469
v 86.562957763671875 5 -96.964561462402344
v 86.562957763671875 8 -96.964561462402344
v 80.312957763671875 5 -96.964561462402344
v 80.312957763671875 8 -96.964561462402344
vt 0 0
vt 0 0.6376347541809082
vt 0.10102663189172745 0
vt 0.10102663189172745 0.6376347541809082
vt 0.10102663189172745 0
vt 0.10102663189172745 0.6376347541809082
vt 0.5 0
vt 0.5 0.6376347541809082
vt 0.5 0
vt 0.5 0.6376347541809082
vt 0.60102665424346924 0
vt 0.60102665424346924 0.6376347541809082
vt 0.60102665424346924 0
vt 0.60102665424346924 0.6376347541809082
vt 1 0
vt 1 0.6376347541809082
vt 0 1
vt 0.30639687180519104 1
vt 0.30639687180519104 0.63763535022735596
vt 0 0.63763535022735596
vt 0.69360309839248657 0.63763535022735596
vt 1 0.63763535022735596
vt 1 1
vt 0.69360309839248657 1
vn 0 0 1
vn 0 0 1
vn 0 0 1
vn 0 0 1
vn 1 0 0
vn 1 0 0
vn 1 0 0
vn 1 0 0
vn 0 0 -1
vn 0 0 -1
vn 0 0 -1
vn 0 0 -1
vn -1 0 0
vn -1 0 0
vn -1 0 0
vn -1 0 0
vn 0 -1 0
vn 0 -1 0
vn 0 -1 0
vn 0 -1 0
vn 0 1 0
vn 0 1 0
vn 0 1 0
vn 0 1 0
f 363/1098/1098 361/1097/1097 367/1100/1100 365/1099/1099
f 368/1104/1104 362/1101/1101 364/1102/1102 366/1103/1103
f 361/1081/1081 363/1083/1083 364/1084/1084 362/1082/1082
f 363/1085/1085 365/1087/1087 366/1088/1088 364/1086/1086
f 365/1089/1089 367/1091/1091 368/1092/1092 366/1090/1090
f 367/1093/1093 361/1095/1095 362/1096/1096 368/1094/1094
g object_47
v 80.312957763671875 8 -93.015373229980469
v 80.312957763671875 11 -93.015373229980469
v 86.562957763671875 8 -93.015373229980469
v 86.562957763671875 11 -93.015373229980469
v 86.562957763671875 8 -96.964561462402344
v 86.562957763671875 11 -96.964561462402344
v 80.312957763671875 8 -96.964561462402344
v 80.312957763671875 11 -96.964561462402344
vt 0 0
vt 0 0.6376347541809082
vt 0.10102663189172745 0
vt 0.10102663189172745 0.6376347541809082
vt 0.10102663189172745 0
vt 0.10102663189172745 0.6376347541809082
vt 0.5 0
vt 0.5 0.6376347541809082
vt 0.5 0
vt 0.5 0.6376347541809082
vt 0.60102665424346924 0
vt 0.60102665424346924 0.6376347541809082
vt 0.60102665424346924 0
vt 0.60102665424346924 0.6376347541809082
vt 1 0
vt 1 0.6376347541809082
vt 0 1
vt 0.30639687180519104 1
vt 0.30639687180519104 0.63763535022735596
vt 0 0.63763535022735596
vt 0.69360309839248657 0.63763535022735596
vt 1 0.63763535022735596
vt 1 1
vt 0.69360309839248657 1
vn 0 0 1
vn 0 0 1
vn 0 0 1
vn 0 0 1
vn 1 0 0
vn 1 0 0
vn 1 0 0
vn 1 0 0
vn 0 0 -1
vn 0 0 -1
vn 0 0 -1
vn 0 0 -1
vn -1 0 0
vn -1 0 0
vn -1 0 0
vn -1 0 0
vn 0 -1 0
vn 0 -1 0
vn 0 -1 0
vn 0 -1 0
vn 0 1 0
vn 0 1 0
vn 0 1 0
vn 0 1 0
f 371/1122/1122 369/1121/1121 375/1124/1124 373/1123/1123
f 376/1128/1128 370/1125/1125 372/1126/1126 374/1127/1127
f 369/1105/1105 371/1107/1107 372/1108/1108 370/1106/1106
f 371/1109/1109 373/1111/1111 374/1112/1112 372/1110/1110
f 373/1113/1113 375/1115/1115 376/1116/1116 374/1114/1114
f 375/1117/1117 369/1119/1119 370/1120/1120 376/1118/1118
g object_48
v 80.312957763671875 11 -93.015373229980469
v 80.312957763671875 14 -93.015373229980469
v 86.562957763671875 11 -93.015373229980469
v 86.562957763671875 14 -93.015373229980469
v 86.562957763671875 11 -96.964561462402344
v 86.562957763671875 14 -96.964561462402344
v 80.312957763671875 11 -96.964561462402344
v 80.312957763671875 14 -96.964561462402344
vt 0 0
vt 0 0.6376347541809082
vt 0.10102663189172745 0
vt 0.10102663189172745 0.6376347541809082
vt 0.10102663189172745 0
vt 0.10102663189172745 0.6376347541809082
vt 0.5 0
vt 0.5 0.6376347541809082
vt 0.5 0
vt 0.5 0.6376347541809082
vt 0.60102665424346924 0
vt 0.60102665424346924 0.6376347541809082
vt 0.60102665424346924 0
vt 0.60102665424346924 0.6376347541809082
vt 1 0
vt 1 0.6376347541809082
vt 0 1
vt 0.30639687180519104 1
vt 0.30639687180519104 0.63763535022735596
vt 0 0.63763535022735596
vt 0.69360309839248657 0.63763535022735596
vt 1 0.63763535022735596
vt 1 1
vt 0.69360309839248657 1
vn 0 0 1
vn 0 0 1
vn 0 0 1
vn 0 0 1
vn 1 0 0
vn 1 0 0
vn 1 0 0
vn 1 0 0
vn 0 0 -1
vn 0 0 -1
vn 0 0 -1
vn 0 0 -1
vn -1 0 0
vn -1 0 0
vn -1 0 0
vn -1 0 0
vn 0 -1 0
vn 0 -1 0
vn 0 -1 0
vn 0 -1 0
vn 0 1 0
vn 0 1 0
vn 0 1 0
vn 0 1 0
f 379/1146/1146 377/1145/1145 383/1148/1148 381/1147/1147
f 384/1152/1152 378/1149/1149 380/1150/1150 382/1151/1151
f 377/1129/1129 379/1131/1131 380/1132/1132 378/1130/1130
f 379/1133/1133 381/1135/1135 382/1136/1136 380/1134/1134
f 381/1137/1137 383/1139/1139 384/1140/1140 382/1138/1138
f 383/1141/1141 377/1143/1143 378/1144/1144 384/1142/1142
g object_49
v 80.312957763671875 14 -93.015373229980469
v 80.312957763671875 17 -93.015373229980469
v 86.562957763671875 14 -93.015373229980469
v 86.562957763671875 17 -93.015373229980469
v 86.562957763671875 14 -96.964561462402344
v 86.562957763671875 17 -96.964561462402344
v 80.312957763671875 14 -96.964561462402344
v 80.312957763671875 17 -96.964561462402344
vt 0 0
vt 0 0.6376347541809082
vt 0.10102663189172745 0
vt 0.10102663189172745 0.6376347541809082
vt 0.10102663189172745 0
vt 0.10102663189172745 0.6376347541809082
vt 0.5 0
vt 0.5 0.6376347541809082
vt 0.5 0
vt 0.5 0.6376347541809082
vt 0.60102665424346924 0
vt 0.60102665424346924 0.6376347541809082
vt 0.60102665424346924 0
vt 0.60102665424346924 0.6376347541809082
vt 1 0
vt 1 0.6376347541809082
vt 0 1
vt 0.30639687180519104 1
vt 0.30639687180519104 0.63763535022735596
vt 0 0.63763535022735596
vt 0.69360309839248657 0.63763535022735596
vt 1 0.63763535022735596
vt 1 1
vt 0.69360309839248657 1
vn 0 0 1
vn 0 0 1
vn 0 0 1
vn 0 0 1
vn 1 0 0
vn 1 0 0
vn 1 0 0
vn 1 0 0
vn 0 0 -1
vn 0 0 -1
vn 0 0 -1
vn 0 0 -1
vn -1 0 0
vn -1 0 0
vn -1 0 0
vn -1 0 0
vn 0 -1 0
vn 0 -1 0
vn 0 -1 0
vn 0 -1 0
vn 0 1 0
vn 0 1 0
vn 0 1 0
vn 0 1 0
f 387/1170/1170 385/1169/1169 391/1172/1172 389/1171/1171
f 392/1176/1176 386/1173/1173 388/1174/1174 390/1175/1175
f 385/1153/1153 387/1155/1155 388/1156/1156 386/1154/1154
f 387/1157/1157 389/1159/1159 390/1160/1160 388/1158/1158
f 389/1161/1161 391/1163/1163 392/1164/1164 390/1162/1162
f 391/1165/1165 385/1167/1167 386/1168/1168 392/1166/1166
g object_50
v 80.312957763671875 17 -93.015373229980469
v 80.312957763671875 20 -93.015373229980469
v 86.562957763671875 17 -93.015373229980469
v 86.562957763671875 20 -93.015373229980469
v 86.562957763671875 17 -96.964561462402344
v 86.562957763671875 20 -96.964561462402344
v 80.312957763671875 17 -96.964561462402344
v 80.312957763671875 20 -96.964561462402344
vt 0 0
vt 0 0.6376347541809082
vt 0.10102663189172745 0
vt 0.10102663189172745 0.6376347541809082
vt 0.10102663189172745 0
vt 0.10102663189172745 0.6376347541809082
vt 0.5 0
vt 0.5 0.6376347541809082
vt 0.5 0
vt 0.5 0.6376347541809082
vt 0.60102665424346924 0
vt 0.60102665424346924 0.6376347541809082
vt 0.60102665424346924 0
vt 0.60102665424346924 0.6376347541809082
vt 1 0
vt 1 0.6376347541809082
vt 0 1
vt 0.30639687180519104 1
vt 0.30639687180519104 0.63763535022735596
vt 0 0.63763535022735596
vt 0.69360309839248657 0.63763535022735596
vt 1 0.63763535022735596
vt 1 1
vt 0.69360309839248657 1
vn 0 0 1
vn 0 0 1
vn 0 0 1
vn 0 0 1
vn 1 0 0
vn 1 0 0
vn 1 0 0
vn 1 0 0
vn 0 0 -1
vn 0 0 -1
vn 0 0 -1
vn 0 0 -1
vn -1 0 0
vn -1 0 0
vn -1 0 0
vn -1 0 0
vn 0 -1 0
vn 0 -1 0
vn 0 -1 0
vn 0 -1 0
vn 0 1 0
vn 0 1 0
vn 0 1 0
vn 0 1 0
f 395/1194/1194 393/1193/1193 399/1196/1196 397/1195/1195
f 400/1200/1200 394/1197/1197 396/1198/1198 398/1199/1199
f 393/1177/1177 395/1179/1179 396/1180/1180 394/1178/1178
f 395/1181/1181 397/1183/1183 398/1184/1184 396/1182/1182
f 397/1185/1185 399/1187/1187 400/1188/1188 398/1186/1186
f 399/1189/1189 393/1191/1191 394/1192/1192 400/1190/1190
g object_51
v 80.312957763671875 20 -93.015373229980469
v 80.312957763671875 23 -93.015373229980469
v 86.562957763671875 20 -93.015373229980469
v 86.562957763671875 23 -93.015373229980469
v 86.562957763671875 20 -96.964561462402344
v 86.562957763671875 23 -96.964561462402344
v 80.312957763671875 20 -96.964561462402344
v 80.312957763671875 23 -96.964561462402344
vt 0 0
vt 0 0.6376347541809082
vt 0.10102663189172745 0
vt 0.10102663189172745 0.6376347541809082
vt 0.10102663189172745 0
vt 0.10102663189172745 0.6376347541809082
vt 0.5 0
vt 0.5 0.6376347541809082
vt 0.5 0
vt 0.5 0.6376347541809082
vt 0.60102665424346924 0
vt 0.60102665424346924 0.6376347541809082
vt 0.60102665424346924 0
vt 0.60102665424346924 0.6376347541809082
vt 1 0
vt 1 0.6376347541809082
vt 0 1
vt 0.30639687180519104 1
vt 0.30639687180519104 0.63763535022735596
vt 0 0.63763535022735596
vt 0.69360309839248657 0.63763535022735596
vt 1 0.63763535022735596
vt 1 1
vt 0.69360309839248657 1
vn 0 0 1
vn 0 0 1
vn 0 0 1
vn 0 0 1
vn 1 0 0
vn 1 0 0
vn 1 0 0
vn 1 0 0
vn 0 0 -1
vn 0 0 -1
vn 0 0 -1
vn 0 0 -1
vn -1 0 0
vn -1 0 0
vn -1 0 0
vn -1 0 0
vn 0 -1 0
vn 0 -1 0
vn 0 -1 0
vn 0 -1 0
vn 0 1 0
vn 0 1 0
vn 0 1 0
vn 0 1 0
f 403/1218/1218 401/1217/1217 407/1220/1220 405/1219/1219
f 408/1224/1224 402/1221/1221 404/1222/1222 406/1223/1223
f 401/1201/1201 403/1203/1203 404/1204/1204 402/1202/1202
f 403/1205/1205 405/1207/1207 406/1208/1208 404/1206/1206
f 405/1209/1209 407/1211/1211 408/1212/1212 406/1210/1210
f 407/1213/1213 401/1215/1215 402/1216/1216 408/1214/1214
g object_52
v 80.312957763671875 20 -89.066184997558594
v 80.312957763671875 23 -89.066184997558594
v 86.562957763671875 20 -89.066184997558594
v 86.562957763671875 23 -89.066184997558594
v 86.562957763671875 20 -93.015373229980469
v 86.562957763671875 23 -93.015373229980469
v 80.312957763671875 20 -93.015373229980469
v 80.312957763671875 23 -93.015373229980469
vt 0 0
vt 0 0.6376347541809082
vt 0.10102663189172745 0
vt 0.10102663189172745 0.6376347541809082
vt 0.10102663189172745 0
vt 0.10102663189172745 0.6376347541809082
vt 0.5 0
vt 0.5 0.6376347541809082
vt 0.5 0
vt 0.5 0.6376347541809082
vt 0.60102665424346924 0
vt 0.60102665424346924 0.6376347541809082
vt 0.60102665424346924 0
vt 0.60102665424346924 0.6376347541809082
vt 1 0
vt 1 0.6376347541809082
vt 0 1
vt 0.30639687180519104 1
vt 0.30639687180519104 0.63763535022735596
vt 0 0.63763535022735596
vt 0.69360309839248657 0.63763535022735596
vt 1 0.63763535022735596
vt 1 1
vt 0.69360309839248657 1
vn 0 0 1
vn 0 0 1
vn 0 0 1
vn 0 0 1
vn 1 0 0
vn 1 0 0
vn 1 0 0
vn 1 0 0
vn 0 0 -1
vn 0 0 -1
vn 0 0 -1
vn 0 0 -1
vn -1 0 0
vn -1 0 0
vn -1 0 0
vn -1 0 0
vn 0 -1 0
vn 0 -1 0
vn 0 -1 0
vn 0 -1 0
vn 0 1 0
vn 0 1 0
vn 0 1 0
vn 0 1 0
f 411/1242/1242 409/1241/1241 415/1244/1244 413/1243/1243
f 416/1248/1248 410/1245/1245 412/1246/1246 414/1247/1247
f 409/1225/1225 411/1227/1227 412/1228/1228 410/1226/1226
f 411/1229/1229 413/1231/1231 414/1232/1232 412/1230/1230
f 413/1233/1233 415/1235/1235 416/1236/1236 414/1234/1234
f 415/1237/1237 409/1239/1239 410/1240/1240 416/1238/1238
g object_53
v 80.312957763671875 20 -85.116989135742188
v 80.312957763671875 23 -85.116989135742188
v 86.562957763671875 20 -85.116989135742188
v 86.562957763671875 23 -85.116989135742188
v 86.562957763671875 20 -89.066184997558594
v 86.562957763671875 23 -89.066184997558594
v 80.312957763671875 20 -89.066184997558594
v 80.312957763671875 23 -89.066184997558594
vt 0 0
vt 0 0.6376347541809082
vt 0.10102663189172745 0
vt 0.10102663189172745 0.6376347541809082
vt 0.10102663189172745 0
vt 0.10102663189172745 0.6376347541809082
vt 0.5 0
vt 0.5 0.6376347541809082
vt 0.5 0
vt 0.5 0.6376347541809082
vt 0.60102665424346924 0
vt 0.60102665424346924 0.6376347541809082
vt 0.60102665424346924 0
vt 0.60102665424346924 0.6376347541809082
vt 1 0
vt 1 0.6376347541809082
vt 0 1
vt 0.30639687180519104 1
vt 0.30639687180519104 0.63763535022735596
vt 0 0.63763535022735596
vt 0.69360309839248657 0.63763535022735596
vt 1 0.63763535022735596
vt 1 1
vt 0.69360309839248657 1
vn 0 0 1
vn 0 0 1
vn 0 0 1
vn 0 0 1
vn 1 0 0
vn 1 0 0
vn 1 0 0
vn 1 0 0
vn 0 0 -1
vn 0 0 -1
vn 0 0 -1
vn 0 0 -1
vn -1 0 0
vn -1 0 0
vn -1 0 0
vn -1 0 0
vn 0 -1 0
vn 0 -1 0
vn 0 -1 0
vn 0 -1 0
vn 0 1 0
vn 0 1 0
vn 0 1 0
vn 0 1 0
f 419/1266/1266 417/1265/1265 423/1268/1268 421/1267/1267
f 424/1272/1272 418/1269/1269 420/1270/1270 422/1271/1271
f 417/1249/1249 419/1251/1251 420/1252/1252 418/1250/1250
f 419/1253/1253 421/1255/1255 422/1256/1256 420/1254/1254
f 421/1257/1257 423/1259/1259 424/1260/1260 422/1258/1258
f 423/1261/1261 417/1263/1263 418/1264/1264 424/1262/1262
g object_54
v 80.312957763671875 20 -81.167800903320312
v 80.312957763671875 23 -81.167800903320312
v 86.562957763671875 20 -81.167800903320312
v 86.562957763671875 23 -81.167800903320312
v 86.562957763671875 20 -85.116989135742188
v 86.562957763671875 23 -85.116989135742188
v 80.312957763671875 20 -85.116989135742188
v 80.312957763671875 23 -85.116989135742188
vt 0 0
vt 0 0.6376347541809082
vt 0.10102663189172745 0
vt 0.10102663189172745 0.6376347541809082
vt 0.10102663189172745 0
vt 0.10102663189172745 0.6376347541809082
vt 0.5 0
vt 0.5 0.6376347541809082
vt 0.5 0
vt 0.5 0.6376347541809082
vt 0.60102665424346924 0
vt 0.60102665424346924 0.6376347541809082
vt 0.60102665424346924 0
vt 0.60102665424346924 0.6376347541809082
vt 1 0
vt 1 0.6376347541809082
vt 0 1
vt 0.30639687180519104 1
vt 0.30639687180519104 0.63763535022735596
vt 0 0.63763535022735596
vt 0.69360309839248657 0.63763535022735596
vt 1 0.63763535022735596
vt 1 1
vt 0.69360309839248657 1
vn 0 0 1
vn 0 0 1
vn 0 0 1
vn 0 0 1
vn 1 0 0
vn 1 0 0
vn 1 0 0
vn 1 0 0
vn 0 0 -1
vn 0 0 -1
vn 0 0 -1
vn 0 0 -1
vn -1 0 0
vn -1 0 0
vn -1 0 0
vn -1 0 0
vn 0 -1 0
vn 0 -1 0
vn 0 -1 0
vn 0 -1 0
vn 0 1 0
vn 0 1 0
vn 0 1 0
vn 0 1 0
f 427/1290/1290 425/1289/1289 431/1292/1292 429/1291/1291
f 432/1296/1296 426/1293/1293 428/1294/1294 430/1295/1295
f 425/1273/1273 427/1275/1275 428/1276/1276 426/1274/1274
f 427/1277/1277 429/1279/1279 430/1280/1280 428/1278/1278
f 429/1281/1281 431/1283/1283 432/1284/1284 430/1282/1282
f 431/1285/1285 425/1287/1287 426/1288/1288 432/1286/1286
g object_55
v 80.312957763671875 20 -77.218612670898438
v 80.312957763671875 23 -77.218612670898438
v 86.562957763671875 20 -77.218612670898438
v 86.562957763671875 23 -77.218612670898438
v 86.562957763671875 20 -81.167800903320312
v 86.562957763671875 23 -81.167800903320312
v 80.312957763671875 20 -81.167800903320312
v 80.312957763671875 23 -81.167800903320312
vt 0 0
vt 0 0.6376347541809082
vt 0.10102663189172745 0
vt 0.10102663189172745 0.6376347541809082
vt 0.10102663189172745 0
vt 0.10102663189172745 0.6376347541809082
vt 0.5 0
vt 0.5 0.6376347541809082
vt 0.5 0
vt 0.5 0.6376347541809082
vt 0.60102665424346924 0
vt 0.60102665424346924 0.6376347541809082
vt 0.60102665424346924 0
vt 0.60102665424346924 0.6376347541809082
vt 1 0
vt 1 0.6376347541809082
vt 0 1
vt 0.30639687180519104 1
vt 0.30639687180519104 0.63763535022735596
vt 0 0.63763535022735596
vt 0.69360309839248657 0.63763535022735596
vt 1 0.63763535022735596
vt 1 1
vt 0.69360309839248657 1
vn 0 0 1
vn 0 0 1
vn 0 0 1
vn 0 0 1
vn 1 0 0
vn 1 0 0
vn 1 0 0
vn 1 0 0
vn 0 0 -1
vn 0 0 -1
vn 0 0 -1
vn 0 0 -1
vn -1 0 0
vn -1 0 0
vn -1 0 0
vn -1 0 0
vn 0 -1 0
vn 0 -1 0
vn 0 -1 0
vn 0 -1 0
vn 0 1 0
vn 0 1 0
vn 0 1 0
vn 0 1 0
f 435/1314/1314 433/1313/1313 439/1316/1316 437/1315/1315
f 440/1320/1320 434/1317/1317 436/1318/1318 438/1319/1319
f 433/1297/1297 435/1299/1299 436/1300/1300 434/1298/1298
f 435/1301/1301 437/1303/1303 438/1304/1304 436/1302/1302
f 437/1305/1305 439/1307/1307 440/1308/1308 438/1306/1306
f 439/1309/1309 433/1311/1311 434/1312/1312 440/1310/1310
g object_56
v 90.062957763671875 20 -93.015373229980469
v 90.062957763671875 23 -93.015373229980469
v 96.312957763671875 20 -93.015373229980469
v 96.312957763671875 23 -93.015373229980469
v 96.312957763671875 20 -96.964561462402344
v 96.312957763671875 23 -96.964561462402344
v 90.062957763671875 20 -96.964561462402344
v 90.062957763671875 23 -96.964561462402344
vt 0 0
vt 0 0.6376347541809082
vt 0.10102663189172745 0
vt 0.10102663189172745 0.6376347541809082
vt 0.10102663189172745 0
vt 0.10102663189172745 0.6376347541809082
vt 0.5 0
vt 0.5 0.6376347541809082
vt 0.5 0
vt 0.5 0.6376347541809082
vt 0.60102665424346924 0
vt 0.60102665424346924 0.6376347541809082
vt 0.60102665424346924 0
vt 0.60102665424346924 0.6376347541809082
vt 1 0
vt 1 0.6376347541809082
vt 0 1
vt 0.30639687180519104 1
vt 0.30639687180519104 0.63763535022735596
vt 0 0.63763535022735596
vt 0.69360309839248657 0.63763535022735596
vt 1 0.63763535022735596
vt 1 1
vt 0.69360309839248657 1
vn 0 0 1
vn 0 0 1
vn 0 0 1
vn 0 0 1
vn 1 0 0
vn 1 0 0
vn 1 0 0
vn 1 0 0
vn 0 0 -1
vn 0 0 -1
vn 0 0 -1
vn 0 0 -1
vn -1 0 0
vn -1 0 0
vn -1 0 0
vn -1 0 0
vn 0 -1 0
vn 0 -1 0
vn 0 -1 0
vn 0 -1 0
vn 0 1 0
vn 0 1 0
vn 0 1 0
vn 0 1 0
f 443/1338/1338 441/1337/1337 447/1340/1340 445/1339/1339
f 448/1344/1344 442/1341/1341 444/1342/1342 446/1343/1343
f 441/1321/1321 443/1323/1323 444/1324/1324 442/1322/1322
f 443/1325/1325 445/1327/1327 446/1328/1328 444/1326/1326
f 445/1329/1329 447/1331/1331 448/1332/1332 446/1330/1330
f 447/1333/1333 441/1335/1335 442/1336/1336 448/1334/1334
g object_57
v 90.062957763671875 20 -89.066184997558594
v 90.062957763671875 23 -89.066184997558594
v 96.312957763671875 20 -89.066184997558594
v 96.312957763671875 23 -89.066184997558594
v 96.312957763671875 20 -93.015373229980469
v 96.312957763671875 23 -93.015373229980469
v 90.062957763671875 20 -93.015373229980469
v 90.062957763671875 23 -93.015373229980469
vt 0 0
vt 0 0.6376347541809082
vt 0.10102663189172745 0
vt 0.10102663189172745 0.6376347541809082
vt 0.10102663189172745 0
vt 0.10102663189172745 0.6376347541809082
vt 0.5 0
vt 0.5 0.6376347541809082
vt 0.5 0
vt 0.5 0.6376347541809082
vt 0.60102665424346924 0
vt 0.60102665424346924 0.6376347541809082
vt 0.60102665424346924 0
vt 0.60102665424346924 0.6376347541809082
vt 1 0
vt 1 0.6376347541809082
vt 0 1
vt 0.30639687180519104 1
vt 0.30639687180519104 0.63763535022735596
vt 0 0.63763535022735596
vt 0.69360309839248657 0.63763535022735596
vt 1 0.63763535022735596
vt 1 1
vt 0.69360309839248657 1
vn 0 0 1
vn 0 0 1
vn 0 0 1
vn 0 0 1
vn 1 0 0
vn 1 0 0
vn 1 0 0
vn 1 0 0
vn 0 0 -1
vn 0 0 -1
vn 0 0 -1
vn 0 0 -1
vn -1 0 0
vn -1 0 0
vn -1 0 0
vn -1 0 0
vn 0 -1 0
vn 0 -1 0
vn 0 -1 0
vn 0 -1 0
vn 0 1 0
vn 0 1 0
vn 0 1 0
vn 0 1 0
f 451/1362/1362 449/1361/1361 455/1364/1364 453/1363/1363
f 456/1368/1368 450/1365/1365 452/1366/1366 454/1367/1367
f 449/1345/1345 451/1347/1347 452/1348/1348 450/1346/1346
f 451/1349/1349 453/1351/1351 454/1352/1352 452/1350/1350
f 453/1353/1353 455/1355/1355 456/1356/1356 454/1354/1354
f 455/1357/1357 449/1359/1359 450/1360/1360 456/1358/1358
g object_58
v 90.062957763671875 20 -85.116989135742188
v 90.062957763671875 23 -85.116989135742188
v 96.312957763671875 20 -85.116989135742188
v 96.312957763671875 23 -85.116989135742188
v 96.312957763671875 20 -89.066184997558594
v 96.312957763671875 23 -89.066184997558594
v 90.062957763671875 20 -89.066184997558594
v 90.062957763671875 23 -89.066184997558594
vt 0 0
vt 0 0.6376347541809082
vt 0.10102663189172745 0
vt 0.10102663189172745 0.6376347541809082
vt 0.10102663189172745 0
vt 0.10102663189172745 0.6376347541809082
vt 0.5 0
vt 0.5 0.6376347541809082
vt 0.5 0
vt 0.5 0.6376347541809082
vt 0.60102665424346924 0
vt 0.60102665424346924 0.6376347541809082
vt 0.60102665424346924 0
vt 0.60102665424346924 0.6376347541809082
vt 1 0
vt 1 0.6376347541809082
vt 0 1
vt 0.30639687180519104 1
vt 0.30639687180519104 0.63763535022735596
vt 0 0.63763535022735596
vt 0.69360309839248657 0.63763535022735596
vt 1 0.63763535022735596
vt 1 1
vt 0.69360309839248657 1
vn 0 0 1
vn 0 0 1
vn 0 0 1
vn 0 0 1
vn 1 0 0
vn 1 0 0
vn 1 0 0
vn 1 0 0
vn 0 0 -1
vn 0 0 -1
vn 0 0 -1
vn 0 0 -1
vn -1 0 0
vn -1 0 0
vn -1 0 0
vn -1 0 0
vn 0 -1 0
vn 0 -1 0
vn 0 -1 0
vn 0 -1 0
vn 0 1 0
vn 0 1 0
vn 0 1 0
vn 0 1 0
f 459/1386/1386 457/1385/1385 463/1388/1388 461/1387/1387
f 464/1392/1392 458/1389/1389 460/1390/1390 462/1391/1391
f 457/1369/1369 459/1371/1371 460/1372/1372 458/1370/1370
f 459/1373/1373 461/1375/1375 462/1376/1376 460/1374/1374
f 461/1377/1377 463/1379/1379 464/1380/1380 462/1378/1378
f 463/1381/1381 457/1383/1383 458/1384/1384 464/1382/1382
g object_59
v 90.062957763671875 20 -81.167800903320312
v 90.062957763671875 23 -81.167800903320312
v 96.312957763671875 20 -81.167800903320312
v 96.312957763671875 23 -81.167800903320312
v 96.312957763671875 20 -85.116989135742188
v 96.312957763671875 23 -85.116989135742188
v 90.062957763671875 20 -85.116989135742188
v 90.062957763671875 23 -85.116989135742188
vt 0 0
vt 0 0.6376347541809082
vt 0.10102663189172745 0
vt 0.10102663189172745 0.6376347541809082
vt 0.10102663189172745 0
vt 0.10102663189172745 0.6376347541809082
vt 0.5 0
vt 0.5 0.6376347541809082
vt 0.5 0
vt 0.5 0.6376347541809082
vt 0.60102665424346924 0
vt 0.60102665424346924 0.6376347541809082
vt 0.60102665424346924 0
vt 0.60102665424346924 0.6376347541809082
vt 1 0
vt 1 0.6376347541809082
vt 0 1
vt 0.30639687180519104 1
vt 0.30639687180519104 0.63763535022735596
vt 0 0.63763535022735596
vt 0.69360309839248657 0.63763535022735596
vt 1 0.63763535022735596
vt 1 1
vt 0.69360309839248657 1
vn 0 0 1
vn 0 0 1
vn 0 0 1
vn 0 0 1
vn 1 0 0
vn 1 0 0
vn 1 0 0
vn 1 0 0
vn 0 0 -1
vn 0 0 -1
vn 0 0 -1
vn 0 0 -1
vn -1 0 0
vn -1 0 0
vn -1 0 0
vn -1 0 0
vn 0 -1 0
vn 0 -1 0
vn 0 -1 0
vn 0 -1 0
vn 0 1 0
vn 0 1 0
vn 0 1 0
vn 0 1 0
f 467/1410/1410 465/1409/1409 471/1412/1412 469/1411/1411
f 472/1416/1416 466/1413/1413 468/1414/1414 470/1415/1415
f 465/1393/1393 467/1395/1395 468/1396/1396 466/1394/1394
f 467/1397/1397 469/1399/1399 470/1400/1400 468/1398/1398
f 469/1401/1401 471/1403/1403 472/1404/1404 470/1402/1402
f 471/1405/1405 465/1407/1407 466/1408/1408 472/1406/1406
g object_60
v 90.062957763671875 20 -77.218612670898438
v 90.062957763671875 23 -77.218612670898438
v 96.312957763671875 20 -77.218612670898438
v 96.312957763671875 23 -77.218612670898438
v 96.312957763671875 20 -81.167800903320312
v 96.312957763671875 23 -81.167800903320312
v 90.062957763671875 20 -81.167800903320312
v 90.062957763671875 23 -81.167800903320312
vt 0 0
vt 0 0.6376347541809082
vt 0.10102663189172745 0
vt 0.10102663189172745 0.6376347541809082
vt 0.10102663189172745 0
vt 0.10102663189172745 0.6376347541809082
vt 0.5 0
vt 0.5 0.6376347541809082
vt 0.5 0
vt 0.5 0.6376347541809082
vt 0.60102665424346924 0
vt 0.60102665424346924 0.6376347541809082
vt 0.60102665424346924 0
vt 0.60102665424346924 0.6376347541809082
vt 1 0
vt 1 0.6376347541809082
vt 0 1
vt 0.30639687180519104 1
vt 0.30639687180519104 0.63763535022735596
vt 0 0.63763535022735596
vt 0.69360309839248657 0.63763535022735596
vt 1 0.63763535022735596
vt 1 1
vt 0.69360309839248657 1
vn 0 0 1
vn 0 0 1
vn 0 0 1
vn 0 0 1
vn 1 0 0
vn 1 0 0
vn 1 0 0
vn 1 0 0
vn 0 0 -1
vn 0 0 -1
vn 0 0 -1
vn 0 0 -1
vn -1 0 0
vn -1 0 0
vn -1 0 0
vn -1 0 0
vn 0 -1 0
vn 0 -1 0
vn 0 -1 0
vn 0 -1 0
vn 0 1 0
vn 0 1 0
vn 0 1 0
vn 0 1 0
f 475/1434/1434 473/1433/1433 479/1436/1436 477/1435/1435
f 480/1440/1440 474/1437/1437 476/1438/1438 478/1439/1439
f 473/1417/1417 475/1419/1419 476/1420/1420 474/1418/1418
f 475/1421/1421 477/1423/1423 478/1424/1424 476/1422/1422
f 477/1425/1425 479/1427/1427 480/1428/1428 478/1426/1426
f 479/1429/1429 473/1431/1431 474/1432/1432 480/1430/1430
