# Rhino

g object_1
v 89.931045532226562 0 -92.715370178222656
v 89.931045532226562 2.5 -92.715370178222656
v 90.531044006347656 0 -92.715370178222656
v 90.531044006347656 2.5 -92.715370178222656
v 90.531044006347656 0 -93.31536865234375
v 90.531044006347656 2.5 -93.31536865234375
v 89.931045532226562 0 -93.31536865234375
v 89.931045532226562 2.5 -93.31536865234375
vt 0.40000000596046448 0
vt 0.40000000596046448 0.83186846971511841
vt 0.59853518009185791 0
vt 0.59853518009185791 0.83186846971511841
vt 0.20000000298023224 0
vt 0.20000000298023224 0.83186846971511841
vt 0.39853516221046448 0
vt 0.39853516221046448 0.83186846971511841
vt 0.80000001192092896 0
vt 0.80000001192092896 0.83186846971511841
vt 0.99853515625 0
vt 0.99853515625 0.83186846971511841
vt 0.60000002384185791 0
vt 0.60000002384185791 0.83186846971511841
vt 0.79853516817092896 0
vt 0.79853516817092896 0.83186846971511841
vt 0.19853515923023224 0.4166666567325592
vt 0 0.4166666567325592
vt 0.19853515923023224 0.61666667461395264
vt 0 0.61666667461395264
vt 0.19853515923023224 0
vt 0 0
vt 0.19853515923023224 0.20000000298023224
vt 0 0.20000000298023224
vn 0 0 1
vn 0 0 1
vn 0 0 1
vn 0 0 1
vn 1 0 0
vn 1 0 0
vn 1 0 0
vn 1 0 0
vn 0 0 -1
vn 0 0 -1
vn 0 0 -1
vn 0 0 -1
vn -1 0 0
vn -1 0 0
vn -1 0 0
vn -1 0 0
vn 0 -1 0
vn 0 -1 0
vn 0 -1 0
vn 0 -1 0
vn 0 1 0
vn 0 1 0
vn 0 1 0
vn 0 1 0
f 2/2/2 1/1/1 3/3/3 4/4/4
f 4/6/6 3/5/5 5/7/7 6/8/8
f 6/10/10 5/9/9 7/11/11 8/12/12
f 8/14/14 7/13/13 1/15/15 2/16/16
f 3/18/18 1/17/17 7/19/19 5/20/20
f 8/22/22 2/21/21 4/23/23 6/24/24
g object_2
v 89.931045532226562 0 -88.766181945800781
v 89.931045532226562 2.5 -88.766181945800781
v 90.531044006347656 0 -88.766181945800781
v 90.531044006347656 2.5 -88.766181945800781
v 90.531044006347656 0 -89.366180419921875
v 90.531044006347656 2.5 -89.366180419921875
v 89.931045532226562 0 -89.366180419921875
v 89.931045532226562 2.5 -89.366180419921875
vt 0.40000000596046448 0
vt 0.40000000596046448 0.83186846971511841
vt 0.59853518009185791 0
vt 0.59853518009185791 0.83186846971511841
vt 0.20000000298023224 0
vt 0.20000000298023224 0.83186846971511841
vt 0.39853516221046448 0
vt 0.39853516221046448 0.83186846971511841
vt 0.80000001192092896 0
vt 0.80000001192092896 0.83186846971511841
vt 0.99853515625 0
vt 0.99853515625 0.83186846971511841
vt 0.60000002384185791 0
vt 0.60000002384185791 0.83186846971511841
vt 0.79853516817092896 0
vt 0.79853516817092896 0.83186846971511841
vt 0.19853515923023224 0.4166666567325592
vt 0 0.4166666567325592
vt 0.19853515923023224 0.61666667461395264
vt 0 0.61666667461395264
vt 0.19853515923023224 0
vt 0 0
vt 0.19853515923023224 0.20000000298023224
vt 0 0.20000000298023224
vn 0 0 1
vn 0 0 1
vn 0 0 1
vn 0 0 1
vn 1 0 0
vn 1 0 0
vn 1 0 0
vn 1 0 0
vn 0 0 -1
vn 0 0 -1
vn 0 0 -1
vn 0 0 -1
vn -1 0 0
vn -1 0 0
vn -1 0 0
vn -1 0 0
vn 0 -1 0
vn 0 -1 0
vn 0 -1 0
vn 0 -1 0
vn 0 1 0
vn 0 1 0
vn 0 1 0
vn 0 1 0
f 10/26/26 9/25/25 11/27/27 12/28/28
f 12/30/30 11/29/29 13/31/31 14/32/32
f 14/34/34 13/33/33 15/35/35 16/36/36
f 16/38/38 15/37/37 9/39/39 10/40/40
f 11/42/42 9/41/41 15/43/43 13/44/44
f 16/46/46 10/45/45 12/47/47 14/48/48
g object_3
v 89.931045532226562 0 -84.816993713378906
v 89.931045532226562 2.5 -84.816993713378906
v 90.531044006347656 0 -84.816993713378906
v 90.531044006347656 2.5 -84.816993713378906
v 90.531044006347656 0 -85.4169921875
v 90.531044006347656 2.5 -85.4169921875
v 89.931045532226562 0 -85.4169921875
v 89.931045532226562 2.5 -85.4169921875
vt 0.40000000596046448 0
vt 0.40000000596046448 0.83186846971511841
vt 0.59853518009185791 0
vt 0.59853518009185791 0.83186846971511841
vt 0.20000000298023224 0
vt 0.20000000298023224 0.83186846971511841
vt 0.39853516221046448 0
vt 0.39853516221046448 0.83186846971511841
vt 0.80000001192092896 0
vt 0.80000001192092896 0.83186846971511841
vt 0.99853515625 0
vt 0.99853515625 0.83186846971511841
vt 0.60000002384185791 0
vt 0.60000002384185791 0.83186846971511841
vt 0.79853516817092896 0
vt 0.79853516817092896 0.83186846971511841
vt 0.19853515923023224 0.4166666567325592
vt 0 0.4166666567325592
vt 0.19853515923023224 0.61666667461395264
vt 0 0.61666667461395264
vt 0.19853515923023224 0
vt 0 0
vt 0.19853515923023224 0.20000000298023224
vt 0 0.20000000298023224
vn 0 0 1
vn 0 0 1
vn 0 0 1
vn 0 0 1
vn 1 0 0
vn 1 0 0
vn 1 0 0
vn 1 0 0
vn 0 0 -1
vn 0 0 -1
vn 0 0 -1
vn 0 0 -1
vn -1 0 0
vn -1 0 0
vn -1 0 0
vn -1 0 0
vn 0 -1 0
vn 0 -1 0
vn 0 -1 0
vn 0 -1 0
vn 0 1 0
vn 0 1 0
vn 0 1 0
vn 0 1 0
f 18/50/50 17/49/49 19/51/51 20/52/52
f 20/54/54 19/53/53 21/55/55 22/56/56
f 22/58/58 21/57/57 23/59/59 24/60/60
f 24/62/62 23/61/61 17/63/63 18/64/64
f 19/66/66 17/65/65 23/67/67 21/68/68
f 24/70/70 18/69/69 20/71/71 22/72/72
g object_4
v 89.931045532226562 0 -80.8677978515625
v 89.931045532226562 2.5 -80.8677978515625
v 90.531044006347656 0 -80.8677978515625
v 90.531044006347656 2.5 -80.8677978515625
v 90.531044006347656 0 -81.467803955078125
v 90.531044006347656 2.5 -81.467803955078125
v 89.931045532226562 0 -81.467803955078125
v 89.931045532226562 2.5 -81.467803955078125
vt 0.40000000596046448 0
vt 0.40000000596046448 0.83186846971511841
vt 0.59853518009185791 0
vt 0.59853518009185791 0.83186846971511841
vt 0.20000000298023224 0
vt 0.20000000298023224 0.83186846971511841
vt 0.39853516221046448 0
vt 0.39853516221046448 0.83186846971511841
vt 0.80000001192092896 0
vt 0.80000001192092896 0.83186846971511841
vt 0.99853515625 0
vt 0.99853515625 0.83186846971511841
vt 0.60000002384185791 0
vt 0.60000002384185791 0.83186846971511841
vt 0.79853516817092896 0
vt 0.79853516817092896 0.83186846971511841
vt 0.19853515923023224 0.4166666567325592
vt 0 0.4166666567325592
vt 0.19853515923023224 0.61666667461395264
vt 0 0.61666667461395264
vt 0.19853515923023224 0
vt 0 0
vt 0.19853515923023224 0.20000000298023224
vt 0 0.20000000298023224
vn 0 0 1
vn 0 0 1
vn 0 0 1
vn 0 0 1
vn 1 0 0
vn 1 0 0
vn 1 0 0
vn 1 0 0
vn 0 0 -1
vn 0 0 -1
vn 0 0 -1
vn 0 0 -1
vn -1 0 0
vn -1 0 0
vn -1 0 0
vn -1 0 0
vn 0 -1 0
vn 0 -1 0
vn 0 -1 0
vn 0 -1 0
vn 0 1 0
vn 0 1 0
vn 0 1 0
vn 0 1 0
f 26/74/74 25/73/73 27/75/75 28/76/76
f 28/78/78 27/77/77 29/79/79 30/80/80
f 30/82/82 29/81/81 31/83/83 32/84/84
f 32/86/86 31/85/85 25/87/87 26/88/88
f 27/90/90 25/89/89 31/91/91 29/92/92
f 32/94/94 26/93/93 28/95/95 30/96/96
g object_5
v 85.950592041015625 0 -80.8677978515625
v 85.950592041015625 2.5 -80.8677978515625
v 86.55059814453125 0 -80.8677978515625
v 86.55059814453125 2.5 -80.8677978515625
v 86.55059814453125 0 -81.467803955078125
v 86.55059814453125 2.5 -81.467803955078125
v 85.950592041015625 0 -81.467803955078125
v 85.950592041015625 2.5 -81.467803955078125
vt 0.40000000596046448 0
vt 0.40000000596046448 0.83186846971511841
vt 0.59853518009185791 0
vt 0.59853518009185791 0.83186846971511841
vt 0.20000000298023224 0
vt 0.20000000298023224 0.83186846971511841
vt 0.39853516221046448 0
vt 0.39853516221046448 0.83186846971511841
vt 0.80000001192092896 0
vt 0.80000001192092896 0.83186846971511841
vt 0.99853515625 0
vt 0.99853515625 0.83186846971511841
vt 0.60000002384185791 0
vt 0.60000002384185791 0.83186846971511841
vt 0.79853516817092896 0
vt 0.79853516817092896 0.83186846971511841
vt 0.19853515923023224 0.4166666567325592
vt 0 0.4166666567325592
vt 0.19853515923023224 0.61666667461395264
vt 0 0.61666667461395264
vt 0.19853515923023224 0
vt 0 0
vt 0.19853515923023224 0.20000000298023224
vt 0 0.20000000298023224
vn 0 0 1
vn 0 0 1
vn 0 0 1
vn 0 0 1
vn 1 0 0
vn 1 0 0
vn 1 0 0
vn 1 0 0
vn 0 0 -1
vn 0 0 -1
vn 0 0 -1
vn 0 0 -1
vn -1 0 0
vn -1 0 0
vn -1 0 0
vn -1 0 0
vn 0 -1 0
vn 0 -1 0
vn 0 -1 0
vn 0 -1 0
vn 0 1 0
vn 0 1 0
vn 0 1 0
vn 0 1 0
f 34/98/98 33/97/97 35/99/99 36/100/100
f 36/102/102 35/101/101 37/103/103 38/104/104
f 38/106/106 37/105/105 39/107/107 40/108/108
f 40/110/110 39/109/109 33/111/111 34/112/112
f 35/114/114 33/113/113 39/115/115 37/116/116
f 40/118/118 34/117/117 36/119/119 38/120/120
g object_6
v 85.950592041015625 0 -84.816993713378906
v 85.950592041015625 2.5 -84.816993713378906
v 86.55059814453125 0 -84.816993713378906
v 86.55059814453125 2.5 -84.816993713378906
v 86.55059814453125 0 -85.4169921875
v 86.55059814453125 2.5 -85.4169921875
v 85.950592041015625 0 -85.4169921875
v 85.950592041015625 2.5 -85.4169921875
vt 0.40000000596046448 0
vt 0.40000000596046448 0.83186846971511841
vt 0.59853518009185791 0
vt 0.59853518009185791 0.83186846971511841
vt 0.20000000298023224 0
vt 0.20000000298023224 0.83186846971511841
vt 0.39853516221046448 0
vt 0.39853516221046448 0.83186846971511841
vt 0.80000001192092896 0
vt 0.80000001192092896 0.83186846971511841
vt 0.99853515625 0
vt 0.99853515625 0.83186846971511841
vt 0.60000002384185791 0
vt 0.60000002384185791 0.83186846971511841
vt 0.79853516817092896 0
vt 0.79853516817092896 0.83186846971511841
vt 0.19853515923023224 0.4166666567325592
vt 0 0.4166666567325592
vt 0.19853515923023224 0.61666667461395264
vt 0 0.61666667461395264
vt 0.19853515923023224 0
vt 0 0
vt 0.19853515923023224 0.20000000298023224
vt 0 0.20000000298023224
vn 0 0 1
vn 0 0 1
vn 0 0 1
vn 0 0 1
vn 1 0 0
vn 1 0 0
vn 1 0 0
vn 1 0 0
vn 0 0 -1
vn 0 0 -1
vn 0 0 -1
vn 0 0 -1
vn -1 0 0
vn -1 0 0
vn -1 0 0
vn -1 0 0
vn 0 -1 0
vn 0 -1 0
vn 0 -1 0
vn 0 -1 0
vn 0 1 0
vn 0 1 0
vn 0 1 0
vn 0 1 0
f 42/122/122 41/121/121 43/123/123 44/124/124
f 44/126/126 43/125/125 45/127/127 46/128/128
f 46/130/130 45/129/129 47/131/131 48/132/132
f 48/134/134 47/133/133 41/135/135 42/136/136
f 43/138/138 41/137/137 47/139/139 45/140/140
f 48/142/142 42/141/141 44/143/143 46/144/144
g object_7
v 85.950592041015625 0 -88.766181945800781
v 85.950592041015625 2.5 -88.766181945800781
v 86.55059814453125 0 -88.766181945800781
v 86.55059814453125 2.5 -88.766181945800781
v 86.55059814453125 0 -89.366180419921875
v 86.55059814453125 2.5 -89.366180419921875
v 85.950592041015625 0 -89.366180419921875
v 85.950592041015625 2.5 -89.366180419921875
vt 0.40000000596046448 0
vt 0.40000000596046448 0.83186846971511841
vt 0.59853518009185791 0
vt 0.59853518009185791 0.83186846971511841
vt 0.20000000298023224 0
vt 0.20000000298023224 0.83186846971511841
vt 0.39853516221046448 0
vt 0.39853516221046448 0.83186846971511841
vt 0.80000001192092896 0
vt 0.80000001192092896 0.83186846971511841
vt 0.99853515625 0
vt 0.99853515625 0.83186846971511841
vt 0.60000002384185791 0
vt 0.60000002384185791 0.83186846971511841
vt 0.79853516817092896 0
vt 0.79853516817092896 0.83186846971511841
vt 0.19853515923023224 0.4166666567325592
vt 0 0.4166666567325592
vt 0.19853515923023224 0.61666667461395264
vt 0 0.61666667461395264
vt 0.19853515923023224 0
vt 0 0
vt 0.19853515923023224 0.20000000298023224
vt 0 0.20000000298023224
vn 0 0 1
vn 0 0 1
vn 0 0 1
vn 0 0 1
vn 1 0 0
vn 1 0 0
vn 1 0 0
vn 1 0 0
vn 0 0 -1
vn 0 0 -1
vn 0 0 -1
vn 0 0 -1
vn -1 0 0
vn -1 0 0
vn -1 0 0
vn -1 0 0
vn 0 -1 0
vn 0 -1 0
vn 0 -1 0
vn 0 -1 0
vn 0 1 0
vn 0 1 0
vn 0 1 0
vn 0 1 0
f 50/146/146 49/145/145 51/147/147 52/148/148
f 52/150/150 51/149/149 53/151/151 54/152/152
f 54/154/154 53/153/153 55/155/155 56/156/156
f 56/158/158 55/157/157 49/159/159 50/160/160
f 51/162/162 49/161/161 55/163/163 53/164/164
f 56/166/166 50/165/165 52/167/167 54/168/168
g object_8
v 85.950592041015625 0 -92.715370178222656
v 85.950592041015625 2.5 -92.715370178222656
v 86.55059814453125 0 -92.715370178222656
v 86.55059814453125 2.5 -92.715370178222656
v 86.55059814453125 0 -93.31536865234375
v 86.55059814453125 2.5 -93.31536865234375
v 85.950592041015625 0 -93.31536865234375
v 85.950592041015625 2.5 -93.31536865234375
vt 0.40000000596046448 0
vt 0.40000000596046448 0.83186846971511841
vt 0.59853518009185791 0
vt 0.59853518009185791 0.83186846971511841
vt 0.20000000298023224 0
vt 0.20000000298023224 0.83186846971511841
vt 0.39853516221046448 0
vt 0.39853516221046448 0.83186846971511841
vt 0.80000001192092896 0
vt 0.80000001192092896 0.83186846971511841
vt 0.99853515625 0
vt 0.99853515625 0.83186846971511841
vt 0.60000002384185791 0
vt 0.60000002384185791 0.83186846971511841
vt 0.79853516817092896 0
vt 0.79853516817092896 0.83186846971511841
vt 0.19853515923023224 0.4166666567325592
vt 0 0.4166666567325592
vt 0.19853515923023224 0.61666667461395264
vt 0 0.61666667461395264
vt 0.19853515923023224 0
vt 0 0
vt 0.19853515923023224 0.20000000298023224
vt 0 0.20000000298023224
vn 0 0 1
vn 0 0 1
vn 0 0 1
vn 0 0 1
vn 1 0 0
vn 1 0 0
vn 1 0 0
vn 1 0 0
vn 0 0 -1
vn 0 0 -1
vn 0 0 -1
vn 0 0 -1
vn -1 0 0
vn -1 0 0
vn -1 0 0
vn -1 0 0
vn 0 -1 0
vn 0 -1 0
vn 0 -1 0
vn 0 -1 0
vn 0 1 0
vn 0 1 0
vn 0 1 0
vn 0 1 0
f 58/170/170 57/169/169 59/171/171 60/172/172
f 60/174/174 59/173/173 61/175/175 62/176/176
f 62/178/178 61/177/177 63/179/179 64/180/180
f 64/182/182 63/181/181 57/183/183 58/184/184
f 59/186/186 57/185/185 63/187/187 61/188/188
f 64/190/190 58/189/189 60/191/191 62/192/192
g object_9
v 81.322624206542969 0 -80.8677978515625
v 81.322624206542969 2.5 -80.8677978515625
v 81.922622680664062 0 -80.8677978515625
v 81.922622680664062 2.5 -80.8677978515625
v 81.922622680664062 0 -81.467803955078125
v 81.922622680664062 2.5 -81.467803955078125
v 81.322624206542969 0 -81.467803955078125
v 81.322624206542969 2.5 -81.467803955078125
vt 0.40000000596046448 0
vt 0.40000000596046448 0.83186846971511841
vt 0.59853518009185791 0
vt 0.59853518009185791 0.83186846971511841
vt 0.20000000298023224 0
vt 0.20000000298023224 0.83186846971511841
vt 0.39853516221046448 0
vt 0.39853516221046448 0.83186846971511841
vt 0.80000001192092896 0
vt 0.80000001192092896 0.83186846971511841
vt 0.99853515625 0
vt 0.99853515625 0.83186846971511841
vt 0.60000002384185791 0
vt 0.60000002384185791 0.83186846971511841
vt 0.79853516817092896 0
vt 0.79853516817092896 0.83186846971511841
vt 0.19853515923023224 0.4166666567325592
vt 0 0.4166666567325592
vt 0.19853515923023224 0.61666667461395264
vt 0 0.61666667461395264
vt 0.19853515923023224 0
vt 0 0
vt 0.19853515923023224 0.20000000298023224
vt 0 0.20000000298023224
vn 0 0 1
vn 0 0 1
vn 0 0 1
vn 0 0 1
vn 1 0 0
vn 1 0 0
vn 1 0 0
vn 1 0 0
vn 0 0 -1
vn 0 0 -1
vn 0 0 -1
vn 0 0 -1
vn -1 0 0
vn -1 0 0
vn -1 0 0
vn -1 0 0
vn 0 -1 0
vn 0 -1 0
vn 0 -1 0
vn 0 -1 0
vn 0 1 0
vn 0 1 0
vn 0 1 0
vn 0 1 0
f 66/194/194 65/193/193 67/195/195 68/196/196
f 68/198/198 67/197/197 69/199/199 70/200/200
f 70/202/202 69/201/201 71/203/203 72/204/204
f 72/206/206 71/205/205 65/207/207 66/208/208
f 67/210/210 65/209/209 71/211/211 69/212/212
f 72/214/214 66/213/213 68/215/215 70/216/216
g object_10
v 81.322624206542969 0 -84.816993713378906
v 81.322624206542969 2.5 -84.816993713378906
v 81.922622680664062 0 -84.816993713378906
v 81.922622680664062 2.5 -84.816993713378906
v 81.922622680664062 0 -85.4169921875
v 81.922622680664062 2.5 -85.4169921875
v 81.322624206542969 0 -85.4169921875
v 81.322624206542969 2.5 -85.4169921875
vt 0.40000000596046448 0
vt 0.40000000596046448 0.83186846971511841
vt 0.59853518009185791 0
vt 0.59853518009185791 0.83186846971511841
vt 0.20000000298023224 0
vt 0.20000000298023224 0.83186846971511841
vt 0.39853516221046448 0
vt 0.39853516221046448 0.83186846971511841
vt 0.80000001192092896 0
vt 0.80000001192092896 0.83186846971511841
vt 0.99853515625 0
vt 0.99853515625 0.83186846971511841
vt 0.60000002384185791 0
vt 0.60000002384185791 0.83186846971511841
vt 0.79853516817092896 0
vt 0.79853516817092896 0.83186846971511841
vt 0.19853515923023224 0.4166666567325592
vt 0 0.4166666567325592
vt 0.19853515923023224 0.61666667461395264
vt 0 0.61666667461395264
vt 0.19853515923023224 0
vt 0 0
vt 0.19853515923023224 0.20000000298023224
vt 0 0.20000000298023224
vn 0 0 1
vn 0 0 1
vn 0 0 1
vn 0 0 1
vn 1 0 0
vn 1 0 0
vn 1 0 0
vn 1 0 0
vn 0 0 -1
vn 0 0 -1
vn 0 0 -1
vn 0 0 -1
vn -1 0 0
vn -1 0 0
vn -1 0 0
vn -1 0 0
vn 0 -1 0
vn 0 -1 0
vn 0 -1 0
vn 0 -1 0
vn 0 1 0
vn 0 1 0
vn 0 1 0
vn 0 1 0
f 74/218/218 73/217/217 75/219/219 76/220/220
f 76/222/222 75/221/221 77/223/223 78/224/224
f 78/226/226 77/225/225 79/227/227 80/228/228
f 80/230/230 79/229/229 73/231/231 74/232/232
f 75/234/234 73/233/233 79/235/235 77/236/236
f 80/238/238 74/237/237 76/239/239 78/240/240
g object_11
v 81.322624206542969 0 -88.766181945800781
v 81.322624206542969 2.5 -88.766181945800781
v 81.922622680664062 0 -88.766181945800781
v 81.922622680664062 2.5 -88.766181945800781
v 81.922622680664062 0 -89.366180419921875
v 81.922622680664062 2.5 -89.366180419921875
v 81.322624206542969 0 -89.366180419921875
v 81.322624206542969 2.5 -89.366180419921875
vt 0.40000000596046448 0
vt 0.40000000596046448 0.83186846971511841
vt 0.59853518009185791 0
vt 0.59853518009185791 0.83186846971511841
vt 0.20000000298023224 0
vt 0.20000000298023224 0.83186846971511841
vt 0.39853516221046448 0
vt 0.39853516221046448 0.83186846971511841
vt 0.80000001192092896 0
vt 0.80000001192092896 0.83186846971511841
vt 0.99853515625 0
vt 0.99853515625 0.83186846971511841
vt 0.60000002384185791 0
vt 0.60000002384185791 0.83186846971511841
vt 0.79853516817092896 0
vt 0.79853516817092896 0.83186846971511841
vt 0.19853515923023224 0.4166666567325592
vt 0 0.4166666567325592
vt 0.19853515923023224 0.61666667461395264
vt 0 0.61666667461395264
vt 0.19853515923023224 0
vt 0 0
vt 0.19853515923023224 0.20000000298023224
vt 0 0.20000000298023224
vn 0 0 1
vn 0 0 1
vn 0 0 1
vn 0 0 1
vn 1 0 0
vn 1 0 0
vn 1 0 0
vn 1 0 0
vn 0 0 -1
vn 0 0 -1
vn 0 0 -1
vn 0 0 -1
vn -1 0 0
vn -1 0 0
vn -1 0 0
vn -1 0 0
vn 0 -1 0
vn 0 -1 0
vn 0 -1 0
vn 0 -1 0
vn 0 1 0
vn 0 1 0
vn 0 1 0
vn 0 1 0
f 82/242/242 81/241/241 83/243/243 84/244/244
f 84/246/246 83/245/245 85/247/247 86/248/248
f 86/250/250 85/249/249 87/251/251 88/252/252
f 88/254/254 87/253/253 81/255/255 82/256/256
f 83/258/258 81/257/257 87/259/259 85/260/260
f 88/262/262 82/261/261 84/263/263 86/264/264
g object_12
v 81.322624206542969 0 -92.715370178222656
v 81.322624206542969 2.5 -92.715370178222656
v 81.922622680664062 0 -92.715370178222656
v 81.922622680664062 2.5 -92.715370178222656
v 81.922622680664062 0 -93.31536865234375
v 81.922622680664062 2.5 -93.31536865234375
v 81.322624206542969 0 -93.31536865234375
v 81.322624206542969 2.5 -93.31536865234375
vt 0.40000000596046448 0
vt 0.40000000596046448 0.83186846971511841
vt 0.59853518009185791 0
vt 0.59853518009185791 0.83186846971511841
vt 0.20000000298023224 0
vt 0.20000000298023224 0.83186846971511841
vt 0.39853516221046448 0
vt 0.39853516221046448 0.83186846971511841
vt 0.80000001192092896 0
vt 0.80000001192092896 0.83186846971511841
vt 0.99853515625 0
vt 0.99853515625 0.83186846971511841
vt 0.60000002384185791 0
vt 0.60000002384185791 0.83186846971511841
vt 0.79853516817092896 0
vt 0.79853516817092896 0.83186846971511841
vt 0.19853515923023224 0.4166666567325592
vt 0 0.4166666567325592
vt 0.19853515923023224 0.61666667461395264
vt 0 0.61666667461395264
vt 0.19853515923023224 0
vt 0 0
vt 0.19853515923023224 0.20000000298023224
vt 0 0.20000000298023224
vn 0 0 1
vn 0 0 1
vn 0 0 1
vn 0 0 1
vn 1 0 0
vn 1 0 0
vn 1 0 0
vn 1 0 0
vn 0 0 -1
vn 0 0 -1
vn 0 0 -1
vn 0 0 -1
vn -1 0 0
vn -1 0 0
vn -1 0 0
vn -1 0 0
vn 0 -1 0
vn 0 -1 0
vn 0 -1 0
vn 0 -1 0
vn 0 1 0
vn 0 1 0
vn 0 1 0
vn 0 1 0
f 90/266/266 89/265/265 91/267/267 92/268/268
f 92/270/270 91/269/269 93/271/271 94/272/272
f 94/274/274 93/273/273 95/275/275 96/276/276
f 96/278/278 95/277/277 89/279/279 90/280/280
f 91/282/282 89/281/281 95/283/283 93/284/284
f 96/286/286 90/285/285 92/287/287 94/288/288
g object_13
v 94.665962219238281 0 -92.715370178222656
v 94.665962219238281 2.5 -92.715370178222656
v 95.265960693359375 0 -92.715370178222656
v 95.265960693359375 2.5 -92.715370178222656
v 95.265960693359375 0 -93.31536865234375
v 95.265960693359375 2.5 -93.31536865234375
v 94.665962219238281 0 -93.31536865234375
v 94.665962219238281 2.5 -93.31536865234375
vt 0.40000000596046448 0
vt 0.40000000596046448 0.83186846971511841
vt 0.59853518009185791 0
vt 0.59853518009185791 0.83186846971511841
vt 0.20000000298023224 0
vt 0.20000000298023224 0.83186846971511841
vt 0.39853516221046448 0
vt 0.39853516221046448 0.83186846971511841
vt 0.80000001192092896 0
vt 0.80000001192092896 0.83186846971511841
vt 0.99853515625 0
vt 0.99853515625 0.83186846971511841
vt 0.60000002384185791 0
vt 0.60000002384185791 0.83186846971511841
vt 0.79853516817092896 0
vt 0.79853516817092896 0.83186846971511841
vt 0.19853515923023224 0.4166666567325592
vt 0 0.4166666567325592
vt 0.19853515923023224 0.61666667461395264
vt 0 0.61666667461395264
vt 0.19853515923023224 0
vt 0 0
vt 0.19853515923023224 0.20000000298023224
vt 0 0.20000000298023224
vn 0 0 1
vn 0 0 1
vn 0 0 1
vn 0 0 1
vn 1 0 0
vn 1 0 0
vn 1 0 0
vn 1 0 0
vn 0 0 -1
vn 0 0 -1
vn 0 0 -1
vn 0 0 -1
vn -1 0 0
vn -1 0 0
vn -1 0 0
vn -1 0 0
vn 0 -1 0
vn 0 -1 0
vn 0 -1 0
vn 0 -1 0
vn 0 1 0
vn 0 1 0
vn 0 1 0
vn 0 1 0
f 98/290/290 97/289/289 99/291/291 100/292/292
f 100/294/294 99/293/293 101/295/295 102/296/296
f 102/298/298 101/297/297 103/299/299 104/300/300
f 104/302/302 103/301/301 97/303/303 98/304/304
f 99/306/306 97/305/305 103/307/307 101/308/308
f 104/310/310 98/309/309 100/311/311 102/312/312
g object_14
v 94.665962219238281 0 -88.766181945800781
v 94.665962219238281 2.5 -88.766181945800781
v 95.265960693359375 0 -88.766181945800781
v 95.265960693359375 2.5 -88.766181945800781
v 95.265960693359375 0 -89.366180419921875
v 95.265960693359375 2.5 -89.366180419921875
v 94.665962219238281 0 -89.366180419921875
v 94.665962219238281 2.5 -89.366180419921875
vt 0.40000000596046448 0
vt 0.40000000596046448 0.83186846971511841
vt 0.59853518009185791 0
vt 0.59853518009185791 0.83186846971511841
vt 0.20000000298023224 0
vt 0.20000000298023224 0.83186846971511841
vt 0.39853516221046448 0
vt 0.39853516221046448 0.83186846971511841
vt 0.80000001192092896 0
vt 0.80000001192092896 0.83186846971511841
vt 0.99853515625 0
vt 0.99853515625 0.83186846971511841
vt 0.60000002384185791 0
vt 0.60000002384185791 0.83186846971511841
vt 0.79853516817092896 0
vt 0.79853516817092896 0.83186846971511841
vt 0.19853515923023224 0.4166666567325592
vt 0 0.4166666567325592
vt 0.19853515923023224 0.61666667461395264
vt 0 0.61666667461395264
vt 0.19853515923023224 0
vt 0 0
vt 0.19853515923023224 0.20000000298023224
vt 0 0.20000000298023224
vn 0 0 1
vn 0 0 1
vn 0 0 1
vn 0 0 1
vn 1 0 0
vn 1 0 0
vn 1 0 0
vn 1 0 0
vn 0 0 -1
vn 0 0 -1
vn 0 0 -1
vn 0 0 -1
vn -1 0 0
vn -1 0 0
vn -1 0 0
vn -1 0 0
vn 0 -1 0
vn 0 -1 0
vn 0 -1 0
vn 0 -1 0
vn 0 1 0
vn 0 1 0
vn 0 1 0
vn 0 1 0
f 106/314/314 105/313/313 107/315/315 108/316/316
f 108/318/318 107/317/317 109/319/319 110/320/320
f 110/322/322 109/321/321 111/323/323 112/324/324
f 112/326/326 111/325/325 105/327/327 106/328/328
f 107/330/330 105/329/329 111/331/331 109/332/332
f 112/334/334 106/333/333 108/335/335 110/336/336
g object_15
v 94.665962219238281 0 -84.816993713378906
v 94.665962219238281 2.5 -84.816993713378906
v 95.265960693359375 0 -84.816993713378906
v 95.265960693359375 2.5 -84.816993713378906
v 95.265960693359375 0 -85.4169921875
v 95.265960693359375 2.5 -85.4169921875
v 94.665962219238281 0 -85.4169921875
v 94.665962219238281 2.5 -85.4169921875
vt 0.40000000596046448 0
vt 0.40000000596046448 0.83186846971511841
vt 0.59853518009185791 0
vt 0.59853518009185791 0.83186846971511841
vt 0.20000000298023224 0
vt 0.20000000298023224 0.83186846971511841
vt 0.39853516221046448 0
vt 0.39853516221046448 0.83186846971511841
vt 0.80000001192092896 0
vt 0.80000001192092896 0.83186846971511841
vt 0.99853515625 0
vt 0.99853515625 0.83186846971511841
vt 0.60000002384185791 0
vt 0.60000002384185791 0.83186846971511841
vt 0.79853516817092896 0
vt 0.79853516817092896 0.83186846971511841
vt 0.19853515923023224 0.4166666567325592
vt 0 0.4166666567325592
vt 0.19853515923023224 0.61666667461395264
vt 0 0.61666667461395264
vt 0.19853515923023224 0
vt 0 0
vt 0.19853515923023224 0.20000000298023224
vt 0 0.20000000298023224
vn 0 0 1
vn 0 0 1
vn 0 0 1
vn 0 0 1
vn 1 0 0
vn 1 0 0
vn 1 0 0
vn 1 0 0
vn 0 0 -1
vn 0 0 -1
vn 0 0 -1
vn 0 0 -1
vn -1 0 0
vn -1 0 0
vn -1 0 0
vn -1 0 0
vn 0 -1 0
vn 0 -1 0
vn 0 -1 0
vn 0 -1 0
vn 0 1 0
vn 0 1 0
vn 0 1 0
vn 0 1 0
f 114/338/338 113/337/337 115/339/339 116/340/340
f 116/342/342 115/341/341 117/343/343 118/344/344
f 118/346/346 117/345/345 119/347/347 120/348/348
f 120/350/350 119/349/349 113/351/351 114/352/352
f 115/354/354 113/353/353 119/355/355 117/356/356
f 120/358/358 114/357/357 116/359/359 118/360/360
g object_16
v 94.665962219238281 0 -80.8677978515625
v 94.665962219238281 2.5 -80.8677978515625
v 95.265960693359375 0 -80.8677978515625
v 95.265960693359375 2.5 -80.8677978515625
v 95.265960693359375 0 -81.467803955078125
v 95.265960693359375 2.5 -81.467803955078125
v 94.665962219238281 0 -81.467803955078125
v 94.665962219238281 2.5 -81.467803955078125
vt 0.40000000596046448 0
vt 0.40000000596046448 0.83186846971511841
vt 0.59853518009185791 0
vt 0.59853518009185791 0.83186846971511841
vt 0.20000000298023224 0
vt 0.20000000298023224 0.83186846971511841
vt 0.39853516221046448 0
vt 0.39853516221046448 0.83186846971511841
vt 0.80000001192092896 0
vt 0.80000001192092896 0.83186846971511841
vt 0.99853515625 0
vt 0.99853515625 0.83186846971511841
vt 0.60000002384185791 0
vt 0.60000002384185791 0.83186846971511841
vt 0.79853516817092896 0
vt 0.79853516817092896 0.83186846971511841
vt 0.19853515923023224 0.4166666567325592
vt 0 0.4166666567325592
vt 0.19853515923023224 0.61666667461395264
vt 0 0.61666667461395264
vt 0.19853515923023224 0
vt 0 0
vt 0.19853515923023224 0.20000000298023224
vt 0 0.20000000298023224
vn 0 0 1
vn 0 0 1
vn 0 0 1
vn 0 0 1
vn 1 0 0
vn 1 0 0
vn 1 0 0
vn 1 0 0
vn 0 0 -1
vn 0 0 -1
vn 0 0 -1
vn 0 0 -1
vn -1 0 0
vn -1 0 0
vn -1 0 0
vn -1 0 0
vn 0 -1 0
vn 0 -1 0
vn 0 -1 0
vn 0 -1 0
vn 0 1 0
vn 0 1 0
vn 0 1 0
vn 0 1 0
f 122/362/362 121/361/361 123/363/363 124/364/364
f 124/366/366 123/365/365 125/367/367 126/368/368
f 126/370/370 125/369/369 127/371/371 128/372/372
f 128/374/374 127/373/373 121/375/375 122/376/376
f 123/378/378 121/377/377 127/379/379 125/380/380
f 128/382/382 122/381/381 124/383/383 126/384/384
g object_17
v 94.665962219238281 2.5 -80.8677978515625
v 94.665962219238281 5 -80.8677978515625
v 95.265960693359375 2.5 -80.8677978515625
v 95.265960693359375 5 -80.8677978515625
v 95.265960693359375 2.5 -81.467803955078125
v 95.265960693359375 5 -81.467803955078125
v 94.665962219238281 2.5 -81.467803955078125
v 94.665962219238281 5 -81.467803955078125
vt 0.40000000596046448 0
vt 0.40000000596046448 0.83186846971511841
vt 0.59853518009185791 0
vt 0.59853518009185791 0.83186846971511841
vt 0.20000000298023224 0
vt 0.20000000298023224 0.83186846971511841
vt 0.39853516221046448 0
vt 0.39853516221046448 0.83186846971511841
vt 0.80000001192092896 0
vt 0.80000001192092896 0.83186846971511841
vt 0.99853515625 0
vt 0.99853515625 0.83186846971511841
vt 0.60000002384185791 0
vt 0.60000002384185791 0.83186846971511841
vt 0.79853516817092896 0
vt 0.79853516817092896 0.83186846971511841
vt 0.19853515923023224 0.4166666567325592
vt 0 0.4166666567325592
vt 0.19853515923023224 0.61666667461395264
vt 0 0.61666667461395264
vt 0.19853515923023224 0
vt 0 0
vt 0.19853515923023224 0.20000000298023224
vt 0 0.20000000298023224
vn 0 0 1
vn 0 0 1
vn 0 0 1
vn 0 0 1
vn 1 0 0
vn 1 0 0
vn 1 0 0
vn 1 0 0
vn 0 0 -1
vn 0 0 -1
vn 0 0 -1
vn 0 0 -1
vn -1 0 0
vn -1 0 0
vn -1 0 0
vn -1 0 0
vn 0 -1 0
vn 0 -1 0
vn 0 -1 0
vn 0 -1 0
vn 0 1 0
vn 0 1 0
vn 0 1 0
vn 0 1 0
f 130/386/386 129/385/385 131/387/387 132/388/388
f 132/390/390 131/389/389 133/391/391 134/392/392
f 134/394/394 133/393/393 135/395/395 136/396/396
f 136/398/398 135/397/397 129/399/399 130/400/400
f 131/402/402 129/401/401 135/403/403 133/404/404
f 136/406/406 130/405/405 132/407/407 134/408/408
g object_18
v 94.665962219238281 2.5 -84.816993713378906
v 94.665962219238281 5 -84.816993713378906
v 95.265960693359375 2.5 -84.816993713378906
v 95.265960693359375 5 -84.816993713378906
v 95.265960693359375 2.5 -85.4169921875
v 95.265960693359375 5 -85.4169921875
v 94.665962219238281 2.5 -85.4169921875
v 94.665962219238281 5 -85.4169921875
vt 0.40000000596046448 0
vt 0.40000000596046448 0.83186846971511841
vt 0.59853518009185791 0
vt 0.59853518009185791 0.83186846971511841
vt 0.20000000298023224 0
vt 0.20000000298023224 0.83186846971511841
vt 0.39853516221046448 0
vt 0.39853516221046448 0.83186846971511841
vt 0.80000001192092896 0
vt 0.80000001192092896 0.83186846971511841
vt 0.99853515625 0
vt 0.99853515625 0.83186846971511841
vt 0.60000002384185791 0
vt 0.60000002384185791 0.83186846971511841
vt 0.79853516817092896 0
vt 0.79853516817092896 0.83186846971511841
vt 0.19853515923023224 0.4166666567325592
vt 0 0.4166666567325592
vt 0.19853515923023224 0.61666667461395264
vt 0 0.61666667461395264
vt 0.19853515923023224 0
vt 0 0
vt 0.19853515923023224 0.20000000298023224
vt 0 0.20000000298023224
vn 0 0 1
vn 0 0 1
vn 0 0 1
vn 0 0 1
vn 1 0 0
vn 1 0 0
vn 1 0 0
vn 1 0 0
vn 0 0 -1
vn 0 0 -1
vn 0 0 -1
vn 0 0 -1
vn -1 0 0
vn -1 0 0
vn -1 0 0
vn -1 0 0
vn 0 -1 0
vn 0 -1 0
vn 0 -1 0
vn 0 -1 0
vn 0 1 0
vn 0 1 0
vn 0 1 0
vn 0 1 0
f 138/410/410 137/409/409 139/411/411 140/412/412
f 140/414/414 139/413/413 141/415/415 142/416/416
f 142/418/418 141/417/417 143/419/419 144/420/420
f 144/422/422 143/421/421 137/423/423 138/424/424
f 139/426/426 137/425/425 143/427/427 141/428/428
f 144/430/430 138/429/429 140/431/431 142/432/432
g object_19
v 94.665962219238281 2.5 -88.766181945800781
v 94.665962219238281 5 -88.766181945800781
v 95.265960693359375 2.5 -88.766181945800781
v 95.265960693359375 5 -88.766181945800781
v 95.265960693359375 2.5 -89.366180419921875
v 95.265960693359375 5 -89.366180419921875
v 94.665962219238281 2.5 -89.366180419921875
v 94.665962219238281 5 -89.366180419921875
vt 0.40000000596046448 0
vt 0.40000000596046448 0.83186846971511841
vt 0.59853518009185791 0
vt 0.59853518009185791 0.83186846971511841
vt 0.20000000298023224 0
vt 0.20000000298023224 0.83186846971511841
vt 0.39853516221046448 0
vt 0.39853516221046448 0.83186846971511841
vt 0.80000001192092896 0
vt 0.80000001192092896 0.83186846971511841
vt 0.99853515625 0
vt 0.99853515625 0.83186846971511841
vt 0.60000002384185791 0
vt 0.60000002384185791 0.83186846971511841
vt 0.79853516817092896 0
vt 0.79853516817092896 0.83186846971511841
vt 0.19853515923023224 0.4166666567325592
vt 0 0.4166666567325592
vt 0.19853515923023224 0.61666667461395264
vt 0 0.61666667461395264
vt 0.19853515923023224 0
vt 0 0
vt 0.19853515923023224 0.20000000298023224
vt 0 0.20000000298023224
vn 0 0 1
vn 0 0 1
vn 0 0 1
vn 0 0 1
vn 1 0 0
vn 1 0 0
vn 1 0 0
vn 1 0 0
vn 0 0 -1
vn 0 0 -1
vn 0 0 -1
vn 0 0 -1
vn -1 0 0
vn -1 0 0
vn -1 0 0
vn -1 0 0
vn 0 -1 0
vn 0 -1 0
vn 0 -1 0
vn 0 -1 0
vn 0 1 0
vn 0 1 0
vn 0 1 0
vn 0 1 0
f 146/434/434 145/433/433 147/435/435 148/436/436
f 148/438/438 147/437/437 149/439/439 150/440/440
f 150/442/442 149/441/441 151/443/443 152/444/444
f 152/446/446 151/445/445 145/447/447 146/448/448
f 147/450/450 145/449/449 151/451/451 149/452/452
f 152/454/454 146/453/453 148/455/455 150/456/456
g object_20
v 94.665962219238281 2.5 -92.715370178222656
v 94.665962219238281 5 -92.715370178222656
v 95.265960693359375 2.5 -92.715370178222656
v 95.265960693359375 5 -92.715370178222656
v 95.265960693359375 2.5 -93.31536865234375
v 95.265960693359375 5 -93.31536865234375
v 94.665962219238281 2.5 -93.31536865234375
v 94.665962219238281 5 -93.31536865234375
vt 0.40000000596046448 0
vt 0.40000000596046448 0.83186846971511841
vt 0.59853518009185791 0
vt 0.59853518009185791 0.83186846971511841
vt 0.20000000298023224 0
vt 0.20000000298023224 0.83186846971511841
vt 0.39853516221046448 0
vt 0.39853516221046448 0.83186846971511841
vt 0.80000001192092896 0
vt 0.80000001192092896 0.83186846971511841
vt 0.99853515625 0
vt 0.99853515625 0.83186846971511841
vt 0.60000002384185791 0
vt 0.60000002384185791 0.83186846971511841
vt 0.79853516817092896 0
vt 0.79853516817092896 0.83186846971511841
vt 0.19853515923023224 0.4166666567325592
vt 0 0.4166666567325592
vt 0.19853515923023224 0.61666667461395264
vt 0 0.61666667461395264
vt 0.19853515923023224 0
vt 0 0
vt 0.19853515923023224 0.20000000298023224
vt 0 0.20000000298023224
vn 0 0 1
vn 0 0 1
vn 0 0 1
vn 0 0 1
vn 1 0 0
vn 1 0 0
vn 1 0 0
vn 1 0 0
vn 0 0 -1
vn 0 0 -1
vn 0 0 -1
vn 0 0 -1
vn -1 0 0
vn -1 0 0
vn -1 0 0
vn -1 0 0
vn 0 -1 0
vn 0 -1 0
vn 0 -1 0
vn 0 -1 0
vn 0 1 0
vn 0 1 0
vn 0 1 0
vn 0 1 0
f 154/458/458 153/457/457 155/459/459 156/460/460
f 156/462/462 155/461/461 157/463/463 158/464/464
f 158/466/466 157/465/465 159/467/467 160/468/468
f 160/470/470 159/469/469 153/471/471 154/472/472
f 155/474/474 153/473/473 159/475/475 157/476/476
f 160/478/478 154/477/477 156/479/479 158/480/480
g object_21
v 81.322624206542969 2.5 -92.715370178222656
v 81.322624206542969 5 -92.715370178222656
v 81.922622680664062 2.5 -92.715370178222656
v 81.922622680664062 5 -92.715370178222656
v 81.922622680664062 2.5 -93.31536865234375
v 81.922622680664062 5 -93.31536865234375
v 81.322624206542969 2.5 -93.31536865234375
v 81.322624206542969 5 -93.31536865234375
vt 0.40000000596046448 0
vt 0.40000000596046448 0.83186846971511841
vt 0.59853518009185791 0
vt 0.59853518009185791 0.83186846971511841
vt 0.20000000298023224 0
vt 0.20000000298023224 0.83186846971511841
vt 0.39853516221046448 0
vt 0.39853516221046448 0.83186846971511841
vt 0.80000001192092896 0
vt 0.80000001192092896 0.83186846971511841
vt 0.99853515625 0
vt 0.99853515625 0.83186846971511841
vt 0.60000002384185791 0
vt 0.60000002384185791 0.83186846971511841
vt 0.79853516817092896 0
vt 0.79853516817092896 0.83186846971511841
vt 0.19853515923023224 0.4166666567325592
vt 0 0.4166666567325592
vt 0.19853515923023224 0.61666667461395264
vt 0 0.61666667461395264
vt 0.19853515923023224 0
vt 0 0
vt 0.19853515923023224 0.20000000298023224
vt 0 0.20000000298023224
vn 0 0 1
vn 0 0 1
vn 0 0 1
vn 0 0 1
vn 1 0 0
vn 1 0 0
vn 1 0 0
vn 1 0 0
vn 0 0 -1
vn 0 0 -1
vn 0 0 -1
vn 0 0 -1
vn -1 0 0
vn -1 0 0
vn -1 0 0
vn -1 0 0
vn 0 -1 0
vn 0 -1 0
vn 0 -1 0
vn 0 -1 0
vn 0 1 0
vn 0 1 0
vn 0 1 0
vn 0 1 0
f 162/482/482 161/481/481 163/483/483 164/484/484
f 164/486/486 163/485/485 165/487/487 166/488/488
f 166/490/490 165/489/489 167/491/491 168/492/492
f 168/494/494 167/493/493 161/495/495 162/496/496
f 163/498/498 161/497/497 167/499/499 165/500/500
f 168/502/502 162/501/501 164/503/503 166/504/504
g object_22
v 81.322624206542969 2.5 -88.766181945800781
v 81.322624206542969 5 -88.766181945800781
v 81.922622680664062 2.5 -88.766181945800781
v 81.922622680664062 5 -88.766181945800781
v 81.922622680664062 2.5 -89.366180419921875
v 81.922622680664062 5 -89.366180419921875
v 81.322624206542969 2.5 -89.366180419921875
v 81.322624206542969 5 -89.366180419921875
vt 0.40000000596046448 0
vt 0.40000000596046448 0.83186846971511841
vt 0.59853518009185791 0
vt 0.59853518009185791 0.83186846971511841
vt 0.20000000298023224 0
vt 0.20000000298023224 0.83186846971511841
vt 0.39853516221046448 0
vt 0.39853516221046448 0.83186846971511841
vt 0.80000001192092896 0
vt 0.80000001192092896 0.83186846971511841
vt 0.99853515625 0
vt 0.99853515625 0.83186846971511841
vt 0.60000002384185791 0
vt 0.60000002384185791 0.83186846971511841
vt 0.79853516817092896 0
vt 0.79853516817092896 0.83186846971511841
vt 0.19853515923023224 0.4166666567325592
vt 0 0.4166666567325592
vt 0.19853515923023224 0.61666667461395264
vt 0 0.61666667461395264
vt 0.19853515923023224 0
vt 0 0
vt 0.19853515923023224 0.20000000298023224
vt 0 0.20000000298023224
vn 0 0 1
vn 0 0 1
vn 0 0 1
vn 0 0 1
vn 1 0 0
vn 1 0 0
vn 1 0 0
vn 1 0 0
vn 0 0 -1
vn 0 0 -1
vn 0 0 -1
vn 0 0 -1
vn -1 0 0
vn -1 0 0
vn -1 0 0
vn -1 0 0
vn 0 -1 0
vn 0 -1 0
vn 0 -1 0
vn 0 -1 0
vn 0 1 0
vn 0 1 0
vn 0 1 0
vn 0 1 0
f 170/506/506 169/505/505 171/507/507 172/508/508
f 172/510/510 171/509/509 173/511/511 174/512/512
f 174/514/514 173/513/513 175/515/515 176/516/516
f 176/518/518 175/517/517 169/519/519 170/520/520
f 171/522/522 169/521/521 175/523/523 173/524/524
f 176/526/526 170/525/525 172/527/527 174/528/528
g object_23
v 81.322624206542969 2.5 -84.816993713378906
v 81.322624206542969 5 -84.816993713378906
v 81.922622680664062 2.5 -84.816993713378906
v 81.922622680664062 5 -84.816993713378906
v 81.922622680664062 2.5 -85.4169921875
v 81.922622680664062 5 -85.4169921875
v 81.322624206542969 2.5 -85.4169921875
v 81.322624206542969 5 -85.4169921875
vt 0.40000000596046448 0
vt 0.40000000596046448 0.83186846971511841
vt 0.59853518009185791 0
vt 0.59853518009185791 0.83186846971511841
vt 0.20000000298023224 0
vt 0.20000000298023224 0.83186846971511841
vt 0.39853516221046448 0
vt 0.39853516221046448 0.83186846971511841
vt 0.80000001192092896 0
vt 0.80000001192092896 0.83186846971511841
vt 0.99853515625 0
vt 0.99853515625 0.83186846971511841
vt 0.60000002384185791 0
vt 0.60000002384185791 0.83186846971511841
vt 0.79853516817092896 0
vt 0.79853516817092896 0.83186846971511841
vt 0.19853515923023224 0.4166666567325592
vt 0 0.4166666567325592
vt 0.19853515923023224 0.61666667461395264
vt 0 0.61666667461395264
vt 0.19853515923023224 0
vt 0 0
vt 0.19853515923023224 0.20000000298023224
vt 0 0.20000000298023224
vn 0 0 1
vn 0 0 1
vn 0 0 1
vn 0 0 1
vn 1 0 0
vn 1 0 0
vn 1 0 0
vn 1 0 0
vn 0 0 -1
vn 0 0 -1
vn 0 0 -1
vn 0 0 -1
vn -1 0 0
vn -1 0 0
vn -1 0 0
vn -1 0 0
vn 0 -1 0
vn 0 -1 0
vn 0 -1 0
vn 0 -1 0
vn 0 1 0
vn 0 1 0
vn 0 1 0
vn 0 1 0
f 178/530/530 177/529/529 179/531/531 180/532/532
f 180/534/534 179/533/533 181/535/535 182/536/536
f 182/538/538 181/537/537 183/539/539 184/540/540
f 184/542/542 183/541/541 177/543/543 178/544/544
f 179/546/546 177/545/545 183/547/547 181/548/548
f 184/550/550 178/549/549 180/551/551 182/552/552
g object_24
v 81.322624206542969 2.5 -80.8677978515625
v 81.322624206542969 5 -80.8677978515625
v 81.922622680664062 2.5 -80.8677978515625
v 81.922622680664062 5 -80.8677978515625
v 81.922622680664062 2.5 -81.467803955078125
v 81.922622680664062 5 -81.467803955078125
v 81.322624206542969 2.5 -81.467803955078125
v 81.322624206542969 5 -81.467803955078125
vt 0.40000000596046448 0
vt 0.40000000596046448 0.83186846971511841
vt 0.59853518009185791 0
vt 0.59853518009185791 0.83186846971511841
vt 0.20000000298023224 0
vt 0.20000000298023224 0.83186846971511841
vt 0.39853516221046448 0
vt 0.39853516221046448 0.83186846971511841
vt 0.80000001192092896 0
vt 0.80000001192092896 0.83186846971511841
vt 0.99853515625 0
vt 0.99853515625 0.83186846971511841
vt 0.60000002384185791 0
vt 0.60000002384185791 0.83186846971511841
vt 0.79853516817092896 0
vt 0.79853516817092896 0.83186846971511841
vt 0.19853515923023224 0.4166666567325592
vt 0 0.4166666567325592
vt 0.19853515923023224 0.61666667461395264
vt 0 0.61666667461395264
vt 0.19853515923023224 0
vt 0 0
vt 0.19853515923023224 0.20000000298023224
vt 0 0.20000000298023224
vn 0 0 1
vn 0 0 1
vn 0 0 1
vn 0 0 1
vn 1 0 0
vn 1 0 0
vn 1 0 0
vn 1 0 0
vn 0 0 -1
vn 0 0 -1
vn 0 0 -1
vn 0 0 -1
vn -1 0 0
vn -1 0 0
vn -1 0 0
vn -1 0 0
vn 0 -1 0
vn 0 -1 0
vn 0 -1 0
vn 0 -1 0
vn 0 1 0
vn 0 1 0
vn 0 1 0
vn 0 1 0
f 186/554/554 185/553/553 187/555/555 188/556/556
f 188/558/558 187/557/557 189/559/559 190/560/560
f 190/562/562 189/561/561 191/563/563 192/564/564
f 192/566/566 191/565/565 185/567/567 186/568/568
f 187/570/570 185/569/569 191/571/571 189/572/572
f 192/574/574 186/573/573 188/575/575 190/576/576
g object_25
v 85.950592041015625 2.5 -92.715370178222656
v 85.950592041015625 5 -92.715370178222656
v 86.55059814453125 2.5 -92.715370178222656
v 86.55059814453125 5 -92.715370178222656
v 86.55059814453125 2.5 -93.31536865234375
v 86.55059814453125 5 -93.31536865234375
v 85.950592041015625 2.5 -93.31536865234375
v 85.950592041015625 5 -93.31536865234375
vt 0.40000000596046448 0
vt 0.40000000596046448 0.83186846971511841
vt 0.59853518009185791 0
vt 0.59853518009185791 0.83186846971511841
vt 0.20000000298023224 0
vt 0.20000000298023224 0.83186846971511841
vt 0.39853516221046448 0
vt 0.39853516221046448 0.83186846971511841
vt 0.80000001192092896 0
vt 0.80000001192092896 0.83186846971511841
vt 0.99853515625 0
vt 0.99853515625 0.83186846971511841
vt 0.60000002384185791 0
vt 0.60000002384185791 0.83186846971511841
vt 0.79853516817092896 0
vt 0.79853516817092896 0.83186846971511841
vt 0.19853515923023224 0.4166666567325592
vt 0 0.4166666567325592
vt 0.19853515923023224 0.61666667461395264
vt 0 0.61666667461395264
vt 0.19853515923023224 0
vt 0 0
vt 0.19853515923023224 0.20000000298023224
vt 0 0.20000000298023224
vn 0 0 1
vn 0 0 1
vn 0 0 1
vn 0 0 1
vn 1 0 0
vn 1 0 0
vn 1 0 0
vn 1 0 0
vn 0 0 -1
vn 0 0 -1
vn 0 0 -1
vn 0 0 -1
vn -1 0 0
vn -1 0 0
vn -1 0 0
vn -1 0 0
vn 0 -1 0
vn 0 -1 0
vn 0 -1 0
vn 0 -1 0
vn 0 1 0
vn 0 1 0
vn 0 1 0
vn 0 1 0
f 194/578/578 193/577/577 195/579/579 196/580/580
f 196/582/582 195/581/581 197/583/583 198/584/584
f 198/586/586 197/585/585 199/587/587 200/588/588
f 200/590/590 199/589/589 193/591/591 194/592/592
f 195/594/594 193/593/593 199/595/595 197/596/596
f 200/598/598 194/597/597 196/599/599 198/600/600
g object_26
v 85.950592041015625 2.5 -88.766181945800781
v 85.950592041015625 5 -88.766181945800781
v 86.55059814453125 2.5 -88.766181945800781
v 86.55059814453125 5 -88.766181945800781
v 86.55059814453125 2.5 -89.366180419921875
v 86.55059814453125 5 -89.366180419921875
v 85.950592041015625 2.5 -89.366180419921875
v 85.950592041015625 5 -89.366180419921875
vt 0.40000000596046448 0
vt 0.40000000596046448 0.83186846971511841
vt 0.59853518009185791 0
vt 0.59853518009185791 0.83186846971511841
vt 0.20000000298023224 0
vt 0.20000000298023224 0.83186846971511841
vt 0.39853516221046448 0
vt 0.39853516221046448 0.83186846971511841
vt 0.80000001192092896 0
vt 0.80000001192092896 0.83186846971511841
vt 0.99853515625 0
vt 0.99853515625 0.83186846971511841
vt 0.60000002384185791 0
vt 0.60000002384185791 0.83186846971511841
vt 0.79853516817092896 0
vt 0.79853516817092896 0.83186846971511841
vt 0.19853515923023224 0.4166666567325592
vt 0 0.4166666567325592
vt 0.19853515923023224 0.61666667461395264
vt 0 0.61666667461395264
vt 0.19853515923023224 0
vt 0 0
vt 0.19853515923023224 0.20000000298023224
vt 0 0.20000000298023224
vn 0 0 1
vn 0 0 1
vn 0 0 1
vn 0 0 1
vn 1 0 0
vn 1 0 0
vn 1 0 0
vn 1 0 0
vn 0 0 -1
vn 0 0 -1
vn 0 0 -1
vn 0 0 -1
vn -1 0 0
vn -1 0 0
vn -1 0 0
vn -1 0 0
vn 0 -1 0
vn 0 -1 0
vn 0 -1 0
vn 0 -1 0
vn 0 1 0
vn 0 1 0
vn 0 1 0
vn 0 1 0
f 202/602/602 201/601/601 203/603/603 204/604/604
f 204/606/606 203/605/605 205/607/607 206/608/608
f 206/610/610 205/609/609 207/611/611 208/612/612
f 208/614/614 207/613/613 201/615/615 202/616/616
f 203/618/618 201/617/617 207/619/619 205/620/620
f 208/622/622 202/621/621 204/623/623 206/624/624
g object_27
v 85.950592041015625 2.5 -84.816993713378906
v 85.950592041015625 5 -84.816993713378906
v 86.55059814453125 2.5 -84.816993713378906
v 86.55059814453125 5 -84.816993713378906
v 86.55059814453125 2.5 -85.4169921875
v 86.55059814453125 5 -85.4169921875
v 85.950592041015625 2.5 -85.4169921875
v 85.950592041015625 5 -85.4169921875
vt 0.40000000596046448 0
vt 0.40000000596046448 0.83186846971511841
vt 0.59853518009185791 0
vt 0.59853518009185791 0.83186846971511841
vt 0.20000000298023224 0
vt 0.20000000298023224 0.83186846971511841
vt 0.39853516221046448 0
vt 0.39853516221046448 0.83186846971511841
vt 0.80000001192092896 0
vt 0.80000001192092896 0.83186846971511841
vt 0.99853515625 0
vt 0.99853515625 0.83186846971511841
vt 0.60000002384185791 0
vt 0.60000002384185791 0.83186846971511841
vt 0.79853516817092896 0
vt 0.79853516817092896 0.83186846971511841
vt 0.19853515923023224 0.4166666567325592
vt 0 0.4166666567325592
vt 0.19853515923023224 0.61666667461395264
vt 0 0.61666667461395264
vt 0.19853515923023224 0
vt 0 0
vt 0.19853515923023224 0.20000000298023224
vt 0 0.20000000298023224
vn 0 0 1
vn 0 0 1
vn 0 0 1
vn 0 0 1
vn 1 0 0
vn 1 0 0
vn 1 0 0
vn 1 0 0
vn 0 0 -1
vn 0 0 -1
vn 0 0 -1
vn 0 0 -1
vn -1 0 0
vn -1 0 0
vn -1 0 0
vn -1 0 0
vn 0 -1 0
vn 0 -1 0
vn 0 -1 0
vn 0 -1 0
vn 0 1 0
vn 0 1 0
vn 0 1 0
vn 0 1 0
f 210/626/626 209/625/625 211/627/627 212/628/628
f 212/630/630 211/629/629 213/631/631 214/632/632
f 214/634/634 213/633/633 215/635/635 216/636/636
f 216/638/638 215/637/637 209/639/639 210/640/640
f 211/642/642 209/641/641 215/643/643 213/644/644
f 216/646/646 210/645/645 212/647/647 214/648/648
g object_28
v 85.950592041015625 2.5 -80.8677978515625
v 85.950592041015625 5 -80.8677978515625
v 86.55059814453125 2.5 -80.8677978515625
v 86.55059814453125 5 -80.8677978515625
v 86.55059814453125 2.5 -81.467803955078125
v 86.55059814453125 5 -81.467803955078125
v 85.950592041015625 2.5 -81.467803955078125
v 85.950592041015625 5 -81.467803955078125
vt 0.40000000596046448 0
vt 0.40000000596046448 0.83186846971511841
vt 0.59853518009185791 0
vt 0.59853518009185791 0.83186846971511841
vt 0.20000000298023224 0
vt 0.20000000298023224 0.83186846971511841
vt 0.39853516221046448 0
vt 0.39853516221046448 0.83186846971511841
vt 0.80000001192092896 0
vt 0.80000001192092896 0.83186846971511841
vt 0.99853515625 0
vt 0.99853515625 0.83186846971511841
vt 0.60000002384185791 0
vt 0.60000002384185791 0.83186846971511841
vt 0.79853516817092896 0
vt 0.79853516817092896 0.83186846971511841
vt 0.19853515923023224 0.4166666567325592
vt 0 0.4166666567325592
vt 0.19853515923023224 0.61666667461395264
vt 0 0.61666667461395264
vt 0.19853515923023224 0
vt 0 0
vt 0.19853515923023224 0.20000000298023224
vt 0 0.20000000298023224
vn 0 0 1
vn 0 0 1
vn 0 0 1
vn 0 0 1
vn 1 0 0
vn 1 0 0
vn 1 0 0
vn 1 0 0
vn 0 0 -1
vn 0 0 -1
vn 0 0 -1
vn 0 0 -1
vn -1 0 0
vn -1 0 0
vn -1 0 0
vn -1 0 0
vn 0 -1 0
vn 0 -1 0
vn 0 -1 0
vn 0 -1 0
vn 0 1 0
vn 0 1 0
vn 0 1 0
vn 0 1 0
f 218/650/650 217/649/649 219/651/651 220/652/652
f 220/654/654 219/653/653 221/655/655 222/656/656
f 222/658/658 221/657/657 223/659/659 224/660/660
f 224/662/662 223/661/661 217/663/663 218/664/664
f 219/666/666 217/665/665 223/667/667 221/668/668
f 224/670/670 218/669/669 220/671/671 222/672/672
g object_29
v 89.931045532226562 2.5 -80.8677978515625
v 89.931045532226562 5 -80.8677978515625
v 90.531044006347656 2.5 -80.8677978515625
v 90.531044006347656 5 -80.8677978515625
v 90.531044006347656 2.5 -81.467803955078125
v 90.531044006347656 5 -81.467803955078125
v 89.931045532226562 2.5 -81.467803955078125
v 89.931045532226562 5 -81.467803955078125
vt 0.40000000596046448 0
vt 0.40000000596046448 0.83186846971511841
vt 0.59853518009185791 0
vt 0.59853518009185791 0.83186846971511841
vt 0.20000000298023224 0
vt 0.20000000298023224 0.83186846971511841
vt 0.39853516221046448 0
vt 0.39853516221046448 0.83186846971511841
vt 0.80000001192092896 0
vt 0.80000001192092896 0.83186846971511841
vt 0.99853515625 0
vt 0.99853515625 0.83186846971511841
vt 0.60000002384185791 0
vt 0.60000002384185791 0.83186846971511841
vt 0.79853516817092896 0
vt 0.79853516817092896 0.83186846971511841
vt 0.19853515923023224 0.4166666567325592
vt 0 0.4166666567325592
vt 0.19853515923023224 0.61666667461395264
vt 0 0.61666667461395264
vt 0.19853515923023224 0
vt 0 0
vt 0.19853515923023224 0.20000000298023224
vt 0 0.20000000298023224
vn 0 0 1
vn 0 0 1
vn 0 0 1
vn 0 0 1
vn 1 0 0
vn 1 0 0
vn 1 0 0
vn 1 0 0
vn 0 0 -1
vn 0 0 -1
vn 0 0 -1
vn 0 0 -1
vn -1 0 0
vn -1 0 0
vn -1 0 0
vn -1 0 0
vn 0 -1 0
vn 0 -1 0
vn 0 -1 0
vn 0 -1 0
vn 0 1 0
vn 0 1 0
vn 0 1 0
vn 0 1 0
f 226/674/674 225/673/673 227/675/675 228/676/676
f 228/678/678 227/677/677 229/679/679 230/680/680
f 230/682/682 229/681/681 231/683/683 232/684/684
f 232/686/686 231/685/685 225/687/687 226/688/688
f 227/690/690 225/689/689 231/691/691 229/692/692
f 232/694/694 226/693/693 228/695/695 230/696/696
g object_30
v 89.931045532226562 2.5 -84.816993713378906
v 89.931045532226562 5 -84.816993713378906
v 90.531044006347656 2.5 -84.816993713378906
v 90.531044006347656 5 -84.816993713378906
v 90.531044006347656 2.5 -85.4169921875
v 90.531044006347656 5 -85.4169921875
v 89.931045532226562 2.5 -85.4169921875
v 89.931045532226562 5 -85.4169921875
vt 0.40000000596046448 0
vt 0.40000000596046448 0.83186846971511841
vt 0.59853518009185791 0
vt 0.59853518009185791 0.83186846971511841
vt 0.20000000298023224 0
vt 0.20000000298023224 0.83186846971511841
vt 0.39853516221046448 0
vt 0.39853516221046448 0.83186846971511841
vt 0.80000001192092896 0
vt 0.80000001192092896 0.83186846971511841
vt 0.99853515625 0
vt 0.99853515625 0.83186846971511841
vt 0.60000002384185791 0
vt 0.60000002384185791 0.83186846971511841
vt 0.79853516817092896 0
vt 0.79853516817092896 0.83186846971511841
vt 0.19853515923023224 0.4166666567325592
vt 0 0.4166666567325592
vt 0.19853515923023224 0.61666667461395264
vt 0 0.61666667461395264
vt 0.19853515923023224 0
vt 0 0
vt 0.19853515923023224 0.20000000298023224
vt 0 0.20000000298023224
vn 0 0 1
vn 0 0 1
vn 0 0 1
vn 0 0 1
vn 1 0 0
vn 1 0 0
vn 1 0 0
vn 1 0 0
vn 0 0 -1
vn 0 0 -1
vn 0 0 -1
vn 0 0 -1
vn -1 0 0
vn -1 0 0
vn -1 0 0
vn -1 0 0
vn 0 -1 0
vn 0 -1 0
vn 0 -1 0
vn 0 -1 0
vn 0 1 0
vn 0 1 0
vn 0 1 0
vn 0 1 0
f 234/698/698 233/697/697 235/699/699 236/700/700
f 236/702/702 235/701/701 237/703/703 238/704/704
f 238/706/706 237/705/705 239/707/707 240/708/708
f 240/710/710 239/709/709 233/711/711 234/712/712
f 235/714/714 233/713/713 239/715/715 237/716/716
f 240/718/718 234/717/717 236/719/719 238/720/720
g object_31
v 89.931045532226562 2.5 -88.766181945800781
v 89.931045532226562 5 -88.766181945800781
v 90.531044006347656 2.5 -88.766181945800781
v 90.531044006347656 5 -88.766181945800781
v 90.531044006347656 2.5 -89.366180419921875
v 90.531044006347656 5 -89.366180419921875
v 89.931045532226562 2.5 -89.366180419921875
v 89.931045532226562 5 -89.366180419921875
vt 0.40000000596046448 0
vt 0.40000000596046448 0.83186846971511841
vt 0.59853518009185791 0
vt 0.59853518009185791 0.83186846971511841
vt 0.20000000298023224 0
vt 0.20000000298023224 0.83186846971511841
vt 0.39853516221046448 0
vt 0.39853516221046448 0.83186846971511841
vt 0.80000001192092896 0
vt 0.80000001192092896 0.83186846971511841
vt 0.99853515625 0
vt 0.99853515625 0.83186846971511841
vt 0.60000002384185791 0
vt 0.60000002384185791 0.83186846971511841
vt 0.79853516817092896 0
vt 0.79853516817092896 0.83186846971511841
vt 0.19853515923023224 0.4166666567325592
vt 0 0.4166666567325592
vt 0.19853515923023224 0.61666667461395264
vt 0 0.61666667461395264
vt 0.19853515923023224 0
vt 0 0
vt 0.19853515923023224 0.20000000298023224
vt 0 0.20000000298023224
vn 0 0 1
vn 0 0 1
vn 0 0 1
vn 0 0 1
vn 1 0 0
vn 1 0 0
vn 1 0 0
vn 1 0 0
vn 0 0 -1
vn 0 0 -1
vn 0 0 -1
vn 0 0 -1
vn -1 0 0
vn -1 0 0
vn -1 0 0
vn -1 0 0
vn 0 -1 0
vn 0 -1 0
vn 0 -1 0
vn 0 -1 0
vn 0 1 0
vn 0 1 0
vn 0 1 0
vn 0 1 0
f 242/722/722 241/721/721 243/723/723 244/724/724
f 244/726/726 243/725/725 245/727/727 246/728/728
f 246/730/730 245/729/729 247/731/731 248/732/732
f 248/734/734 247/733/733 241/735/735 242/736/736
f 243/738/738 241/737/737 247/739/739 245/740/740
f 248/742/742 242/741/741 244/743/743 246/744/744
g object_32
v 89.931045532226562 2.5 -92.715370178222656
v 89.931045532226562 5 -92.715370178222656
v 90.531044006347656 2.5 -92.715370178222656
v 90.531044006347656 5 -92.715370178222656
v 90.531044006347656 2.5 -93.31536865234375
v 90.531044006347656 5 -93.31536865234375
v 89.931045532226562 2.5 -93.31536865234375
v 89.931045532226562 5 -93.31536865234375
vt 0.40000000596046448 0
vt 0.40000000596046448 0.83186846971511841
vt 0.59853518009185791 0
vt 0.59853518009185791 0.83186846971511841
vt 0.20000000298023224 0
vt 0.20000000298023224 0.83186846971511841
vt 0.39853516221046448 0
vt 0.39853516221046448 0.83186846971511841
vt 0.80000001192092896 0
vt 0.80000001192092896 0.83186846971511841
vt 0.99853515625 0
vt 0.99853515625 0.83186846971511841
vt 0.60000002384185791 0
vt 0.60000002384185791 0.83186846971511841
vt 0.79853516817092896 0
vt 0.79853516817092896 0.83186846971511841
vt 0.19853515923023224 0.4166666567325592
vt 0 0.4166666567325592
vt 0.19853515923023224 0.61666667461395264
vt 0 0.61666667461395264
vt 0.19853515923023224 0
vt 0 0
vt 0.19853515923023224 0.20000000298023224
vt 0 0.20000000298023224
vn 0 0 1
vn 0 0 1
vn 0 0 1
vn 0 0 1
vn 1 0 0
vn 1 0 0
vn 1 0 0
vn 1 0 0
vn 0 0 -1
vn 0 0 -1
vn 0 0 -1
vn 0 0 -1
vn -1 0 0
vn -1 0 0
vn -1 0 0
vn -1 0 0
vn 0 -1 0
vn 0 -1 0
vn 0 -1 0
vn 0 -1 0
vn 0 1 0
vn 0 1 0
vn 0 1 0
vn 0 1 0
f 250/746/746 249/745/745 251/747/747 252/748/748
f 252/750/750 251/749/749 253/751/751 254/752/752
f 254/754/754 253/753/753 255/755/755 256/756/756
f 256/758/758 255/757/757 249/759/759 250/760/760
f 251/762/762 249/761/761 255/763/763 253/764/764
f 256/766/766 250/765/765 252/767/767 254/768/768
