# Rhino

g object_1
v 90.062957763671875 5 -77.218612670898438
v 90.062957763671875 8 -77.218612670898438
v 90.062957763671875 5 -96.964561462402344
v 90.062957763671875 8 -96.964561462402344
v 86.562957763671875 5 -96.964561462402344
v 86.562957763671875 8 -96.964561462402344
v 86.562957763671875 5 -77.218612670898438
v 86.562957763671875 8 -77.218612670898438
vt 0 0
vt 0 0.64999955892562866
vt 0.25 0
vt 0.25 0.64999955892562866
vt 0.25 0
vt 0.25 0.64999955892562866
vt 0.5 0
vt 0.5 0.64999955892562866
vt 0.5 0
vt 0.5 0.64999955892562866
vt 0.75 0
vt 0.75 0.64999955892562866
vt 0.75 0
vt 0.75 0.64999955892562866
vt 1 0
vt 1 0.64999955892562866
vt 0.42471808195114136 0.65000021457672119
vt 0 0.65000021457672119
vt 0 1
vt 0.42471808195114136 1
vt 1 1
vt 0.57528191804885864 1
vt 0.57528191804885864 0.65000021457672119
vt 1 0.65000021457672119
vn 1 0 0
vn 1 0 0
vn 1 0 0
vn 1 0 0
vn 0 0 -1
vn 0 0 -1
vn 0 0 -1
vn 0 0 -1
vn -1 0 0
vn -1 0 0
vn -1 0 0
vn -1 0 0
vn 0 0 1
vn 0 0 1
vn 0 0 1
vn 0 0 1
vn 0 -1 0
vn 0 -1 0
vn 0 -1 0
vn 0 -1 0
vn 0 1 0
vn 0 1 0
vn 0 1 0
vn 0 1 0
f 1/17/17 7/20/20 5/19/19 3/18/18
f 6/23/23 8/24/24 2/21/21 4/22/22
f 1/1/1 3/3/3 4/4/4 2/2/2
f 3/5/5 5/7/7 6/8/8 4/6/6
f 5/9/9 7/11/11 8/12/12 6/10/10
f 7/13/13 1/15/15 2/16/16 8/14/14
g object_2
v 90.062957763671875 8 -77.218612670898438
v 90.062957763671875 11 -77.218612670898438
v 90.062957763671875 8 -96.964561462402344
v 90.062957763671875 11 -96.964561462402344
v 86.562957763671875 8 -96.964561462402344
v 86.562957763671875 11 -96.964561462402344
v 86.562957763671875 8 -77.218612670898438
v 86.562957763671875 11 -77.218612670898438
vt 0 0
vt 0 0.64999955892562866
vt 0.25 0
vt 0.25 0.64999955892562866
vt 0.25 0
vt 0.25 0.64999955892562866
vt 0.5 0
vt 0.5 0.64999955892562866
vt 0.5 0
vt 0.5 0.64999955892562866
vt 0.75 0
vt 0.75 0.64999955892562866
vt 0.75 0
vt 0.75 0.64999955892562866
vt 1 0
vt 1 0.64999955892562866
vt 0.42471808195114136 0.65000021457672119
vt 0 0.65000021457672119
vt 0 1
vt 0.42471808195114136 1
vt 1 1
vt 0.57528191804885864 1
vt 0.57528191804885864 0.65000021457672119
vt 1 0.65000021457672119
vn 1 0 0
vn 1 0 0
vn 1 0 0
vn 1 0 0
vn 0 0 -1
vn 0 0 -1
vn 0 0 -1
vn 0 0 -1
vn -1 0 0
vn -1 0 0
vn -1 0 0
vn -1 0 0
vn 0 0 1
vn 0 0 1
vn 0 0 1
vn 0 0 1
vn 0 -1 0
vn 0 -1 0
vn 0 -1 0
vn 0 -1 0
vn 0 1 0
vn 0 1 0
vn 0 1 0
vn 0 1 0
f 9/41/41 15/44/44 13/43/43 11/42/42
f 14/47/47 16/48/48 10/45/45 12/46/46
f 9/25/25 11/27/27 12/28/28 10/26/26
f 11/29/29 13/31/31 14/32/32 12/30/30
f 13/33/33 15/35/35 16/36/36 14/34/34
f 15/37/37 9/39/39 10/40/40 16/38/38
g object_3
v 90.062957763671875 11 -77.218612670898438
v 90.062957763671875 14 -77.218612670898438
v 90.062957763671875 11 -96.964561462402344
v 90.062957763671875 14 -96.964561462402344
v 86.562957763671875 11 -96.964561462402344
v 86.562957763671875 14 -96.964561462402344
v 86.562957763671875 11 -77.218612670898438
v 86.562957763671875 14 -77.218612670898438
vt 0 0
vt 0 0.64999955892562866
vt 0.25 0
vt 0.25 0.64999955892562866
vt 0.25 0
vt 0.25 0.64999955892562866
vt 0.5 0
vt 0.5 0.64999955892562866
vt 0.5 0
vt 0.5 0.64999955892562866
vt 0.75 0
vt 0.75 0.64999955892562866
vt 0.75 0
vt 0.75 0.64999955892562866
vt 1 0
vt 1 0.64999955892562866
vt 0.42471808195114136 0.65000021457672119
vt 0 0.65000021457672119
vt 0 1
vt 0.42471808195114136 1
vt 1 1
vt 0.57528191804885864 1
vt 0.57528191804885864 0.65000021457672119
vt 1 0.65000021457672119
vn 1 0 0
vn 1 0 0
vn 1 0 0
vn 1 0 0
vn 0 0 -1
vn 0 0 -1
vn 0 0 -1
vn 0 0 -1
vn -1 0 0
vn -1 0 0
vn -1 0 0
vn -1 0 0
vn 0 0 1
vn 0 0 1
vn 0 0 1
vn 0 0 1
vn 0 -1 0
vn 0 -1 0
vn 0 -1 0
vn 0 -1 0
vn 0 1 0
vn 0 1 0
vn 0 1 0
vn 0 1 0
f 17/65/65 23/68/68 21/67/67 19/66/66
f 22/71/71 24/72/72 18/69/69 20/70/70
f 17/49/49 19/51/51 20/52/52 18/50/50
f 19/53/53 21/55/55 22/56/56 20/54/54
f 21/57/57 23/59/59 24/60/60 22/58/58
f 23/61/61 17/63/63 18/64/64 24/62/62
g object_4
v 90.062957763671875 14 -77.218612670898438
v 90.062957763671875 17 -77.218612670898438
v 90.062957763671875 14 -96.964561462402344
v 90.062957763671875 17 -96.964561462402344
v 86.562957763671875 14 -96.964561462402344
v 86.562957763671875 17 -96.964561462402344
v 86.562957763671875 14 -77.218612670898438
v 86.562957763671875 17 -77.218612670898438
vt 0 0
vt 0 0.64999955892562866
vt 0.25 0
vt 0.25 0.64999955892562866
vt 0.25 0
vt 0.25 0.64999955892562866
vt 0.5 0
vt 0.5 0.64999955892562866
vt 0.5 0
vt 0.5 0.64999955892562866
vt 0.75 0
vt 0.75 0.64999955892562866
vt 0.75 0
vt 0.75 0.64999955892562866
vt 1 0
vt 1 0.64999955892562866
vt 0.42471808195114136 0.65000021457672119
vt 0 0.65000021457672119
vt 0 1
vt 0.42471808195114136 1
vt 1 1
vt 0.57528191804885864 1
vt 0.57528191804885864 0.65000021457672119
vt 1 0.65000021457672119
vn 1 0 0
vn 1 0 0
vn 1 0 0
vn 1 0 0
vn 0 0 -1
vn 0 0 -1
vn 0 0 -1
vn 0 0 -1
vn -1 0 0
vn -1 0 0
vn -1 0 0
vn -1 0 0
vn 0 0 1
vn 0 0 1
vn 0 0 1
vn 0 0 1
vn 0 -1 0
vn 0 -1 0
vn 0 -1 0
vn 0 -1 0
vn 0 1 0
vn 0 1 0
vn 0 1 0
vn 0 1 0
f 25/89/89 31/92/92 29/91/91 27/90/90
f 30/95/95 32/96/96 26/93/93 28/94/94
f 25/73/73 27/75/75 28/76/76 26/74/74
f 27/77/77 29/79/79 30/80/80 28/78/78
f 29/81/81 31/83/83 32/84/84 30/82/82
f 31/85/85 25/87/87 26/88/88 32/86/86
g object_5
v 90.062957763671875 17 -77.218612670898438
v 90.062957763671875 20 -77.218612670898438
v 90.062957763671875 17 -96.964561462402344
v 90.062957763671875 20 -96.964561462402344
v 86.562957763671875 17 -96.964561462402344
v 86.562957763671875 20 -96.964561462402344
v 86.562957763671875 17 -77.218612670898438
v 86.562957763671875 20 -77.218612670898438
vt 0 0
vt 0 0.64999955892562866
vt 0.25 0
vt 0.25 0.64999955892562866
vt 0.25 0
vt 0.25 0.64999955892562866
vt 0.5 0
vt 0.5 0.64999955892562866
vt 0.5 0
vt 0.5 0.64999955892562866
vt 0.75 0
vt 0.75 0.64999955892562866
vt 0.75 0
vt 0.75 0.64999955892562866
vt 1 0
vt 1 0.64999955892562866
vt 0.42471808195114136 0.65000021457672119
vt 0 0.65000021457672119
vt 0 1
vt 0.42471808195114136 1
vt 1 1
vt 0.57528191804885864 1
vt 0.57528191804885864 0.65000021457672119
vt 1 0.65000021457672119
vn 1 0 0
vn 1 0 0
vn 1 0 0
vn 1 0 0
vn 0 0 -1
vn 0 0 -1
vn 0 0 -1
vn 0 0 -1
vn -1 0 0
vn -1 0 0
vn -1 0 0
vn -1 0 0
vn 0 0 1
vn 0 0 1
vn 0 0 1
vn 0 0 1
vn 0 -1 0
vn 0 -1 0
vn 0 -1 0
vn 0 -1 0
vn 0 1 0
vn 0 1 0
vn 0 1 0
vn 0 1 0
f 33/113/113 39/116/116 37/115/115 35/114/114
f 38/119/119 40/120/120 34/117/117 36/118/118
f 33/97/97 35/99/99 36/100/100 34/98/98
f 35/101/101 37/103/103 38/104/104 36/102/102
f 37/105/105 39/107/107 40/108/108 38/106/106
f 39/109/109 33/111/111 34/112/112 40/110/110
g object_6
v 90.062957763671875 20 -77.218612670898438
v 90.062957763671875 23 -77.218612670898438
v 90.062957763671875 20 -96.964561462402344
v 90.062957763671875 23 -96.964561462402344
v 86.562957763671875 20 -96.964561462402344
v 86.562957763671875 23 -96.964561462402344
v 86.562957763671875 20 -77.218612670898438
v 86.562957763671875 23 -77.218612670898438
vt 0 0
vt 0 0.64999955892562866
vt 0.25 0
vt 0.25 0.64999955892562866
vt 0.25 0
vt 0.25 0.64999955892562866
vt 0.5 0
vt 0.5 0.64999955892562866
vt 0.5 0
vt 0.5 0.64999955892562866
vt 0.75 0
vt 0.75 0.64999955892562866
vt 0.75 0
vt 0.75 0.64999955892562866
vt 1 0
vt 1 0.64999955892562866
vt 0.42471808195114136 0.65000021457672119
vt 0 0.65000021457672119
vt 0 1
vt 0.42471808195114136 1
vt 1 1
vt 0.57528191804885864 1
vt 0.57528191804885864 0.65000021457672119
vt 1 0.65000021457672119
vn 1 0 0
vn 1 0 0
vn 1 0 0
vn 1 0 0
vn 0 0 -1
vn 0 0 -1
vn 0 0 -1
vn 0 0 -1
vn -1 0 0
vn -1 0 0
vn -1 0 0
vn -1 0 0
vn 0 0 1
vn 0 0 1
vn 0 0 1
vn 0 0 1
vn 0 -1 0
vn 0 -1 0
vn 0 -1 0
vn 0 -1 0
vn 0 1 0
vn 0 1 0
vn 0 1 0
vn 0 1 0
f 41/137/137 47/140/140 45/139/139 43/138/138
f 46/143/143 48/144/144 42/141/141 44/142/142
f 41/121/121 43/123/123 44/124/124 42/122/122
f 43/125/125 45/127/127 46/128/128 44/126/126
f 45/129/129 47/131/131 48/132/132 46/130/130
f 47/133/133 41/135/135 42/136/136 48/134/134
g object_7
v 81.312957763671875 0 -73.218612670898438
v 81.312957763671875 24 -73.218612670898438
v 95.312957763671875 0 -73.218612670898438
v 95.312957763671875 24 -73.218612670898438
v 95.312957763671875 0 -77.218612670898438
v 95.312957763671875 24 -77.218612670898438
v 81.312957763671875 0 -77.218612670898438
v 81.312957763671875 24 -77.218612670898438
vt 0.3888888955116272 0
vt 0.3888888955116272 0.66666668653488159
vt 0.77631294727325439 0
vt 0.77631294727325439 0.66666668653488159
vt 0.8888888955116272 0
vt 0.8888888955116272 0.66666668653488159
vt 0.99853515625 0
vt 0.99853515625 0.66666668653488159
vt 0 0.2222222238779068
vt 0 0.8874240517616272
vt 0.3874240517616272 0.2222222238779068
vt 0.3874240517616272 0.8874240517616272
vt 0.77777779102325439 0
vt 0.77777779102325439 0.66666668653488159
vt 0.8874240517616272 0
vt 0.8874240517616272 0.66666668653488159
vt 0.3874240517616272 0.1111111119389534
vt 0 0.1111111119389534
vt 0.3874240517616272 0.2207573801279068
vt 0 0.2207573801279068
vt 0 0
vt 0 0.1096462681889534
vt 0.3874240517616272 0
vt 0.3874240517616272 0.1096462681889534
vn 0 0 1
vn 0 0 1
vn 0 0 1
vn 0 0 1
vn 1 0 0
vn 1 0 0
vn 1 0 0
vn 1 0 0
vn 0 0 -1
vn 0 0 -1
vn 0 0 -1
vn 0 0 -1
vn -1 0 0
vn -1 0 0
vn -1 0 0
vn -1 0 0
vn 0 -1 0
vn 0 -1 0
vn 0 -1 0
vn 0 -1 0
vn 0 1 0
vn 0 1 0
vn 0 1 0
vn 0 1 0
f 50/146/146 49/145/145 51/147/147 52/148/148
f 52/150/150 51/149/149 53/151/151 54/152/152
f 54/154/154 53/153/153 55/155/155 56/156/156
f 56/158/158 55/157/157 49/159/159 50/160/160
f 51/162/162 49/161/161 55/163/163 53/164/164
f 56/166/166 50/165/165 52/167/167 54/168/168
