# Rhino

v 102.10978698730469 0 -25.217739105224609
v 101.30978393554688 0 -25.217739105224609
v 102.10978698730469 2.2999999523162842 -25.217739105224609
v 101.30978393554688 2.2999999523162842 -25.217739105224609
vt 0 0
vt 0 1
vt 1 0
vt 1 1
vn 0 0 1
vn 0 0 1
vn 0 0 1
vn 0 0 1
f 4/4/4 2/2/2 1/1/1 3/3/3
v 105.55390167236328 0 -25.217739105224609
v 104.75389862060547 0 -25.217739105224609
v 105.55390167236328 2.2999999523162842 -25.217739105224609
v 104.75389862060547 2.2999999523162842 -25.217739105224609
vt 0 0
vt 0 1
vt 1 0
vt 1 1
vn 0 0 1
vn 0 0 1
vn 0 0 1
vn 0 0 1
f 8/8/8 6/6/6 5/5/5 7/7/7
v 109.20095825195312 0 -25.217739105224609
v 108.40096282958984 0 -25.217739105224609
v 109.20095825195312 2.2999999523162842 -25.217739105224609
v 108.40096282958984 2.2999999523162842 -25.217739105224609
vt 0 0
vt 0 1
vt 1 0
vt 1 1
vn 0 0 1
vn 0 0 1
vn 0 0 1
vn 0 0 1
f 12/12/12 10/10/10 9/9/9 11/11/11
v 93.0445556640625 0 -2.5033082962036133
v 92.244552612304688 0 -2.5033082962036133
v 93.0445556640625 2.2999999523162842 -2.5033082962036133
v 92.244552612304688 2.2999999523162842 -2.5033082962036133
vt 0 0
vt 0 1
vt 1 0
vt 1 1
vn 0 0 1
vn 0 0 1
vn 0 0 1
vn 0 0 1
f 16/16/16 14/14/14 13/13/13 15/15/15
v 103.47817230224609 0 -2.5033082962036133
v 102.67816925048828 0 -2.5033082962036133
v 103.47817230224609 2.2999999523162842 -2.5033082962036133
v 102.67816925048828 2.2999999523162842 -2.5033082962036133
vt 0 0
vt 0 1
vt 1 0
vt 1 1
vn 0 0 1
vn 0 0 1
vn 0 0 1
vn 0 0 1
f 20/20/20 18/18/18 17/17/17 19/19/19
v 115.54633331298828 0 -2.5033082962036133
v 114.74633026123047 0 -2.5033082962036133
v 115.54633331298828 2.2999999523162842 -2.5033082962036133
v 114.74633026123047 2.2999999523162842 -2.5033082962036133
vt 0 0
vt 0 1
vt 1 0
vt 1 1
vn 0 0 1
vn 0 0 1
vn 0 0 1
vn 0 0 1
f 24/24/24 22/22/22 21/21/21 23/23/23
v 105.60579681396484 0 -1.3226373195648193
v 105.60579681396484 0 -0.52263724803924561
v 105.60579681396484 2.2999999523162842 -1.3226373195648193
v 105.60579681396484 2.2999999523162842 -0.52263724803924561
vt 0 0
vt 0 1
vt 1 0
vt 1 1
vn 1 0 0
vn 1 0 0
vn 1 0 0
vn 1 0 0
f 28/28/28 26/26/26 25/25/25 27/27/27
v 125.77035522460938 0 -2.5033082962036133
v 124.97035980224609 0 -2.5033082962036133
v 125.77035522460938 2.2999999523162842 -2.5033082962036133
v 124.97035980224609 2.2999999523162842 -2.5033082962036133
vt 0 0
vt 0 1
vt 1 0
vt 1 1
vn 0 0 1
vn 0 0 1
vn 0 0 1
vn 0 0 1
f 32/32/32 30/30/30 29/29/29 31/31/31
v 127.73728942871094 0 -0.88551944494247437
v 127.73728942871094 0 -0.085519418120384216
v 127.73728942871094 2.2999999523162842 -0.88551944494247437
v 127.73728942871094 2.2999999523162842 -0.085519418120384216
vt 0 0
vt 0 1
vt 1 0
vt 1 1
vn 1 0 0
vn 1 0 0
vn 1 0 0
vn 1 0 0
f 36/36/36 34/34/34 33/33/33 35/35/35
v 122.48090362548828 0 -0.88551944494247437
v 122.48090362548828 0 -0.085519418120384216
v 122.48090362548828 2.2999999523162842 -0.88551944494247437
v 122.48090362548828 2.2999999523162842 -0.085519418120384216
vt 0 0
vt 0 1
vt 1 0
vt 1 1
vn 1 0 0
vn 1 0 0
vn 1 0 0
vn 1 0 0
f 40/40/40 38/38/38 37/37/37 39/39/39
v 90.331748962402344 0 -0.88551944494247437
v 90.331748962402344 0 -0.085519418120384216
v 90.331748962402344 2.2999999523162842 -0.88551944494247437
v 90.331748962402344 2.2999999523162842 -0.085519418120384216
vt 0 0
vt 0 1
vt 1 0
vt 1 1
vn 1 0 0
vn 1 0 0
vn 1 0 0
vn 1 0 0
f 44/44/44 42/42/42 41/41/41 43/43/43
v 100.018310546875 0 -1.2852135896682739
v 100.018310546875 0 -0.48521363735198975
v 100.018310546875 2.2999999523162842 -1.2852135896682739
v 100.018310546875 2.2999999523162842 -0.48521363735198975
vt 0 0
vt 0 1
vt 1 0
vt 1 1
vn 1 0 0
vn 1 0 0
vn 1 0 0
vn 1 0 0
f 48/48/48 46/46/46 45/45/45 47/47/47
v 90.373130798339844 0 -6.2716150283813477
v 89.573127746582031 0 -6.2716150283813477
v 90.373130798339844 2.2999999523162842 -6.2716150283813477
v 89.573127746582031 2.2999999523162842 -6.2716150283813477
vt 0 0
vt 0 1
vt 1 0
vt 1 1
vn 0 0 1
vn 0 0 1
vn 0 0 1
vn 0 0 1
f 52/52/52 50/50/50 49/49/49 51/51/51
v 96.894287109375 0 -6.2716150283813477
v 96.094291687011719 0 -6.2716150283813477
v 96.894287109375 2.2999999523162842 -6.2716150283813477
v 96.094291687011719 2.2999999523162842 -6.2716150283813477
vt 0 0
vt 0 1
vt 1 0
vt 1 1
vn 0 0 1
vn 0 0 1
vn 0 0 1
vn 0 0 1
f 56/56/56 54/54/54 53/53/53 55/55/55
v 102.54969024658203 0 -6.2716150283813477
v 101.74969482421875 0 -6.2716150283813477
v 102.54969024658203 2.2999999523162842 -6.2716150283813477
v 101.74969482421875 2.2999999523162842 -6.2716150283813477
vt 0 0
vt 0 1
vt 1 0
vt 1 1
vn 0 0 1
vn 0 0 1
vn 0 0 1
vn 0 0 1
f 60/60/60 58/58/58 57/57/57 59/59/59
v 121.62160491943359 0 -8.8891239166259766
v 120.82160186767578 0 -8.8891239166259766
v 121.62160491943359 2.2999999523162842 -8.8891239166259766
v 120.82160186767578 2.2999999523162842 -8.8891239166259766
vt 0 0
vt 0 1
vt 1 0
vt 1 1
vn 0 0 1
vn 0 0 1
vn 0 0 1
vn 0 0 1
f 64/64/64 62/62/62 61/61/61 63/63/63
v 118.32389831542969 0 -17.551187515258789
v 117.52389526367188 0 -17.551187515258789
v 118.32389831542969 2.2999999523162842 -17.551187515258789
v 117.52389526367188 2.2999999523162842 -17.551187515258789
vt 0 0
vt 0 1
vt 1 0
vt 1 1
vn 0 0 1
vn 0 0 1
vn 0 0 1
vn 0 0 1
f 68/68/68 66/66/66 65/65/65 67/67/67
v 116.57218933105469 0 -13.196512222290039
v 116.57218933105469 0 -12.396512031555176
v 116.57218933105469 2.2999999523162842 -13.196512222290039
v 116.57218933105469 2.2999999523162842 -12.396512031555176
vt 0 0
vt 0 1
vt 1 0
vt 1 1
vn 1 0 0
vn 1 0 0
vn 1 0 0
vn 1 0 0
f 72/72/72 70/70/70 69/69/69 71/71/71
v 122.50396728515625 0 -15.924742698669434
v 122.50396728515625 0 -15.124743461608887
v 122.50396728515625 2.2999999523162842 -15.924742698669434
v 122.50396728515625 2.2999999523162842 -15.124743461608887
vt 0 0
vt 0 1
vt 1 0
vt 1 1
vn 1 0 0
vn 1 0 0
vn 1 0 0
vn 1 0 0
f 76/76/76 74/74/74 73/73/73 75/75/75
v 125.97251892089844 0 -15.987908363342285
v 125.97251892089844 0 -15.187908172607422
v 125.97251892089844 2.2999999523162842 -15.987908363342285
v 125.97251892089844 2.2999999523162842 -15.187908172607422
vt 0 0
vt 0 1
vt 1 0
vt 1 1
vn 1 0 0
vn 1 0 0
vn 1 0 0
vn 1 0 0
f 80/80/80 78/78/78 77/77/77 79/79/79
v 113.98948669433594 0 -13.196512222290039
v 113.98948669433594 0 -12.396512031555176
v 113.98948669433594 2.2999999523162842 -13.196512222290039
v 113.98948669433594 2.2999999523162842 -12.396512031555176
vt 0 0
vt 0 1
vt 1 0
vt 1 1
vn 1 0 0
vn 1 0 0
vn 1 0 0
vn 1 0 0
f 84/84/84 82/82/82 81/81/81 83/83/83
v 105.59901428222656 0 -15.739317893981934
v 105.59901428222656 0 -14.93931770324707
v 105.59901428222656 2.2999999523162842 -15.739317893981934
v 105.59901428222656 2.2999999523162842 -14.93931770324707
vt 0 0
vt 0 1
vt 1 0
vt 1 1
vn 1 0 0
vn 1 0 0
vn 1 0 0
vn 1 0 0
f 88/88/88 86/86/86 85/85/85 87/87/87
v 109.00480651855469 0 -15.688483238220215
v 109.00480651855469 0 -14.888484001159668
v 109.00480651855469 2.2999999523162842 -15.688483238220215
v 109.00480651855469 2.2999999523162842 -14.888484001159668
vt 0 0
vt 0 1
vt 1 0
vt 1 1
vn 1 0 0
vn 1 0 0
vn 1 0 0
vn 1 0 0
f 92/92/92 90/90/90 89/89/89 91/91/91
v 100.12857055664062 0 -24.595254898071289
v 100.12857055664062 0 -23.795253753662109
v 100.12857055664062 2.2999999523162842 -24.595254898071289
v 100.12857055664062 2.2999999523162842 -23.795253753662109
vt 0 0
vt 0 1
vt 1 0
vt 1 1
vn 1 0 0
vn 1 0 0
vn 1 0 0
vn 1 0 0
f 96/96/96 94/94/94 93/93/93 95/95/95
v 121.57454681396484 0 -6.2716150283813477
v 120.77454376220703 0 -6.2716150283813477
v 121.57454681396484 2.2999999523162842 -6.2716150283813477
v 120.77454376220703 2.2999999523162842 -6.2716150283813477
vt 0 0
vt 0 1
vt 1 0
vt 1 1
vn 0 0 1
vn 0 0 1
vn 0 0 1
vn 0 0 1
f 100/100/100 98/98/98 97/97/97 99/99/99
v 118.32389831542969 0 -20.121408462524414
v 117.52389526367188 0 -20.121408462524414
v 118.32389831542969 2.2999999523162842 -20.121408462524414
v 117.52389526367188 2.2999999523162842 -20.121408462524414
vt 0 0
vt 0 1
vt 1 0
vt 1 1
vn 0 0 1
vn 0 0 1
vn 0 0 1
vn 0 0 1
f 104/104/104 102/102/102 101/101/101 103/103/103
v 129.78903198242188 0 -6.2716150283813477
v 128.98902893066406 0 -6.2716150283813477
v 129.78903198242188 2.2999999523162842 -6.2716150283813477
v 128.98902893066406 2.2999999523162842 -6.2716150283813477
vt 0 0
vt 0 1
vt 1 0
vt 1 1
vn 0 0 1
vn 0 0 1
vn 0 0 1
vn 0 0 1
f 108/108/108 106/106/106 105/105/105 107/107/107
v 129.38125610351562 0 -20.121408462524414
v 128.58126831054688 0 -20.121408462524414
v 129.38125610351562 2.2999999523162842 -20.121408462524414
v 128.58126831054688 2.2999999523162842 -20.121408462524414
vt 0 0
vt 0 1
vt 1 0
vt 1 1
vn 0 0 1
vn 0 0 1
vn 0 0 1
vn 0 0 1
f 112/112/112 110/110/110 109/109/109 111/111/111
v 111.49714660644531 0 -6.2716150283813477
v 110.69715118408203 0 -6.2716150283813477
v 111.49714660644531 2.2999999523162842 -6.2716150283813477
v 110.69715118408203 2.2999999523162842 -6.2716150283813477
vt 0 0
vt 0 1
vt 1 0
vt 1 1
vn 0 0 1
vn 0 0 1
vn 0 0 1
vn 0 0 1
f 116/116/116 114/114/114 113/113/113 115/115/115
v 111.81482696533203 0 -20.121408462524414
v 111.01483154296875 0 -20.121408462524414
v 111.81482696533203 2.2999999523162842 -20.121408462524414
v 111.01483154296875 2.2999999523162842 -20.121408462524414
vt 0 0
vt 0 1
vt 1 0
vt 1 1
vn 0 0 1
vn 0 0 1
vn 0 0 1
vn 0 0 1
f 120/120/120 118/118/118 117/117/117 119/119/119
v 93.152236938476562 0 -20.125049591064453
v 92.352241516113281 0 -20.125049591064453
v 93.152236938476562 2.2999999523162842 -20.125049591064453
v 92.352241516113281 2.2999999523162842 -20.125049591064453
vt 0 0
vt 0 1
vt 1 0
vt 1 1
vn 0 0 1
vn 0 0 1
vn 0 0 1
vn 0 0 1
f 124/124/124 122/122/122 121/121/121 123/123/123
v 93.142921447753906 0 -23.247869491577148
v 92.342926025390625 0 -23.247869491577148
v 93.142921447753906 2.2999999523162842 -23.247869491577148
v 92.342926025390625 2.2999999523162842 -23.247869491577148
vt 0 0
vt 0 1
vt 1 0
vt 1 1
vn 0 0 1
vn 0 0 1
vn 0 0 1
vn 0 0 1
f 128/128/128 126/126/126 125/125/125 127/127/127
v 96.80706787109375 0 -22.486459732055664
v 96.80706787109375 0 -21.686458587646484
v 96.80706787109375 2.2999999523162842 -22.486459732055664
v 96.80706787109375 2.2999999523162842 -21.686458587646484
vt 0 0
vt 0 1
vt 1 0
vt 1 1
vn 1 0 0
vn 1 0 0
vn 1 0 0
vn 1 0 0
f 132/132/132 130/130/130 129/129/129 131/131/131
v 96.80706787109375 0 -19.491039276123047
v 96.80706787109375 0 -18.6910400390625
v 96.80706787109375 2.2999999523162842 -19.491039276123047
v 96.80706787109375 2.2999999523162842 -18.6910400390625
vt 0 0
vt 0 1
vt 1 0
vt 1 1
vn 1 0 0
vn 1 0 0
vn 1 0 0
vn 1 0 0
f 136/136/136 134/134/134 133/133/133 135/135/135
v 88.600822448730469 0 -19.776308059692383
v 88.600822448730469 0 -18.976308822631836
v 88.600822448730469 2.2999999523162842 -19.776308059692383
v 88.600822448730469 2.2999999523162842 -18.976308822631836
vt 0 0
vt 0 1
vt 1 0
vt 1 1
vn 1 0 0
vn 1 0 0
vn 1 0 0
vn 1 0 0
f 140/140/140 138/138/138 137/137/137 139/139/139
v 88.600822448730469 0 -22.486459732055664
v 88.600822448730469 0 -21.686458587646484
v 88.600822448730469 2.2999999523162842 -22.486459732055664
v 88.600822448730469 2.2999999523162842 -21.686458587646484
vt 0 0
vt 0 1
vt 1 0
vt 1 1
vn 1 0 0
vn 1 0 0
vn 1 0 0
vn 1 0 0
f 144/144/144 142/142/142 141/141/141 143/143/143
v 125.97251892089844 0 -19.218511581420898
v 125.97251892089844 0 -18.418512344360352
v 125.97251892089844 2.2999999523162842 -19.218511581420898
v 125.97251892089844 2.2999999523162842 -18.418512344360352
vt 0 0
vt 0 1
vt 1 0
vt 1 1
vn 1 0 0
vn 1 0 0
vn 1 0 0
vn 1 0 0
f 148/148/148 146/146/146 145/145/145 147/147/147
v 125.97251892089844 0 -12.002908706665039
v 125.97251892089844 0 -11.202908515930176
v 125.97251892089844 2.2999999523162842 -12.002908706665039
v 125.97251892089844 2.2999999523162842 -11.202908515930176
vt 0 0
vt 0 1
vt 1 0
vt 1 1
vn 1 0 0
vn 1 0 0
vn 1 0 0
vn 1 0 0
f 152/152/152 150/150/150 149/149/149 151/151/151
v 113.98948669433594 0 -18.31999397277832
v 113.98948669433594 0 -17.519994735717773
v 113.98948669433594 2.2999999523162842 -18.31999397277832
v 113.98948669433594 2.2999999523162842 -17.519994735717773
vt 0 0
vt 0 1
vt 1 0
vt 1 1
vn 1 0 0
vn 1 0 0
vn 1 0 0
vn 1 0 0
f 156/156/156 154/154/154 153/153/153 155/155/155
v 113.98948669433594 0 -8.0651836395263672
v 113.98948669433594 0 -7.2651839256286621
v 113.98948669433594 2.2999999523162842 -8.0651836395263672
v 113.98948669433594 2.2999999523162842 -7.2651839256286621
vt 0 0
vt 0 1
vt 1 0
vt 1 1
vn 1 0 0
vn 1 0 0
vn 1 0 0
vn 1 0 0
f 160/160/160 158/158/158 157/157/157 159/159/159
v 109.00480651855469 0 -12.611800193786621
v 109.00480651855469 0 -11.811800003051758
v 109.00480651855469 2.2999999523162842 -12.611800193786621
v 109.00480651855469 2.2999999523162842 -11.811800003051758
vt 0 0
vt 0 1
vt 1 0
vt 1 1
vn 1 0 0
vn 1 0 0
vn 1 0 0
vn 1 0 0
f 164/164/164 162/162/162 161/161/161 163/163/163
v 109.00480651855469 0 -18.564599990844727
v 109.00480651855469 0 -17.76460075378418
v 109.00480651855469 2.2999999523162842 -18.564599990844727
v 109.00480651855469 2.2999999523162842 -17.76460075378418
vt 0 0
vt 0 1
vt 1 0
vt 1 1
vn 1 0 0
vn 1 0 0
vn 1 0 0
vn 1 0 0
f 168/168/168 166/166/166 165/165/165 167/167/167
v 131.51776123046875 0 -8.8566741943359375
v 131.51776123046875 0 -8.0566749572753906
v 131.51776123046875 2.2999999523162842 -8.8566741943359375
v 131.51776123046875 2.2999999523162842 -8.0566749572753906
vt 0 0
vt 0 1
vt 1 0
vt 1 1
vn 1 0 0
vn 1 0 0
vn 1 0 0
vn 1 0 0
f 172/172/172 170/170/170 169/169/169 171/171/171
v 131.51776123046875 0 -15.773256301879883
v 131.51776123046875 0 -14.97325611114502
v 131.51776123046875 2.2999999523162842 -15.773256301879883
v 131.51776123046875 2.2999999523162842 -14.97325611114502
vt 0 0
vt 0 1
vt 1 0
vt 1 1
vn 1 0 0
vn 1 0 0
vn 1 0 0
vn 1 0 0
f 176/176/176 174/174/174 173/173/173 175/175/175
v 133.81129455566406 0 -16.671125411987305
v 133.01129150390625 0 -16.671125411987305
v 133.81129455566406 2.2999999523162842 -16.671125411987305
v 133.01129150390625 2.2999999523162842 -16.671125411987305
vt 0 0
vt 0 1
vt 1 0
vt 1 1
vn 0 0 1
vn 0 0 1
vn 0 0 1
vn 0 0 1
f 180/180/180 178/178/178 177/177/177 179/179/179
v 133.69241333007812 0 -19.465930938720703
v 132.89241027832031 0 -19.465930938720703
v 133.69241333007812 2.2999999523162842 -19.465930938720703
v 132.89241027832031 2.2999999523162842 -19.465930938720703
vt 0 0
vt 0 1
vt 1 0
vt 1 1
vn 0 0 1
vn 0 0 1
vn 0 0 1
vn 0 0 1
f 184/184/184 182/182/182 181/181/181 183/183/183
v 133.83204650878906 0 -20.96314811706543
v 133.03205871582031 0 -20.96314811706543
v 133.83204650878906 2.2999999523162842 -20.96314811706543
v 133.03205871582031 2.2999999523162842 -20.96314811706543
vt 0 0
vt 0 1
vt 1 0
vt 1 1
vn 0 0 1
vn 0 0 1
vn 0 0 1
vn 0 0 1
f 188/188/188 186/186/186 185/185/185 187/187/187
v 130.19122314453125 0 -25.217739105224609
v 129.39122009277344 0 -25.217739105224609
v 130.19122314453125 2.2999999523162842 -25.217739105224609
v 129.39122009277344 2.2999999523162842 -25.217739105224609
vt 0 0
vt 0 1
vt 1 0
vt 1 1
vn 0 0 1
vn 0 0 1
vn 0 0 1
vn 0 0 1
f 192/192/192 190/190/190 189/189/189 191/191/191
v 109.40410614013672 0 -29.720056533813477
v 108.60410308837891 0 -29.720056533813477
v 109.40410614013672 2.2999999523162842 -29.720056533813477
v 108.60410308837891 2.2999999523162842 -29.720056533813477
vt 0 0
vt 0 1
vt 1 0
vt 1 1
vn 0 0 1
vn 0 0 1
vn 0 0 1
vn 0 0 1
f 196/196/196 194/194/194 193/193/193 195/195/195
v 120.13811492919922 0 -29.720056533813477
v 119.33811950683594 0 -29.720056533813477
v 120.13811492919922 2.2999999523162842 -29.720056533813477
v 119.33811950683594 2.2999999523162842 -29.720056533813477
vt 0 0
vt 0 1
vt 1 0
vt 1 1
vn 0 0 1
vn 0 0 1
vn 0 0 1
vn 0 0 1
f 200/200/200 198/198/198 197/197/197 199/199/199
v 116.79204559326172 0 -29.720056533813477
v 115.99204254150391 0 -29.720056533813477
v 116.79204559326172 2.2999999523162842 -29.720056533813477
v 115.99204254150391 2.2999999523162842 -29.720056533813477
vt 0 0
vt 0 1
vt 1 0
vt 1 1
vn 0 0 1
vn 0 0 1
vn 0 0 1
vn 0 0 1
f 204/204/204 202/202/202 201/201/201 203/203/203
v 113.08190155029297 0 -29.719987869262695
v 112.28189849853516 0 -29.719987869262695
v 113.08190155029297 2.2999999523162842 -29.719987869262695
v 112.28189849853516 2.2999999523162842 -29.719987869262695
vt 0 0
vt 0 1
vt 1 0
vt 1 1
vn 0 0 1
vn 0 0 1
vn 0 0 1
vn 0 0 1
f 208/208/208 206/206/206 205/205/205 207/207/207
v 123.73733520507812 0 -29.720056533813477
v 122.93733215332031 0 -29.720056533813477
v 123.73733520507812 2.2999999523162842 -29.720056533813477
v 122.93733215332031 2.2999999523162842 -29.720056533813477
vt 0 0
vt 0 1
vt 1 0
vt 1 1
vn 0 0 1
vn 0 0 1
vn 0 0 1
vn 0 0 1
f 212/212/212 210/210/210 209/209/209 211/211/211
v 126.85042572021484 0 -29.720056533813477
v 126.05043029785156 0 -29.720056533813477
v 126.85042572021484 2.2999999523162842 -29.720056533813477
v 126.05043029785156 2.2999999523162842 -29.720056533813477
vt 0 0
vt 0 1
vt 1 0
vt 1 1
vn 0 0 1
vn 0 0 1
vn 0 0 1
vn 0 0 1
f 216/216/216 214/214/214 213/213/213 215/215/215
v 130.26165771484375 0 -29.720056533813477
v 129.46165466308594 0 -29.720056533813477
v 130.26165771484375 2.2999999523162842 -29.720056533813477
v 129.46165466308594 2.2999999523162842 -29.720056533813477
vt 0 0
vt 0 1
vt 1 0
vt 1 1
vn 0 0 1
vn 0 0 1
vn 0 0 1
vn 0 0 1
f 220/220/220 218/218/218 217/217/217 219/219/219
v 133.723388671875 0 -29.720056533813477
v 132.92338562011719 0 -29.720056533813477
v 133.723388671875 2.2999999523162842 -29.720056533813477
v 132.92338562011719 2.2999999523162842 -29.720056533813477
vt 0 0
vt 0 1
vt 1 0
vt 1 1
vn 0 0 1
vn 0 0 1
vn 0 0 1
vn 0 0 1
f 224/224/224 222/222/222 221/221/221 223/223/223
