# Rhino

v 94.935066223144531 0.46071049571037292 1.568966269493103
v 90.635063171386719 0.46071049571037292 1.568966269493103
v 94.935066223144531 4.4607105255126953 1.568966269493103
v 90.635063171386719 4.4607105255126953 1.568966269493103
vt 0 0
vt 0 1
vt 1 0
vt 1 1
vn 0 0 1
vn 0 0 1
vn 0 0 1
vn 0 0 1
f 4/4/4 2/2/2 1/1/1 3/3/3
v 104.97483825683594 0.46071049571037292 0.7322695255279541
v 100.67483520507812 0.46071049571037292 0.7322695255279541
v 104.97483825683594 4.4607105255126953 0.7322695255279541
v 100.67483520507812 4.4607105255126953 0.7322695255279541
vt 0 0
vt 0 1
vt 1 0
vt 1 1
vn 0 0 1
vn 0 0 1
vn 0 0 1
vn 0 0 1
f 8/8/8 6/6/6 5/5/5 7/7/7
v 117.38329315185547 0.46071049571037292 1.4154528379440308
v 113.08329772949219 0.46071049571037292 1.4154528379440308
v 117.38329315185547 4.4607105255126953 1.4154528379440308
v 113.08329772949219 4.4607105255126953 1.4154528379440308
vt 0 0
vt 0 1
vt 1 0
vt 1 1
vn 0 0 1
vn 0 0 1
vn 0 0 1
vn 0 0 1
f 12/12/12 10/10/10 9/9/9 11/11/11
v 127.2279052734375 0.46071049571037292 1.4154528379440308
v 122.92790222167969 0.46071049571037292 1.4154528379440308
v 127.2279052734375 4.4607105255126953 1.4154528379440308
v 122.92790222167969 4.4607105255126953 1.4154528379440308
vt 0 0
vt 0 1
vt 1 0
vt 1 1
vn 0 0 1
vn 0 0 1
vn 0 0 1
vn 0 0 1
f 16/16/16 14/14/14 13/13/13 15/15/15
v 134.9599609375 0 0.63714843988418579
v 134.4599609375 0 0.63714843988418579
v 134.9599609375 4.5 0.63714843988418579
v 134.4599609375 4.5 0.63714843988418579
vt 0 0
vt 0 1
vt 1 0
vt 1 1
vn 0 0 1
vn 0 0 1
vn 0 0 1
vn 0 0 1
f 20/20/20 18/18/18 17/17/17 19/19/19
v 134.03494262695312 0 0.63714843988418579
v 133.53494262695312 0 0.63714843988418579
v 134.03494262695312 4.5 0.63714843988418579
v 133.53494262695312 4.5 0.63714843988418579
vt 0 0
vt 0 1
vt 1 0
vt 1 1
vn 0 0 1
vn 0 0 1
vn 0 0 1
vn 0 0 1
f 24/24/24 22/22/22 21/21/21 23/23/23
v 133.01168823242188 0 0.63714843988418579
v 132.51168823242188 0 0.63714843988418579
v 133.01168823242188 4.5 0.63714843988418579
v 132.51168823242188 4.5 0.63714843988418579
vt 0 0
vt 0 1
vt 1 0
vt 1 1
vn 0 0 1
vn 0 0 1
vn 0 0 1
vn 0 0 1
f 28/28/28 26/26/26 25/25/25 27/27/27
v 132.04573059082031 0 0.63714843988418579
v 131.54573059082031 0 0.63714843988418579
v 132.04573059082031 4.5 0.63714843988418579
v 131.54573059082031 4.5 0.63714843988418579
vt 0 0
vt 0 1
vt 1 0
vt 1 1
vn 0 0 1
vn 0 0 1
vn 0 0 1
vn 0 0 1
f 32/32/32 30/30/30 29/29/29 31/31/31
v 131.11253356933594 0 0.63714843988418579
v 130.61253356933594 0 0.63714843988418579
v 131.11253356933594 4.5 0.63714843988418579
v 130.61253356933594 4.5 0.63714843988418579
vt 0 0
vt 0 1
vt 1 0
vt 1 1
vn 0 0 1
vn 0 0 1
vn 0 0 1
vn 0 0 1
f 36/36/36 34/34/34 33/33/33 35/35/35
v 121.84739685058594 0 1.4154528379440308
v 121.34739685058594 0 1.4154528379440308
v 121.84739685058594 4.5 1.4154528379440308
v 121.34739685058594 4.5 1.4154528379440308
vt 0 0
vt 0 1
vt 1 0
vt 1 1
vn 0 0 1
vn 0 0 1
vn 0 0 1
vn 0 0 1
f 40/40/40 38/38/38 37/37/37 39/39/39
v 120.90301513671875 0 1.4154528379440308
v 120.40301513671875 0 1.4154528379440308
v 120.90301513671875 4.5 1.4154528379440308
v 120.40301513671875 4.5 1.4154528379440308
vt 0 0
vt 0 1
vt 1 0
vt 1 1
vn 0 0 1
vn 0 0 1
vn 0 0 1
vn 0 0 1
f 44/44/44 42/42/42 41/41/41 43/43/43
v 111.6209716796875 0 0.68276858329772949
v 111.1209716796875 0 0.68276858329772949
v 111.6209716796875 4.5 0.68276858329772949
v 111.1209716796875 4.5 0.68276858329772949
vt 0 0
vt 0 1
vt 1 0
vt 1 1
vn 0 0 1
vn 0 0 1
vn 0 0 1
vn 0 0 1
f 48/48/48 46/46/46 45/45/45 47/47/47
v 110.66388702392578 0 0.68276858329772949
v 110.16388702392578 0 0.68276858329772949
v 110.66388702392578 4.5 0.68276858329772949
v 110.16388702392578 4.5 0.68276858329772949
vt 0 0
vt 0 1
vt 1 0
vt 1 1
vn 0 0 1
vn 0 0 1
vn 0 0 1
vn 0 0 1
f 52/52/52 50/50/50 49/49/49 51/51/51
v 109.74578857421875 0 0.68276858329772949
v 109.24578857421875 0 0.68276858329772949
v 109.74578857421875 4.5 0.68276858329772949
v 109.24578857421875 4.5 0.68276858329772949
vt 0 0
vt 0 1
vt 1 0
vt 1 1
vn 0 0 1
vn 0 0 1
vn 0 0 1
vn 0 0 1
f 56/56/56 54/54/54 53/53/53 55/55/55
v 108.81663513183594 0 0.68276858329772949
v 108.31663513183594 0 0.68276858329772949
v 108.81663513183594 4.5 0.68276858329772949
v 108.31663513183594 4.5 0.68276858329772949
vt 0 0
vt 0 1
vt 1 0
vt 1 1
vn 0 0 1
vn 0 0 1
vn 0 0 1
vn 0 0 1
f 60/60/60 58/58/58 57/57/57 59/59/59
v 107.79080200195312 0 0.68276858329772949
v 107.29080200195312 0 0.68276858329772949
v 107.79080200195312 4.5 0.68276858329772949
v 107.29080200195312 4.5 0.68276858329772949
vt 0 0
vt 0 1
vt 1 0
vt 1 1
vn 0 0 1
vn 0 0 1
vn 0 0 1
vn 0 0 1
f 64/64/64 62/62/62 61/61/61 63/63/63
v 89.503524780273438 0 1.568966269493103
v 89.003524780273438 0 1.568966269493103
v 89.503524780273438 4.5 1.568966269493103
v 89.003524780273438 4.5 1.568966269493103
vt 0 0
vt 0 1
vt 1 0
vt 1 1
vn 0 0 1
vn 0 0 1
vn 0 0 1
vn 0 0 1
f 68/68/68 66/66/66 65/65/65 67/67/67
v 88.611679077148438 0 1.568966269493103
v 88.111679077148438 0 1.568966269493103
v 88.611679077148438 4.5 1.568966269493103
v 88.111679077148438 4.5 1.568966269493103
vt 0 0
vt 0 1
vt 1 0
vt 1 1
vn 0 0 1
vn 0 0 1
vn 0 0 1
vn 0 0 1
f 72/72/72 70/70/70 69/69/69 71/71/71
v 87.636024475097656 0 1.568966269493103
v 87.136024475097656 0 1.568966269493103
v 87.636024475097656 4.5 1.568966269493103
v 87.136024475097656 4.5 1.568966269493103
vt 0 0
vt 0 1
vt 1 0
vt 1 1
vn 0 0 1
vn 0 0 1
vn 0 0 1
vn 0 0 1
f 76/76/76 74/74/74 73/73/73 75/75/75
