# Rhino

g object_1
v 59.38653564453125 0 -29.942562103271484
v 61.168464660644531 0 -29.942562103271484
v 61.168464660644531 0 -35.005840301513672
v 72.615966796875 0 -35.005840301513672
v 72.615966796875 0 -36.118656158447266
v 63.955337524414062 0 -36.118656158447266
v 63.955337524414062 0 -37.015434265136719
v 64.176673889160156 0 -37.015434265136719
v 64.176673889160156 0 -36.357921600341797
v 67.286369323730469 0 -36.357921600341797
v 67.286369323730469 0 -38.178310394287109
v 64.176673889160156 0 -38.178310394287109
v 64.176673889160156 0 -37.716419219970703
v 63.955337524414062 0 -37.716419219970703
v 63.955337524414062 0 -38.178310394287109
v 36.774665832519531 0 -38.178310394287109
v 36.774665832519531 0 -32.903717041015625
v 35.427719116210938 0 -32.903717041015625
v 35.427719116210938 0 -33.420703887939453
v 36.491420745849609 0 -33.420703887939453
v 36.491420745849609 0 -34.205120086669922
v 35.591602325439453 0 -34.205120086669922
v 35.591602325439453 0 -34.385902404785156
v 36.491420745849609 0 -34.385902404785156
v 36.491420745849609 0 -35.178936004638672
v 35.591602325439453 0 -35.178936004638672
v 35.591602325439453 0 -35.359718322753906
v 36.491420745849609 0 -35.359718322753906
v 36.491420745849609 0 -36.104118347167969
v 33.609706878662109 0 -36.104118347167969
v 33.609706878662109 0 -33.420703887939453
v 34.678493499755859 0 -33.420703887939453
v 34.678493499755859 0 -32.903717041015625
v 33.277202606201172 0 -32.903717041015625
v 33.277202606201172 0 -36.405696868896484
v 36.491420745849609 0 -36.405696868896484
v 36.491420745849609 0 -38.178310394287109
v 35.191917419433594 0 -38.178310394287109
v 35.191917419433594 0 -37.489860534667969
v 34.915596008300781 0 -37.489860534667969
v 34.915596008300781 0 -38.178310394287109
v 32.385868072509766 0 -38.178310394287109
v 32.385868072509766 0 -37.400390625
v 33.304355621337891 0 -37.400390625
v 33.304355621337891 0 -37.715484619140625
v 33.650733947753906 0 -37.715484619140625
v 33.650733947753906 0 -37.120304107666016
v 32.109546661376953 0 -37.120304107666016
v 32.109546661376953 0 -38.178310394287109
v 31.004251480102539 0 -38.178310394287109
v 31.004251480102539 0 -37.489860534667969
v 30.727928161621094 0 -37.489860534667969
v 30.727928161621094 0 -38.178310394287109
v 29.457086563110352 0 -38.178310394287109
v 29.457086563110352 0 -36.405696868896484
v 32.376560211181641 0 -36.405696868896484
v 32.376560211181641 0 -32.921070098876953
v 31.232179641723633 0 -32.921070098876953
v 31.232179641723633 0 -33.487335205078125
v 32.073078155517578 0 -33.487335205078125
v 32.073078155517578 0 -34.19158935546875
v 31.453468322753906 0 -34.19158935546875
v 31.453468322753906 0 -34.400138854980469
v 32.073078155517578 0 -34.400138854980469
v 32.073078155517578 0 -35.202724456787109
v 31.453468322753906 0 -35.202724456787109
v 31.453468322753906 0 -35.385990142822266
v 32.073078155517578 0 -35.385990142822266
v 32.073078155517578 0 -36.131702423095703
v 29.457086563110352 0 -36.131702423095703
v 29.457086563110352 0 -33.487335205078125
v 30.502281188964844 0 -33.487335205078125
v 30.502281188964844 0 -32.921070098876953
v 29.125171661376953 0 -32.921070098876953
v 29.125171661376953 0 -33.983909606933594
v 13.941692352294922 0 -33.983909606933594
v 13.941692352294922 0 -32.933639526367188
v 15.192838668823242 0 -32.933639526367188
v 15.192838668823242 0 -31.580333709716797
v 14.397942543029785 0 -31.580333709716797
v 14.397942543029785 0 -31.824802398681641
v 14.860903739929199 0 -31.824802398681641
v 14.860903739929199 0 -32.549476623535156
v 13.941692352294922 0 -32.549476623535156
v 13.941692352294922 0 -28.093515396118164
v 16.64263916015625 0 -28.093515396118164
v 16.64263916015625 0 -27.045793533325195
v 18.957443237304688 0 -27.045793533325195
v 18.957443237304688 0 -28.006204605102539
v 19.42913818359375 0 -28.006204605102539
v 19.42913818359375 0 -27.045793533325195
v 21.735208511352539 0 -27.045793533325195
v 21.735208511352539 0 -28.041130065917969
v 22.145759582519531 0 -28.041130065917969
v 22.145759582519531 0 -27.045793533325195
v 24.514171600341797 0 -27.045793533325195
v 24.514171600341797 0 -29.729434967041016
v 22.145759582519531 0 -29.729434967041016
v 22.145759582519531 0 -28.77027702331543
v 21.735208511352539 0 -28.77027702331543
v 21.735208511352539 0 -29.729434967041016
v 19.42913818359375 0 -29.729434967041016
v 19.42913818359375 0 -28.77027702331543
v 18.975467681884766 0 -28.77027702331543
v 18.975467681884766 0 -29.729434967041016
v 16.626079559326172 0 -29.729434967041016
v 16.626079559326172 0 -28.77027702331543
v 16.184946060180664 0 -28.77027702331543
v 16.184946060180664 0 -31.550922393798828
v 15.859560012817383 0 -31.550922393798828
v 15.859560012817383 0 -32.933639526367188
v 25.269863128662109 0 -32.933639526367188
v 25.269863128662109 0 -31.489406585693359
v 24.514171600341797 0 -31.489406585693359
v 24.514171600341797 0 -32.549476623535156
v 22.145759582519531 0 -32.549476623535156
v 22.145759582519531 0 -31.608133316040039
v 21.735208511352539 0 -31.608133316040039
v 21.735208511352539 0 -32.549476623535156
v 19.42913818359375 0 -32.549476623535156
v 19.42913818359375 0 -31.608133316040039
v 18.975467681884766 0 -31.608133316040039
v 18.975467681884766 0 -32.549476623535156
v 16.626079559326172 0 -32.549476623535156
v 16.626079559326172 0 -29.888360977172852
v 18.975467681884766 0 -29.888360977172852
v 18.975467681884766 0 -30.847518920898438
v 19.42913818359375 0 -30.847518920898438
v 19.42913818359375 0 -29.888360977172852
v 21.735208511352539 0 -29.888360977172852
v 21.735208511352539 0 -30.847518920898438
v 22.145759582519531 0 -30.847518920898438
v 22.145759582519531 0 -29.888360977172852
v 24.514171600341797 0 -29.888360977172852
v 24.514171600341797 0 -30.843313217163086
v 24.942190170288086 0 -30.843313217163086
v 24.942190170288086 0 -28.01446533203125
v 27.335609436035156 0 -28.01446533203125
v 27.335609436035156 0 -32.558204650878906
v 26.383481979370117 0 -32.558204650878906
v 26.383481979370117 0 -31.786262512207031
v 26.750358581542969 0 -31.786262512207031
v 26.750358581542969 0 -31.489406585693359
v 26.025344848632812 0 -31.489406585693359
v 26.025344848632812 0 -32.933639526367188
v 27.711219787597656 0 -32.933639526367188
v 27.717742919921875 0 -26.625787734985352
v 13.409496307373047 0 -26.625787734985352
v 13.350404739379883 0 -14.498225212097168
v 18.326835632324219 0 -14.498225212097168
v 18.326835632324219 0 -13.660833358764648
v 13.820270538330078 0 -13.660833358764648
v 13.820270538330078 0 -11.005240440368652
v 16.817388534545898 0 -11.005240440368652
v 16.817388534545898 0 -12.856456756591797
v 18.326835632324219 0 -12.856456756591797
v 18.326835632324219 0 -10.499551773071289
v 23.123817443847656 0 -10.499551773071289
v 23.123817443847656 0 -13.69156551361084
v 27.621965408325195 0 -13.69156551361084
v 27.621965408325195 0 -13.309249877929688
v 23.59303092956543 0 -13.309249877929688
v 23.59303092956543 0 -10.835733413696289
v 24.816993713378906 0 -10.835733413696289
v 24.816993713378906 0 -11.783873558044434
v 25.847175598144531 0 -11.783873558044434
v 25.847175598144531 0 -10.810246467590332
v 27.183355331420898 0 -10.810246467590332
v 27.183355331420898 0 -12.614770889282227
v 27.657648086547852 0 -12.614770889282227
v 27.657648086547852 0 -10.499551773071289
v 32.932804107666016 0 -10.499551773071289
v 32.932804107666016 0 -13.69156551361084
v 39.456424713134766 0 -13.69156551361084
v 39.456424713134766 0 -13.131577491760254
v 33.489398956298828 0 -13.131577491760254
v 33.489398956298828 0 -10.956332206726074
v 38.474197387695312 0 -10.956332206726074
v 38.474197387695312 0 -12.483107566833496
v 39.456424713134766 0 -12.483107566833496
v 39.456424713134766 0 -10.499551773071289
v 44.720806121826172 0 -10.499551773071289
v 44.720806121826172 0 -14.324603080749512
v 49.189937591552734 0 -14.324603080749512
v 49.189937591552734 0 -13.69156551361084
v 45.187362670898438 0 -13.69156551361084
v 45.187362670898438 0 -10.886317253112793
v 48.780673980712891 0 -10.886317253112793
v 48.780673980712891 0 -11.817111015319824
v 47.970340728759766 0 -11.817111015319824
v 47.970340728759766 0 -12.872011184692383
v 49.189937591552734 0 -12.872011184692383
v 49.189937591552734 0 -10.499551773071289
v 54.3326416015625 0 -10.499551773071289
v 54.3326416015625 0 -13.69156551361084
v 54.775131225585938 0 -13.69156551361084
v 54.775131225585938 0 -10.880932807922363
v 61.232196807861328 0 -10.880932807922363
v 61.232196807861328 0 -13.145484924316406
v 56.364814758300781 0 -13.145484924316406
v 56.364814758300781 0 -11.623664855957031
v 55.471641540527344 0 -11.623664855957031
v 55.471641540527344 0 -13.69156551361084
v 61.805793762207031 0 -13.69156551361084
v 61.805793762207031 0 -15.341217041015625
v 59.926109313964844 0 -15.341217041015625
v 59.926109313964844 0 -20.426074981689453
v 58.182155609130859 0 -20.426074981689453
v 58.182155609130859 0 -16.046976089477539
v 59.126441955566406 0 -16.046976089477539
v 59.126441955566406 0 -15.341217041015625
v 57.850379943847656 0 -15.341217041015625
v 57.850379943847656 0 -20.791707992553711
v 60.172817230224609 0 -20.791707992553711
v 60.172817230224609 0 -18.002689361572266
v 61.176654815673828 0 -18.002689361572266
v 61.176654815673828 0 -25.978189468383789
v 60.904140472412109 0 -25.978189468383789
v 60.904140472412109 0 -26.87298583984375
v 61.500949859619141 0 -26.87298583984375
v 61.500949859619141 0 -29.071626663208008
v 59.642314910888672 0 -29.071626663208008
v 59.642314910888672 0 -26.87298583984375
v 60.153865814208984 0 -26.87298583984375
v 60.153865814208984 0 -26.020797729492188
v 59.38653564453125 0 -26.020797729492188
v 52.083480834960938 0 -32.046741485595703
v 52.083480834960938 0 -33.511192321777344
v 52.512489318847656 0 -33.511192321777344
v 52.512489318847656 0 -33.443988800048828
v 52.2879638671875 0 -33.443988800048828
v 52.2879638671875 0 -32.273784637451172
v 53.033069610595703 0 -32.273784637451172
v 53.033069610595703 0 -33.335784912109375
v 53.137313842773438 0 -33.335784912109375
v 53.137313842773438 0 -32.273784637451172
v 54.103973388671875 0 -32.273784637451172
v 54.103973388671875 0 -33.443988800048828
v 53.733493804931641 0 -33.443988800048828
v 53.733493804931641 0 -36.405811309814453
v 54.288375854492188 0 -36.405811309814453
v 54.288375854492188 0 -32.046741485595703
v 36.188365936279297 0 -23.695688247680664
v 36.188365936279297 0 -18.005887985229492
v 35.817611694335938 0 -18.005887985229492
v 35.817611694335938 0 -23.119270324707031
v 33.604389190673828 0 -23.119270324707031
v 33.604389190673828 0 -20.887977600097656
v 35.144844055175781 0 -20.887977600097656
v 35.144844055175781 0 -16.608285903930664
v 35.817611694335938 0 -16.608285903930664
v 35.817611694335938 0 -17.302743911743164
v 36.188365936279297 0 -17.302743911743164
v 36.188365936279297 0 -16.279945373535156
v 32.932804107666016 0 -16.279945373535156
v 32.932804107666016 0 -23.695688247680664
v 38.352260589599609 0 -32.046741485595703
v 37.811061859130859 0 -32.046741485595703
v 37.811061859130859 0 -36.405811309814453
v 40.156620025634766 0 -36.405811309814453
v 40.156620025634766 0 -36.210212707519531
v 38.352260589599609 0 -36.210212707519531
v 42.228267669677734 0 -32.046741485595703
v 42.228267669677734 0 -33.511192321777344
v 42.657276153564453 0 -33.511192321777344
v 42.657276153564453 0 -33.443988800048828
v 42.432746887207031 0 -33.443988800048828
v 42.432746887207031 0 -32.273784637451172
v 43.370952606201172 0 -32.273784637451172
v 43.370952606201172 0 -33.335784912109375
v 43.475200653076172 0 -33.335784912109375
v 43.475200653076172 0 -32.273784637451172
v 44.421424865722656 0 -32.273784637451172
v 44.421424865722656 0 -33.443988800048828
v 44.112697601318359 0 -33.443988800048828
v 44.112697601318359 0 -36.405811309814453
v 46.458255767822266 0 -36.405811309814453
v 46.458255767822266 0 -36.210212707519531
v 44.805637359619141 0 -36.210212707519531
v 44.805637359619141 0 -32.046741485595703
v 39.041885375976562 0 -32.046741485595703
v 39.041885375976562 0 -33.511192321777344
v 39.470890045166016 0 -33.511192321777344
v 39.470890045166016 0 -33.443988800048828
v 39.246364593505859 0 -33.443988800048828
v 39.246364593505859 0 -32.273784637451172
v 40.1845703125 0 -32.273784637451172
v 40.1845703125 0 -33.335784912109375
v 40.288814544677734 0 -33.335784912109375
v 40.288814544677734 0 -32.273784637451172
v 41.235038757324219 0 -32.273784637451172
v 41.235038757324219 0 -33.443988800048828
v 40.926315307617188 0 -33.443988800048828
v 40.926315307617188 0 -36.405811309814453
v 43.271873474121094 0 -36.405811309814453
v 43.271873474121094 0 -36.210212707519531
v 41.619255065917969 0 -36.210212707519531
v 41.619255065917969 0 -32.046741485595703
v 56.693096160888672 0 -23.009523391723633
v 58.078250885009766 0 -23.009523391723633
v 58.078250885009766 0 -23.631271362304688
v 58.376571655273438 0 -23.631271362304688
v 58.376571655273438 0 -22.731632232666016
v 56.693096160888672 0 -22.731632232666016
v 49.189937591552734 0 -22.760343551635742
v 52.568210601806641 0 -22.760343551635742
v 52.568210601806641 0 -17.241184234619141
v 52.114540100097656 0 -17.241184234619141
v 52.114540100097656 0 -17.639011383056641
v 52.249172210693359 0 -17.639011383056641
v 52.249172210693359 0 -18.791542053222656
v 51.382896423339844 0 -18.791542053222656
v 51.382896423339844 0 -17.650712966918945
v 51.646286010742188 0 -17.650712966918945
v 51.646286010742188 0 -17.241184234619141
v 50.95562744140625 0 -17.241184234619141
v 50.95562744140625 0 -19.215127944946289
v 52.249172210693359 0 -19.215127944946289
v 52.249172210693359 0 -22.233938217163086
v 50.288410186767578 0 -22.233938217163086
v 50.288410186767578 0 -16.575166702270508
v 52.568210601806641 0 -16.575166702270508
v 52.568210601806641 0 -16.21644401550293
v 49.189937591552734 0 -16.21644401550293
v 44.749496459960938 0 -19.343599319458008
v 44.749496459960938 0 -16.83039665222168
v 42.485969543457031 0 -16.83039665222168
v 42.485969543457031 0 -17.296884536743164
v 44.387798309326172 0 -17.296884536743164
v 44.387798309326172 0 -18.632205963134766
v 42.614315032958984 0 -18.632205963134766
v 42.614315032958984 0 -17.949968338012695
v 41.546722412109375 0 -17.949968338012695
v 41.546722412109375 0 -18.632205963134766
v 39.790740966796875 0 -18.632205963134766
v 39.790740966796875 0 -17.296884536743164
v 41.727573394775391 0 -17.296884536743164
v 41.727573394775391 0 -16.83039665222168
v 39.475711822509766 0 -16.83039665222168
v 39.475711822509766 0 -19.343599319458008
v 48.762248992919922 0 -32.046741485595703
v 48.762248992919922 0 -33.511192321777344
v 49.191257476806641 0 -33.511192321777344
v 49.191257476806641 0 -33.443988800048828
v 48.966732025146484 0 -33.443988800048828
v 48.966732025146484 0 -32.273784637451172
v 49.904937744140625 0 -32.273784637451172
v 49.904937744140625 0 -33.335784912109375
v 50.009181976318359 0 -33.335784912109375
v 50.009181976318359 0 -32.273784637451172
v 50.955406188964844 0 -32.273784637451172
v 50.955406188964844 0 -33.443988800048828
v 50.646678924560547 0 -33.443988800048828
v 50.646678924560547 0 -36.405811309814453
v 52.992237091064453 0 -36.405811309814453
v 52.992237091064453 0 -36.210212707519531
v 51.339618682861328 0 -36.210212707519531
v 51.339618682861328 0 -32.046741485595703
v 45.495258331298828 0 -32.046741485595703
v 45.495258331298828 0 -33.511192321777344
v 45.924266815185547 0 -33.511192321777344
v 45.924266815185547 0 -33.443988800048828
v 45.699737548828125 0 -33.443988800048828
v 45.699737548828125 0 -32.273784637451172
v 46.637947082519531 0 -32.273784637451172
v 46.637947082519531 0 -33.335784912109375
v 46.742191314697266 0 -33.335784912109375
v 46.742191314697266 0 -32.273784637451172
v 47.68841552734375 0 -32.273784637451172
v 47.68841552734375 0 -33.443988800048828
v 47.379688262939453 0 -33.443988800048828
v 47.379688262939453 0 -36.405811309814453
v 49.725246429443359 0 -36.405811309814453
v 49.725246429443359 0 -36.210212707519531
v 48.072628021240234 0 -36.210212707519531
v 48.072628021240234 0 -32.046741485595703
v 45.509349822998047 0 -27.483184814453125
v 47.304428100585938 0 -27.483184814453125
v 47.304428100585938 0 -27.11845588684082
v 45.968418121337891 0 -27.11845588684082
v 45.968418121337891 0 -25.471290588378906
v 47.169059753417969 0 -25.471290588378906
v 47.169059753417969 0 -26.206632614135742
v 48.146053314208984 0 -26.206632614135742
v 48.146053314208984 0 -25.471290588378906
v 49.276065826416016 0 -25.471290588378906
v 49.276065826416016 0 -26.206632614135742
v 50.217746734619141 0 -26.206632614135742
v 50.217746734619141 0 -25.471290588378906
v 51.412498474121094 0 -25.471290588378906
v 51.412498474121094 0 -27.11845588684082
v 47.987144470214844 0 -27.11845588684082
v 47.987144470214844 0 -27.483184814453125
v 51.747974395751953 0 -27.483184814453125
v 51.747974395751953 0 -24.971260070800781
v 45.509349822998047 0 -24.971260070800781
v 37.717750549316406 0 -28.524675369262695
v 37.717750549316406 0 -26.670038223266602
v 35.218494415283203 0 -26.670038223266602
v 35.218494415283203 0 -27.985317230224609
v 31.422273635864258 0 -27.985317230224609
v 31.422273635864258 0 -25.979278564453125
v 37.717750549316406 0 -25.979278564453125
v 37.717750549316406 0 -25.307445526123047
v 30.712257385253906 0 -25.307445526123047
v 30.712257385253906 0 -28.524675369262695
v 43.520896911621094 0 -27.799552917480469
v 43.520896911621094 0 -22.822996139526367
v 41.040843963623047 0 -22.822996139526367
v 41.040843963623047 0 -26.749912261962891
v 41.935230255126953 0 -26.749912261962891
v 41.935230255126953 0 -24.781368255615234
v 41.394359588623047 0 -24.781368255615234
v 41.394359588623047 0 -23.324056625366211
v 42.617195129394531 0 -23.324056625366211
v 42.617195129394531 0 -27.437433242797852
v 41.040843963623047 0 -27.437433242797852
v 41.040843963623047 0 -27.799552917480469
v 57.606189727783203 0 -29.229213714599609
v 58.000766754150391 0 -29.229213714599609
v 58.000766754150391 0 -31.399322509765625
v 55.790203094482422 0 -31.399322509765625
v 55.790203094482422 0 -29.229213714599609
v 56.831050872802734 0 -29.229213714599609
v 56.831050872802734 0 -28.811479568481445
v 55.737979888916016 0 -28.811479568481445
v 55.737979888916016 0 -27.44615364074707
v 56.831050872802734 0 -27.44615364074707
v 56.831050872802734 0 -27.306285858154297
v 55.737979888916016 0 -27.306285858154297
v 55.737979888916016 0 -24.847549438476562
v 56.831050872802734 0 -24.847549438476562
v 56.831050872802734 0 -24.644651412963867
v 55.737979888916016 0 -24.644651412963867
v 55.737979888916016 0 -23.009523391723633
v 55.807758331298828 0 -23.009523391723633
v 55.807758331298828 0 -22.731632232666016
v 55.312725067138672 0 -22.731632232666016
v 55.312725067138672 0 -32.939273834228516
v 58.376571655273438 0 -32.939273834228516
v 58.376571655273438 0 -24.572628021240234
v 58.078250885009766 0 -24.572628021240234
v 58.078250885009766 0 -24.644651412963867
v 57.606189727783203 0 -24.644651412963867
v 57.606189727783203 0 -24.847549438476562
v 58.096164703369141 0 -24.847549438476562
v 58.096164703369141 0 -27.306285858154297
v 57.606189727783203 0 -27.306285858154297
v 57.606189727783203 0 -27.44615364074707
v 58.096164703369141 0 -27.44615364074707
v 58.096164703369141 0 -28.811479568481445
v 57.606189727783203 0 -28.811479568481445
v 57.387584686279297 0 -37.021675109863281
v 57.387584686279297 0 -36.578353881835938
v 55.154537200927734 0 -36.578353881835938
v 55.154537200927734 0 -34.680763244628906
v 59.307846069335938 0 -34.680763244628906
v 59.307846069335938 0 -36.578353881835938
v 58.376571655273438 0 -36.578353881835938
v 58.376571655273438 0 -37.021675109863281
v 60.157447814941406 0 -37.021675109863281
v 60.157447814941406 0 -34.401634216308594
v 54.846187591552734 0 -34.401634216308594
v 54.846187591552734 0 -37.021675109863281
vt 0.77135008573532104 0.69848275184631348
vt 0.80082738399505615 0.69848275184631348
vt 0.80082738399505615 0.8778260350227356
vt 0.99019604921340942 0.8778260350227356
vt 0.99019604921340942 0.91724234819412231
vt 0.84692883491516113 0.91724234819412231
vt 0.84692883491516113 0.94900667667388916
vt 0.85059022903442383 0.94900667667388916
vt 0.85059022903442383 0.92571729421615601
vt 0.90203201770782471 0.92571729421615601
vt 0.90203201770782471 0.99019604921340942
vt 0.85059022903442383 0.99019604921340942
vt 0.85059022903442383 0.97383576631546021
vt 0.84692883491516113 0.97383576631546021
vt 0.84692883491516113 0.99019604921340942
vt 0.39729645848274231 0.99019604921340942
vt 0.39729645848274231 0.80336803197860718
vt 0.37501472234725952 0.80336803197860718
vt 0.37501472234725952 0.82167989015579224
vt 0.39261090755462646 0.82167989015579224
vt 0.39261090755462646 0.84946411848068237
vt 0.37772580981254578 0.84946411848068237
vt 0.37772580981254578 0.85586750507354736
vt 0.39261090755462646 0.85586750507354736
vt 0.39261090755462646 0.88395708799362183
vt 0.37772580981254578 0.88395708799362183
vt 0.37772580981254578 0.89036047458648682
vt 0.39261090755462646 0.89036047458648682
vt 0.39261090755462646 0.91672748327255249
vt 0.34494057297706604 0.91672748327255249
vt 0.34494057297706604 0.82167989015579224
vt 0.36262083053588867 0.82167989015579224
vt 0.36262083053588867 0.80336803197860718
vt 0.33944013714790344 0.80336803197860718
vt 0.33944013714790344 0.92740941047668457
vt 0.39261090755462646 0.92740941047668457
vt 0.39261090755462646 0.99019604921340942
vt 0.37111407518386841 0.99019604921340942
vt 0.37111407518386841 0.96581095457077026
vt 0.36654302477836609 0.96581095457077026
vt 0.36654302477836609 0.99019604921340942
vt 0.3246954083442688 0.99019604921340942
vt 0.3246954083442688 0.96264183521270752
vt 0.33988931775093079 0.96264183521270752
vt 0.33988931775093079 0.97380262613296509
vt 0.34561923146247864 0.97380262613296509
vt 0.34561923146247864 0.95272111892700195
vt 0.32012432813644409 0.95272111892700195
vt 0.32012432813644409 0.99019604921340942
vt 0.30184018611907959 0.99019604921340942
vt 0.30184018611907959 0.96581095457077026
vt 0.29726913571357727 0.96581095457077026
vt 0.29726913571357727 0.99019604921340942
vt 0.27624639868736267 0.99019604921340942
vt 0.27624639868736267 0.92740941047668457
vt 0.32454141974449158 0.92740941047668457
vt 0.32454141974449158 0.80398267507553101
vt 0.30561062693595886 0.80398267507553101
vt 0.30561062693595886 0.8240399956703186
vt 0.31952109932899475 0.8240399956703186
vt 0.31952109932899475 0.84898495674133301
vt 0.30927130579948425 0.84898495674133301
vt 0.30927130579948425 0.85637181997299194
vt 0.31952109932899475 0.85637181997299194
vt 0.31952109932899475 0.88479971885681152
vt 0.30927130579948425 0.88479971885681152
vt 0.30927130579948425 0.89129114151000977
vt 0.31952109932899475 0.89129114151000977
vt 0.31952109932899475 0.91770446300506592
vt 0.27624639868736267 0.91770446300506592
vt 0.27624639868736267 0.8240399956703186
vt 0.29353639483451843 0.8240399956703186
vt 0.29353639483451843 0.80398267507553101
vt 0.27075576782226562 0.80398267507553101
vt 0.27075576782226562 0.8416287899017334
vt 0.019585218280553818 0.8416287899017334
vt 0.019585218280553818 0.8044278621673584
vt 0.040282126516103745 0.8044278621673584
vt 0.040282126516103745 0.75649327039718628
vt 0.027132660150527954 0.75649327039718628
vt 0.027132660150527954 0.76515239477157593
vt 0.034791141748428345 0.76515239477157593
vt 0.034791141748428345 0.7908206582069397
vt 0.019585218280553818 0.7908206582069397
vt 0.019585218280553818 0.63298881053924561
vt 0.064265251159667969 0.63298881053924561
vt 0.064265251159667969 0.59587812423706055
vt 0.10255754739046097 0.59587812423706055
vt 0.10255754739046097 0.62989628314971924
vt 0.1103605180978775 0.62989628314971924
vt 0.1103605180978775 0.59587812423706055
vt 0.14850835502147675 0.59587812423706055
vt 0.14850835502147675 0.6311333179473877
vt 0.1552998274564743 0.6311333179473877
vt 0.1552998274564743 0.59587812423706055
vt 0.19447892904281616 0.59587812423706055
vt 0.19447892904281616 0.6909337043762207
vt 0.1552998274564743 0.6909337043762207
vt 0.1552998274564743 0.65695995092391968
vt 0.14850835502147675 0.65695995092391968
vt 0.14850835502147675 0.6909337043762207
vt 0.1103605180978775 0.6909337043762207
vt 0.1103605180978775 0.65695995092391968
vt 0.10285571217536926 0.65695995092391968
vt 0.10285571217536926 0.6909337043762207
vt 0.063991308212280273 0.6909337043762207
vt 0.063991308212280273 0.65695995092391968
vt 0.056693919003009796 0.65695995092391968
vt 0.056693919003009796 0.755451500415802
vt 0.051311273127794266 0.755451500415802
vt 0.051311273127794266 0.8044278621673584
vt 0.20697987079620361 0.8044278621673584
vt 0.20697987079620361 0.75327259302139282
vt 0.19447892904281616 0.75327259302139282
vt 0.19447892904281616 0.7908206582069397
vt 0.1552998274564743 0.7908206582069397
vt 0.1552998274564743 0.75747793912887573
vt 0.14850835502147675 0.75747793912887573
vt 0.14850835502147675 0.7908206582069397
vt 0.1103605180978775 0.7908206582069397
vt 0.1103605180978775 0.75747793912887573
vt 0.10285571217536926 0.75747793912887573
vt 0.10285571217536926 0.7908206582069397
vt 0.063991308212280273 0.7908206582069397
vt 0.063991308212280273 0.69656294584274292
vt 0.10285571217536926 0.69656294584274292
vt 0.10285571217536926 0.73053663969039917
vt 0.1103605180978775 0.73053663969039917
vt 0.1103605180978775 0.69656294584274292
vt 0.14850835502147675 0.69656294584274292
vt 0.14850835502147675 0.73053663969039917
vt 0.1552998274564743 0.73053663969039917
vt 0.1552998274564743 0.69656294584274292
vt 0.19447892904281616 0.69656294584274292
vt 0.19447892904281616 0.73038768768310547
vt 0.20155937969684601 0.73038768768310547
vt 0.20155937969684601 0.63018882274627686
vt 0.24115219712257385 0.63018882274627686
vt 0.24115219712257385 0.79112988710403442
vt 0.22540177404880524 0.79112988710403442
vt 0.22540177404880524 0.76378732919692993
vt 0.2314707487821579 0.76378732919692993
vt 0.2314707487821579 0.75327259302139282
vt 0.21947731077671051 0.75327259302139282
vt 0.21947731077671051 0.8044278621673584
vt 0.24736566841602325 0.8044278621673584
vt 0.24747355282306671 0.58100134134292603
vt 0.010781431570649147 0.58100134134292603
vt 0.0098039219155907631 0.15143845975399017
vt 0.092125818133354187 0.15143845975399017
vt 0.092125818133354187 0.1217777281999588
vt 0.017576612532138824 0.1217777281999588
vt 0.017576612532138824 0.027715602889657021
vt 0.067156016826629639 0.027715602889657021
vt 0.067156016826629639 0.093286409974098206
vt 0.092125818133354187 0.093286409974098206
vt 0.092125818133354187 0.0098039219155907631
vt 0.17147922515869141 0.0098039219155907631
vt 0.17147922515869141 0.12286627292633057
vt 0.24588920176029205 0.12286627292633057
vt 0.24588920176029205 0.10932451486587524
vt 0.17924110591411591 0.10932451486587524
vt 0.17924110591411591 0.02171161025762558
vt 0.19948834180831909 0.02171161025762558
vt 0.19948834180831909 0.055295102298259735
vt 0.21652999520301819 0.055295102298259735
vt 0.21652999520301819 0.020808840170502663
vt 0.23863354325294495 0.020808840170502663
vt 0.23863354325294495 0.08472578227519989
vt 0.24647945165634155 0.08472578227519989
vt 0.24647945165634155 0.0098039219155907631
vt 0.33374297618865967 0.0098039219155907631
vt 0.33374297618865967 0.12286627292633057
vt 0.44165909290313721 0.12286627292633057
vt 0.44165909290313721 0.10303127765655518
vt 0.34295037388801575 0.10303127765655518
vt 0.34295037388801575 0.025983255356550217
vt 0.42541071772575378 0.025983255356550217
vt 0.42541071772575378 0.080062240362167358
vt 0.44165909290313721 0.080062240362167358
vt 0.44165909290313721 0.0098039219155907631
vt 0.52874433994293213 0.0098039219155907631
vt 0.52874433994293213 0.14528870582580566
vt 0.60267430543899536 0.14528870582580566
vt 0.60267430543899536 0.12286627292633057
vt 0.53646224737167358 0.12286627292633057
vt 0.53646224737167358 0.023503290489315987
vt 0.59590417146682739 0.023503290489315987
vt 0.59590417146682739 0.056472372263669968
vt 0.58249926567077637 0.056472372263669968
vt 0.58249926567077637 0.093837358057498932
vt 0.60267430543899536 0.093837358057498932
vt 0.60267430543899536 0.0098039219155907631
vt 0.68774676322937012 0.0098039219155907631
vt 0.68774676322937012 0.12286627292633057
vt 0.69506657123565674 0.12286627292633057
vt 0.69506657123565674 0.023312598466873169
vt 0.80188167095184326 0.023312598466873169
vt 0.80188167095184326 0.10352388024330139
vt 0.72136366367340088 0.10352388024330139
vt 0.72136366367340088 0.049620434641838074
vt 0.7065885066986084 0.049620434641838074
vt 0.7065885066986084 0.12286627292633057
vt 0.81137031316757202 0.12286627292633057
vt 0.81137031316757202 0.18129757046699524
vt 0.78027594089508057 0.18129757046699524
vt 0.78027594089508057 0.3614051342010498
vt 0.7514268159866333 0.3614051342010498
vt 0.7514268159866333 0.20629577338695526
vt 0.76704752445220947 0.20629577338695526
vt 0.76704752445220947 0.18129757046699524
vt 0.74593842029571533 0.18129757046699524
vt 0.74593842029571533 0.37435600161552429
vt 0.78435701131820679 0.37435600161552429
vt 0.78435701131820679 0.27556788921356201
vt 0.80096286535263062 0.27556788921356201
vt 0.80096286535263062 0.55806314945220947
vt 0.79645484685897827 0.55806314945220947
vt 0.79645484685897827 0.58975720405578613
vt 0.80632752180099487 0.58975720405578613
vt 0.80632752180099487 0.66763389110565186
vt 0.7755812406539917 0.66763389110565186
vt 0.7755812406539917 0.58975720405578613
vt 0.78404355049133301 0.58975720405578613
vt 0.78404355049133301 0.55957239866256714
vt 0.77135008573532104 0.55957239866256714
vt 0.65054035186767578 0.7730136513710022
vt 0.65054035186767578 0.82488501071929932
vt 0.65763717889785767 0.82488501071929932
vt 0.65763717889785767 0.82250458002090454
vt 0.65392297506332397 0.82250458002090454
vt 0.65392297506332397 0.7810555100440979
vt 0.66624873876571655 0.7810555100440979
vt 0.66624873876571655 0.81867194175720215
vt 0.66797322034835815 0.81867194175720215
vt 0.66797322034835815 0.7810555100440979
vt 0.68396401405334473 0.7810555100440979
vt 0.68396401405334473 0.82250458002090454
vt 0.67783540487289429 0.82250458002090454
vt 0.67783540487289429 0.92741352319717407
vt 0.68701452016830444 0.92741352319717407
vt 0.68701452016830444 0.7730136513710022
vt 0.38759768009185791 0.47721609473228455
vt 0.38759768009185791 0.27568122744560242
vt 0.38146454095840454 0.27568122744560242
vt 0.38146454095840454 0.45679917931556702
vt 0.34485259652137756 0.45679917931556702
vt 0.34485259652137756 0.37776589393615723
vt 0.37033534049987793 0.37776589393615723
vt 0.37033534049987793 0.22617761790752411
vt 0.38146454095840454 0.22617761790752411
vt 0.38146454095840454 0.25077557563781738
vt 0.38759768009185791 0.25077557563781738
vt 0.38759768009185791 0.21454766392707825
vt 0.33374297618865967 0.21454766392707825
vt 0.33374297618865967 0.47721609473228455
vt 0.4233936071395874 0.7730136513710022
vt 0.41444090008735657 0.7730136513710022
vt 0.41444090008735657 0.92741352319717407
vt 0.45324194431304932 0.92741352319717407
vt 0.45324194431304932 0.92048531770706177
vt 0.4233936071395874 0.92048531770706177
vt 0.48751187324523926 0.7730136513710022
vt 0.48751187324523926 0.82488501071929932
vt 0.49460867047309875 0.82488501071929932
vt 0.49460867047309875 0.82250458002090454
vt 0.49089446663856506 0.82250458002090454
vt 0.49089446663856506 0.7810555100440979
vt 0.50641459226608276 0.7810555100440979
vt 0.50641459226608276 0.81867194175720215
vt 0.50813907384872437 0.81867194175720215
vt 0.50813907384872437 0.7810555100440979
vt 0.5237918496131897 0.7810555100440979
vt 0.5237918496131897 0.82250458002090454
vt 0.51868480443954468 0.82250458002090454
vt 0.51868480443954468 0.92741352319717407
vt 0.55748587846755981 0.92741352319717407
vt 0.55748587846755981 0.92048531770706177
vt 0.53014761209487915 0.92048531770706177
vt 0.53014761209487915 0.7730136513710022
vt 0.43480157852172852 0.7730136513710022
vt 0.43480157852172852 0.82488501071929932
vt 0.44189837574958801 0.82488501071929932
vt 0.44189837574958801 0.82250458002090454
vt 0.43818417191505432 0.82250458002090454
vt 0.43818417191505432 0.7810555100440979
vt 0.45370429754257202 0.7810555100440979
vt 0.45370429754257202 0.81867194175720215
vt 0.45542877912521362 0.81867194175720215
vt 0.45542877912521362 0.7810555100440979
vt 0.47108155488967896 0.7810555100440979
vt 0.47108155488967896 0.82250458002090454
vt 0.46597447991371155 0.82250458002090454
vt 0.46597447991371155 0.92741352319717407
vt 0.50477558374404907 0.92741352319717407
vt 0.50477558374404907 0.92048531770706177
vt 0.4774373471736908 0.92048531770706177
vt 0.4774373471736908 0.7730136513710022
vt 0.72679424285888672 0.45291191339492798
vt 0.74970799684524536 0.45291191339492798
vt 0.74970799684524536 0.47493445873260498
vt 0.75464290380477905 0.47493445873260498
vt 0.75464290380477905 0.44306886196136475
vt 0.72679424285888672 0.44306886196136475
vt 0.60267430543899536 0.44408586621284485
vt 0.65855890512466431 0.44408586621284485
vt 0.65855890512466431 0.24859511852264404
vt 0.65105414390563965 0.24859511852264404
vt 0.65105414390563965 0.26268631219863892
vt 0.65328127145767212 0.26268631219863892
vt 0.65328127145767212 0.30350938439369202
vt 0.63895100355148315 0.30350938439369202
vt 0.63895100355148315 0.26310080289840698
vt 0.64330810308456421 0.26310080289840698
vt 0.64330810308456421 0.24859511852264404
vt 0.63188296556472778 0.24859511852264404
vt 0.63188296556472778 0.31851294636726379
vt 0.65328127145767212 0.31851294636726379
vt 0.65328127145767212 0.42544037103652954
vt 0.62084561586380005 0.42544037103652954
vt 0.62084561586380005 0.22500450909137726
vt 0.65855890512466431 0.22500450909137726
vt 0.65855890512466431 0.21229840815067291
vt 0.60267430543899536 0.21229840815067291
vt 0.52921891212463379 0.32306346297264099
vt 0.52921891212463379 0.2340448796749115
vt 0.49177485704421997 0.2340448796749115
vt 0.49177485704421997 0.25056803226470947
vt 0.52323561906814575 0.25056803226470947
vt 0.52323561906814575 0.29786562919616699
vt 0.49389800429344177 0.29786562919616699
vt 0.49389800429344177 0.27370050549507141
vt 0.47623750567436218 0.27370050549507141
vt 0.47623750567436218 0.29786562919616699
vt 0.44718939065933228 0.29786562919616699
vt 0.44718939065933228 0.25056803226470947
vt 0.47922918200492859 0.25056803226470947
vt 0.47922918200492859 0.2340448796749115
vt 0.4419780969619751 0.2340448796749115
vt 0.4419780969619751 0.32306346297264099
vt 0.59559935331344604 0.7730136513710022
vt 0.59559935331344604 0.82488501071929932
vt 0.60269612073898315 0.82488501071929932
vt 0.60269612073898315 0.82250458002090454
vt 0.59898191690444946 0.82250458002090454
vt 0.59898191690444946 0.7810555100440979
vt 0.61450207233428955 0.7810555100440979
vt 0.61450207233428955 0.81867194175720215
vt 0.61622655391693115 0.81867194175720215
vt 0.61622655391693115 0.7810555100440979
vt 0.63187932968139648 0.7810555100440979
vt 0.63187932968139648 0.82250458002090454
vt 0.62677228450775146 0.82250458002090454
vt 0.62677228450775146 0.92741352319717407
vt 0.6655733585357666 0.92741352319717407
vt 0.6655733585357666 0.92048531770706177
vt 0.63823509216308594 0.92048531770706177
vt 0.63823509216308594 0.7730136513710022
vt 0.54155558347702026 0.7730136513710022
vt 0.54155558347702026 0.82488501071929932
vt 0.54865241050720215 0.82488501071929932
vt 0.54865241050720215 0.82250458002090454
vt 0.54493820667266846 0.82250458002090454
vt 0.54493820667266846 0.7810555100440979
vt 0.56045836210250854 0.7810555100440979
vt 0.56045836210250854 0.81867194175720215
vt 0.56218278408050537 0.81867194175720215
vt 0.56218278408050537 0.7810555100440979
vt 0.5778355598449707 0.7810555100440979
vt 0.5778355598449707 0.82250458002090454
vt 0.57272851467132568 0.82250458002090454
vt 0.57272851467132568 0.92741352319717407
vt 0.61152958869934082 0.92741352319717407
vt 0.61152958869934082 0.92048531770706177
vt 0.58419138193130493 0.92048531770706177
vt 0.58419138193130493 0.7730136513710022
vt 0.54178869724273682 0.61137068271636963
vt 0.57148349285125732 0.61137068271636963
vt 0.57148349285125732 0.59845185279846191
vt 0.54938280582427979 0.59845185279846191
vt 0.54938280582427979 0.54010862112045288
vt 0.56924426555633545 0.54010862112045288
vt 0.56924426555633545 0.56615471839904785
vt 0.58540594577789307 0.56615471839904785
vt 0.58540594577789307 0.54010862112045288
vt 0.6040990948677063 0.54010862112045288
vt 0.6040990948677063 0.56615471839904785
vt 0.61967664957046509 0.56615471839904785
vt 0.61967664957046509 0.54010862112045288
vt 0.63944071531295776 0.54010862112045288
vt 0.63944071531295776 0.59845185279846191
vt 0.58277726173400879 0.59845185279846191
vt 0.58277726173400879 0.61137068271636963
vt 0.64499026536941528 0.61137068271636963
vt 0.64499026536941528 0.52239733934402466
vt 0.54178869724273682 0.52239733934402466
vt 0.41289728879928589 0.64826071262359619
vt 0.41289728879928589 0.5825687050819397
vt 0.3715536892414093 0.5825687050819397
vt 0.3715536892414093 0.62915641069412231
vt 0.30875524878501892 0.62915641069412231
vt 0.30875524878501892 0.55810177326202393
vt 0.41289728879928589 0.55810177326202393
vt 0.41289728879928589 0.5343051552772522
vt 0.2970099151134491 0.5343051552772522
vt 0.2970099151134491 0.64826071262359619
vt 0.50889497995376587 0.62257653474807739
vt 0.50889497995376587 0.44630500674247742
vt 0.4678691029548645 0.44630500674247742
vt 0.4678691029548645 0.58539783954620361
vt 0.4826643168926239 0.58539783954620361
vt 0.4826643168926239 0.5156712532043457
vt 0.47371706366539001 0.5156712532043457
vt 0.47371706366539001 0.46405276656150818
vt 0.4939456582069397 0.46405276656150818
vt 0.4939456582069397 0.60975015163421631
vt 0.4678691029548645 0.60975015163421631
vt 0.4678691029548645 0.62257653474807739
vt 0.74189895391464233 0.67321568727493286
vt 0.74842619895935059 0.67321568727493286
vt 0.74842619895935059 0.75008177757263184
vt 0.71185821294784546 0.75008177757263184
vt 0.71185821294784546 0.67321568727493286
vt 0.7290763258934021 0.67321568727493286
vt 0.7290763258934021 0.65841937065124512
vt 0.71099436283111572 0.65841937065124512
vt 0.71099436283111572 0.61005902290344238
vt 0.7290763258934021 0.61005902290344238
vt 0.7290763258934021 0.60510486364364624
vt 0.71099436283111572 0.60510486364364624
vt 0.71099436283111572 0.51801550388336182
vt 0.7290763258934021 0.51801550388336182
vt 0.7290763258934021 0.51082873344421387
vt 0.71099436283111572 0.51082873344421387
vt 0.71099436283111572 0.45291191339492798
vt 0.71214866638183594 0.45291191339492798
vt 0.71214866638183594 0.44306886196136475
vt 0.70395970344543457 0.44306886196136475
vt 0.70395970344543457 0.80462735891342163
vt 0.75464290380477905 0.80462735891342163
vt 0.75464290380477905 0.50827765464782715
vt 0.74970799684524536 0.50827765464782715
vt 0.74970799684524536 0.51082873344421387
vt 0.74189895391464233 0.51082873344421387
vt 0.74189895391464233 0.51801550388336182
vt 0.75000429153442383 0.51801550388336182
vt 0.75000429153442383 0.60510486364364624
vt 0.74189895391464233 0.60510486364364624
vt 0.74189895391464233 0.61005902290344238
vt 0.75000429153442383 0.61005902290344238
vt 0.75000429153442383 0.65841937065124512
vt 0.74189895391464233 0.65841937065124512
vt 0.73828274011611938 0.94922757148742676
vt 0.73828274011611938 0.93352508544921875
vt 0.7013428807258606 0.93352508544921875
vt 0.7013428807258606 0.86631172895431519
vt 0.77004837989807129 0.86631172895431519
vt 0.77004837989807129 0.93352508544921875
vt 0.75464290380477905 0.93352508544921875
vt 0.75464290380477905 0.94922757148742676
vt 0.78410279750823975 0.94922757148742676
vt 0.78410279750823975 0.85642486810684204
vt 0.69624203443527222 0.85642486810684204
vt 0.69624203443527222 0.94922757148742676
vn 0 1 0
vn 0 1 0
vn 0 1 0
vn 0 1 0
vn 0 1 0
vn 0 1 0
vn 0 1 0
vn 0 1 0
vn 0 1 0
vn 0 1 0
vn 0 1 0
vn 0 1 0
vn 0 1 0
vn 0 1 0
vn 0 1 0
vn 0 1 0
vn 0 1 0
vn 0 1 0
vn 0 1 0
vn 0 1 0
vn 0 1 0
vn 0 1 0
vn 0 1 0
vn 0 1 0
vn 0 1 0
vn 0 1 0
vn 0 1 0
vn 0 1 0
vn 0 1 0
vn 0 1 0
vn 0 1 0
vn 0 1 0
vn 0 1 0
vn 0 1 0
vn 0 1 0
vn 0 1 0
vn 0 1 0
vn 0 1 0
vn 0 1 0
vn 0 1 0
vn 0 1 0
vn 0 1 0
vn 0 1 0
vn 0 1 0
vn 0 1 0
vn 0 1 0
vn 0 1 0
vn 0 1 0
vn 0 1 0
vn 0 1 0
vn 0 1 0
vn 0 1 0
vn 0 1 0
vn 0 1 0
vn 0 1 0
vn 0 1 0
vn 0 1 0
vn 0 1 0
vn 0 1 0
vn 0 1 0
vn 0 1 0
vn 0 1 0
vn 0 1 0
vn 0 1 0
vn 0 1 0
vn 0 1 0
vn 0 1 0
vn 0 1 0
vn 0 1 0
vn 0 1 0
vn 0 1 0
vn 0 1 0
vn 0 1 0
vn 0 1 0
vn 0 1 0
vn 0 1 0
vn 0 1 0
vn 0 1 0
vn 0 1 0
vn 0 1 0
vn 0 1 0
vn 0 1 0
vn 0 1 0
vn 0 1 0
vn 0 1 0
vn 0 1 0
vn 0 1 0
vn 0 1 0
vn 0 1 0
vn 0 1 0
vn 0 1 0
vn 0 1 0
vn 0 1 0
vn 0 1 0
vn 0 1 0
vn 0 1 0
vn 0 1 0
vn 0 1 0
vn 0 1 0
vn 0 1 0
vn 0 1 0
vn 0 1 0
vn 0 1 0
vn 0 1 0
vn 0 1 0
vn 0 1 0
vn 0 1 0
vn 0 1 0
vn 0 1 0
vn 0 1 0
vn 0 1 0
vn 0 1 0
vn 0 1 0
vn 0 1 0
vn 0 1 0
vn 0 1 0
vn 0 1 0
vn 0 1 0
vn 0 1 0
vn 0 1 0
vn 0 1 0
vn 0 1 0
vn 0 1 0
vn 0 1 0
vn 0 1 0
vn 0 1 0
vn 0 1 0
vn 0 1 0
vn 0 1 0
vn 0 1 0
vn 0 1 0
vn 0 1 0
vn 0 1 0
vn 0 1 0
vn 0 1 0
vn 0 1 0
vn 0 1 0
vn 0 1 0
vn 0 1 0
vn 0 1 0
vn 0 1 0
vn 0 1 0
vn 0 1 0
vn 0 1 0
vn 0 1 0
vn 0 1 0
vn 0 1 0
vn 0 1 0
vn 0 1 0
vn 0 1 0
vn 0 1 0
vn 0 1 0
vn 0 1 0
vn 0 1 0
vn 0 1 0
vn 0 1 0
vn 0 1 0
vn 0 1 0
vn 0 1 0
vn 0 1 0
vn 0 1 0
vn 0 1 0
vn 0 1 0
vn 0 1 0
vn 0 1 0
vn 0 1 0
vn 0 1 0
vn 0 1 0
vn 0 1 0
vn 0 1 0
vn 0 1 0
vn 0 1 0
vn 0 1 0
vn 0 1 0
vn 0 1 0
vn 0 1 0
vn 0 1 0
vn 0 1 0
vn 0 1 0
vn 0 1 0
vn 0 1 0
vn 0 1 0
vn 0 1 0
vn 0 1 0
vn 0 1 0
vn 0 1 0
vn 0 1 0
vn 0 1 0
vn 0 1 0
vn 0 1 0
vn 0 1 0
vn 0 1 0
vn 0 1 0
vn 0 1 0
vn 0 1 0
vn 0 1 0
vn 0 1 0
vn 0 1 0
vn 0 1 0
vn 0 1 0
vn 0 1 0
vn 0 1 0
vn 0 1 0
vn 0 1 0
vn 0 1 0
vn 0 1 0
vn 0 1 0
vn 0 1 0
vn 0 1 0
vn 0 1 0
vn 0 1 0
vn 0 1 0
vn 0 1 0
vn 0 1 0
vn 0 1 0
vn 0 1 0
vn 0 1 0
vn 0 1 0
vn 0 1 0
vn 0 1 0
vn 0 1 0
vn 0 1 0
vn 0 1 0
vn 0 1 0
vn 0 1 0
vn 0 1 0
vn 0 1 0
vn 0 1 0
vn 0 1 0
vn 0 1 0
vn 0 1 0
vn 0 1 0
vn 0 1 0
vn 0 1 0
vn 0 1 0
vn 0 1 0
vn 0 1 0
vn 0 1 0
vn 0 1 0
vn 0 1 0
vn 0 1 0
vn 0 1 0
vn 0 1 0
vn 0 1 0
vn 0 1 0
vn 0 1 0
vn 0 1 0
vn 0 1 0
vn 0 1 0
vn 0 1 0
vn 0 1 0
vn 0 1 0
vn 0 1 0
vn 0 1 0
vn 0 1 0
vn 0 1 0
vn 0 1 0
vn 0 1 0
vn 0 1 0
vn 0 1 0
vn 0 1 0
vn 0 1 0
vn 0 1 0
vn 0 1 0
vn 0 1 0
vn 0 1 0
vn 0 1 0
vn 0 1 0
vn 0 1 0
vn 0 1 0
vn 0 1 0
vn 0 1 0
vn 0 1 0
vn 0 1 0
vn 0 1 0
vn 0 1 0
vn 0 1 0
vn 0 1 0
vn 0 1 0
vn 0 1 0
vn 0 1 0
vn 0 1 0
vn 0 1 0
vn 0 1 0
vn 0 1 0
vn 0 1 0
vn 0 1 0
vn 0 1 0
vn 0 1 0
vn 0 1 0
vn 0 1 0
vn 0 1 0
vn 0 1 0
vn 0 1 0
vn 0 1 0
vn 0 1 0
vn 0 1 0
vn 0 1 0
vn 0 1 0
vn 0 1 0
vn 0 1 0
vn 0 1 0
vn 0 1 0
vn 0 1 0
vn 0 1 0
vn 0 1 0
vn 0 1 0
vn 0 1 0
vn 0 1 0
vn 0 1 0
vn 0 1 0
vn 0 1 0
vn 0 1 0
vn 0 1 0
vn 0 1 0
vn 0 1 0
vn 0 1 0
vn 0 1 0
vn 0 1 0
vn 0 1 0
vn 0 1 0
vn 0 1 0
vn 0 1 0
vn 0 1 0
vn 0 1 0
vn 0 1 0
vn 0 1 0
vn 0 1 0
vn 0 1 0
vn 0 1 0
vn 0 1 0
vn 0 1 0
vn 0 1 0
vn 0 1 0
vn 0 1 0
vn 0 1 0
vn 0 1 0
vn 0 1 0
vn 0 1 0
vn 0 1 0
vn 0 1 0
vn 0 1 0
vn 0 1 0
vn 0 1 0
vn 0 1 0
vn 0 1 0
vn 0 1 0
vn 0 1 0
vn 0 1 0
vn 0 1 0
vn 0 1 0
vn 0 1 0
vn 0 1 0
vn 0 1 0
vn 0 1 0
vn 0 1 0
vn 0 1 0
vn 0 1 0
vn 0 1 0
vn 0 1 0
vn 0 1 0
vn 0 1 0
vn 0 1 0
vn 0 1 0
vn 0 1 0
vn 0 1 0
vn 0 1 0
vn 0 1 0
vn 0 1 0
vn 0 1 0
vn 0 1 0
vn 0 1 0
vn 0 1 0
vn 0 1 0
vn 0 1 0
vn 0 1 0
vn 0 1 0
vn 0 1 0
vn 0 1 0
vn 0 1 0
vn 0 1 0
vn 0 1 0
vn 0 1 0
vn 0 1 0
vn 0 1 0
vn 0 1 0
vn 0 1 0
vn 0 1 0
vn 0 1 0
vn 0 1 0
vn 0 1 0
vn 0 1 0
vn 0 1 0
vn 0 1 0
vn 0 1 0
vn 0 1 0
vn 0 1 0
vn 0 1 0
vn 0 1 0
vn 0 1 0
vn 0 1 0
vn 0 1 0
vn 0 1 0
vn 0 1 0
vn 0 1 0
vn 0 1 0
vn 0 1 0
vn 0 1 0
vn 0 1 0
vn 0 1 0
vn 0 1 0
vn 0 1 0
vn 0 1 0
vn 0 1 0
vn 0 1 0
vn 0 1 0
vn 0 1 0
vn 0 1 0
vn 0 1 0
vn 0 1 0
vn 0 1 0
vn 0 1 0
vn 0 1 0
vn 0 1 0
vn 0 1 0
vn 0 1 0
vn 0 1 0
vn 0 1 0
vn 0 1 0
vn 0 1 0
vn 0 1 0
vn 0 1 0
vn 0 1 0
vn 0 1 0
vn 0 1 0
vn 0 1 0
vn 0 1 0
vn 0 1 0
vn 0 1 0
vn 0 1 0
vn 0 1 0
vn 0 1 0
vn 0 1 0
vn 0 1 0
vn 0 1 0
vn 0 1 0
vn 0 1 0
vn 0 1 0
vn 0 1 0
vn 0 1 0
vn 0 1 0
vn 0 1 0
vn 0 1 0
vn 0 1 0
vn 0 1 0
vn 0 1 0
vn 0 1 0
vn 0 1 0
vn 0 1 0
vn 0 1 0
vn 0 1 0
vn 0 1 0
vn 0 1 0
vn 0 1 0
f 152/152/152 153/153/153 154/154/154 155/155/155
f 155/155/155 156/156/156 151/151/151
f 150/150/150 151/151/151 159/159/159
f 156/156/156 159/159/159 151/151/151
f 152/152/152 155/155/155 151/151/151
f 149/149/149 150/150/150 148/148/148
f 88/88/88 89/89/89 86/86/86 87/87/87
f 256/256/256 150/150/150 255/255/255
f 156/156/156 157/157/157 158/158/158 159/159/159
f 165/165/165 162/162/162 163/163/163
f 169/169/169 162/162/162 165/165/165
f 169/169/169 165/165/165 166/166/166
f 163/163/163 164/164/164 165/165/165
f 104/104/104 89/89/89 90/90/90
f 92/92/92 93/93/93 90/90/90 91/91/91
f 95/95/95 96/96/96 94/94/94
f 159/159/159 255/255/255 150/150/150
f 96/96/96 97/97/97 99/99/99 94/94/94
f 150/150/150 256/256/256 148/148/148
f 94/94/94 99/99/99 100/100/100 93/93/93
f 136/136/136 137/137/137 138/138/138
f 103/103/103 90/90/90 93/93/93 100/100/100
f 107/107/107 108/108/108 86/86/86
f 85/85/85 86/86/86 108/108/108
f 86/86/86 89/89/89 104/104/104
f 104/104/104 90/90/90 103/103/103
f 104/104/104 105/105/105 106/106/106 107/107/107
f 102/102/102 103/103/103 100/100/100 101/101/101
f 86/86/86 104/104/104 107/107/107
f 122/122/122 127/127/127 128/128/128 121/121/121
f 128/128/128 129/129/129 130/130/130 131/131/131
f 125/125/125 126/126/126 127/127/127
f 124/124/124 125/125/125 127/127/127 122/122/122
f 85/85/85 108/108/108 80/80/80
f 97/97/97 98/98/98 99/99/99
f 133/133/133 135/135/135 132/132/132
f 131/131/131 132/132/132 117/117/117 118/118/118
f 135/135/135 114/114/114 117/117/117 132/132/132
f 135/135/135 133/133/133 134/134/134
f 113/113/113 114/114/114 135/135/135 136/136/136
f 136/136/136 144/144/144 113/113/113
f 136/136/136 143/143/143 144/144/144
f 121/121/121 128/128/128 131/131/131
f 168/168/168 166/166/166 167/167/167
f 166/166/166 168/168/168 169/169/169
f 172/172/172 170/170/170 171/171/171
f 161/161/161 169/169/169 170/170/170
f 173/173/173 170/170/170 172/172/172
f 160/160/160 161/161/161 173/173/173
f 170/170/170 173/173/173 161/161/161
f 255/255/255 160/160/160 173/173/173
f 250/250/250 252/252/252 245/245/245
f 250/250/250 251/251/251 252/252/252
f 250/250/250 245/245/245 249/249/249
f 255/255/255 173/173/173 254/254/254
f 176/176/176 177/177/177 178/178/178 179/179/179
f 255/255/255 159/159/159 160/160/160
f 179/179/179 175/175/175 176/176/176
f 254/254/254 173/173/173 174/174/174
f 182/182/182 183/183/183 180/180/180 181/181/181
f 183/183/183 338/338/338 174/174/174
f 180/180/180 183/183/183 175/175/175
f 179/179/179 180/180/180 175/175/175
f 339/339/339 254/254/254 174/174/174
f 244/244/244 253/253/253 339/339/339
f 254/254/254 339/339/339 253/253/253
f 253/253/253 244/244/244 245/245/245 252/252/252
f 336/336/336 337/337/337 333/333/333
f 332/332/332 333/333/333 337/337/337 328/328/328
f 338/338/338 339/339/339 174/174/174
f 335/335/335 336/336/336 333/333/333 334/334/334
f 256/256/256 405/405/405 148/148/148
f 404/404/404 405/405/405 256/256/256 243/243/243
f 246/246/246 247/247/247 248/248/248 249/249/249
f 246/246/246 249/249/249 245/245/245
f 146/146/146 147/147/147 406/406/406
f 147/147/147 405/405/405 406/406/406
f 73/73/73 406/406/406 58/58/58
f 401/401/401 402/402/402 399/399/399 400/400/400
f 148/148/148 405/405/405 147/147/147
f 340/340/340 325/325/325 408/408/408 409/409/409
f 340/340/340 243/243/243 244/244/244
f 415/415/415 412/412/412 414/414/414
f 414/414/414 412/412/412 413/413/413
f 404/404/404 243/243/243 409/409/409
f 402/402/402 403/403/403 399/399/399
f 409/409/409 410/410/410 404/404/404
f 397/397/397 398/398/398 417/417/417 418/418/418
f 398/398/398 403/403/403 410/410/410
f 399/399/399 403/403/403 398/398/398
f 417/417/417 410/410/410 411/411/411
f 404/404/404 410/410/410 403/403/403
f 263/263/263 418/418/418 407/407/407
f 398/398/398 410/410/410 417/417/417
f 397/397/397 258/258/258 406/406/406
f 417/417/417 411/411/411 416/416/416
f 409/409/409 243/243/243 340/340/340
f 339/339/339 340/340/340 244/244/244
f 143/143/143 136/136/136 138/138/138
f 162/162/162 169/169/169 161/161/161
f 418/418/418 298/298/298 397/397/397
f 80/80/80 108/108/108 79/79/79
f 84/84/84 80/80/80 81/81/81
f 110/110/110 108/108/108 109/109/109
f 108/108/108 110/110/110 79/79/79
f 82/82/82 83/83/83 81/81/81
f 83/83/83 84/84/84 81/81/81
f 78/78/78 79/79/79 110/110/110 111/111/111
f 124/124/124 122/122/122 123/123/123
f 76/76/76 77/77/77 78/78/78
f 85/85/85 80/80/80 84/84/84
f 119/119/119 120/120/120 118/118/118
f 121/121/121 118/118/118 120/120/120
f 114/114/114 115/115/115 116/116/116 117/117/117
f 138/138/138 139/139/139 143/143/143
f 118/118/118 121/121/121 131/131/131
f 142/142/142 140/140/140 141/141/141
f 112/112/112 113/113/113 144/144/144 145/145/145
f 140/140/140 142/142/142 139/139/139
f 139/139/139 142/142/142 143/143/143
f 73/73/73 58/58/58 59/59/59 72/72/72
f 406/406/406 73/73/73 74/74/74
f 74/74/74 146/146/146 406/406/406
f 406/406/406 57/57/57 58/58/58
f 78/78/78 111/111/111 76/76/76
f 75/75/75 76/76/76 111/111/111 112/112/112
f 146/146/146 75/75/75 145/145/145
f 146/146/146 74/74/74 75/75/75
f 75/75/75 112/112/112 145/145/145
f 72/72/72 62/62/62 71/71/71
f 55/55/55 48/48/48 52/52/52
f 52/52/52 48/48/48 51/51/51
f 52/52/52 53/53/53 54/54/54
f 55/55/55 52/52/52 54/54/54
f 71/71/71 62/62/62 63/63/63
f 71/71/71 63/63/63 66/66/66
f 59/59/59 60/60/60 61/61/61 62/62/62
f 66/66/66 70/70/70 71/71/71
f 65/65/65 66/66/66 63/63/63 64/64/64
f 70/70/70 66/66/66 67/67/67
f 68/68/68 69/69/69 67/67/67
f 69/69/69 70/70/70 67/67/67
f 55/55/55 56/56/56 48/48/48
f 49/49/49 50/50/50 51/51/51
f 56/56/56 35/35/35 47/47/47 48/48/48
f 49/49/49 51/51/51 48/48/48
f 59/59/59 62/62/62 72/72/72
f 34/34/34 35/35/35 56/56/56 57/57/57
f 258/258/258 33/33/33 34/34/34
f 258/258/258 18/18/18 33/33/33
f 18/18/18 19/19/19 32/32/32 33/33/33
f 282/282/282 257/257/257 281/281/281
f 258/258/258 34/34/34 406/406/406
f 262/262/262 257/257/257 282/282/282
f 258/258/258 397/397/397 257/257/257
f 18/18/18 258/258/258 17/17/17
f 57/57/57 406/406/406 34/34/34
f 22/22/22 31/31/31 32/32/32
f 22/22/22 32/32/32 19/19/19
f 21/21/21 22/22/22 19/19/19 20/20/20
f 30/30/30 31/31/31 23/23/23 26/26/26
f 22/22/22 23/23/23 31/31/31
f 288/288/288 286/286/286 287/287/287
f 298/298/298 281/281/281 397/397/397
f 298/298/298 263/263/263 264/264/264
f 289/289/289 290/290/290 291/291/291
f 283/283/283 288/288/288 289/289/289
f 288/288/288 283/283/283 284/284/284
f 283/283/283 289/289/289 293/293/293
f 286/286/286 288/288/288 284/284/284
f 291/291/291 293/293/293 289/289/289
f 265/265/265 297/297/297 264/264/264
f 293/293/293 291/291/291 292/292/292
f 261/261/261 283/283/283 293/293/293
f 297/297/297 298/298/298 264/264/264
f 261/261/261 282/282/282 283/283/283
f 267/267/267 268/268/268 266/266/266
f 286/286/286 284/284/284 285/285/285
f 257/257/257 397/397/397 281/281/281
f 45/45/45 43/43/43 44/44/44
f 27/27/27 30/30/30 26/26/26
f 26/26/26 23/23/23 24/24/24 25/25/25
f 40/40/40 47/47/47 36/36/36
f 36/36/36 47/47/47 35/35/35
f 46/46/46 42/42/42 45/45/45
f 43/43/43 45/45/45 42/42/42
f 41/41/41 42/42/42 46/46/46
f 40/40/40 36/36/36 39/39/39
f 37/37/37 38/38/38 39/39/39
f 46/46/46 40/40/40 41/41/41
f 46/46/46 47/47/47 40/40/40
f 16/16/16 17/17/17 258/258/258 259/259/259
f 27/27/27 28/28/28 29/29/29
f 37/37/37 39/39/39 36/36/36
f 16/16/16 259/259/259 260/260/260
f 261/261/261 293/293/293 294/294/294
f 262/262/262 282/282/282 261/261/261
f 16/16/16 260/260/260 294/294/294
f 261/261/261 294/294/294 260/260/260
f 16/16/16 294/294/294 295/295/295
f 29/29/29 30/30/30 27/27/27
f 298/298/298 418/418/418 263/263/263
f 337/337/337 338/338/338 327/327/327 328/328/328
f 190/190/190 187/187/187 188/188/188
f 190/190/190 186/186/186 187/187/187
f 188/188/188 189/189/189 190/190/190
f 191/191/191 186/186/186 190/190/190
f 332/332/332 328/328/328 329/329/329
f 183/183/183 327/327/327 338/338/338
f 324/324/324 325/325/325 326/326/326
f 326/326/326 183/183/183 324/324/324
f 183/183/183 326/326/326 327/327/327
f 183/183/183 174/174/174 175/175/175
f 329/329/329 330/330/330 331/331/331 332/332/332
f 186/186/186 191/191/191 185/185/185
f 191/191/191 192/192/192 185/185/185
f 185/185/185 195/195/195 184/184/184
f 195/195/195 323/323/323 184/184/184
f 184/184/184 323/323/323 324/324/324
f 321/321/321 322/322/322 315/315/315 316/316/316
f 323/323/323 212/212/212 322/322/322
f 321/321/321 316/316/316 317/317/317
f 192/192/192 195/195/195 185/185/185
f 183/183/183 184/184/184 324/324/324
f 314/314/314 315/315/315 309/309/309
f 322/322/322 307/307/307 308/308/308
f 311/311/311 314/314/314 309/309/309
f 315/315/315 308/308/308 309/309/309
f 308/308/308 315/315/315 322/322/322
f 314/314/314 312/312/312 313/313/313
f 322/322/322 212/212/212 307/307/307
f 196/196/196 197/197/197 202/202/202 203/203/203
f 309/309/309 310/310/310 311/311/311
f 407/407/407 408/408/408 396/396/396 377/377/377
f 396/396/396 305/305/305 395/395/395
f 325/325/325 305/305/305 408/408/408
f 396/396/396 408/408/408 305/305/305
f 383/383/383 381/381/381 382/382/382
f 380/380/380 381/381/381 383/383/383
f 415/415/415 416/416/416 411/411/411 412/412/412
f 383/383/383 384/384/384 392/392/392 379/379/379
f 380/380/380 383/383/383 379/379/379
f 392/392/392 393/393/393 378/378/378 379/379/379
f 325/325/325 324/324/324 305/305/305
f 319/319/319 320/320/320 317/317/317 318/318/318
f 306/306/306 307/307/307 212/212/212 213/213/213
f 321/321/321 317/317/317 320/320/320
f 306/306/306 395/395/395 305/305/305
f 391/391/391 392/392/392 387/387/387 388/388/388
f 386/386/386 387/387/387 384/384/384 385/385/385
f 389/389/389 390/390/390 388/388/388
f 390/390/390 391/391/391 388/388/388
f 384/384/384 387/387/387 392/392/392
f 312/312/312 314/314/314 311/311/311
f 198/198/198 201/201/201 197/197/197
f 194/194/194 195/195/195 192/192/192 193/193/193
f 323/323/323 195/195/195 196/196/196
f 197/197/197 201/201/201 202/202/202
f 203/203/203 211/211/211 212/212/212
f 323/323/323 196/196/196 212/212/212
f 203/203/203 212/212/212 196/196/196
f 210/210/210 208/208/208 209/209/209
f 213/213/213 304/304/304 437/437/437
f 437/437/437 438/438/438 213/213/213
f 304/304/304 299/299/299 436/436/436 437/437/437
f 200/200/200 201/201/201 198/198/198 199/199/199
f 204/204/204 206/206/206 211/211/211
f 211/211/211 206/206/206 210/210/210
f 204/204/204 205/205/205 206/206/206
f 204/204/204 211/211/211 203/203/203
f 306/306/306 213/213/213 438/438/438
f 304/304/304 213/213/213 303/303/303
f 213/213/213 214/214/214 303/303/303
f 206/206/206 207/207/207 210/210/210
f 215/215/215 216/216/216 214/214/214
f 214/214/214 216/216/216 217/217/217
f 207/207/207 208/208/208 210/210/210
f 217/217/217 303/303/303 214/214/214
f 435/435/435 436/436/436 434/434/434
f 436/436/436 299/299/299 433/433/433 434/434/434
f 299/299/299 301/301/301 433/433/433
f 433/433/433 301/301/301 444/444/444
f 444/444/444 445/445/445 432/432/432 433/433/433
f 431/431/431 432/432/432 429/429/429 430/430/430
f 448/448/448 445/445/445 446/446/446 447/447/447
f 429/429/429 448/448/448 449/449/449 428/428/428
f 428/428/428 425/425/425 426/426/426 427/427/427
f 299/299/299 300/300/300 301/301/301
f 395/395/395 438/438/438 394/394/394
f 444/444/444 301/301/301 442/442/442
f 442/442/442 301/301/301 302/302/302 441/441/441
f 444/444/444 442/442/442 443/443/443
f 217/217/217 218/218/218 441/441/441
f 218/218/218 225/225/225 441/441/441
f 225/225/225 226/226/226 441/441/441
f 217/217/217 441/441/441 302/302/302
f 441/441/441 226/226/226 1/1/1
f 448/448/448 429/429/429 432/432/432 445/445/445
f 224/224/224 225/225/225 218/218/218 219/219/219
f 223/223/223 224/224/224 222/222/222
f 224/224/224 219/219/219 222/222/222
f 220/220/220 221/221/221 219/219/219
f 302/302/302 303/303/303 217/217/217
f 306/306/306 438/438/438 395/395/395
f 270/270/270 268/268/268 269/269/269
f 280/280/280 407/407/407 359/359/359
f 360/360/360 280/280/280 359/359/359
f 359/359/359 407/407/407 377/377/377
f 271/271/271 272/272/272 273/273/273
f 270/270/270 265/265/265 266/266/266
f 266/266/266 268/268/268 270/270/270
f 270/270/270 271/271/271 265/265/265
f 366/366/366 364/364/364 365/365/365
f 271/271/271 273/273/273 275/275/275
f 366/366/366 362/362/362 364/364/364
f 377/377/377 378/378/378 376/376/376 359/359/359
f 263/263/263 407/407/407 280/280/280
f 376/376/376 378/378/378 393/393/393
f 341/341/341 376/376/376 393/393/393
f 358/358/358 341/341/341 393/393/393 394/394/394
f 227/227/227 228/228/228 358/358/358
f 227/227/227 358/358/358 394/394/394
f 369/369/369 371/371/371 367/367/367
f 376/376/376 341/341/341 342/342/342
f 347/347/347 348/348/348 346/346/346
f 369/369/369 367/367/367 368/368/368
f 349/349/349 350/350/350 351/351/351
f 344/344/344 346/346/346 348/348/348
f 353/353/353 349/349/349 351/351/351
f 367/367/367 361/361/361 366/366/366
f 349/349/349 343/343/343 348/348/348
f 265/265/265 275/275/275 296/296/296
f 271/271/271 275/275/275 265/265/265
f 273/273/273 274/274/274 275/275/275
f 364/364/364 362/362/362 363/363/363
f 361/361/361 362/362/362 366/366/366
f 361/361/361 367/367/367 371/371/371
f 279/279/279 280/280/280 360/360/360
f 295/295/295 296/296/296 276/276/276
f 276/276/276 296/296/296 275/275/275
f 276/276/276 277/277/277 16/16/16
f 278/278/278 279/279/279 360/360/360 361/361/361
f 278/278/278 372/372/372 277/277/277
f 278/278/278 361/361/361 371/371/371
f 277/277/277 372/372/372 16/16/16
f 265/265/265 296/296/296 297/297/297
f 376/376/376 342/342/342 375/375/375
f 353/353/353 343/343/343 349/349/349
f 358/358/358 228/228/228 357/357/357
f 352/352/352 353/353/353 351/351/351
f 343/343/343 344/344/344 348/348/348
f 344/344/344 345/345/345 346/346/346
f 374/374/374 375/375/375 342/342/342 343/343/343
f 372/372/372 278/278/278 371/371/371
f 343/343/343 353/353/353 374/374/374
f 228/228/228 229/229/229 356/356/356
f 354/354/354 374/374/374 353/353/353
f 464/464/464 373/373/373 354/354/354
f 354/354/354 373/373/373 374/374/374
f 464/464/464 372/372/372 373/373/373
f 370/370/370 371/371/371 369/369/369
f 16/16/16 372/372/372 464/464/464
f 394/394/394 438/438/438 242/242/242
f 234/234/234 232/232/232 233/233/233
f 242/242/242 439/439/439 463/463/463
f 242/242/242 438/438/438 439/439/439
f 235/235/235 236/236/236 237/237/237
f 229/229/229 230/230/230 234/234/234
f 234/234/234 230/230/230 231/231/231
f 235/235/235 229/229/229 234/234/234
f 237/237/237 238/238/238 239/239/239
f 237/237/237 239/239/239 235/235/235
f 242/242/242 463/463/463 241/241/241
f 229/229/229 235/235/235 239/239/239
f 394/394/394 242/242/242 227/227/227
f 239/239/239 356/356/356 229/229/229
f 449/449/449 452/452/452 425/425/425 428/428/428
f 452/452/452 449/449/449 450/450/450 451/451/451
f 452/452/452 419/419/419 424/424/424 425/425/425
f 1/1/1 440/440/440 441/441/441
f 222/222/222 219/219/219 221/221/221
f 421/421/421 422/422/422 424/424/424 419/419/419
f 419/419/419 420/420/420 421/421/421
f 424/424/424 422/422/422 423/423/423
f 1/1/1 2/2/2 440/440/440
f 440/440/440 2/2/2 462/462/462
f 440/440/440 463/463/463 439/439/439
f 355/355/355 356/356/356 240/240/240
f 240/240/240 356/356/356 239/239/239
f 464/464/464 355/355/355 240/240/240
f 456/456/456 457/457/457 454/454/454 455/455/455
f 440/440/440 462/462/462 463/463/463
f 356/356/356 357/357/357 228/228/228
f 464/464/464 240/240/240 241/241/241
f 463/463/463 464/464/464 241/241/241
f 457/457/457 458/458/458 459/459/459
f 15/15/15 453/453/453 460/460/460
f 459/459/459 460/460/460 453/453/453 454/454/454
f 459/459/459 454/454/454 457/457/457
f 15/15/15 464/464/464 453/453/453
f 354/354/354 355/355/355 464/464/464
f 3/3/3 4/4/4 5/5/5 6/6/6
f 2/2/2 3/3/3 462/462/462
f 6/6/6 461/461/461 3/3/3
f 8/8/8 9/9/9 10/10/10
f 14/14/14 461/461/461 7/7/7
f 6/6/6 7/7/7 461/461/461
f 461/461/461 14/14/14 15/15/15
f 13/13/13 14/14/14 7/7/7 8/8/8
f 460/460/460 461/461/461 15/15/15
f 11/11/11 13/13/13 8/8/8
f 13/13/13 11/11/11 12/12/12
f 11/11/11 8/8/8 10/10/10
f 3/3/3 461/461/461 462/462/462
f 464/464/464 15/15/15 16/16/16
f 231/231/231 232/232/232 234/234/234
f 276/276/276 16/16/16 295/295/295
